<?xml version="1.0" encoding="utf-8"?>
<!-- Generator: Adobe Illustrator 19.2.0, SVG Export Plug-In . SVG Version: 6.00 Build 0)  -->
<!DOCTYPE svg PUBLIC "-//W3C//DTD SVG 1.1//EN" "http://www.w3.org/Graphics/SVG/1.1/DTD/svg11.dtd">
<svg version="1.1" id="Layer_1" xmlns="http://www.w3.org/2000/svg" xmlns:xlink="http://www.w3.org/1999/xlink" x="0px" y="0px"
	 viewBox="0 0 134 134" style="enable-background:new 0 0 134 134;" xml:space="preserve">
<style type="text/css">
	.st0{fill:#D41A09;stroke:#900A08;stroke-width:4;stroke-miterlimit:10;}
	.st1{fill:#EA4C37;}
	.st2{fill:#6F0A07;}
	.st3{fill:#BF7F60;}
	.st4{fill:#BE0F06;}
	.st5{fill:#FFCDA0;}
	.st6{fill:#ECAC83;}
	.st7{fill:#470218;}
	.st8{fill:#FF9897;}
</style>
<path class="st0" d="M126.8,47.6c-7.4-29-31.2-36.1-59.2-36.1l0,0h-0.1h-0.1l0,0c-28,0-51.8,7.2-59.2,36.1
	c-7.4,29,5.2,81.7,57.1,81.7c0.7,0,1.5,0,2.2-0.1c0.7,0,1.4,0.1,2.2,0.1C121.7,129.2,134.3,76.6,126.8,47.6z"/>
<path class="st1" d="M74.6,34.3c11.2,0,20.9-0.6,21.1,6.5c0.2,7.2-4,15.2-19,16.3c-15,1-25.1-9.4-23.7-15.8S63.8,34.3,74.6,34.3z"/>
<path class="st1" d="M61,27.9c-1.2-0.9-8-5.8-6.3-8.2s15.1-5.1,16.8-1.6c1.7,3.6,0.5,9.4-1.1,10.1C68.8,28.9,62.8,29.3,61,27.9z"/>
<path class="st2" d="M66.5,28.9c0,0-4.2-10.3-3.6-14.8c0.6-4.5,0.3-9.7,4.5-9.4s1.4,7,1.6,11.3c0.2,4.4,1.4,12.3,1.4,12.3L66.5,28.9
	z"/>
<path class="st3" d="M64.7,6.8c0.5,1.4,3.8,1,4.2,0.1S69.1,5,67.1,5C65.7,5,64.5,6.1,64.7,6.8z"/>
<path class="st4" d="M90.4,23.8c0.9-2.6-6-3.2-10.1-0.6s-4.1,4.3-9.9,5.1C64.6,29,59,29.4,52.7,25.7s-7.1-0.2-3,1.7
	s12.9,3.4,21.7,2.2S89.5,26.2,90.4,23.8z"/>
<path class="st4" d="M69.7,127.9c-0.7,0-1.4,0-2.1-0.1h-0.1h-0.1c-0.7,0-1.4,0.1-2.1,0.1c-18.5,0-33.7-7-43.9-20.2
	C8.1,90.6,5.7,66.7,8.9,50.5c0.7,4.6,2,11.1,4.3,18.1c5.8,17.5,15.6,30,28.1,36.1c7.9,3.8,17.5,5.9,27.8,5.9l0,0
	c23.6,0,45.5-10.3,52.1-24.6c3.4-7.4,5.3-13.9,6.2-19.9c-0.4,13.8-4.4,29.3-13.8,41.5C103.4,121,88.2,127.9,69.7,127.9z"/>
<path class="st5" d="M-38,28.9v99c0,0-52,1.9-57.2-59.9S-38,28.9-38,28.9z"/>
<path class="st6" d="M-37.8,40.2c0,0,1,7.5-5.4,15.5c-5.8,7.2-11.1,17-6.1,29.4c3.8,9.4,11.5,11.6,11.5,11.6"/>
<path class="st7" d="M-42.6,77.2c-4.5,0-1.6-9.9,0-9.9C-41,67.3-37.4,77.2-42.6,77.2z"/>
<path class="st8" d="M78.5,40c2.8-0.6,5-0.2,4.8,1.2s-3,1.5-4.5,1.5S76.2,40.5,78.5,40z"/>
</svg>
