<?xml version="1.0" encoding="utf-8"?>
<!-- Generator: Adobe Illustrator 19.1.0, SVG Export Plug-In . SVG Version: 6.00 Build 0)  -->
<!DOCTYPE svg PUBLIC "-//W3C//DTD SVG 1.1//EN" "http://www.w3.org/Graphics/SVG/1.1/DTD/svg11.dtd">
<svg version="1.1" id="Layer_1" xmlns="http://www.w3.org/2000/svg" xmlns:xlink="http://www.w3.org/1999/xlink" x="0px" y="0px"
	 viewBox="0 0 100 100" style="enable-background:new 0 0 100 100;" xml:space="preserve">
<style type="text/css">
	.st0{fill:#FBB03B;}
</style>
<g>
	<path class="st0" d="M59.4,48.9c3.3,0.2,6.7,2,6.7,6.5c0,7.6-6.1,11.7-19.8,11.7c-7.5,0-9.7-2.2-9.7-5.5c0-1.3,0.1-3.1,0.5-5.2
		l1.7-9.4c0.4-2.3,0.9-5.8,1.1-6.6h-3.1c-0.7-0.7-1.1-2.1-1.1-3.3c0-4.2,2.8-5.8,16.1-5.8c10.6,0,14.8,2.9,14.8,9.5
		C66.6,45.6,63.4,48.3,59.4,48.9z M52,52.5l-1.7,0.1l-1.1,6.5c0.4,0,0.8,0.1,1.2,0.1c2.8,0,5-0.9,5-3.8C55.4,53.1,53.5,52.4,52,52.5
		z M53.9,40.7h-1.5l-1,5.7c0.4,0.1,0.8,0.1,1.1,0.1c2.5,0,4.3-0.9,4.3-3.5C56.8,41.2,55.3,40.7,53.9,40.7z"/>
</g>
</svg>
