<?xml version="1.0" encoding="utf-8"?>
<!-- Generator: Adobe Illustrator 19.2.0, SVG Export Plug-In . SVG Version: 6.00 Build 0)  -->
<!DOCTYPE svg PUBLIC "-//W3C//DTD SVG 1.1//EN" "http://www.w3.org/Graphics/SVG/1.1/DTD/svg11.dtd">
<svg version="1.1" id="Layer_1" xmlns="http://www.w3.org/2000/svg" xmlns:xlink="http://www.w3.org/1999/xlink" x="0px" y="0px"
	 viewBox="0 0 240 300" style="enable-background:new 0 0 240 300;" xml:space="preserve">
<style type="text/css">
	.st0{fill:#CC8405;stroke:#472C0C;stroke-width:3;stroke-miterlimit:10;}
	.st1{fill:#CC8405;}
	.st2{fill:#864E05;}
	.st3{fill:#F3BB16;}
	.st4{fill:#FAD324;}
	.st5{opacity:0.4;fill:#86AA05;}
</style>
<path class="st0" d="M141.2,33.1c-0.6-2.6,12-20,15.3-18.7c3.3,1.3-0.7,18.7,9.3,32.7s44,11.3,60.7,71.3s-20,166-137.3,168.7
	c-59.3,1.3-78.2-46.1-82-61.3c-0.7-2.7,8.7-11.3,11.3-11.3s56,17.3,97.3-18s34.7-68,27.3-84.7c-10.2-23.1,6.2-45.3,7.3-52.7
	C151.4,53.8,141.9,35.8,141.2,33.1z"/>
<path class="st1" d="M225.6,117.5c-16.7-60-50.7-57.3-60.7-71.3s-6-31.3-9.3-32.7c-3.3-1.3-16,16.1-15.3,18.7
	c1.2-2.2,8.2-1.7,8.2-1.7s5.5,24,14,32.5s22,12,27.5,40.5s-5,122.5-75,135.5s-95.5-18.5-96.5-20.5c-0.7-1.4-2.1-3.6-2.1-4.6
	c-3.6,1.7-10.7,8.6-10.1,11c3.8,15.2,22.7,62.7,82,61.3C205.6,283.5,242.2,177.5,225.6,117.5z"/>
<path class="st1" d="M17.6,213.5c0.2,0.1,0.6,0.1,1.3,0.2C18.2,213.5,17.8,213.5,17.6,213.5z"/>
<path class="st2" d="M16.3,213.8c0.5-0.2,0.9-0.4,1.3-0.4C16.7,213.1,16.3,213.3,16.3,213.8z"/>
<path class="st3" d="M152.9,50.8c1.3,6.7,25.1,2.4,46,39.3c14,24.7,30,123.3-46.7,158.7C72.3,285.6,7.2,233.2,15.9,222
	c1.5-1.9,3-5.5,3-5.5s56.7,13.4,85.3,10.3c43.3-4.7,69.3-96.8,59.3-125.5S152.4,48.1,152.9,50.8z"/>
<path class="st4" d="M82.9,240.1c-45.9,0-62.6-22.3-62.8-22.6c-0.2-0.3-0.4-0.7-0.6-1.2c-0.1-0.1-0.2-0.3-0.3-0.5l0.3,0.1
	c5,1.1,16.8,3.8,31.6,3.8c0,0,0,0,0,0c25.5,0,47.4-7.6,65-22.7c18.5-15.8,29.5-32.8,32.6-50.5c2.1-12.2,0.6-24.5-4.7-36.5
	c-7.3-16.7-0.3-32.7,4.4-43.2c1.5-3.5,2.8-6.2,3.1-8.3c0.6-4-3-12.5-7.1-21.6c-0.7-1.6-1.4-3.2-1.9-4.2c1-0.6,3-1.5,5.3-2.2
	c1.3,6.6,5.7,26.4,13.2,33.9c2,2,4.1,3.6,6.4,5.4c7.7,5.9,16.4,12.6,20.5,34.1c3.5,17.9,0.4,65.2-22.4,98.7
	c-12.9,19-30.1,30.5-51,34.4C103.5,239,92.8,240.1,82.9,240.1C82.9,240.1,82.9,240.1,82.9,240.1z"/>
<path class="st5" d="M141.2,33.1c0,0,8.9,14.2,10.3,23.7c1.9,12.5,22,6,14.3-7.7c-8.7-15.6-5.5-37.7-11-36.2S142.6,27.3,141.2,33.1z
	"/>
<path class="st2" d="M140.1,31.1c0.5,4.3,9.7,0,12.3-5s7-14,2.5-13.2S139.9,29.6,140.1,31.1z"/>
<path class="st2" d="M17.6,213.5c-2.3-1.4-12.5,9.2-11.3,11.3c1.2,2.2,6.2,0.2,9.7-2.8S19.2,214.5,17.6,213.5z"/>
<g>
	<circle class="st2" cx="185.4" cy="201.6" r="2.7"/>
	<circle class="st2" cx="186.9" cy="193.9" r="1.8"/>
	<circle class="st2" cx="193.1" cy="196" r="2.1"/>
</g>
<circle class="st2" cx="45.6" cy="237.8" r="1"/>
<circle class="st2" cx="45.6" cy="252" r="1.7"/>
<circle class="st2" cx="41.6" cy="245.1" r="1"/>
<circle class="st2" cx="204.7" cy="88.3" r="1.2"/>
<circle class="st2" cx="198.7" cy="94" r="1.2"/>
<circle class="st2" cx="199.1" cy="83.3" r="2.1"/>
</svg>
