<?xml version="1.0" encoding="utf-8"?>
<!-- Generator: Adobe Illustrator 19.1.0, SVG Export Plug-In . SVG Version: 6.00 Build 0)  -->
<!DOCTYPE svg PUBLIC "-//W3C//DTD SVG 1.1//EN" "http://www.w3.org/Graphics/SVG/1.1/DTD/svg11.dtd">
<svg version="1.1" id="Layer_1" xmlns="http://www.w3.org/2000/svg" xmlns:xlink="http://www.w3.org/1999/xlink" x="0px" y="0px"
	 viewBox="0 0 400 810" style="enable-background:new 0 0 400 810;" xml:space="preserve">
<style type="text/css">
	.st0{opacity:0.4;fill:#BAE1EE;enable-background:new    ;}
	.st1{fill:#333333;}
	.st2{fill:#1A1A1A;}
	.st3{fill:#E9E9E9;}
	.st4{fill:#F6F6F6;}
	.st5{fill:#E6E6E6;}
	.st6{fill:#4D4D4D;}
	.st7{fill:#D5D5D5;}
	.st8{fill:#323232;}
	.st9{opacity:0.4;fill:url(#SVGID_1_);enable-background:new    ;}
	.st10{opacity:0.3;fill:#C9E9FF;enable-background:new    ;}
	.st11{fill:#FFFFFF;}
	.st12{opacity:0.5;fill:#FFFFFF;enable-background:new    ;}
	.st13{opacity:0.5;fill:url(#SVGID_2_);enable-background:new    ;}
	.st14{fill:url(#SVGID_3_);}
	.st15{fill:url(#SVGID_4_);}
</style>
<g>
	<path class="st0" d="M358.5,513.5c-2-19.5-13.5-39-30.5-41.5s-17-2.5-17-2.5h-2.1c-2.9-5.4-8.8-8.6-16.1-9.5c0-1.7-0.1-3.5-0.3-5.5
		c-1.5-13-4.5-44-7-50s-10-11.5-10-11.5L319,46.5c0,0,7.4-3.9,14.4-20.2c2.5-5.3,3.3-17.3,3.2-18.5c-0.2-1.6-1.7-2.7-3.3-2.5
		c-4.4,0.6-13.9,2-15.2,3c-2.5,2,0.5,18.7-6,17.2S305,3,302.5,3c-0.6,0-3.7,0.1-8.9,0.4c-5.9,0.1-16.8,0.6-34,1.7
		c-18,0.9-40.2,2.1-63.6,3.4C140.5,11.5,73.5,25,71.5,26s-3,4-1.5,6s6,5.5,7.5,10.5c0.9,2.9,16.8,118.8,30.2,216.7
		c-6.3,1.5-23.7,3.2-28.9-1.7c-2.6-3.6-9.8-26-16.8-63.3c-7.4-38.9-8.3-59.9-7.2-64.7c4.5-4.4,20.4-8.9,33.3-10.5l-1-7.9l1.2,7.9
		L86,103.1c-5.7,0.7-34.7,5-44.2,16.9c-2.2,2.8-8.1,10.1,4.1,75.5c3.6,19.1,12.9,64.6,21.5,73.2c6.4,6.4,16.2,8.1,24.6,8.1
		s16.3-1.7,17.8-2l-0.3-2.2C118.5,339,126,394,126,394s-7.5,4-10.5,10.5s-8,44.5-8,50c0,1.6-0.3,3.5-0.4,5.7
		c-6.8,1.1-12.2,4.2-15,9.3h-2.6c0,0,0,0-17,2.5S44,494,42,513.5S31,665,31.5,671s7,22.5,7,22.5s0.6,0,1.7,0c-1.2,0-1.9,0-1.9,0
		s3,71,5,82s9,7,9,9s0,11.3,0,14s5,7,18,7s25-3,25-6c0-1.4,0-6,0-6s70.8,3.9,97.8,4c0.4,0,0.8,0,1.2,0l0,0H206c0.4,0,0.8,0,1.2,0
		c27-0.1,97.8-4,97.8-4s0,4.6,0,6c0,3,12,6,25,6s18-4.3,18-7s0-12,0-14s7,2,9-9s5-82,5-82s6.5-16.5,7-22.5S360.5,533,358.5,513.5z
		 M192.3,695.5c2.3,0,4.6,0,6.7,0l0,0C197.1,695.5,194.9,695.5,192.3,695.5z"/>
	<path class="st1" d="M194.3,797.5c-26,0-99-4-99-4s0,4.6,0,6c0,3-12,6-25,6s-18-4.3-18-7s0-12,0-14s-7,2-9-9s-5-82-5-82
		s130,2,160.7,2s163-2,163-2s-3,71-5,82s-9,7-9,9s0,11.3,0,14s-5,7-18,7s-25-3-25-6c0-1.4,0-6,0-6s-73,4-99,4H194.3z"/>
	<path class="st2" d="M330,800.5c-9.6,0-17.2-1.7-20-2.9v-4.4l-5.3,0.3c-0.7,0-73.2,4-98.7,4h-11.7c-25.6,0-98-4-98.7-4l-5.3-0.3
		v4.4c-2.8,1.2-10.4,2.9-20,2.9c-8.2,0-11.9-1.9-13-2.8v-13.2c0-0.9,20.3-0.9,32.3-0.9c4.7,0,8.5-3.8,8.5-8.5v-26.5
		c0,0,74,1.9,100.8,1.9c26.9,0,105-1.9,105-1.9V775c0,4.7,3.8,8.5,8.5,8.5c11.5,0,30.5,0.1,30.5,0.9v13.2
		C341.9,798.6,338.2,800.5,330,800.5z"/>
	<path class="st3" d="M358.5,513.5c-2-19.5-13.5-39-30.5-41.5s-17-2.5-17-2.5H201.5H199H89.5c0,0,0,0-17,2.5S44,494,42,513.5
		S31,665,31.5,671s7,22.5,7,22.5s112.4,1.9,160.5,2l0,0c0.4,0,0.8,0,1.3,0c0.4,0,0.8,0,1.3,0l0,0c48-0.1,160.5-2,160.5-2
		s6.5-16.5,7-22.5S360.5,533,358.5,513.5z"/>
	<path class="st4" d="M48.5,660.5c-7.5-8.5-4-41-1-72.5S53,518,60,513s140.5-8.5,140.5-8.5c34.5,0,134,3.5,141,8.5s9.5,43.5,12.5,75
		s6.5,64-1,72.5s-93,12-152.5,12C200.5,672.5,56,669,48.5,660.5z"/>
	<path class="st5" d="M49.5,617.3c3-31.1,5.4-95.7,12.3-100.7s138.7-8.4,138.7-8.4c34,0,132.3,3.5,139.2,8.4
		c6.9,4.9,9.4,69.6,12.3,100.7"/>
	<g>
		<g>
			<path class="st2" d="M334.2,575.5c0,5.5-4.5,10-10,10h-26c-5.5,0-10-4.5-10-10v-37c0-5.5,4.5-10,10-10h26c5.5,0,10,4.5,10,10
				V575.5z"/>
		</g>
		<path class="st1" d="M323.9,578.5h-25.4c-2.1,0-3.8-1.7-3.8-3.8v-35.4c0-2.1,1.7-3.8,3.8-3.8h25.4c2.1,0,3.8,1.7,3.8,3.8v35.4
			C327.7,576.8,326,578.5,323.9,578.5z"/>
		<path class="st6" d="M323.8,567h-25.4c-2.1,0-3.8,1.7-3.8,3.8v3.4c0,2.1,1.7,3.8,3.8,3.8h25.4c2.1,0,3.8-1.7,3.8-3.8v-3.4
			C327.7,568.7,326,567,323.8,567z"/>
		<g>
			<path class="st2" d="M115.2,575.5c0,5.5-4.5,10-10,10h-26c-5.5,0-10-4.5-10-10v-37c0-5.5,4.5-10,10-10h26c5.5,0,10,4.5,10,10
				V575.5z"/>
		</g>
		<path class="st1" d="M104.9,578.5H79.5c-2.1,0-3.8-1.7-3.8-3.8v-35.4c0-2.1,1.7-3.8,3.8-3.8h25.4c2.1,0,3.8,1.7,3.8,3.8v35.4
			C108.7,576.8,107,578.5,104.9,578.5z"/>
		<path class="st6" d="M104.8,567H79.5c-2.1,0-3.8,1.7-3.8,3.8v3.4c0,2.1,1.7,3.8,3.8,3.8h25.4c2.1,0,3.8-1.7,3.8-3.8v-3.4
			C108.7,568.7,107,567,104.8,567z"/>
	</g>
	<path class="st7" d="M351.9,616.5c-2.9-31.4-5.4-95-12.3-99.9c-6.9-4.9-105.1-8.4-139.2-8.4c0,0-131.8,3.5-138.7,8.4
		c-6.9,4.9-9.4,69.6-12.3,100.7h0.2v1.2H352L351.9,616.5L351.9,616.5z M65.2,522.4c6.7-4.8,135.3-8.2,135.3-8.2
		c33.2,0,129,3.4,135.8,8.2c6.4,4.6,8.9,62.5,11.7,94.1H53.6C56.3,584.9,58.8,527,65.2,522.4z"/>
	<g>
		<g>
			<path class="st2" d="M178.2,582.3c0,0-0.4-0.4-1.1-1.2c-0.4-0.4-0.9-0.9-1.3-1.5c-0.5-0.6-1-1.4-1.6-2.2
				c-0.5-0.9-1.1-1.8-1.7-2.9c-0.3-0.6-0.5-1.1-0.8-1.7c-0.1-0.3-0.3-0.6-0.4-0.9c-0.1-0.3-0.2-0.7-0.4-1c-1.1-2.6-1.8-5.8-2-9.3
				s0.1-7.4,1.3-11.2c1.2-3.9,3.2-7.7,6-11.2c2.8-3.4,6.5-6.4,10.7-8.4s9-3.2,13.7-3.2c4.8-0.1,9.6,0.9,13.9,2.9
				c4.3,2,8.1,4.9,11.1,8.3c3,3.4,5.2,7.4,6.5,11.3c1.3,4,1.8,8,1.6,11.6c-0.1,3.7-0.8,7-1.8,9.8c-0.1,0.4-0.2,0.7-0.4,1
				c-0.1,0.3-0.3,0.7-0.4,1c-0.3,0.6-0.6,1.3-0.8,1.8c-0.6,1.1-1.2,2.2-1.8,3.1c-0.6,0.9-1.2,1.7-1.7,2.3c-0.5,0.7-1,1.2-1.4,1.6
				c-0.8,0.9-1.2,1.3-1.2,1.3l-2.8-2.8c0,0,0.4-0.4,1.1-1.1c0.3-0.4,0.8-0.8,1.2-1.4c0.4-0.6,1-1.3,1.5-2c0.5-0.8,1.1-1.7,1.6-2.7
				c0.2-0.5,0.5-1.1,0.8-1.6c0.1-0.3,0.3-0.6,0.4-0.9c0.1-0.3,0.2-0.6,0.3-0.9c1-2.5,1.7-5.4,1.9-8.7s-0.1-6.9-1.2-10.5
				c-1.1-3.6-3-7.3-5.6-10.4c-2.7-3.3-6.1-6-10-7.9s-8.4-3-12.9-3.1s-9,0.9-13.1,2.7c-4,1.8-7.6,4.6-10.4,7.8
				c-2.8,3.2-4.9,6.9-6.1,10.6c-1.2,3.7-1.7,7.5-1.5,10.9c0.1,3.4,0.7,6.6,1.7,9.2c0.1,0.3,0.2,0.7,0.3,1s0.3,0.6,0.4,0.9
				c0.3,0.6,0.5,1.2,0.8,1.7c0.6,1.1,1.1,2,1.6,2.9c0.6,0.8,1.1,1.6,1.6,2.2c0.4,0.6,0.9,1.1,1.3,1.5
				C177.8,581.8,178.2,582.3,178.2,582.3z"/>
		</g>
		<circle class="st2" cx="200.5" cy="560" r="27.5"/>
		<path class="st6" d="M182.5,577.5c0.6,0.6,1.3,1.2,1.9,1.7l40.6-23.4c-0.4-2.7-1.3-5.4-2.7-7.9l-46.3,5.3
			C173.7,561.6,175.9,571,182.5,577.5z"/>
		<g>
			<g>
				<path d="M173.4,589v-4.3l-1.2,1.1v-1.4l1.2-1.1h1.3v5.7H173.4z"/>
			</g>
			<g>
				<path d="M162.5,571.7v-1.2l2.1-2.2c0.2-0.2,0.3-0.4,0.3-0.6c0-0.3-0.2-0.5-0.5-0.5c-0.2,0-0.5,0.1-0.5,0.6h-1.3
					c0-1.1,0.8-1.7,1.8-1.7c1.1,0,1.8,0.6,1.8,1.7c0,0.6-0.2,0.9-0.7,1.4l-1.4,1.4h2.1v1.2h-3.7V571.7z"/>
			</g>
			<g>
				<path d="M164.7,552.7c-0.9,0-1.9-0.5-1.9-1.8h1.3c0,0.4,0.3,0.6,0.6,0.6s0.6-0.2,0.6-0.6c0-0.3-0.3-0.6-0.6-0.6h-0.2v-1.1h0.2
					c0.4,0,0.5-0.3,0.5-0.5c0-0.4-0.2-0.5-0.5-0.5s-0.5,0.2-0.5,0.5h-1.3c0-1.1,0.8-1.7,1.8-1.7c1.1,0,1.8,0.7,1.8,1.7
					c0,0.6-0.3,0.9-0.6,1.1c0.3,0.2,0.7,0.6,0.7,1.2C166.6,552.2,165.7,552.7,164.7,552.7z"/>
			</g>
			<g>
				<path d="M175.6,535.2v0.8h-1.2v-0.8H172V534l1.9-3.7h1.4l-1.9,3.7h0.9v-0.8h1.2v0.8h0.4v1.2H175.6z"/>
			</g>
			<g>
				<path d="M191.3,526.2c-0.2,0.2-0.7,0.5-1.3,0.5s-1.1-0.2-1.4-0.5c-0.4-0.4-0.5-0.9-0.5-1.3h1.3c0,0.4,0.2,0.6,0.5,0.6
					c0.2,0,0.3,0,0.4-0.1c0.1-0.1,0.2-0.3,0.2-0.7c0-0.6-0.2-0.8-0.5-0.8c-0.4,0-0.5,0.3-0.5,0.4h-1.2V521h3.5v1.2h-2.3v0.9
					c0.1-0.1,0.4-0.2,0.8-0.2c0.5,0,0.9,0.2,1.1,0.4c0.5,0.5,0.5,1,0.5,1.5C191.9,525.4,191.8,525.8,191.3,526.2z"/>
			</g>
			<g>
				<path d="M211,526.7c-1,0-1.9-0.6-1.9-1.8c0-0.6,0.3-1.1,0.5-1.7l1.1-2.3h1.4l-1.1,2.2c0.1,0,0.2,0,0.3,0c0.7,0,1.5,0.6,1.5,1.7
					C212.9,526.1,212,526.7,211,526.7z M211,524.2c-0.3,0-0.6,0.2-0.6,0.6s0.3,0.6,0.6,0.6s0.6-0.2,0.6-0.6S211.3,524.2,211,524.2z"
					/>
			</g>
			<g>
				<path d="M228.5,536h-1.4l1.8-4.5h-1.2v0.9h-1.2v-2.1h3.9v1.2L228.5,536z"/>
			</g>
			<g>
				<path d="M238,553c-1,0-1.9-0.6-1.9-1.8c0-0.7,0.4-1,0.6-1.2c-0.2-0.2-0.6-0.5-0.6-1.1c0-1.1,0.9-1.7,1.9-1.7s1.9,0.6,1.9,1.7
					c0,0.6-0.4,1-0.6,1.1c0.2,0.2,0.6,0.5,0.6,1.2C239.9,552.5,239,553,238,553z M238,550.7c-0.3,0-0.6,0.3-0.6,0.6s0.3,0.6,0.6,0.6
					s0.6-0.3,0.6-0.6C238.6,550.9,238.3,550.7,238,550.7z M238,548.4c-0.3,0-0.5,0.2-0.5,0.5s0.2,0.5,0.5,0.5s0.5-0.2,0.5-0.5
					S238.3,548.4,238,548.4z"/>
			</g>
			<g>
				<path d="M239.4,570.1l-1.1,2.3h-1.4l1.1-2.2c-0.1,0-0.2,0-0.3,0c-0.7,0-1.5-0.6-1.5-1.7c0-1.2,0.9-1.8,1.9-1.8s1.9,0.6,1.9,1.8
					C239.9,569,239.6,569.5,239.4,570.1z M238,567.8c-0.3,0-0.6,0.2-0.6,0.6s0.3,0.6,0.6,0.6s0.6-0.2,0.6-0.6S238.3,567.8,238,567.8
					z"/>
			</g>
			<g>
				<path d="M228.5,588.7v-4.3l-1.2,1.1V584l1.2-1.1h1.3v5.7L228.5,588.7L228.5,588.7z"/>
				<path d="M233.2,588.7c-0.9,0-1.8-0.6-1.8-1.8v-2.2c0-1.2,0.9-1.8,1.8-1.8s1.8,0.6,1.8,1.8v2.2
					C235.1,588.1,234.2,588.7,233.2,588.7z M233.7,584.7c0-0.4-0.2-0.6-0.5-0.6s-0.5,0.2-0.5,0.6v2.2c0,0.4,0.2,0.6,0.5,0.6
					s0.5-0.2,0.5-0.6V584.7z"/>
			</g>
		</g>
	</g>
	<path id="XMLID_1815_" class="st6" d="M99.8,651c-2.2,0-4.4-0.8-6-2.2l-0.1-0.1l-0.1-0.1c-0.5-0.4-3-2.8-4.2-6.3
		c-1.3-3.7-3.6-5.7-3.6-5.7l-0.3-0.3c-1.2-0.9-2.5-1.4-4-1.4c-1.7,0-3.3,0.7-4.6,2c-1.3,1.3-2,3.1-2,4.9s0.7,3.6,2,4.9
		c1.2,1.3,2.9,2,4.6,2c1.5,0,2.9-0.5,4-1.4l0.2-0.2c0.5-0.5,1.4-0.5,1.9,0s0.5,1.2,0,1.7l-0.3,0.2c-1.6,1.3-3.7,2.1-5.9,2.1
		c-2.5,0-4.9-1-6.6-2.8c-1.7-1.7-2.6-4-2.6-6.5c0-2.4,0.9-4.7,2.6-6.5c1.8-1.8,4.1-2.8,6.6-2.8c2.1,0,4.2,0.7,5.9,2.1l0.3,0.3
		c0.1,0.1,2.9,2.4,4.4,6.7c1.1,3.2,3.5,5.3,3.5,5.3l0.1,0.1l0.1,0.1c1.2,1,2.6,1.5,4.1,1.5c1.7,0,3.3-0.7,4.6-2c1.3-1.3,2-3.1,2-4.9
		s-0.7-3.6-2-4.9c-1.2-1.3-2.9-2-4.6-2c-1.4,0-2.7,0.5-3.9,1.3l-0.4,0.4c-0.5,0.5-1.4,0.5-1.9,0s-0.5-1.2,0-1.7l0.5-0.4
		c1.6-1.3,3.6-1.9,5.7-1.9c2.5,0,4.9,1,6.6,2.8c1.7,1.7,2.6,4,2.6,6.5c0,2.4-0.9,4.7-2.6,6.5C104.7,650,102.3,651,99.8,651z"/>
	<path class="st8" d="M287.7,459.7c0,0-1.3-41.3-8-50.7c-8.2-11.4-151.9-10.2-159.3,0c-7.3,10-7,50.7-7,50.7
		c-13.3,0-23.3,6-23.3,18.7s6,16,22,16c14.1,0,162.9,0,177,0c16,0,22-3.3,22-16C311,465.7,301,459.7,287.7,459.7z"/>
	<path class="st2" d="M90,476.3c0,12.7,6,18,22,18c14.1,0,162.9,0,177,0c16,0,22-5.3,22-18c0,0-8,4-23.3,4s-159.3,0-173.3,0
		S90,476.3,90,476.3z"/>
	
		<linearGradient id="SVGID_1_" gradientUnits="userSpaceOnUse" x1="69.2778" y1="571.5555" x2="337.2301" y2="571.5555" gradientTransform="matrix(1 0 0 -1 0 810)">
		<stop  offset="0" style="stop-color:#FFFFFF"/>
		<stop  offset="1" style="stop-color:#C9E9FF;stop-opacity:0"/>
	</linearGradient>
	<path class="st9" d="M200,473c0,0,72,0,81,0s13-5.5,11.5-18.5s-4.5-44-7-50s-10-11.5-10-11.5L319,46.5c0,0,7.5-3,14.5-19.5
		s2-22,2-22s-15,1.3-17.5,3.3s0.5,18.7-6,17.2S305,3,302.5,3s-51,2.5-106.5,5.5S73.5,25,71.5,26s-3,4-1.5,6s6,5.5,7.5,10.5
		S126,394,126,394s-7.5,4-10.5,10.5s-8,44.5-8,50S104,471,116,473S200,473,200,473z"/>
	<path class="st10" d="M289.2,444.5c-0.4-14.4-5.3-31.5-6.3-34.9c-0.7-3.3-5.4-8.7-9.6-10.1c-2.9-1-37.8-3.5-72.8-3.5
		c-35.4,0-71,2.5-74,3.5c-3.7,1.2-7.8,5.6-9.2,8.9c-0.1,0.2-0.2,0.4-0.3,0.6c0,0-6,19.5-6.5,35.5s-1,21,5,22s3.5,0.5,5-32.5
		c0.8-18.5,2.5-21.8,6.5-21.8c1.3,0,2.9-0.1,4.4-0.3c0.1,0,0.2,0,0.3,0c14.8-0.6,39.8-1.9,68.2-1.9c28.3,0,53.3,1.3,68.1,1.9
		c0.1,0,0.2,0,0.3,0c1.5,0.1,3.1,0.3,4.4,0.3c4,0,5.7,3.3,6.5,21.8c1.5,33-1,33.5,5,32.5S289.7,460.5,289.2,444.5z"/>
	<path class="st10" d="M278.3,410.2c-3.6,0-9.9-0.3-17.8-0.6c-15.5-0.7-36.6-1.6-60.6-1.6s-45.1,0.9-60.6,1.6
		c-7.9,0.3-14.2,0.6-17.8,0.6c-1.5,0-2.3,0-2.7-0.1c0.3-1.9,4.2-7.3,8.3-8.7c2.6-0.8,36.7-3.4,73.2-3.4h0.1c36,0,69.6,2.6,72.2,3.4
		c4.1,1.4,8,6.8,8.3,8.7C280.6,410.2,279.8,410.2,278.3,410.2L278.3,410.2z"/>
	<path class="st11" d="M274.9,406.1c-2.5-0.1-8.9-0.3-14.3-0.5c-15.5-0.7-36.7-1.6-60.7-1.6s-45.2,0.9-60.7,1.6
		c-5.4,0.2-11.8,0.4-14.3,0.5l0,0c-0.1,0-0.2,0-0.2-0.2c-0.1-0.2,0-0.3,0.1-0.3c1.2-1.2,2.4-2,3.3-2.3c2.6-0.6,36.1-3.2,72.3-3.2
		h0.1c35.6,0,68.7,2.6,71.3,3.2c1,0.3,2.1,1.2,3.3,2.3c0,0,0.1,0.1,0.1,0.3C275.1,406.1,275,406.1,274.9,406.1L274.9,406.1z"/>
	<path class="st12" d="M333.3,6.2c-1.2,1.3,1.3,8.7-3.7,19.5c-3,6.5-11.3,6.7-18.7,4s-9.3-24-12.7-24.7c-3.3-0.7-60,2.7-102,6
		s-122,16-124,18s6,6.7,9.3,10.7s48.3,358.7,48.3,358.7c-0.3,1,47.7-2.6,68.3-2.6c20.7,0,73.3,3.3,73.7,2.6
		c1.4-2.7,44-349.7,46-351.8c2-2.2,6.8-3.6,12-13.2c8-14.7,6.8-23.7,6.2-26.7C335.7,4.2,334.2,5.2,333.3,6.2z M316.2,42.6
		c-0.4,0.4-0.8,0.8-1.1,1.2c-1.1,1.2-1.4,1.5-5.5,31.8c-2.3,16.6-5.4,40.6-9.4,71.4c-7.3,56.4-16,125.6-22.4,176.2
		c-1.6,12.9-3.1,24.8-4.4,35.2c-2.5,19.6-19.5,34.1-39.3,33.3c-1.5-0.1-2.9-0.1-4.1-0.2c-12.4-0.6-50.3-0.8-61.1-0.4
		c-0.1,0-0.2,0-0.3,0c-19.6,0.7-36.5-13.7-39.1-33.1c-4.4-33.9-11.3-86.9-18.4-139.7c-6.8-51.3-12.4-92.3-16.6-122
		c-8-57-8.8-57.9-9.9-59.2c0,0,0,0,0-0.1c-2.2-2.6-0.8-6.7,2.6-7.3c24.4-4.4,76.9-12.2,109.4-14.8c37.2-3,88.4-6.1,99.6-6.1
		c0.1,0,0.1,0,0.2,0c0.6,1.4,1.3,3.8,1.9,5.8c2.4,7.7,5,16.5,11.2,18.7c3.4,1.2,6.9,1.9,10.1,1.9c0.8,0,1.6,0,2.4-0.1
		C319.2,39.5,317.6,41.2,316.2,42.6z"/>
	
		<linearGradient id="SVGID_2_" gradientUnits="userSpaceOnUse" x1="38.3943" y1="620.05" x2="109.7" y2="620.05" gradientTransform="matrix(1 0 0 -1 0 810)">
		<stop  offset="0" style="stop-color:#FFFFFF"/>
		<stop  offset="1" style="stop-color:#C9E9FF;stop-opacity:0.7"/>
	</linearGradient>
	<path class="st13" d="M92,276.8c-8.5,0-18.2-1.7-24.6-8.1c-8.6-8.6-17.9-54-21.5-73.2c-12.2-65.3-6.4-72.7-4.1-75.5
		c9.5-11.9,38.5-16.2,44.2-16.9l2.2,15.9l-1.2-8l1,7.9c-12.9,1.7-28.9,6.1-33.3,10.5c-1.1,4.8-0.2,25.8,7.2,64.7
		c7.1,37.2,14.2,59.7,16.8,63.3c5.2,4.9,23,3.2,29.1,1.7l1.9,15.6C108.3,275.1,100.3,276.8,92,276.8z"/>
	
		<linearGradient id="SVGID_3_" gradientUnits="userSpaceOnUse" x1="180.1382" y1="605.5155" x2="109.8652" y2="593.1245" gradientTransform="matrix(1 0 0 -1 0 810)">
		<stop  offset="3.635204e-02" style="stop-color:#FFFFFF"/>
		<stop  offset="1" style="stop-color:#C9E9FF;stop-opacity:0"/>
	</linearGradient>
	<path class="st14" d="M103.9,33.7l34.4-5.7c6.2-1,11.9,3.5,12.3,9.8l17.7,353c-16.1,1.5-30.5-10.1-32.4-26.1L95.2,45.3
		C94.5,39.7,98.4,34.6,103.9,33.7z"/>
	
		<linearGradient id="SVGID_4_" gradientUnits="userSpaceOnUse" x1="238.3324" y1="606.9573" x2="293.824" y2="602.1025" gradientTransform="matrix(1 0 0 -1 0 810)">
		<stop  offset="0" style="stop-color:#FFFFFF"/>
		<stop  offset="1" style="stop-color:#C9E9FF;stop-opacity:0"/>
	</linearGradient>
	<path class="st15" d="M277.4,23.3c-0.9-3.9-4.4-6.6-8.4-6.3l-9.5,1c-5.5,1-6.3,13.5-6.6,19.8l-17.7,353.8
		c16.1,1.5,30.5-10.9,32.4-26.9l39.7-310.9c0.6-4.6-4.1-7.9-8.6-9.1C292,43,280.5,37.7,277.4,23.3z"/>
</g>
</svg>
