<?xml version="1.0" encoding="utf-8"?>
<!-- Generator: Adobe Illustrator 19.2.0, SVG Export Plug-In . SVG Version: 6.00 Build 0)  -->
<!DOCTYPE svg PUBLIC "-//W3C//DTD SVG 1.1//EN" "http://www.w3.org/Graphics/SVG/1.1/DTD/svg11.dtd">
<svg version="1.1" id="Layer_1" xmlns="http://www.w3.org/2000/svg" xmlns:xlink="http://www.w3.org/1999/xlink" x="0px" y="0px"
	 viewBox="0 0 296 355" style="enable-background:new 0 0 296 355;" xml:space="preserve">
<style type="text/css">
	.st0{fill:#333333;}
	.st1{fill:#1A1A1A;}
	.st2{fill:#E9E9E9;}
	.st3{fill:#F6F6F6;}
	.st4{fill:#E6E6E6;}
	.st5{fill:#D5D5D5;}
	.st6{fill:#4D4D4D;}
	.st7{fill:#323232;}
	.st8{opacity:0.3;fill:#C9E9FF;enable-background:new    ;}
</style>
<title>blender</title>
<path class="st0" d="M142.7,343.7c-22.2,0-84.6-3.4-84.6-3.4v5.1c0,2.6-10.3,5.1-21.4,5.1s-15.4-3.7-15.4-6v-12c0-1.7-6,1.7-7.7-7.7
	s-4.3-70.1-4.3-70.1s111.1,1.7,137.3,1.7s139.2-1.7,139.2-1.7s-2.6,60.7-4.3,70.1c-1.7,9.4-7.7,6-7.7,7.7v12c0,2.3-4.3,6-15.4,6
	c-11.1,0-21.4-2.6-21.4-5.1v-5.1c0,0-62.4,3.4-84.6,3.4H142.7z"/>
<path class="st1" d="M258.6,346.3c-8.2,0-14.7-1.5-17.1-2.5v-3.8l-4.5,0.3c-0.6,0-62.5,3.4-84.3,3.4h-10c-21.9,0-83.7-3.4-84.3-3.4
	l-4.5-0.3v3.8c-2.4,1-8.9,2.5-17.1,2.5c-7,0-10.2-1.6-11.1-2.4v-11.3c0-0.8,17.3-0.8,27.6-0.8c4,0,7.3-3.2,7.3-7.3l0,0V302
	c0,0,63.2,1.6,86.1,1.6s89.7-1.6,89.7-1.6v22.6c0,4,3.2,7.3,7.3,7.3l0,0c9.8,0,26.1,0.1,26.1,0.8v11.3
	C268.8,344.7,265.6,346.3,258.6,346.3z"/>
<path class="st2" d="M282.9,101.1c-1.7-16.7-11.5-33.3-26.1-35.5l-14.5-2.1H53.1l-14.5,2.1c-14.5,2.1-24.3,18.8-26.1,35.5
	s-9.4,129.4-9,134.5c0.4,5.1,6,19.2,6,19.2s96,1.6,137.1,1.7h2.2c41-0.1,137.1-1.7,137.1-1.7s5.6-14.1,6-19.2
	C292.4,230.5,284.7,117.8,282.9,101.1z"/>
<path class="st3" d="M18.1,226.7c-6.4-7.3-3.4-35-0.9-61.9S22,105,27.9,100.7c6-4.3,120-7.3,120-7.3c29.5,0,114.5,3,120.5,7.3
	c6,4.3,8.1,37.2,10.7,64.1c2.6,26.9,5.6,54.7-0.9,61.9C271.8,234,198.8,237,148,237C148,237,24.5,234,18.1,226.7z"/>
<path class="st4" d="M19,189.8c2.6-26.6,4.6-81.8,10.5-86c5.9-4.3,118.5-7.2,118.5-7.2c29,0,113,3,118.9,7.2s8,59.5,10.5,86"/>
<path class="st5" d="M277.3,189.1c-2.5-26.8-4.6-81.2-10.5-85.3c-5.9-4.2-89.8-7.2-118.9-7.2c0,0-112.6,3-118.5,7.2
	c-5.9,4.2-8,59.5-10.5,86h0.2v1h258.3L277.3,189.1L277.3,189.1L277.3,189.1z M32.4,108.7c5.7-4.1,115.6-7,115.6-7
	c28.4,0,110.2,2.9,116,7c5.5,3.9,7.6,53.4,10,80.4H22.5C24.8,162.1,26.9,112.7,32.4,108.7z"/>
<path id="_Path_" class="st6" d="M61.9,218.6c-1.9,0-3.7-0.7-5.1-1.9l-0.1-0.1l-0.1-0.1c-1.6-1.5-2.8-3.3-3.6-5.4
	c-0.6-1.9-1.7-3.5-3.1-4.9l-0.3-0.3c-2.2-1.8-5.4-1.5-7.3,0.5c-2.3,2.3-2.3,6.1,0,8.4c2,2.1,5.1,2.3,7.3,0.5l0.2-0.2
	c0.4-0.4,1.2-0.4,1.6,0c0.4,0.3,0.4,1,0.1,1.4c0,0,0,0.1-0.1,0.1l-0.3,0.2c-1.5,1.2-3.2,1.8-5,1.8c-4.4,0-7.9-3.5-7.9-7.9
	c0,0,0,0,0-0.1c0-2.1,0.8-4,2.2-5.6c2.9-2.9,7.5-3.2,10.7-0.6l0.3,0.3c1.7,1.5,3,3.5,3.8,5.7c0.6,1.7,1.6,3.2,3,4.5l0.1,0.1l0.1,0.1
	c0.9,0.9,2.2,1.3,3.5,1.3c1.5,0,2.9-0.6,3.9-1.7c2.3-2.3,2.3-6.1,0-8.4c-1-1.1-2.5-1.7-3.9-1.7c-1.2,0-2.4,0.4-3.3,1.1l-0.3,0.3
	c-0.4,0.4-1.2,0.4-1.6,0c-0.4-0.3-0.4-1-0.1-1.4c0,0,0-0.1,0.1-0.1l0.4-0.3c1.4-1.1,3.1-1.6,4.9-1.6c4.4,0,7.9,3.5,7.9,7.9
	c0,0,0,0,0,0.1c0.1,4.3-3.3,7.8-7.6,7.9C62.1,218.6,62,218.6,61.9,218.6z"/>
<path class="st7" d="M222.5,55.2c0,0-1.1-35.3-6.8-43.3c-7-9.7-129.8-8.7-136.1,0c-6.2,8.5-6,43.3-6,43.3c-11.4,0-19.9,5.1-19.9,16
	s5.1,13.7,18.8,13.7h151.2c13.7,0,18.8-2.8,18.8-13.7S233.8,55.2,222.5,55.2z"/>
<path class="st1" d="M53.6,69.3c0,10.8,5.1,15.4,18.8,15.4h151.2c13.7,0,18.8-4.5,18.8-15.4c0,0-6.8,3.4-19.9,3.4h-148
	C67.3,72.8,60.3,71.6,53.6,69.3z"/>
<path class="st8" d="M214.4,12.9c-3.1,0-8.5-0.3-15.2-0.5C186,11.8,168,11,147.5,11s-38.5,0.8-51.8,1.4c-6.7,0.3-12.1,0.5-15.2,0.5
	c-0.8,0-1.5,0-2.3-0.1c0.3-1.6,3.6-6.2,7.1-7.4c2.2-0.7,31.4-2.9,62.5-2.9h0.1c30.8,0,59.5,2.2,61.7,2.9c3.5,1.2,6.8,5.8,7.1,7.4
	C216,12.9,215.2,12.9,214.4,12.9L214.4,12.9L214.4,12.9z"/>
</svg>
