<?xml version="1.0" encoding="utf-8"?>
<!-- Generator: Adobe Illustrator 19.2.0, SVG Export Plug-In . SVG Version: 6.00 Build 0)  -->
<!DOCTYPE svg PUBLIC "-//W3C//DTD SVG 1.1//EN" "http://www.w3.org/Graphics/SVG/1.1/DTD/svg11.dtd">
<svg version="1.1" id="Layer_1" xmlns="http://www.w3.org/2000/svg" xmlns:xlink="http://www.w3.org/1999/xlink" x="0px" y="0px"
	 viewBox="0 0 337.6 731.9" style="enable-background:new 0 0 337.6 731.9;" xml:space="preserve">
<style type="text/css">
	.st0{opacity:0.4;fill:#BAE1EE;enable-background:new    ;}
	.st1{fill:#333333;}
	.st2{fill:#1A1A1A;}
	.st3{fill:#E9E9E9;}
	.st4{fill:#F6F6F6;}
	.st5{fill:#E6E6E6;}
	.st6{fill:#4D4D4D;}
	.st7{fill:#D5D5D5;}
	.st8{fill:#323232;}
	.st9{opacity:0.15;fill:url(#SVGID_1_);enable-background:new    ;}
	.st10{opacity:0.3;fill:#C9E9FF;enable-background:new    ;}
	.st11{fill:#FFFFFF;}
	.st12{opacity:0.5;fill:#FFFFFF;enable-background:new    ;}
	.st13{opacity:0.4;fill:url(#SVGID_2_);enable-background:new    ;}
	.st14{opacity:0.6;fill:url(#SVGID_3_);}
	.st15{opacity:0.6;fill:url(#SVGID_4_);}
</style>
<title>blender</title>
<path class="st0" d="M59.7,236.9c-8.5,0-18.2-1.7-24.6-8.1c-8.6-8.6-22.6-95.3-20.3-98.1c9.5-11.9,38.5-16.2,44.2-16.9l2.7,15.9
	l-1.7-8l1.5,7.9c-12.9,1.7-27.4,5.1-31.8,9.5c-1.1,4.8,13.1,74.8,15.7,78.4c5.2,4.9,25.5,3.2,31.6,1.7l2.7,15.6
	C78.4,235.3,68.1,236.9,59.7,236.9z"/>
<path class="st0" d="M261.3,386.4c0-1.7-0.1-3.5-0.3-5.5c-1.5-13-4.5-44-7-50c-2.5-6-10-11.5-10-11.5l43.5-275.3
	c0,0,7.4-3.9,14.4-20.2c2.5-5.3,3.3-17.3,3.2-18.5c-0.2-1.6-1.7-2.7-3.3-2.5c-4.4,0.6-13.9,2-15.2,3c-2.5,2,0.5,18.7-6,17.2
	S273.5,0.6,271,0.6c-0.6,0-3.7,0.1-8.9,0.4c-5.9,0.1-16.8,0.6-34,1.7c-18,0.9-40.2,2.1-63.6,3.4C109,9.1,42,22.6,40,23.6
	c-2,1.1-2.8,3.6-1.7,5.7c0.1,0.1,0.1,0.2,0.2,0.3c1.5,2,6,5.5,7.5,10.5c0.9,2.9,48.5,280.3,48.5,280.3s-7.5,4-10.5,10.5
	s-8,44.5-8,50c0,1.6-0.3,3.5-0.4,5.7C68.8,387.7,268.6,387.3,261.3,386.4z"/>
<path class="st1" d="M162.8,723.9c-26,0-99-4-99-4v6c0,3-12,6-25,6s-18-4.3-18-7v-14c0-2-7,2-9-9s-5-82-5-82s130,2,160.7,2
	s163-2,163-2s-3,71-5,82s-9,7-9,9v14c0,2.7-5,7-18,7s-25-3-25-6v-6c0,0-73,4-99,4H162.8z"/>
<path class="st2" d="M298.5,726.9c-9.6,0-17.2-1.7-20-2.9v-4.4l-5.3,0.3c-0.7,0-73.2,4-98.7,4h-11.7c-25.6,0-98-4-98.7-4l-5.3-0.3
	v4.4c-2.8,1.2-10.4,2.9-20,2.9c-8.2,0-11.9-1.9-13-2.8v-13.2c0-0.9,20.3-0.9,32.3-0.9c4.7,0,8.5-3.8,8.5-8.5c0,0,0,0,0,0V675
	c0,0,74,1.9,100.8,1.9s105-1.9,105-1.9v26.4c0,4.7,3.8,8.5,8.5,8.5c0,0,0,0,0,0c11.5,0,30.5,0.1,30.5,0.9V724
	C310.4,725,306.7,726.9,298.5,726.9z"/>
<path class="st3" d="M327,439.9c-2-19.5-13.5-39-30.5-41.5l-17-2.5H58l-17,2.5c-17,2.5-28.5,22-30.5,41.5S-0.5,591.4,0,597.4
	s7,22.5,7,22.5s112.4,1.9,160.5,2h2.6c48-0.1,160.5-2,160.5-2s6.5-16.5,7-22.5S329,459.4,327,439.9z"/>
<path class="st4" d="M17,586.9c-7.5-8.5-4-41-1-72.5s5.5-70,12.5-75s140.5-8.5,140.5-8.5c34.5,0,134,3.5,141,8.5s9.5,43.5,12.5,75
	s6.5,64-1,72.5s-93,12-152.5,12C169,598.9,24.5,595.4,17,586.9z"/>
<path class="st5" d="M18,543.7c3-31.1,5.4-95.7,12.3-100.7s138.7-8.4,138.7-8.4c34,0,132.3,3.5,139.2,8.4s9.4,69.6,12.3,100.7"/>
<path class="st2" d="M302.7,501.9c0,5.5-4.5,10-10,10h-26c-5.5,0-10-4.5-10-10v-37c0-5.5,4.5-10,10-10h26c5.5,0,10,4.5,10,10V501.9z
	"/>
<path class="st1" d="M292.4,504.9H267c-2.1,0-3.8-1.7-3.8-3.8v-35.4c0-2.1,1.7-3.8,3.8-3.8h25.4c2.1,0,3.8,1.7,3.8,3.8v35.4
	C296.2,503.2,294.5,504.9,292.4,504.9z"/>
<path class="st6" d="M292.3,493.4h-25.4c-2.1,0-3.8,1.7-3.8,3.8v3.4c0,2.1,1.7,3.8,3.8,3.8h25.4c2.1,0,3.8-1.7,3.8-3.8v-3.4
	c0.1-2-1.5-3.7-3.6-3.8C292.5,493.4,292.4,493.4,292.3,493.4z"/>
<path class="st2" d="M83.7,501.9c0,5.5-4.5,10-10,10h-26c-5.5,0-10-4.5-10-10v-37c0-5.5,4.5-10,10-10h26c5.5,0,10,4.5,10,10V501.9z"
	/>
<path class="st1" d="M73.4,504.9H48c-2.1,0-3.8-1.7-3.8-3.8l0,0v-35.4c0-2.1,1.7-3.8,3.8-3.8l0,0h25.4c2.1,0,3.8,1.7,3.8,3.8l0,0
	v35.4C77.2,503.2,75.5,504.9,73.4,504.9z"/>
<path class="st6" d="M73.3,493.4H48c-2.1,0-3.8,1.7-3.8,3.8l0,0v3.4c0,2.1,1.7,3.8,3.8,3.8l0,0h25.4c2.1,0,3.8-1.7,3.8-3.8l0,0v-3.4
	C77.2,495.1,75.5,493.4,73.3,493.4C73.4,493.4,73.3,493.4,73.3,493.4z"/>
<path class="st7" d="M320.4,542.9c-2.9-31.4-5.4-95-12.3-99.9c-6.9-4.9-105.1-8.4-139.2-8.4c0,0-131.8,3.5-138.7,8.4
	s-9.4,69.6-12.3,100.7h0.2v1.2h302.4L320.4,542.9L320.4,542.9L320.4,542.9z M33.7,448.8c6.7-4.8,135.3-8.2,135.3-8.2
	c33.2,0,129,3.4,135.8,8.2c6.4,4.6,8.9,62.5,11.7,94.1H22.1C24.8,511.3,27.3,453.4,33.7,448.8z"/>
<path class="st2" d="M146.7,508.7c0,0-0.4-0.4-1.1-1.2c-0.5-0.5-0.9-1-1.3-1.5c-0.5-0.6-1-1.4-1.6-2.2c-0.6-0.8-1.1-1.8-1.7-2.9
	c-0.3-0.6-0.5-1.1-0.8-1.7c-0.1-0.3-0.3-0.6-0.4-0.9c-0.1-0.3-0.2-0.7-0.4-1c-1.2-3-1.9-6.1-2-9.3c-0.2-3.8,0.2-7.6,1.3-11.2
	c1.3-4.1,3.3-7.9,6-11.2c2.9-3.5,6.6-6.4,10.7-8.4c4.3-2.1,9-3.1,13.7-3.2c4.8-0.1,9.5,0.9,13.9,2.9c4.2,2,8,4.8,11.1,8.3
	c2.9,3.3,5.1,7.1,6.5,11.3c1.2,3.7,1.8,7.7,1.6,11.6c-0.1,3.3-0.7,6.6-1.8,9.8c-0.1,0.4-0.2,0.7-0.4,1c-0.1,0.3-0.3,0.7-0.4,1
	c-0.3,0.6-0.6,1.3-0.8,1.8c-0.6,1.1-1.2,2.2-1.8,3.1c-0.5,0.8-1.1,1.6-1.7,2.3c-0.4,0.6-0.9,1.1-1.4,1.6c-0.8,0.9-1.2,1.3-1.2,1.3
	l-2.8-2.8l1.1-1.1c0.3-0.4,0.8-0.8,1.2-1.4c0.4-0.6,1-1.3,1.5-2c0.5-0.7,1.1-1.7,1.6-2.7c0.2-0.6,0.5-1.1,0.8-1.6
	c0.1-0.3,0.3-0.6,0.4-0.9l0.3-0.9c1.1-2.8,1.7-5.7,1.9-8.7c0.2-3.5-0.2-7.1-1.2-10.5c-1.2-3.8-3.1-7.3-5.6-10.4
	c-2.7-3.3-6.1-6-10-7.9c-4-1.9-8.4-3-12.9-3.1c-9-0.2-17.6,3.7-23.5,10.5c-2.7,3.1-4.8,6.7-6.1,10.6c-1.2,3.5-1.7,7.2-1.5,10.9
	c0.1,3.1,0.6,6.2,1.7,9.2c0.1,0.3,0.2,0.7,0.3,1c0.1,0.3,0.3,0.6,0.4,0.9c0.3,0.6,0.5,1.2,0.8,1.7c0.6,1.1,1.1,2,1.6,2.9
	s1.1,1.6,1.6,2.2c0.4,0.5,0.8,1,1.3,1.5C146.3,508.2,146.7,508.7,146.7,508.7z"/>
<circle class="st2" cx="169" cy="486.4" r="27.5"/>
<path class="st6" d="M151,503.9c0.6,0.6,1.3,1.2,1.9,1.7l40.6-23.4c-0.4-2.8-1.3-5.5-2.7-7.9l-46.3,5.3
	C142.1,488.2,144.6,497.5,151,503.9z"/>
<path d="M141.9,515.4v-4.3l-1.2,1.1v-1.4l1.2-1.1h1.3v5.7H141.9z"/>
<path d="M131,498.1v-1.2l2.1-2.2c0.2-0.2,0.3-0.4,0.3-0.6c0-0.3-0.2-0.5-0.4-0.5c0,0,0,0-0.1,0c-0.3,0-0.5,0.2-0.5,0.5
	c0,0,0,0.1,0,0.1h-1.3c0-0.9,0.7-1.7,1.6-1.7c0.1,0,0.1,0,0.2,0c0.9-0.1,1.7,0.5,1.8,1.4c0,0.1,0,0.2,0,0.3c0,0.6-0.3,1.1-0.7,1.4
	l-1.4,1.4h2.1v1.2L131,498.1L131,498.1L131,498.1L131,498.1z"/>
<path d="M133.2,479.1c-1,0.1-1.8-0.6-1.9-1.6c0-0.1,0-0.1,0-0.2h1.3c0,0.3,0.3,0.6,0.6,0.6s0.6-0.3,0.6-0.6c0-0.3-0.3-0.6-0.6-0.6
	H133v-1.1h0.2c0.3,0,0.5-0.2,0.5-0.4c0,0,0,0,0-0.1c0-0.2-0.1-0.5-0.3-0.5c-0.1,0-0.1,0-0.2,0c-0.3,0-0.5,0.2-0.5,0.4c0,0,0,0,0,0.1
	h-1.3c0-1,0.8-1.8,1.8-1.8c1,0,1.8,0.8,1.8,1.8c0,0.4-0.2,0.9-0.6,1.1c0.4,0.3,0.7,0.7,0.7,1.2c0,0.9-0.7,1.7-1.6,1.7
	C133.4,479.1,133.3,479.1,133.2,479.1z"/>
<path d="M144.1,461.6v0.8h-1.2v-0.8h-2.4v-1.2l1.9-3.7h1.4l-1.9,3.7h0.9v-0.8h1.2v0.8h0.4v1.2H144.1z"/>
<path d="M159.8,452.6c-0.8,0.7-1.9,0.7-2.7,0c-0.3-0.3-0.5-0.8-0.5-1.3h1.3c0,0.3,0.1,0.5,0.4,0.6c0,0,0.1,0,0.1,0
	c0.1,0,0.3,0,0.4-0.1c0.2-0.2,0.2-0.4,0.2-0.7c0-0.6-0.2-0.8-0.5-0.8c-0.2,0-0.5,0.1-0.5,0.4c0,0,0,0,0,0h-1.2v-3.3h3.5v1.2H158v0.9
	c0.2-0.2,0.5-0.2,0.8-0.2c0.4,0,0.8,0.1,1.1,0.4c0.4,0.4,0.6,1,0.5,1.5C160.5,451.7,160.3,452.2,159.8,452.6z"/>
<path d="M179.5,453.1c-1,0.1-1.8-0.6-1.9-1.6c0-0.1,0-0.1,0-0.2c0.1-0.6,0.2-1.2,0.5-1.7l1.1-2.3h1.4l-1.1,2.2h0.3
	c0.9,0,1.5,0.8,1.5,1.7c0,0,0,0,0,0c0.1,0.9-0.5,1.8-1.4,1.9C179.8,453.1,179.7,453.1,179.5,453.1z M179.5,450.6
	c-0.3,0-0.6,0.3-0.6,0.6c0,0.3,0.3,0.6,0.6,0.6c0.3,0,0.6-0.3,0.6-0.6C180.1,450.8,179.9,450.6,179.5,450.6
	C179.5,450.6,179.5,450.6,179.5,450.6z"/>
<path d="M197,462.4h-1.4l1.8-4.5h-1.2v0.9H195v-2.1h3.9v1.2L197,462.4z"/>
<path d="M206.5,479.4c-1,0.1-1.8-0.6-1.9-1.6c0-0.1,0-0.1,0-0.2c0-0.5,0.2-0.9,0.6-1.2c-0.4-0.3-0.6-0.7-0.6-1.1
	c0.1-1,1-1.8,2.1-1.7c0.9,0.1,1.6,0.8,1.7,1.7c0,0.4-0.2,0.9-0.6,1.1c0.4,0.3,0.6,0.7,0.6,1.2c0.1,0.9-0.6,1.7-1.6,1.8
	C206.7,479.4,206.6,479.4,206.5,479.4z M206.5,477.1c-0.3,0-0.6,0.3-0.6,0.6c0,0.3,0.3,0.6,0.6,0.6c0.3,0,0.6-0.3,0.6-0.6
	C207.1,477.3,206.9,477.1,206.5,477.1C206.5,477.1,206.5,477.1,206.5,477.1z M206.5,474.8c-0.3,0-0.5,0.2-0.5,0.5s0.2,0.5,0.5,0.5
	s0.5-0.2,0.5-0.5C207,475,206.8,474.8,206.5,474.8C206.6,474.8,206.5,474.8,206.5,474.8z"/>
<path d="M207.9,496.5l-1.1,2.3h-1.4l1.1-2.2h-0.3c-0.9,0-1.5-0.8-1.5-1.7c0,0,0,0,0,0c0-1,0.9-1.9,1.9-1.9c1,0,1.9,0.8,1.9,1.9
	C208.3,495.4,208.1,495.9,207.9,496.5z M206.5,494.2c-0.3,0-0.6,0.3-0.6,0.6c0,0.3,0.3,0.6,0.6,0.6c0.3,0,0.6-0.3,0.6-0.6
	C207.1,494.4,206.9,494.2,206.5,494.2C206.5,494.2,206.5,494.2,206.5,494.2z"/>
<path d="M197,515.1v-4.3l-1.2,1.1v-1.5l1.2-1.1h1.3v5.7L197,515.1L197,515.1z"/>
<path d="M201.7,515.1c-1,0-1.8-0.7-1.8-1.7c0,0,0-0.1,0-0.1v-2.2c0-1,0.8-1.8,1.8-1.8c1,0,1.8,0.8,1.8,1.8v2.2
	c0.1,0.9-0.5,1.7-1.4,1.8C202,515.1,201.8,515.1,201.7,515.1z M202.2,511.1c0.1-0.3-0.1-0.5-0.4-0.6c-0.3-0.1-0.5,0.1-0.6,0.4
	c0,0.1,0,0.1,0,0.2v2.2c-0.1,0.3,0.1,0.5,0.4,0.6c0.3,0.1,0.5-0.1,0.6-0.4c0-0.1,0-0.1,0-0.2V511.1z"/>
<path id="_Path_" class="st6" d="M68.3,577.4c-2.2,0-4.3-0.8-6-2.2l-0.1-0.1l-0.1-0.1c-1.9-1.7-3.3-3.9-4.2-6.3
	c-0.7-2.2-2-4.1-3.6-5.7l-0.3-0.3c-2.6-2.1-6.3-1.8-8.6,0.6c-2.7,2.7-2.7,7.1,0,9.8c2.3,2.4,6,2.7,8.6,0.6l0.2-0.2
	c0.5-0.5,1.4-0.5,1.9,0c0.5,0.4,0.5,1.2,0.1,1.6c0,0,0,0.1-0.1,0.1l-0.3,0.2c-1.7,1.4-3.8,2.1-5.9,2.1c-5.1,0-9.2-4.1-9.2-9.2
	c0,0,0,0,0-0.1c0-2.4,0.9-4.7,2.6-6.5c3.4-3.4,8.8-3.8,12.5-0.7l0.3,0.3c2,1.8,3.5,4.1,4.4,6.7c0.7,2,1.9,3.8,3.5,5.3l0.1,0.1
	l0.1,0.1c1.1,1,2.6,1.5,4.1,1.5c1.7,0,3.4-0.7,4.6-2c2.7-2.7,2.7-7.1,0-9.8c-1.2-1.3-2.9-2-4.6-2c-1.4,0-2.8,0.5-3.9,1.3l-0.4,0.4
	c-0.5,0.5-1.4,0.5-1.9,0c-0.5-0.4-0.5-1.2-0.1-1.6c0,0,0-0.1,0.1-0.1l0.5-0.4c1.6-1.3,3.6-1.9,5.7-1.9c5.1,0,9.2,4.1,9.2,9.2
	c0,0,0,0,0,0.1c0.1,5-3.9,9.1-8.9,9.2C68.5,577.4,68.4,577.4,68.3,577.4z"/>
<path class="st8" d="M256.2,386.1c0,0-1.3-41.3-8-50.7c-8.2-11.4-151.9-10.2-159.3,0c-7.3,10-7,50.7-7,50.7
	c-13.3,0-23.3,6-23.3,18.7c0,12.7,6,16,22,16h177c16,0,22-3.3,22-16C279.6,392.1,269.5,386.1,256.2,386.1z"/>
<path class="st2" d="M58.5,402.7c0,12.7,6,18,22,18h177c16,0,22-5.3,22-18c0,0-8,4-23.3,4H82.9C74.6,406.7,66.4,405.3,58.5,402.7z"
	/>
<linearGradient id="SVGID_1_" gradientUnits="userSpaceOnUse" x1="171.3021" y1="760.2405" x2="439.2301" y2="760.2405" gradientTransform="matrix(1 0 0 -1 -133.48 960.37)">
	<stop  offset="0" style="stop-color:#FFFFFF"/>
	<stop  offset="1" style="stop-color:#C9E9FF;stop-opacity:0"/>
</linearGradient>
<path class="st9" d="M168.5,399.4h81c9,0,13-5.5,11.5-18.5s-4.5-44-7-50c-2.5-6-10-11.5-10-11.5l43.5-275.9c0,0,7.5-3,14.5-19.5
	s2-22,2-22s-15,1.3-17.5,3.3s0.5,18.7-6,17.2S273.5,0,271,0s-51,2.5-106.5,5.5S42,22,40,23c-2,1.1-2.8,3.6-1.7,5.7
	c0.1,0.1,0.1,0.2,0.2,0.3c1.5,2,6,5.5,7.5,10.5s48.5,280.9,48.5,280.9s-7.5,4-10.5,10.5s-8,44.5-8,50s-3.5,16.5,8.5,18.5
	S168.5,399.4,168.5,399.4z"/>
<path class="st10" d="M257.7,370.9c-0.4-14.4-5.3-31.5-6.3-34.9c-0.7-3.3-5.4-8.7-9.6-10.1c-2.9-1-37.8-3.5-72.8-3.5
	c-35.4,0-71,2.5-74,3.5c-3.7,1.2-7.8,5.6-9.2,8.9l-0.3,0.6c0,0-6,19.5-6.5,35.5s-1,21,5,22s3.5,0.5,5-32.5
	c0.8-18.5,2.5-21.8,6.5-21.8c1.5,0,2.9-0.1,4.4-0.3h0.3c14.8-0.6,39.8-1.9,68.2-1.9s53.3,1.3,68.1,1.9h0.3c1.5,0.1,3.1,0.3,4.4,0.3
	c4,0,5.7,3.3,6.5,21.8c1.5,33-1,33.5,5,32.5C258.7,391.9,258.2,386.9,257.7,370.9z"/>
<path class="st10" d="M246.8,336.6c-3.6,0-9.9-0.3-17.8-0.6c-15.5-0.7-36.6-1.6-60.6-1.6s-45.1,0.9-60.6,1.6
	c-7.9,0.3-14.2,0.6-17.8,0.6c-0.9,0-1.8,0-2.7-0.1c0.3-1.9,4.2-7.3,8.3-8.7c2.6-0.8,36.7-3.4,73.2-3.4h0.1c36,0,69.6,2.6,72.2,3.4
	c4.1,1.4,8,6.8,8.3,8.7C248.6,336.6,247.7,336.6,246.8,336.6L246.8,336.6L246.8,336.6z"/>
<path class="st11" d="M243.4,332.5c-2.5-0.1-8.9-0.3-14.3-0.5c-15.5-0.7-36.7-1.6-60.7-1.6s-45.2,0.9-60.7,1.6
	c-5.4,0.2-11.8,0.4-14.3,0.5l0,0c-0.1,0-0.2,0-0.2-0.1c0,0,0-0.1,0-0.1c-0.1-0.2,0-0.3,0.1-0.3c0.9-1,2-1.8,3.3-2.3
	c2.6-0.6,36.1-3.2,72.3-3.2h0.1c35.6,0,68.7,2.6,71.3,3.2c1.2,0.5,2.4,1.3,3.3,2.3c0.1,0.1,0.1,0.2,0.1,0.3
	C243.7,332.4,243.6,332.5,243.4,332.5L243.4,332.5L243.4,332.5z"/>
<path class="st12" d="M301.8,3.8c-1.2,1.3,1.3,8.7-3.7,19.5c-3,6.5-11.3,6.7-18.7,4s-9.3-24-12.7-24.7s-60,2.7-102,6s-122,16-124,18
	s6,6.7,9.3,10.7s48.3,287.5,48.3,287.5c-0.3,1,47.7-2.6,68.3-2.6s73.3,3.3,73.7,2.6c1.4-2.7,44-278.5,46-280.6s6.8-3.6,12-13.2
	c8-14.7,6.8-23.7,6.2-26.7C304.2,1.8,302.7,2.8,301.8,3.8z M284.7,40.2c-0.4,0.4-0.8,0.8-1.1,1.2c-1.1,1.2-40.4,233-41.7,243.4
	c-2.5,19.6-19.5,34.1-39.3,33.3c-1.5-0.1-2.9-0.1-4.1-0.2c-12.4-0.6-50.3-0.8-61.1-0.4h-0.3c-19.6,0.7-36.5-13.7-39.1-33.1
	C93.6,250.5,54.2,36,53.1,34.7v-0.1c-1.6-1.9-1.4-4.7,0.5-6.3c0.6-0.5,1.3-0.8,2.1-1c24.4-4.4,76.9-12.2,109.4-14.8
	c37.2-3,88.4-6.1,99.6-6.1h0.2c0.6,1.4,1.3,3.8,1.9,5.8c2.4,7.7,5,16.5,11.2,18.7c3.2,1.2,6.7,1.8,10.1,1.9c0.8,0,1.6,0,2.4-0.1
	C288.9,35.4,287,37.9,284.7,40.2L284.7,40.2z"/>
<linearGradient id="SVGID_2_" gradientUnits="userSpaceOnUse" x1="148.0484" y1="785.05" x2="213.2" y2="785.05" gradientTransform="matrix(1 0 0 -1 -133.48 960.37)">
	<stop  offset="0" style="stop-color:#FFFFFF"/>
	<stop  offset="1" style="stop-color:#C9E9FF;stop-opacity:0.7"/>
</linearGradient>
<path class="st13" d="M59.7,236.9c-8.5,0-18.2-1.7-24.6-8.1c-8.6-8.6-22.6-95.3-20.3-98.1c9.5-11.9,38.5-16.2,44.2-16.9l2.7,15.9
	l-0.2-0.1c-12.9,1.7-27.4,5.1-31.8,9.5c-1.1,4.8,13.1,74.8,15.7,78.4c5.2,4.9,25.5,3.2,31.6,1.7l2.7,15.6
	C78.4,235.3,68.1,236.9,59.7,236.9z"/>
<linearGradient id="SVGID_3_" gradientUnits="userSpaceOnUse" x1="276.0405" y1="792.8373" x2="217.965" y2="782.6016" gradientTransform="matrix(1 0 0 -1 -133.48 960.37)">
	<stop  offset="4.000000e-02" style="stop-color:#FFFFFF"/>
	<stop  offset="1" style="stop-color:#C9E9FF;stop-opacity:0"/>
</linearGradient>
<path class="st14" d="M72.4,31.3l34.4-5.7c5.8-1,11.2,2.9,12.2,8.7c0.1,0.4,0.1,0.7,0.1,1.1l17.7,281.8
	c-16.1,1.5-30.5-10.1-32.4-26.1L63.7,42.9C63,37.3,66.9,32.2,72.4,31.3z"/>
<linearGradient id="SVGID_4_" gradientUnits="userSpaceOnUse" x1="343.4149" y1="795.0867" x2="404.8584" y2="789.7073" gradientTransform="matrix(1 0 0 -1 -133.48 960.37)">
	<stop  offset="0" style="stop-color:#FFFFFF"/>
	<stop  offset="1" style="stop-color:#C9E9FF;stop-opacity:0"/>
</linearGradient>
<path class="st15" d="M245.9,20.9c-0.8-3.9-4.4-6.6-8.4-6.3l-9.5,1c-5.5,1-6.3,13.5-6.6,19.8L203.7,318
	c16.1,1.5,35.4-13.6,37.3-29.6l40.8-237c0.6-4.6-10.1-7.9-14.6-9.1C260.5,40.6,249,35.3,245.9,20.9z"/>
</svg>
