<svg id="Layer_1" data-name="Layer 1" xmlns="http://www.w3.org/2000/svg" xmlns:xlink="http://www.w3.org/1999/xlink" viewBox="0 0 337.64 731.87"><defs><style>.cls-1{fill:#bae1ee;}.cls-1,.cls-10{opacity:0.4;}.cls-1,.cls-10,.cls-11,.cls-13,.cls-14{isolation:isolate;}.cls-2{fill:#333;}.cls-3{fill:#1a1a1a;}.cls-4{fill:#e9e9e9;}.cls-5{fill:#f6f6f6;}.cls-6{fill:#e6e6e6;}.cls-7{fill:#4d4d4d;}.cls-8{fill:#d5d5d5;}.cls-9{fill:#323232;}.cls-10{fill:url(#linear-gradient);}.cls-11{fill:#c9e9ff;opacity:0.3;}.cls-12,.cls-13{fill:#fff;}.cls-13,.cls-14{opacity:0.5;}.cls-14{fill:url(#linear-gradient-2);}.cls-15{fill:url(#linear-gradient-3);}.cls-16{fill:url(#linear-gradient-4);}</style><linearGradient id="linear-gradient" x1="171.28" y1="-28.24" x2="439.23" y2="-28.24" gradientTransform="translate(0 -95)" gradientUnits="userSpaceOnUse"><stop offset="0" stop-color="#fff"/><stop offset="1" stop-color="#c9e9ff" stop-opacity="0"/></linearGradient><linearGradient id="linear-gradient-2" x1="148.05" y1="-53.05" x2="213.2" y2="-53.05" gradientTransform="translate(0 -95)" gradientUnits="userSpaceOnUse"><stop offset="0" stop-color="#fff"/><stop offset="1" stop-color="#c9e9ff" stop-opacity="0.7"/></linearGradient><linearGradient id="linear-gradient-3" x1="276.04" y1="-60.84" x2="217.94" y2="-50.6" gradientTransform="translate(0 -95)" gradientUnits="userSpaceOnUse"><stop offset="0.04" stop-color="#fff"/><stop offset="1" stop-color="#c9e9ff" stop-opacity="0"/></linearGradient><linearGradient id="linear-gradient-4" x1="343.42" y1="-63.09" x2="404.87" y2="-57.71" xlink:href="#linear-gradient"/></defs><title>blender</title><path class="cls-1" d="M193.2-86.5c-8.5,0-18.2-1.7-24.6-8.1-8.6-8.6-22.6-95.3-20.3-98.1,9.5-11.9,38.5-16.2,44.2-16.9l2.7,15.9-1.7-8,1.5,7.9c-12.9,1.7-27.4,5.1-31.8,9.5-1.1,4.8,13.1,74.8,15.7,78.4,5.2,4.9,25.5,3.2,31.6,1.7l2.7,15.6C211.9-88.1,201.6-86.5,193.2-86.5Z" transform="translate(-133.48 323.37)"/><path class="cls-1" d="M394.8,63c0-1.7-.1-3.5-0.3-5.5-1.5-13-4.5-44-7-50S377.5-4,377.5-4L421-279.3s7.4-3.9,14.4-20.2c2.5-5.3,3.3-17.3,3.2-18.5a2.93,2.93,0,0,0-3.3-2.5c-4.4.6-13.9,2-15.2,3-2.5,2,.5,18.7-6,17.2s-7.1-22.5-9.6-22.5c-0.6,0-3.7.1-8.9,0.4-5.9.1-16.8,0.6-34,1.7-18,.9-40.2,2.1-63.6,3.4-55.5,3-122.5,16.5-124.5,17.5a4.19,4.19,0,0,0-1.5,6c1.5,2,6,5.5,7.5,10.5C180.4-280.4,228-3,228-3s-7.5,4-10.5,10.5-8,44.5-8,50c0,1.6-.3,3.5-0.4,5.7C202.3,64.3,402.1,63.9,394.8,63Z" transform="translate(-133.48 323.37)"/><path class="cls-2" d="M296.3,400.5c-26,0-99-4-99-4v6c0,3-12,6-25,6s-18-4.3-18-7v-14c0-2-7,2-9-9s-5-82-5-82,130,2,160.7,2,163-2,163-2-3,71-5,82-9,7-9,9v14c0,2.7-5,7-18,7s-25-3-25-6v-6s-73,4-99,4H296.3Z" transform="translate(-133.48 323.37)"/><path class="cls-3" d="M432,403.5c-9.6,0-17.2-1.7-20-2.9v-4.4l-5.3.3c-0.7,0-73.2,4-98.7,4H296.3c-25.6,0-98-4-98.7-4l-5.3-.3v4.4c-2.8,1.2-10.4,2.9-20,2.9-8.2,0-11.9-1.9-13-2.8V387.5c0-.9,20.3-0.9,32.3-0.9a8.49,8.49,0,0,0,8.5-8.5V351.6s74,1.9,100.8,1.9,105-1.9,105-1.9V378a8.49,8.49,0,0,0,8.5,8.5c11.5,0,30.5.1,30.5,0.9v13.2C443.9,401.6,440.2,403.5,432,403.5Z" transform="translate(-133.48 323.37)"/><path class="cls-4" d="M460.5,116.5C458.5,97,447,77.5,430,75l-17-2.5H191.5l-17,2.5c-17,2.5-28.5,22-30.5,41.5S133,268,133.5,274s7,22.5,7,22.5,112.4,1.9,160.5,2h2.6c48-.1,160.5-2,160.5-2s6.5-16.5,7-22.5S462.5,136,460.5,116.5Z" transform="translate(-133.48 323.37)"/><path class="cls-5" d="M150.5,263.5c-7.5-8.5-4-41-1-72.5s5.5-70,12.5-75,140.5-8.5,140.5-8.5c34.5,0,134,3.5,141,8.5s9.5,43.5,12.5,75,6.5,64-1,72.5-93,12-152.5,12C302.5,275.5,158,272,150.5,263.5Z" transform="translate(-133.48 323.37)"/><path class="cls-6" d="M151.5,220.3c3-31.1,5.4-95.7,12.3-100.7s138.7-8.4,138.7-8.4c34,0,132.3,3.5,139.2,8.4s9.4,69.6,12.3,100.7" transform="translate(-133.48 323.37)"/><path class="cls-3" d="M436.2,178.5a10,10,0,0,1-10,10h-26a10,10,0,0,1-10-10v-37a10,10,0,0,1,10-10h26a10,10,0,0,1,10,10v37Z" transform="translate(-133.48 323.37)"/><path class="cls-2" d="M425.9,181.5H400.5a3.8,3.8,0,0,1-3.8-3.8V142.3a3.8,3.8,0,0,1,3.8-3.8h25.4a3.8,3.8,0,0,1,3.8,3.8v35.4A3.8,3.8,0,0,1,425.9,181.5Z" transform="translate(-133.48 323.37)"/><path class="cls-7" d="M425.8,170H400.4a3.8,3.8,0,0,0-3.8,3.8v3.4a3.8,3.8,0,0,0,3.8,3.8h25.4a3.8,3.8,0,0,0,3.8-3.8v-3.4A3.68,3.68,0,0,0,425.8,170Z" transform="translate(-133.48 323.37)"/><path class="cls-3" d="M217.2,178.5a10,10,0,0,1-10,10h-26a10,10,0,0,1-10-10v-37a10,10,0,0,1,10-10h26a10,10,0,0,1,10,10v37Z" transform="translate(-133.48 323.37)"/><path class="cls-2" d="M206.9,181.5H181.5a3.8,3.8,0,0,1-3.8-3.8V142.3a3.8,3.8,0,0,1,3.8-3.8h25.4a3.8,3.8,0,0,1,3.8,3.8v35.4A3.8,3.8,0,0,1,206.9,181.5Z" transform="translate(-133.48 323.37)"/><path class="cls-7" d="M206.8,170H181.5a3.8,3.8,0,0,0-3.8,3.8v3.4a3.8,3.8,0,0,0,3.8,3.8h25.4a3.8,3.8,0,0,0,3.8-3.8v-3.4A3.82,3.82,0,0,0,206.8,170Z" transform="translate(-133.48 323.37)"/><path class="cls-8" d="M453.9,219.5c-2.9-31.4-5.4-95-12.3-99.9s-105.1-8.4-139.2-8.4c0,0-131.8,3.5-138.7,8.4s-9.4,69.6-12.3,100.7h0.2v1.2H454l-0.1-2h0ZM167.2,125.4c6.7-4.8,135.3-8.2,135.3-8.2,33.2,0,129,3.4,135.8,8.2,6.4,4.6,8.9,62.5,11.7,94.1H155.6C158.3,187.9,160.8,130,167.2,125.4Z" transform="translate(-133.48 323.37)"/><path class="cls-3" d="M280.2,185.3s-0.4-.4-1.1-1.2a10,10,0,0,1-1.3-1.5c-0.5-.6-1-1.4-1.6-2.2s-1.1-1.8-1.7-2.9c-0.3-.6-0.5-1.1-0.8-1.7-0.1-.3-0.3-0.6-0.4-0.9a4.18,4.18,0,0,0-.4-1,28.33,28.33,0,0,1-2-9.3,31.48,31.48,0,0,1,1.3-11.2,33.93,33.93,0,0,1,6-11.2,31.74,31.74,0,0,1,10.7-8.4,32.39,32.39,0,0,1,13.7-3.2,31.55,31.55,0,0,1,13.9,2.9,34.06,34.06,0,0,1,11.1,8.3,33.18,33.18,0,0,1,6.5,11.3,32.16,32.16,0,0,1,1.6,11.6,31.69,31.69,0,0,1-1.8,9.8,3,3,0,0,1-.4,1c-0.1.3-.3,0.7-0.4,1-0.3.6-.6,1.3-0.8,1.8-0.6,1.1-1.2,2.2-1.8,3.1a27.7,27.7,0,0,1-1.7,2.3,12.21,12.21,0,0,1-1.4,1.6c-0.8.9-1.2,1.3-1.2,1.3l-2.8-2.8,1.1-1.1c0.3-.4.8-0.8,1.2-1.4s1-1.3,1.5-2,1.1-1.7,1.6-2.7a11.94,11.94,0,0,1,.8-1.6c0.1-.3.3-0.6,0.4-0.9l0.3-.9a27.86,27.86,0,0,0,1.9-8.7A29.81,29.81,0,0,0,331,154a30.14,30.14,0,0,0-5.6-10.4,29.73,29.73,0,0,0-10-7.9,31.39,31.39,0,0,0-12.9-3.1A30.2,30.2,0,0,0,279,143.1a30.76,30.76,0,0,0-6.1,10.6,30.2,30.2,0,0,0-1.5,10.9,28.44,28.44,0,0,0,1.7,9.2c0.1,0.3.2,0.7,0.3,1s0.3,0.6.4,0.9c0.3,0.6.5,1.2,0.8,1.7,0.6,1.1,1.1,2,1.6,2.9s1.1,1.6,1.6,2.2a10,10,0,0,0,1.3,1.5C279.8,184.8,280.2,185.3,280.2,185.3Z" transform="translate(-133.48 323.37)"/><circle class="cls-3" cx="169.02" cy="486.37" r="27.5"/><path class="cls-7" d="M284.5,180.5c0.6,0.6,1.3,1.2,1.9,1.7L327,158.8a23.17,23.17,0,0,0-2.7-7.9L278,156.2A24.91,24.91,0,0,0,284.5,180.5Z" transform="translate(-133.48 323.37)"/><path d="M275.4,192v-4.3l-1.2,1.1v-1.4l1.2-1.1h1.3V192h-1.3Z" transform="translate(-133.48 323.37)"/><path d="M264.5,174.7v-1.2l2.1-2.2a0.86,0.86,0,0,0,.3-0.6,0.47,0.47,0,0,0-.5-0.5,0.5,0.5,0,0,0-.5.6h-1.3a1.65,1.65,0,0,1,1.8-1.7,1.61,1.61,0,0,1,1.8,1.7,1.75,1.75,0,0,1-.7,1.4l-1.4,1.4h2.1v1.2h-3.7v-0.1h0Z" transform="translate(-133.48 323.37)"/><path d="M266.7,155.7a1.75,1.75,0,0,1-1.9-1.8h1.3a0.6,0.6,0,0,0,1.2,0,0.65,0.65,0,0,0-.6-0.6h-0.2v-1.1h0.2a0.47,0.47,0,0,0,.5-0.5,0.43,0.43,0,0,0-.5-0.5,0.47,0.47,0,0,0-.5.5h-1.3a1.8,1.8,0,0,1,3.6,0,1.22,1.22,0,0,1-.6,1.1,1.47,1.47,0,0,1,.7,1.2A1.68,1.68,0,0,1,266.7,155.7Z" transform="translate(-133.48 323.37)"/><path d="M277.6,138.2V139h-1.2v-0.8H274V137l1.9-3.7h1.4l-1.9,3.7h0.9v-0.8h1.2V137h0.4v1.2h-0.3Z" transform="translate(-133.48 323.37)"/><path d="M293.3,129.2a2.07,2.07,0,0,1-2.7,0,1.79,1.79,0,0,1-.5-1.3h1.3a0.51,0.51,0,0,0,.5.6,0.48,0.48,0,0,0,.4-0.1,1,1,0,0,0,.2-0.7c0-.6-0.2-0.8-0.5-0.8a0.45,0.45,0,0,0-.5.4h-1.2V124h3.5v1.2h-2.3v0.9a1.29,1.29,0,0,1,.8-0.2,1.6,1.6,0,0,1,1.1.4,1.84,1.84,0,0,1,.5,1.5A1.54,1.54,0,0,1,293.3,129.2Z" transform="translate(-133.48 323.37)"/><path d="M313,129.7a1.76,1.76,0,0,1-1.9-1.8,5.49,5.49,0,0,1,.5-1.7l1.1-2.3h1.4l-1.1,2.2h0.3a1.59,1.59,0,0,1,1.5,1.7A1.66,1.66,0,0,1,313,129.7Zm0-2.5a0.6,0.6,0,1,0,.6.6A0.58,0.58,0,0,0,313,127.2Z" transform="translate(-133.48 323.37)"/><path d="M330.5,139h-1.4l1.8-4.5h-1.2v0.9h-1.2v-2.1h3.9v1.2Z" transform="translate(-133.48 323.37)"/><path d="M340,156a1.76,1.76,0,0,1-1.9-1.8,1.51,1.51,0,0,1,.6-1.2,1.46,1.46,0,0,1-.6-1.1,1.91,1.91,0,0,1,3.8,0,1.29,1.29,0,0,1-.6,1.1,1.51,1.51,0,0,1,.6,1.2A1.7,1.7,0,0,1,340,156Zm0-2.3a0.6,0.6,0,1,0,.6.6A0.58,0.58,0,0,0,340,153.7Zm0-2.3a0.5,0.5,0,1,0,.5.5A0.47,0.47,0,0,0,340,151.4Z" transform="translate(-133.48 323.37)"/><path d="M341.4,173.1l-1.1,2.3h-1.4l1.1-2.2h-0.3a1.59,1.59,0,0,1-1.5-1.7,1.9,1.9,0,0,1,3.8,0A16.59,16.59,0,0,1,341.4,173.1Zm-1.4-2.3a0.6,0.6,0,1,0,.6.6A0.58,0.58,0,0,0,340,170.8Z" transform="translate(-133.48 323.37)"/><path d="M330.5,191.7v-4.3l-1.2,1.1V187l1.2-1.1h1.3v5.7l-1.3.1h0Z" transform="translate(-133.48 323.37)"/><path d="M335.2,191.7a1.73,1.73,0,0,1-1.8-1.8v-2.2a1.8,1.8,0,1,1,3.6,0v2.2A1.63,1.63,0,0,1,335.2,191.7Zm0.5-4a0.51,0.51,0,1,0-1,0v2.2a0.51,0.51,0,1,0,1,0v-2.2Z" transform="translate(-133.48 323.37)"/><path id="_Path_" data-name="&lt;Path&gt;" class="cls-7" d="M201.8,254a9.23,9.23,0,0,1-6-2.2l-0.1-.1-0.1-.1a15.61,15.61,0,0,1-4.2-6.3,14.39,14.39,0,0,0-3.6-5.7l-0.3-.3a6.35,6.35,0,0,0-8.6.6,7,7,0,0,0,0,9.8,6.35,6.35,0,0,0,8.6.6l0.2-.2a1.39,1.39,0,0,1,1.9,0,1.15,1.15,0,0,1,0,1.7l-0.3.2a9.43,9.43,0,0,1-5.9,2.1,9.22,9.22,0,0,1-9.2-9.3,9.41,9.41,0,0,1,2.6-6.5,9.25,9.25,0,0,1,12.5-.7l0.3,0.3a16.13,16.13,0,0,1,4.4,6.7,13.74,13.74,0,0,0,3.5,5.3l0.1,0.1,0.1,0.1a6.29,6.29,0,0,0,4.1,1.5,6.46,6.46,0,0,0,4.6-2,7,7,0,0,0,0-9.8,6.29,6.29,0,0,0-4.6-2,7,7,0,0,0-3.9,1.3l-0.4.4a1.39,1.39,0,0,1-1.9,0,1.15,1.15,0,0,1,0-1.7l0.5-.4a8.91,8.91,0,0,1,5.7-1.9,9.22,9.22,0,0,1,9.2,9.3A9.05,9.05,0,0,1,201.8,254Z" transform="translate(-133.48 323.37)"/><path class="cls-9" d="M389.7,62.7s-1.3-41.3-8-50.7C373.5,0.6,229.8,1.8,222.4,12c-7.3,10-7,50.7-7,50.7-13.3,0-23.3,6-23.3,18.7s6,16,22,16h177c16,0,22-3.3,22-16S403,62.7,389.7,62.7Z" transform="translate(-133.48 323.37)"/><path class="cls-3" d="M192,79.3c0,12.7,6,18,22,18H391c16,0,22-5.3,22-18,0,0-8,4-23.3,4H216.4A74.78,74.78,0,0,1,192,79.3Z" transform="translate(-133.48 323.37)"/><path class="cls-10" d="M302,76h81c9,0,13-5.5,11.5-18.5s-4.5-44-7-50S377.5-4,377.5-4L421-279.87s7.5-3,14.5-19.5,2-22,2-22-15,1.3-17.5,3.3,0.5,18.7-6,17.2-7-22.5-9.5-22.5-51,2.5-106.5,5.5-122.5,16.5-124.5,17.5a4.19,4.19,0,0,0-1.5,6c1.5,2,6,5.5,7.5,10.5S228-3,228-3s-7.5,4-10.5,10.5-8,44.5-8,50S206,74,218,76,302,76,302,76Z" transform="translate(-133.48 323.37)"/><path class="cls-11" d="M391.2,47.5c-0.4-14.4-5.3-31.5-6.3-34.9-0.7-3.3-5.4-8.7-9.6-10.1-2.9-1-37.8-3.5-72.8-3.5-35.4,0-71,2.5-74,3.5-3.7,1.2-7.8,5.6-9.2,8.9L219,12s-6,19.5-6.5,35.5-1,21,5,22,3.5,0.5,5-32.5c0.8-18.5,2.5-21.8,6.5-21.8a34.86,34.86,0,0,0,4.4-.3h0.3c14.8-.6,39.8-1.9,68.2-1.9s53.3,1.3,68.1,1.9h0.3c1.5,0.1,3.1.3,4.4,0.3,4,0,5.7,3.3,6.5,21.8,1.5,33-1,33.5,5,32.5S391.7,63.5,391.2,47.5Z" transform="translate(-133.48 323.37)"/><path class="cls-11" d="M380.3,13.2c-3.6,0-9.9-.3-17.8-0.6C347,11.9,325.9,11,301.9,11s-45.1.9-60.6,1.6c-7.9.3-14.2,0.6-17.8,0.6a15.73,15.73,0,0,1-2.7-.1c0.3-1.9,4.2-7.3,8.3-8.7,2.6-.8,36.7-3.4,73.2-3.4h0.1c36,0,69.6,2.6,72.2,3.4,4.1,1.4,8,6.8,8.3,8.7a13.65,13.65,0,0,1-2.6.1h0Z" transform="translate(-133.48 323.37)"/><path class="cls-12" d="M376.9,9.1c-2.5-.1-8.9-0.3-14.3-0.5C347.1,7.9,325.9,7,301.9,7s-45.2.9-60.7,1.6c-5.4.2-11.8,0.4-14.3,0.5h0a0.16,0.16,0,0,1-.2-0.2c-0.1-.2,0-0.3.1-0.3a9.43,9.43,0,0,1,3.3-2.3c2.6-.6,36.1-3.2,72.3-3.2h0.1c35.6,0,68.7,2.6,71.3,3.2a9.92,9.92,0,0,1,3.3,2.3,0.44,0.44,0,0,1,.1.3,0.28,0.28,0,0,1-.3.2h0Z" transform="translate(-133.48 323.37)"/><path class="cls-13" d="M435.3-319.6c-1.2,1.3,1.3,8.7-3.7,19.5-3,6.5-11.3,6.7-18.7,4s-9.3-24-12.7-24.7-60,2.7-102,6-122,16-124,18,6,6.7,9.3,10.7S231.8,1.4,231.8,1.4c-0.3,1,47.7-2.6,68.3-2.6s73.3,3.3,73.7,2.6c1.4-2.7,44-278.5,46-280.6s6.8-3.6,12-13.2c8-14.7,6.8-23.7,6.2-26.7C437.7-321.6,436.2-320.6,435.3-319.6Zm-17.1,36.4a12,12,0,0,0-1.1,1.2c-1.1,1.2-40.4,233-41.7,243.4A38.08,38.08,0,0,1,336.1-5.3c-1.5-.1-2.9-0.1-4.1-0.2-12.4-.6-50.3-0.8-61.1-0.4h-0.3A38.17,38.17,0,0,1,231.5-39c-4.4-33.9-43.8-248.4-44.9-249.7v-0.1a4.48,4.48,0,0,1,2.6-7.3c24.4-4.4,76.9-12.2,109.4-14.8,37.2-3,88.4-6.1,99.6-6.1h0.2c0.6,1.4,1.3,3.8,1.9,5.8,2.4,7.7,5,16.5,11.2,18.7a31,31,0,0,0,10.1,1.9,19.27,19.27,0,0,0,2.4-.1A38.64,38.64,0,0,1,418.2-283.2Z" transform="translate(-133.48 323.37)"/><path class="cls-14" d="M193.2-86.5c-8.5,0-18.2-1.7-24.6-8.1-8.6-8.6-22.6-95.3-20.3-98.1,9.5-11.9,38.5-16.2,44.2-16.9l2.7,15.9-0.2-.1c-12.9,1.7-27.4,5.1-31.8,9.5-1.1,4.8,13.1,74.8,15.7,78.4,5.2,4.9,25.5,3.2,31.6,1.7l2.7,15.6C211.9-88.1,201.6-86.5,193.2-86.5Z" transform="translate(-133.48 323.37)"/><path class="cls-15" d="M205.9-292.1l34.4-5.7a10.59,10.59,0,0,1,12.3,9.8L270.3-6.2a29.83,29.83,0,0,1-32.4-26.1L197.2-280.5A10.47,10.47,0,0,1,205.9-292.1Z" transform="translate(-133.48 323.37)"/><path class="cls-16" d="M379.4-302.5a8,8,0,0,0-8.4-6.3l-9.5,1c-5.5,1-6.3,13.5-6.6,19.8L337.2-5.4C353.3-3.9,372.6-19,374.5-35l40.8-237c0.6-4.6-10.1-7.9-14.6-9.1C394-282.8,382.5-288.1,379.4-302.5Z" transform="translate(-133.48 323.37)"/></svg>