<?xml version="1.0" encoding="utf-8"?>
<!-- Generator: Adobe Illustrator 19.2.0, SVG Export Plug-In . SVG Version: 6.00 Build 0)  -->
<!DOCTYPE svg PUBLIC "-//W3C//DTD SVG 1.1//EN" "http://www.w3.org/Graphics/SVG/1.1/DTD/svg11.dtd">
<svg version="1.1" id="Layer_1" xmlns="http://www.w3.org/2000/svg" xmlns:xlink="http://www.w3.org/1999/xlink" x="0px" y="0px"
	 viewBox="0 0 250 350" style="enable-background:new 0 0 250 350;" xml:space="preserve">
<style type="text/css">
	.st0{opacity:0.4;fill:#BAE1EE;enable-background:new    ;}
	.st1{opacity:0.4;fill:url(#SVGID_1_);enable-background:new    ;}
	.st2{opacity:0.15;fill:url(#SVGID_2_);enable-background:new    ;}
	.st3{opacity:0.3;fill:#C9E9FF;enable-background:new    ;}
	.st4{fill:#FFFFFF;}
	.st5{opacity:0.5;fill:#FFFFFF;enable-background:new    ;}
	.st6{opacity:0.4;fill:url(#SVGID_3_);enable-background:new    ;}
	.st7{opacity:0.6;fill:url(#SVGID_4_);enable-background:new    ;}
	.st8{opacity:0.6;fill:url(#SVGID_5_);enable-background:new    ;}
</style>
<g>
	<path class="st0" d="M38.6,205.7c-7.3,0-15.5-1.5-21-6.9c-7.3-7.3-19.3-81.4-17.3-83.8c8.1-10.2,32.9-13.8,37.8-14.4l2.3,13.6
		l-1.5-6.8l1.3,6.7c-11,1.5-23.4,4.4-27.2,8.1c-0.9,4.1,11.2,63.9,13.4,67c4.4,4.2,21.8,2.7,27,1.5l2.3,13.3
		C54.6,204.3,45.8,205.7,38.6,205.7z"/>
	
		<linearGradient id="SVGID_1_" gradientUnits="userSpaceOnUse" x1="19.8923" y1="183.0009" x2="248.2457" y2="183.0009" gradientTransform="matrix(1 0 0 -1 0 352)">
		<stop  offset="0" style="stop-color:#BAE1EE;stop-opacity:0.6"/>
		<stop  offset="0.5084" style="stop-color:#BAE1EE;stop-opacity:0.3"/>
		<stop  offset="1" style="stop-color:#BAE1EE;stop-opacity:0.6"/>
	</linearGradient>
	<path class="st1" d="M210.8,333.4c0-1.5-0.1-3-0.3-4.7c-1.3-11.1-3.8-37.6-6-42.7c-2.1-5.1-8.5-9.8-8.5-9.8L233.2,41
		c0,0,6.3-3.3,12.3-17.3c2.1-4.5,2.8-14.8,2.7-15.8c-0.2-1.4-1.5-2.3-2.8-2.1c-3.8,0.5-11.9,1.7-13,2.6c-2.1,1.7,0.4,16-5.1,14.7
		c-5.6-1.3-6.1-19.2-8.2-19.2c-0.5,0-3.2,0.1-7.6,0.3c-5,0.1-14.4,0.5-29,1.5c-15.4,0.8-34.3,1.8-54.3,2.9
		C80.7,11.1,23.5,22.6,21.8,23.5c-1.7,0.9-2.4,3.1-1.5,4.9c0.1,0.1,0.1,0.2,0.2,0.3c1.3,1.7,5.1,4.7,6.4,9
		C27.7,40.1,68.3,277,68.3,277s-6.4,3.4-9,9c-2.6,5.6-6.8,38-6.8,42.7c0,1.4-0.3,3-0.3,4.9C46.4,334.5,217.1,334.2,210.8,333.4z"/>
	
		<linearGradient id="SVGID_2_" gradientUnits="userSpaceOnUse" x1="153.3723" y1="-486.0648" x2="382.257" y2="-486.0648" gradientTransform="matrix(1 0 0 1 -133.48 660.37)">
		<stop  offset="0" style="stop-color:#FFFFFF"/>
		<stop  offset="1" style="stop-color:#C9E9FF;stop-opacity:0"/>
	</linearGradient>
	<path class="st2" d="M131.5,344.5h69.2c7.7,0,11.1-4.7,9.8-15.8c-1.3-11.1-3.8-37.6-6-42.7c-2.1-5.1-8.5-9.8-8.5-9.8l37.2-235.7
		c0,0,6.4-2.6,12.4-16.7S247.3,5,247.3,5s-12.8,1.1-14.9,2.8s0.4,16-5.1,14.7c-5.6-1.3-6-19.2-8.1-19.2s-43.6,2.1-91,4.7
		S23.5,22.1,21.8,23c-1.7,0.9-2.4,3.1-1.5,4.9c0.1,0.1,0.1,0.2,0.2,0.3c1.3,1.7,5.1,4.7,6.4,9s41.4,240,41.4,240s-6.4,3.4-9,9
		c-2.6,5.6-6.8,38-6.8,42.7s-3,14.1,7.3,15.8C70,346.2,131.5,344.5,131.5,344.5z"/>
	<path class="st3" d="M207.7,320.2c-0.3-12.3-4.5-26.9-5.4-29.8c-0.6-2.8-4.6-7.4-8.2-8.6c-2.5-0.9-32.3-3-62.2-3
		c-30.2,0-60.7,2.1-63.2,3c-3.2,1-6.7,4.8-7.9,7.6l-0.3,0.5c0,0-5.1,16.7-5.6,30.3c-0.4,13.7-0.9,17.9,4.3,18.8
		c5.1,0.9,3,0.4,4.3-27.8c0.7-15.8,2.1-18.6,5.6-18.6c1.3,0,2.5-0.1,3.8-0.3h0.3c12.6-0.5,34-1.6,58.3-1.6s45.5,1.1,58.2,1.6h0.3
		c1.3,0.1,2.6,0.3,3.8,0.3c3.4,0,4.9,2.8,5.6,18.6c1.3,28.2-0.9,28.6,4.3,27.8C208.6,338.1,208.2,333.8,207.7,320.2z"/>
	<path class="st4" d="M195.5,287.4c-2.1-0.1-7.6-0.3-12.2-0.4c-13.2-0.6-31.4-1.4-51.9-1.4s-38.6,0.8-51.9,1.4
		c-4.6,0.2-10.1,0.3-12.2,0.4l0,0c-0.1,0-0.2,0-0.2-0.1v-0.1c-0.1-0.2,0-0.3,0.1-0.3c0.8-0.9,1.7-1.5,2.8-2
		c2.2-0.5,30.8-2.7,61.8-2.7h0.1c30.4,0,58.7,2.2,60.9,2.7c1,0.4,2.1,1.1,2.8,2c0.1,0.1,0.1,0.2,0.1,0.3
		C195.8,287.3,195.7,287.4,195.5,287.4L195.5,287.4L195.5,287.4z"/>
	<path class="st5" d="M245.4,6.6c-1,1.1,1.1,7.4-3.2,16.7c-2.6,5.6-9.7,5.7-16,3.4c-6.3-2.3-7.9-20.5-10.8-21.1
		c-2.9-0.6-51.3,2.3-87.1,5.1S24.1,24.3,22.4,26s5.1,5.7,7.9,9.1s41.3,245.6,41.3,245.6c-0.3,0.9,40.7-2.2,58.3-2.2s62.6,2.8,63,2.2
		c1.2-2.3,37.6-237.9,39.3-239.7c1.7-1.8,5.8-3.1,10.3-11.3c6.8-12.6,5.8-20.2,5.3-22.8C247.5,4.9,246.2,5.7,245.4,6.6z M230.8,37.7
		c-0.3,0.3-0.7,0.7-0.9,1c-0.9,1-34.5,199-35.6,207.9c-2.1,16.7-16.7,29.1-33.6,28.4c-1.3-0.1-2.5-0.1-3.5-0.2
		c-10.6-0.5-43-0.7-52.2-0.3h-0.3c-16.7,0.6-31.2-11.7-33.4-28.3C67.6,217.3,33.9,34.1,33,33v-0.1c-1.4-1.6-1.2-4,0.4-5.4
		c0.5-0.4,1.1-0.7,1.8-0.9C56,22.9,100.9,16.2,128.6,14c31.8-2.6,75.5-5.2,85.1-5.2h0.2c0.5,1.2,1.1,3.2,1.6,5
		c2.1,6.6,4.3,14.1,9.6,16c2.7,1,5.7,1.5,8.6,1.6c0.7,0,1.4,0,2.1-0.1C234.4,33.6,232.8,35.7,230.8,37.7L230.8,37.7z"/>
	
		<linearGradient id="SVGID_3_" gradientUnits="userSpaceOnUse" x1="133.5055" y1="-507.2463" x2="189.1634" y2="-507.2463" gradientTransform="matrix(1 0 0 1 -133.48 660.37)">
		<stop  offset="0" style="stop-color:#FFFFFF"/>
		<stop  offset="1" style="stop-color:#C9E9FF;stop-opacity:0.7"/>
	</linearGradient>
	<path class="st6" d="M38.6,205.7c-7.3,0-15.5-1.5-21-6.9c-7.3-7.3-19.3-81.4-17.3-83.8c8.1-10.2,32.9-13.8,37.8-14.4l2.3,13.6
		l-0.2-0.1c-11,1.5-23.4,4.4-27.2,8.1c-0.9,4.1,11.2,63.9,13.4,67c4.4,4.2,21.8,2.7,27,1.5l2.3,13.3
		C54.6,204.3,45.8,205.7,38.6,205.7z"/>
	
		<linearGradient id="SVGID_4_" gradientUnits="userSpaceOnUse" x1="242.8679" y1="-513.9025" x2="193.2241" y2="-505.1529" gradientTransform="matrix(1 0 0 1 -133.48 660.37)">
		<stop  offset="4.000000e-02" style="stop-color:#FFFFFF"/>
		<stop  offset="1" style="stop-color:#C9E9FF;stop-opacity:0"/>
	</linearGradient>
	<path class="st7" d="M49.4,30.1l29.4-4.9c5-0.9,9.6,2.5,10.4,7.4c0.1,0.3,0.1,0.6,0.1,0.9l15.1,240.7c-13.8,1.3-26.1-8.6-27.7-22.3
		L42,40C41.4,35.2,44.7,30.8,49.4,30.1z"/>
	
		<linearGradient id="SVGID_5_" gradientUnits="userSpaceOnUse" x1="300.4039" y1="-515.822" x2="352.8941" y2="-511.2265" gradientTransform="matrix(1 0 0 1 -133.48 660.37)">
		<stop  offset="0" style="stop-color:#FFFFFF"/>
		<stop  offset="1" style="stop-color:#C9E9FF;stop-opacity:0"/>
	</linearGradient>
	<path class="st8" d="M197.7,21.2c-0.7-3.3-3.8-5.6-7.2-5.4l-8.1,0.9c-4.7,0.9-5.4,11.5-5.6,16.9L161.6,275
		c13.8,1.3,30.2-11.6,31.9-25.3l34.9-202.5c0.5-3.9-8.6-6.7-12.5-7.8C210.1,38,200.3,33.5,197.7,21.2z"/>
</g>
</svg>
