<?xml version="1.0" encoding="utf-8"?>
<!-- Generator: Adobe Illustrator 19.2.0, SVG Export Plug-In . SVG Version: 6.00 Build 0)  -->
<!DOCTYPE svg PUBLIC "-//W3C//DTD SVG 1.1//EN" "http://www.w3.org/Graphics/SVG/1.1/DTD/svg11.dtd">
<svg version="1.1" id="Layer_1" xmlns="http://www.w3.org/2000/svg" xmlns:xlink="http://www.w3.org/1999/xlink" x="0px" y="0px"
	 viewBox="0 0 296 634" style="enable-background:new 0 0 296 634;" xml:space="preserve">
<style type="text/css">
	.st0{opacity:0.4;fill:#BAE1EE;enable-background:new    ;}
	.st1{opacity:0.4;fill:url(#SVGID_1_);enable-background:new    ;}
	.st2{fill:#333333;}
	.st3{fill:#1A1A1A;}
	.st4{fill:#E9E9E9;}
	.st5{fill:#F6F6F6;}
	.st6{fill:#E6E6E6;}
	.st7{fill:#D5D5D5;}
	.st8{fill:#4D4D4D;}
	.st9{fill:#323232;}
	.st10{opacity:0.15;fill:url(#SVGID_2_);enable-background:new    ;}
	.st11{opacity:0.3;fill:#C9E9FF;enable-background:new    ;}
	.st12{fill:#FFFFFF;}
	.st13{opacity:0.5;fill:#FFFFFF;enable-background:new    ;}
	.st14{opacity:0.4;fill:url(#SVGID_3_);enable-background:new    ;}
	.st15{opacity:0.6;fill:url(#SVGID_4_);enable-background:new    ;}
	.st16{opacity:0.6;fill:url(#SVGID_5_);enable-background:new    ;}
</style>
<title>blender</title>
<path class="st0" d="M54.6,206.7c-7.3,0-15.5-1.5-21-6.9c-7.3-7.3-19.3-81.4-17.3-83.8c8.1-10.2,32.9-13.8,37.8-14.4l2.3,13.6
	l-1.5-6.8l1.3,6.7c-11,1.5-23.4,4.4-27.2,8.1c-0.9,4.1,11.2,63.9,13.4,67c4.4,4.2,21.8,2.7,27,1.5l2.3,13.3
	C70.6,205.3,61.8,206.7,54.6,206.7z"/>
<linearGradient id="SVGID_1_" gradientUnits="userSpaceOnUse" x1="35.8923" y1="464.0009" x2="264.2457" y2="464.0009" gradientTransform="matrix(1 0 0 -1 0 634)">
	<stop  offset="0" style="stop-color:#BAE1EE;stop-opacity:0.6"/>
	<stop  offset="0.5084" style="stop-color:#BAE1EE;stop-opacity:0.3"/>
	<stop  offset="1" style="stop-color:#BAE1EE;stop-opacity:0.6"/>
</linearGradient>
<path class="st1" d="M226.8,334.4c0-1.5-0.1-3-0.3-4.7c-1.3-11.1-3.8-37.6-6-42.7c-2.1-5.1-8.5-9.8-8.5-9.8L249.2,42
	c0,0,6.3-3.3,12.3-17.3c2.1-4.5,2.8-14.8,2.7-15.8c-0.2-1.4-1.5-2.3-2.8-2.1c-3.8,0.5-11.9,1.7-13,2.6c-2.1,1.7,0.4,16-5.1,14.7
	c-5.6-1.3-6.1-19.2-8.2-19.2c-0.5,0-3.2,0.1-7.6,0.3c-5,0.1-14.4,0.5-29,1.5c-15.4,0.8-34.3,1.8-54.3,2.9
	C96.7,12.1,39.5,23.6,37.8,24.5c-1.7,0.9-2.4,3.1-1.5,4.9c0.1,0.1,0.1,0.2,0.2,0.3c1.3,1.7,5.1,4.7,6.4,9
	C43.7,41.1,84.3,278,84.3,278s-6.4,3.4-9,9c-2.6,5.6-6.8,38-6.8,42.7c0,1.4-0.3,3-0.3,4.9C62.4,335.5,233.1,335.2,226.8,334.4z"/>
<path class="st2" d="M142.7,622.7c-22.2,0-84.6-3.4-84.6-3.4v5.1c0,2.6-10.3,5.1-21.4,5.1s-15.4-3.7-15.4-6v-12c0-1.7-6,1.7-7.7-7.7
	c-1.7-9.4-4.3-70.1-4.3-70.1s111.1,1.7,137.3,1.7s139.2-1.7,139.2-1.7s-2.6,60.7-4.3,70.1c-1.7,9.4-7.7,6-7.7,7.7v12
	c0,2.3-4.3,6-15.4,6c-11.1,0-21.4-2.6-21.4-5.1v-5.1c0,0-62.4,3.4-84.6,3.4H142.7z"/>
<path class="st3" d="M258.6,625.3c-8.2,0-14.7-1.5-17.1-2.5v-3.8l-4.5,0.3c-0.6,0-62.5,3.4-84.3,3.4h-10c-21.9,0-83.7-3.4-84.3-3.4
	l-4.5-0.3v3.8c-2.4,1-8.9,2.5-17.1,2.5c-7,0-10.2-1.6-11.1-2.4v-11.3c0-0.8,17.3-0.8,27.6-0.8c4,0,7.3-3.2,7.3-7.3l0,0V581
	c0,0,63.2,1.6,86.1,1.6s89.7-1.6,89.7-1.6v22.6c0,4,3.2,7.3,7.3,7.3l0,0c9.8,0,26.1,0.1,26.1,0.8v11.3
	C268.8,623.7,265.6,625.3,258.6,625.3z"/>
<path class="st4" d="M282.9,380.1c-1.7-16.7-11.5-33.3-26.1-35.5l-14.5-2.1H53.1l-14.5,2.1c-14.5,2.1-24.3,18.8-26.1,35.5
	s-9.4,129.4-9,134.5c0.4,5.1,6,19.2,6,19.2s96,1.6,137.1,1.7h2.2c41-0.1,137.1-1.7,137.1-1.7s5.6-14.1,6-19.2
	C292.4,509.5,284.7,396.8,282.9,380.1z"/>
<path class="st5" d="M18.1,505.7c-6.4-7.3-3.4-35-0.9-61.9c2.6-26.9,4.7-59.8,10.7-64.1s120-7.3,120-7.3c29.5,0,114.5,3,120.5,7.3
	s8.1,37.2,10.7,64.1c2.6,26.9,5.6,54.7-0.9,61.9C271.8,513,198.8,516,148,516C148,516,24.5,513,18.1,505.7z"/>
<path class="st6" d="M19,468.8c2.6-26.6,4.6-81.8,10.5-86c5.9-4.3,118.5-7.2,118.5-7.2c29,0,113,3,118.9,7.2c5.9,4.2,8,59.5,10.5,86
	"/>
<path class="st7" d="M277.3,468.1c-2.5-26.8-4.6-81.2-10.5-85.3c-5.9-4.2-89.8-7.2-118.9-7.2c0,0-112.6,3-118.5,7.2s-8,59.5-10.5,86
	h0.2v1h258.3L277.3,468.1L277.3,468.1L277.3,468.1z M32.4,387.7c5.7-4.1,115.6-7,115.6-7c28.4,0,110.2,2.9,116,7
	c5.5,3.9,7.6,53.4,10,80.4H22.5C24.8,441.1,26.9,391.7,32.4,387.7z"/>
<path id="_Path_" class="st8" d="M61.9,497.6c-1.9,0-3.7-0.7-5.1-1.9l-0.1-0.1l-0.1-0.1c-1.6-1.5-2.8-3.3-3.6-5.4
	c-0.6-1.9-1.7-3.5-3.1-4.9l-0.3-0.3c-2.2-1.8-5.4-1.5-7.3,0.5c-2.3,2.3-2.3,6.1,0,8.4c2,2.1,5.1,2.3,7.3,0.5l0.2-0.2
	c0.4-0.4,1.2-0.4,1.6,0c0.4,0.3,0.4,1,0.1,1.4c0,0,0,0.1-0.1,0.1l-0.3,0.2c-1.5,1.2-3.2,1.8-5,1.8c-4.4,0-7.9-3.5-7.9-7.9
	c0,0,0,0,0-0.1c0-2.1,0.8-4,2.2-5.6c2.9-2.9,7.5-3.2,10.7-0.6l0.3,0.3c1.7,1.5,3,3.5,3.8,5.7c0.6,1.7,1.6,3.2,3,4.5l0.1,0.1l0.1,0.1
	c0.9,0.9,2.2,1.3,3.5,1.3c1.5,0,2.9-0.6,3.9-1.7c2.3-2.3,2.3-6.1,0-8.4c-1-1.1-2.5-1.7-3.9-1.7c-1.2,0-2.4,0.4-3.3,1.1l-0.3,0.3
	c-0.4,0.4-1.2,0.4-1.6,0c-0.4-0.3-0.4-1-0.1-1.4c0,0,0-0.1,0.1-0.1l0.4-0.3c1.4-1.1,3.1-1.6,4.9-1.6c4.4,0,7.9,3.5,7.9,7.9
	c0,0,0,0,0,0.1c0.1,4.3-3.3,7.8-7.6,7.9C62.1,497.6,62,497.6,61.9,497.6z"/>
<path class="st9" d="M222.5,334.2c0,0-1.1-35.3-6.8-43.3c-7-9.7-129.8-8.7-136.1,0c-6.2,8.5-6,43.3-6,43.3c-11.4,0-19.9,5.1-19.9,16
	s5.1,13.7,18.8,13.7h151.2c13.7,0,18.8-2.8,18.8-13.7S233.8,334.2,222.5,334.2z"/>
<path class="st3" d="M53.6,348.3c0,10.8,5.1,15.4,18.8,15.4h151.2c13.7,0,18.8-4.5,18.8-15.4c0,0-6.8,3.4-19.9,3.4h-148
	C67.3,351.8,60.3,350.6,53.6,348.3z"/>
<linearGradient id="SVGID_2_" gradientUnits="userSpaceOnUse" x1="169.3723" y1="-485.0648" x2="398.257" y2="-485.0648" gradientTransform="matrix(1 0 0 1 -133.48 660.37)">
	<stop  offset="0" style="stop-color:#FFFFFF"/>
	<stop  offset="1" style="stop-color:#C9E9FF;stop-opacity:0"/>
</linearGradient>
<path class="st10" d="M147.5,345.5h69.2c7.7,0,11.1-4.7,9.8-15.8c-1.3-11.1-3.8-37.6-6-42.7c-2.1-5.1-8.5-9.8-8.5-9.8l37.2-235.7
	c0,0,6.4-2.6,12.4-16.7S263.3,6,263.3,6s-12.8,1.1-14.9,2.8s0.4,16-5.1,14.7c-5.6-1.3-6-19.2-8.1-19.2s-43.6,2.1-91,4.7
	S39.5,23.1,37.8,24c-1.7,0.9-2.4,3.1-1.5,4.9c0.1,0.1,0.1,0.2,0.2,0.3c1.3,1.7,5.1,4.7,6.4,9c1.3,4.3,41.4,240,41.4,240
	s-6.4,3.4-9,9c-2.6,5.6-6.8,38-6.8,42.7s-3,14.1,7.3,15.8C86,347.2,147.5,345.5,147.5,345.5z"/>
<path class="st11" d="M223.7,321.2c-0.3-12.3-4.5-26.9-5.4-29.8c-0.6-2.8-4.6-7.4-8.2-8.6c-2.5-0.9-32.3-3-62.2-3
	c-30.2,0-60.7,2.1-63.2,3c-3.2,1-6.7,4.8-7.9,7.6l-0.3,0.5c0,0-5.1,16.7-5.6,30.3c-0.4,13.7-0.9,17.9,4.3,18.8
	c5.1,0.9,3,0.4,4.3-27.8c0.7-15.8,2.1-18.6,5.6-18.6c1.3,0,2.5-0.1,3.8-0.3h0.3c12.6-0.5,34-1.6,58.3-1.6s45.5,1.1,58.2,1.6h0.3
	c1.3,0.1,2.6,0.3,3.8,0.3c3.4,0,4.9,2.8,5.6,18.6c1.3,28.2-0.9,28.6,4.3,27.8C224.6,339.1,224.2,334.8,223.7,321.2z"/>
<path class="st11" d="M214.4,291.9c-3.1,0-8.5-0.3-15.2-0.5c-13.2-0.6-31.3-1.4-51.8-1.4s-38.5,0.8-51.8,1.4
	c-6.7,0.3-12.1,0.5-15.2,0.5c-0.8,0-1.5,0-2.3-0.1c0.3-1.6,3.6-6.2,7.1-7.4c2.2-0.7,31.4-2.9,62.5-2.9h0.1c30.8,0,59.5,2.2,61.7,2.9
	c3.5,1.2,6.8,5.8,7.1,7.4C216,291.9,215.2,291.9,214.4,291.9L214.4,291.9L214.4,291.9z"/>
<path class="st12" d="M211.5,288.4c-2.1-0.1-7.6-0.3-12.2-0.4c-13.2-0.6-31.4-1.4-51.9-1.4s-38.6,0.8-51.9,1.4
	c-4.6,0.2-10.1,0.3-12.2,0.4l0,0c-0.1,0-0.2,0-0.2-0.1v-0.1c-0.1-0.2,0-0.3,0.1-0.3c0.8-0.9,1.7-1.5,2.8-2
	c2.2-0.5,30.8-2.7,61.8-2.7h0.1c30.4,0,58.7,2.2,60.9,2.7c1,0.4,2.1,1.1,2.8,2c0.1,0.1,0.1,0.2,0.1,0.3
	C211.8,288.3,211.7,288.4,211.5,288.4L211.5,288.4L211.5,288.4z"/>
<path class="st13" d="M261.4,7.6c-1,1.1,1.1,7.4-3.2,16.7c-2.6,5.6-9.7,5.7-16,3.4c-6.3-2.3-7.9-20.5-10.8-21.1
	c-2.9-0.6-51.3,2.3-87.1,5.1S40.1,25.3,38.4,27s5.1,5.7,7.9,9.1c2.8,3.4,41.3,245.6,41.3,245.6c-0.3,0.9,40.7-2.2,58.3-2.2
	s62.6,2.8,63,2.2c1.2-2.3,37.6-237.9,39.3-239.7c1.7-1.8,5.8-3.1,10.3-11.3c6.8-12.6,5.8-20.2,5.3-22.8
	C263.5,5.9,262.2,6.7,261.4,7.6z M246.8,38.7c-0.3,0.3-0.7,0.7-0.9,1c-0.9,1-34.5,199-35.6,207.9c-2.1,16.7-16.7,29.1-33.6,28.4
	c-1.3-0.1-2.5-0.1-3.5-0.2c-10.6-0.5-43-0.7-52.2-0.3h-0.3c-16.7,0.6-31.2-11.7-33.4-28.3C83.6,218.3,49.9,35.1,49,34v-0.1
	c-1.4-1.6-1.2-4,0.4-5.4c0.5-0.4,1.1-0.7,1.8-0.9C72,23.9,116.9,17.2,144.6,15c31.8-2.6,75.5-5.2,85.1-5.2h0.2
	c0.5,1.2,1.1,3.2,1.6,5c2.1,6.6,4.3,14.1,9.6,16c2.7,1,5.7,1.5,8.6,1.6c0.7,0,1.4,0,2.1-0.1C250.4,34.6,248.8,36.7,246.8,38.7
	L246.8,38.7z"/>
<linearGradient id="SVGID_3_" gradientUnits="userSpaceOnUse" x1="149.5055" y1="-506.2463" x2="205.1634" y2="-506.2463" gradientTransform="matrix(1 0 0 1 -133.48 660.37)">
	<stop  offset="0" style="stop-color:#FFFFFF"/>
	<stop  offset="1" style="stop-color:#C9E9FF;stop-opacity:0.7"/>
</linearGradient>
<path class="st14" d="M54.6,206.7c-7.3,0-15.5-1.5-21-6.9c-7.3-7.3-19.3-81.4-17.3-83.8c8.1-10.2,32.9-13.8,37.8-14.4l2.3,13.6
	l-0.2-0.1c-11,1.5-23.4,4.4-27.2,8.1c-0.9,4.1,11.2,63.9,13.4,67c4.4,4.2,21.8,2.7,27,1.5l2.3,13.3
	C70.6,205.3,61.8,206.7,54.6,206.7z"/>
<linearGradient id="SVGID_4_" gradientUnits="userSpaceOnUse" x1="258.8679" y1="-512.9025" x2="209.2241" y2="-504.1529" gradientTransform="matrix(1 0 0 1 -133.48 660.37)">
	<stop  offset="4.000000e-02" style="stop-color:#FFFFFF"/>
	<stop  offset="1" style="stop-color:#C9E9FF;stop-opacity:0"/>
</linearGradient>
<path class="st15" d="M65.4,31.1l29.4-4.9c5-0.9,9.6,2.5,10.4,7.4c0.1,0.3,0.1,0.6,0.1,0.9l15.1,240.7c-13.8,1.3-26.1-8.6-27.7-22.3
	L58,41C57.4,36.2,60.7,31.8,65.4,31.1z"/>
<linearGradient id="SVGID_5_" gradientUnits="userSpaceOnUse" x1="316.4039" y1="-514.822" x2="368.8941" y2="-510.2265" gradientTransform="matrix(1 0 0 1 -133.48 660.37)">
	<stop  offset="0" style="stop-color:#FFFFFF"/>
	<stop  offset="1" style="stop-color:#C9E9FF;stop-opacity:0"/>
</linearGradient>
<path class="st16" d="M213.7,22.2c-0.7-3.3-3.8-5.6-7.2-5.4l-8.1,0.9c-4.7,0.9-5.4,11.5-5.6,16.9L177.6,276
	c13.8,1.3,30.2-11.6,31.9-25.3l34.9-202.5c0.5-3.9-8.6-6.7-12.5-7.8C226.1,39,216.3,34.5,213.7,22.2z"/>
</svg>
