<?xml version="1.0" encoding="utf-8"?>
<!-- Generator: Adobe Illustrator 19.2.0, SVG Export Plug-In . SVG Version: 6.00 Build 0)  -->
<!DOCTYPE svg PUBLIC "-//W3C//DTD SVG 1.1//EN" "http://www.w3.org/Graphics/SVG/1.1/DTD/svg11.dtd">
<svg version="1.1" id="Layer_1" xmlns="http://www.w3.org/2000/svg" xmlns:xlink="http://www.w3.org/1999/xlink" x="0px" y="0px"
	 viewBox="0 0 250 350" style="enable-background:new 0 0 250 350;" xml:space="preserve">
<style type="text/css">
	.st0{opacity:0.45;fill:url(#SVGID_1_);enable-background:new    ;}
	.st1{fill:url(#SVGID_2_);}
	.st2{opacity:0.3;fill:#B0E3E3;enable-background:new    ;}
	.st3{opacity:0.62;fill:url(#SVGID_3_);enable-background:new    ;}
	.st4{opacity:0.6;fill:#D3F9FF;enable-background:new    ;}
	.st5{opacity:0.3;fill:none;stroke:#FFFFFF;stroke-width:4;stroke-miterlimit:1;enable-background:new    ;}
	.st6{fill:url(#SVGID_4_);}
	.st7{fill:url(#SVGID_5_);}
	.st8{fill:url(#SVGID_6_);}
	.st9{fill:url(#SVGID_7_);}
	.st10{fill:url(#SVGID_8_);}
	.st11{fill:url(#SVGID_9_);}
	.st12{fill:url(#SVGID_10_);}
	.st13{opacity:0.69;fill:url(#SVGID_11_);enable-background:new    ;}
	.st14{fill:#FFFFFF;}
	.st15{fill:none;stroke:#FFFFFF;stroke-width:2;stroke-miterlimit:10;}
</style>
<linearGradient id="SVGID_1_" gradientUnits="userSpaceOnUse" x1="138.8768" y1="15.5" x2="138.8768" y2="37.3281" gradientTransform="matrix(1 0 0 -1 0 349)">
	<stop  offset="0.3719" style="stop-color:#C9E9FF;stop-opacity:0.3"/>
	<stop  offset="0.5633" style="stop-color:#CCEAFF;stop-opacity:0.5133"/>
	<stop  offset="0.7206" style="stop-color:#D6EEFF;stop-opacity:0.6886"/>
	<stop  offset="0.8652" style="stop-color:#E8F5FF;stop-opacity:0.8498"/>
	<stop  offset="1" style="stop-color:#FFFFFF"/>
</linearGradient>
<path class="st0" d="M66.1,311.9c-2.7,0.8-2.1,18.6,1,19c12,1.5,39.2,2.6,74.4,2.6c33.8,0,58.3-2.2,69.5-3.4
	c2.6-0.3,3.2-17.7,1.1-18.5l0,0c0,0-29.3,8.3-70.5,8.3C99.7,319.9,73.3,313.1,66.1,311.9L66.1,311.9z"/>
<linearGradient id="SVGID_2_" gradientUnits="userSpaceOnUse" x1="62" y1="35.25" x2="218.7" y2="35.25" gradientTransform="matrix(1 0 0 -1 0 349)">
	<stop  offset="0" style="stop-color:#FFFFFF"/>
	<stop  offset="1" style="stop-color:#C9E9FF;stop-opacity:0.3"/>
</linearGradient>
<path class="st1" d="M62,311.2c0,0,41,8.7,79.5,8.7s77.2-8.7,77.2-8.7v-3.6c0,0-26.7,7.7-74.7,7.7s-82-7.7-82-7.7V311.2z"/>
<path class="st2" d="M61.2,339.5c1.4,4.2,34,8,81,8s74-5,76-8c1.6-2.4,2.5-177.8,6.5-255.7c1.1-20.9,9.7-40.1,9.5-40.8
	c-1-3-48-7-92-7c-57.9,0-92,5-93.5,7S60.2,336.5,61.2,339.5z"/>
<linearGradient id="SVGID_3_" gradientUnits="userSpaceOnUse" x1="138.95" y1="9.5" x2="138.95" y2="304" gradientTransform="matrix(1 0 0 -1 0 349)">
	<stop  offset="0.1121" style="stop-color:#FFFFFF;stop-opacity:0.6"/>
	<stop  offset="0.4119" style="stop-color:#C9E9FF;stop-opacity:0"/>
	<stop  offset="1" style="stop-color:#FFFFFF"/>
</linearGradient>
<path class="st3" d="M142.2,339.5c-42.6,0-65.7-2.9-73.4-4.9c-2.2-34.9-11.5-245-12.2-285.1C70,47.7,107.1,45,142.2,45
	c38.2,0,79.1,3.8,79.1,3.8s-3.1,9.2-3.2,15.7c-0.4,23.7-1.5,64-2.8,120.6c-1.9,82.1-3.7,133.1-4.6,149
	C202.9,336.1,180.5,339.5,142.2,339.5z"/>
<path class="st4" d="M234.3,43c-0.3-1-16.6-2.8-16.6-2.8s-5,23.2-4.9,39c0.2,87.8,0.6,246.2-0.1,256.5c-6.7,2.1-29.3,5.8-70.5,5.8
	c-41.8,0-68.2-3-75.4-5.4c-1.9-26.9,0.1-228.4,0.1-295.8c-10.7,1-17.8,2-18.3,2.7C47,45,60,336.5,61,339.5c1.4,4.2,34.1,8,81.1,8
	s74.1-5,76.1-8c1.6-2.3,6.1-175,7.7-255.7C226.3,59.6,234.5,43.7,234.3,43z"/>
<path class="st5" d="M234.3,43c-0.3-1-12.7-2-20.1-2.8c0-0.1,0-0.1,0-0.2c-15.6-1.7-42.7-3-72-3c-27.2,0-57.8,1.6-76.9,3.3v0.1
	c-9.8,1-16.3,1.9-16.8,2.6C47,45,60,336.5,61,339.5c1.4,4.2,34.1,8,81.1,8s74.1-5,76.1-8c1.6-2.3,6.2-176,7.7-255.7
	C226.3,60.9,234.5,43.7,234.3,43z"/>
<linearGradient id="SVGID_4_" gradientUnits="userSpaceOnUse" x1="105.7189" y1="170.2616" x2="112.3913" y2="170.4946" gradientTransform="matrix(1 0 0 -1 0 349)">
	<stop  offset="0" style="stop-color:#FFFFFF"/>
	<stop  offset="1" style="stop-color:#C9E9FF;stop-opacity:0.3"/>
</linearGradient>
<polygon class="st6" points="115.5,316 110.5,316 101,41.3 107.6,41.3 "/>
<linearGradient id="SVGID_5_" gradientUnits="userSpaceOnUse" x1="106.8984" y1="170.2959" x2="113.4964" y2="170.411" gradientTransform="matrix(1 0 0 -1 11 349)">
	<stop  offset="0" style="stop-color:#FFFFFF"/>
	<stop  offset="1" style="stop-color:#C9E9FF;stop-opacity:0.3"/>
</linearGradient>
<polygon class="st7" points="126.5,316 121.5,316 115.5,41.3 122.1,41.3 "/>
<linearGradient id="SVGID_6_" gradientUnits="userSpaceOnUse" x1="108.0725" y1="170.2858" x2="116.9959" y2="170.4416" gradientTransform="matrix(1 0 0 -1 22 349)">
	<stop  offset="0" style="stop-color:#FFFFFF"/>
	<stop  offset="1" style="stop-color:#C9E9FF;stop-opacity:0.3"/>
</linearGradient>
<polygon class="st8" points="137.5,316 132.5,316 130,41.3 136.6,41.3 "/>
<linearGradient id="SVGID_7_" gradientUnits="userSpaceOnUse" x1="110.5" y1="170.35" x2="118.0263" y2="170.35" gradientTransform="matrix(1 0 0 -1 33 349)">
	<stop  offset="0" style="stop-color:#FFFFFF"/>
	<stop  offset="1" style="stop-color:#C9E9FF;stop-opacity:0.3"/>
</linearGradient>
<polygon class="st9" points="148.5,316 143.5,316 144.4,41.3 151,41.3 "/>
<linearGradient id="SVGID_8_" gradientUnits="userSpaceOnUse" x1="110.5" y1="170.35" x2="121.5" y2="170.35" gradientTransform="matrix(1 0 0 -1 44 349)">
	<stop  offset="0" style="stop-color:#FFFFFF"/>
	<stop  offset="1" style="stop-color:#C9E9FF;stop-opacity:0.3"/>
</linearGradient>
<polygon class="st10" points="159.5,316 154.5,316 158.9,41.3 165.5,41.3 "/>
<linearGradient id="SVGID_9_" gradientUnits="userSpaceOnUse" x1="112.8989" y1="170.4347" x2="122.5835" y2="170.2656" gradientTransform="matrix(1 0 0 -1 55 349)">
	<stop  offset="0" style="stop-color:#FFFFFF"/>
	<stop  offset="1" style="stop-color:#C9E9FF;stop-opacity:0.3"/>
</linearGradient>
<polygon class="st11" points="170.5,316 165.5,316 173.4,41.3 180,41.3 "/>
<path class="st4" d="M51,117.3c-2.2,3.8-25.2,6.5-30.1,12c-4.9,5.5-19.5,32-1.6,71.6S57,244.8,57,248.1s-1.6-28.7-1.6-28.7
	s-26.9-13.6-30.7-45.6s0.6-32.1,9.8-34.7c9.2-2.7,15.7-1.6,17.3,7.6L51,117.3z"/>
<linearGradient id="SVGID_10_" gradientUnits="userSpaceOnUse" x1="10.5942" y1="166.3234" x2="56.9458" y2="166.3234" gradientTransform="matrix(1 0 0 -1 0 349)">
	<stop  offset="0" style="stop-color:#FFFFFF"/>
	<stop  offset="1" style="stop-color:#C9E9FF;stop-opacity:0.3"/>
</linearGradient>
<path class="st12" d="M24.7,173.8c-3.8-32.1,0.6-32.1,9.8-34.7c9.2-2.7,15.7-1.6,17.3,7.6L51,117.3c-2.2,3.8-25.2,6.5-30.1,12
	c-4.9,5.5-19.5,32-1.6,71.6S57,244.8,57,248.1c0-2.7-1.6-28.7-1.6-28.7S28.5,205.7,24.7,173.8z M55.4,240.8
	c-7.2-7.2-22.8-15-34.7-41.3c-18.1-40-0.2-64.8,2.7-68c2-2.2,9.7-4.4,15.3-5.9c3.7-1.1,11.6-2.8,11.6-2.8v14.6c0,0-5.4-1.3-7.9-1.3
	c-2.6,0-5.5,0.5-8.8,1.5c-12.5,3.7-14.1,6-10.4,36.6c3.5,29.5,26.3,42,32.2,46.8L55.4,240.8L55.4,240.8z"/>
<linearGradient id="SVGID_11_" gradientUnits="userSpaceOnUse" x1="139.55" y1="7.5" x2="139.55" y2="73.8" gradientTransform="matrix(1 0 0 -1 0 349)">
	<stop  offset="0" style="stop-color:#FFFFFF"/>
	<stop  offset="1" style="stop-color:#D3E9FF;stop-opacity:0.7"/>
</linearGradient>
<path class="st13" d="M142.2,341.5c-41.8,0-68.2-3-75.4-5.4c-0.5-7.4-0.7-30.3-0.8-60.9C69.9,299,90.6,317,115.5,317l48.8-0.1
	c24-0.1,43.9-16.9,48.8-39.4c0,32.2-0.2,54.8-0.4,58.3C206,337.7,183.4,341.5,142.2,341.5z"/>
<path class="st14" d="M142.3,347c-67.3,0-77-6-78.3-10.5C62,330,50.5,73.3,49.2,44.1c0,0,4.5-6.3,86.9-6.3c23.6,0,45.3,0.5,61.1,1.3
	c25.6,1.4,33,3.1,33.4,4.5c0.2,0.7-7.1,15.8-7.7,38.9c-1.8,70.8-6.1,216.8-7.2,253.2l0,1l-0.9,0.4C214.5,337.2,188.5,347,142.3,347z
	 M60.5,43.1c-4.7,0.5-8.2,4.6-7.9,9.3C57.1,152.7,65.3,330,66.8,335.7c0.8,2.5,9.7,8.3,75.5,8.3c40.8,0,65.5-7.7,70.4-9.4
	c2.3-76.4,6-204.9,7.4-261.9c0.2-7.5,1.5-13.8,2.8-18.6c1.5-5.2-2.2-10.5-7.6-11c-14.1-1.3-41.6-2.4-79.2-2.4
	C91.5,40.8,70.4,42,60.5,43.1z"/>
<g id="HUTYoN_1_">
	
		<image style="overflow:visible;" width="338" height="470" id="HUTYoN" xlink:href="329B84457F151B98.jpg"  transform="matrix(0.24 0 0 0.24 342.5 51)">
	</image>
</g>
<g id="aNJSrF_1_">
	
		<image style="overflow:visible;" width="300" height="300" id="aNJSrF" xlink:href="329B84457F151B99.jpg"  transform="matrix(1 0 0 1 469 138)">
	</image>
</g>
<g id="q42CXx_1_">
	
		<image style="overflow:visible;" width="293" height="293" id="q42CXx" xlink:href="329B84457F151B9B.jpg"  transform="matrix(0.75 0 0 0.75 382.5 223.5)">
	</image>
</g>
<path class="st15" d="M64.1,310.9c0,0,26.7,5.9,76.9,5.9c47.2,0,74.2-8.2,74.2-8.2"/>
</svg>
