<?xml version="1.0" encoding="utf-8"?>
<!-- Generator: Adobe Illustrator 19.1.0, SVG Export Plug-In . SVG Version: 6.00 Build 0)  -->
<!DOCTYPE svg PUBLIC "-//W3C//DTD SVG 1.1//EN" "http://www.w3.org/Graphics/SVG/1.1/DTD/svg11.dtd">
<svg version="1.1" id="Layer_1" xmlns="http://www.w3.org/2000/svg" xmlns:xlink="http://www.w3.org/1999/xlink" x="0px" y="0px"
	 viewBox="-8 4 22 21" style="enable-background:new -8 4 22 21;" xml:space="preserve">
<style type="text/css">
	.st0{fill:#FF54E6;}
	.st1{fill:#FFFFFF;}
</style>
<rect id="XMLID_24_" x="-8" y="4" class="st0" width="22" height="21"/>
<path id="mail_1_" class="st1" d="M9,8.8H-3c-1.1,0-2,0.9-2,2v6.5c0,1.1,0.9,2,2,2H9c1.1,0,2-0.9,2-2v-6.5C11,9.6,10.1,8.8,9,8.8z
	 M-4,11.4l3.5,2.6L-4,16.6V11.4z M10,17.2c0,0.6-0.4,1-1,1H-3c-0.6,0-1-0.4-1-1l3.9-2.9l2.2,1.6c0.3,0.2,0.6,0.3,0.9,0.3
	c0.3,0,0.6-0.1,0.9-0.3l2.2-1.6L10,17.2L10,17.2z M10,16.6L6.5,14l3.5-2.6V16.6z M3.6,15.6c-0.2,0.1-0.4,0.2-0.6,0.2
	c-0.2,0-0.4-0.1-0.6-0.2L0.3,14l-0.4-0.3L-4,10.8l0,0c0-0.6,0.4-1,1-1H9c0.6,0,1,0.4,1,1L3.6,15.6z"/>
</svg>
