<?xml version="1.0" encoding="utf-8"?>
<!-- Generator: Adobe Illustrator 19.1.0, SVG Export Plug-In . SVG Version: 6.00 Build 0)  -->
<!DOCTYPE svg PUBLIC "-//W3C//DTD SVG 1.1//EN" "http://www.w3.org/Graphics/SVG/1.1/DTD/svg11.dtd">
<svg version="1.1" id="Layer_1" xmlns="http://www.w3.org/2000/svg" xmlns:xlink="http://www.w3.org/1999/xlink" x="0px" y="0px"
	 viewBox="0 0 400 810" style="enable-background:new 0 0 400 810;" xml:space="preserve">
<style type="text/css">
	.st0{fill:#0900C6;}
</style>
<path class="st0" d="M316.2,42.6c-0.4,0.4-0.8,0.8-1.1,1.2c-1.1,1.2-1.4,1.5-5.5,31.8c-2.3,16.6-5.4,40.6-9.4,71.4
	c-7.3,56.4-16,125.6-22.4,176.2c-1.6,12.9-3.1,24.8-4.4,35.2c-2.5,19.6-19.5,34.1-39.3,33.3c-1.5-0.1-2.9-0.1-4.1-0.2
	c-12.4-0.6-50.3-0.8-61.1-0.4c-0.1,0-0.2,0-0.3,0c-19.6,0.7-36.5-13.7-39.1-33.1c-4.4-33.9-11.3-86.9-18.4-139.7
	c-6.8-51.3-12.4-92.3-16.6-122c-8-57-8.8-57.9-9.9-59.2c0,0,0,0,0-0.1c-2.2-2.6-0.8-6.7,2.6-7.3c24.4-4.4,76.9-12.2,109.4-14.8
	c37.2-3,88.4-6.1,99.6-6.1c0.1,0,0.1,0,0.2,0c0.6,1.4,1.3,3.8,1.9,5.8c2.4,7.7,5,16.5,11.2,18.7c3.4,1.2,6.9,1.9,10.1,1.9
	c0.8,0,1.6,0,2.4-0.1C319.2,39.5,317.6,41.2,316.2,42.6z"/>
</svg>
