<?xml version="1.0" encoding="utf-8"?>
<!-- Generator: Adobe Illustrator 19.1.0, SVG Export Plug-In . SVG Version: 6.00 Build 0)  -->
<!DOCTYPE svg PUBLIC "-//W3C//DTD SVG 1.1//EN" "http://www.w3.org/Graphics/SVG/1.1/DTD/svg11.dtd">
<svg version="1.1" id="Layer_1" xmlns="http://www.w3.org/2000/svg" xmlns:xlink="http://www.w3.org/1999/xlink" x="0px" y="0px"
	 viewBox="0 0 32 32" style="enable-background:new 0 0 32 32;" xml:space="preserve">
<style type="text/css">
	.st0{fill-rule:evenodd;clip-rule:evenodd;fill:#84C6FF;}
	.st1{fill-rule:evenodd;clip-rule:evenodd;fill:#00E0BE;}
	.st2{fill-rule:evenodd;clip-rule:evenodd;fill:#5A64FF;}
	.st3{fill-rule:evenodd;clip-rule:evenodd;fill:#FFFFFF;}
	.st4{fill-rule:evenodd;clip-rule:evenodd;fill:#EA58FF;}
</style>
<path class="st0" d="M30,26.5c0,0.6-0.4,1.5-1,1.5H3c-0.6,0-1-0.9-1-1.5v-15c0-0.5,0.4-0.9,0.8-1l5.4-0.9l1.8-4.2
	C10.2,5,10.6,5,11,5h10c0.4,0,0.8,0,0.9,0.4l1.8,4.4l5.4,0.8c0.5,0.1,0.8,0.4,0.8,0.9V26.5z"/>
<circle class="st1" cx="16" cy="17.5" r="6"/>
<path class="st2" d="M16,9.5c-4.4,0-8,3.6-8,8c0,4.4,3.6,8,8,8c4.4,0,8-3.6,8-8C24,13.1,20.4,9.5,16,9.5z M20.6,21.4
	c-2.2,2.5-5.9,2.8-8.5,0.7c-2.5-2.2-2.8-5.9-0.7-8.5c2.2-2.5,5.9-2.8,8.5-0.7C22.4,15.1,22.7,18.9,20.6,21.4z"/>
<path class="st3" d="M16,13.5c-2.2,0-4,1.8-4,4v0c0,0.3,0.2,0.5,0.5,0.5c0.3,0,0.5-0.2,0.5-0.5v0c0-1.7,1.3-3,3-3
	c0.3,0,0.5-0.2,0.5-0.5C16.5,13.7,16.3,13.5,16,13.5z"/>
<path class="st4" d="M29.5,8.5l-4.3-0.7l-1.4-3.2C23.3,3.5,22.2,3,21,3H11C9.8,3,8.7,3.5,8.2,4.6L6.8,7.9L2.5,8.6
	C1.1,8.8,0,10,0,11.5v15C0,28.2,1.3,30,3,30h26c1.7,0,3-1.8,3-3.5v-15C32,10,30.9,8.8,29.5,8.5z M30,26.5c0,0.6-0.4,1.5-1,1.5H3
	c-0.6,0-1-0.9-1-1.5v-15c0-0.5,0.4-0.9,0.8-1l5.4-0.9l1.8-4.2C10.2,5,10.6,5,11,5h10c0.4,0,0.8,0,0.9,0.4l1.8,4.4l5.4,0.8
	c0.5,0.1,0.8,0.4,0.8,0.9V26.5z"/>
</svg>
