<?xml version="1.0" encoding="utf-8"?>
<!-- Generator: Adobe Illustrator 19.0.0, SVG Export Plug-In . SVG Version: 6.00 Build 0)  -->
<!DOCTYPE svg PUBLIC "-//W3C//DTD SVG 1.1//EN" "http://www.w3.org/Graphics/SVG/1.1/DTD/svg11.dtd">
<svg version="1.1" id="Layer_1" xmlns="http://www.w3.org/2000/svg" xmlns:xlink="http://www.w3.org/1999/xlink" x="0px" y="0px"
	 viewBox="0 0 17 16" style="enable-background:new 0 0 17 16;" xml:space="preserve">
<style type="text/css">
	.st0{fill:#EFB83C;}
</style>
<g id="lock_1_">
	<path id="XMLID_18_" class="st0" d="M13,6.5v-2C13,2,11,0,8.5,0C6,0,4,2,4,4.5v2C3.2,6.5,2.5,7.2,2.5,8v1.5V10v1v0.5
		C2.5,14,4.5,16,7,16h3c2.5,0,4.5-2,4.5-4.5V11v-1V9.5V8C14.5,7.2,13.8,6.5,13,6.5z M5,4.5C5,2.6,6.6,1,8.5,1C10.4,1,12,2.6,12,4.5
		v2h-1v-2C11,3.1,9.9,2,8.5,2C7.1,2,6,3.1,6,4.5v2H5V4.5z M10.5,4.5L10.5,4.5v2h-4v-2v0c0-1.1,0.9-2,2-2S10.5,3.4,10.5,4.5z
		 M13.5,9.5V10v1v0.5c0,1.9-1.6,3.5-3.5,3.5H7c-1.9,0-3.5-1.6-3.5-3.5V11v-1V9.5V8c0-0.3,0.2-0.5,0.5-0.5c0.3,0,0.7,0,1,0h7
		c0.3,0,0.7,0,1,0c0.3,0,0.5,0.2,0.5,0.5V9.5z"/>
	<path id="XMLID_17_" class="st0" d="M8.5,9.5c-0.6,0-1,0.4-1,1c0,0.3,0.2,0.9,0.3,1.3c0.1,0.4,0.3,0.7,0.7,0.7
		c0.4,0,0.5-0.3,0.7-0.7c0.2-0.5,0.3-1,0.3-1.3C9.5,9.9,9.1,9.5,8.5,9.5z"/>
</g>
</svg>
