<?xml version="1.0" encoding="utf-8"?>
<!-- Generator: Adobe Illustrator 19.2.0, SVG Export Plug-In . SVG Version: 6.00 Build 0)  -->
<!DOCTYPE svg PUBLIC "-//W3C//DTD SVG 1.1//EN" "http://www.w3.org/Graphics/SVG/1.1/DTD/svg11.dtd">
<svg version="1.1" id="Layer_1" xmlns="http://www.w3.org/2000/svg" xmlns:xlink="http://www.w3.org/1999/xlink" x="0px" y="0px"
	 viewBox="0 0 101.3 101.3" style="enable-background:new 0 0 101.3 101.3;" xml:space="preserve">
<style type="text/css">
	.st0{fill:#FF0000;}
	.st1{fill:#D80000;}
	.st2{fill:#FFA29F;}
	.st3{fill:#B00201;}
	.st4{fill:#EC9E63;}
	.st5{fill:#B78227;}
	.st6{fill:#FFD5A6;}
	.st7{fill:#008E2A;}
	.st8{fill:#00B52A;}
</style>
<path class="st0" d="M4.7,77.2c-4-15.2,6.8-26,13.2-35c7.6-10.5,12.8-22.8,32.8-26.5s47.2,34.5,33.5,55.7s-34.5,16-49.2,16.5
	S7.1,86.4,4.7,77.2z"/>
<path class="st1" d="M10.2,83.4c-6.4-3.9-3.3-10.8,16-12s32-1.2,40.8-19s16.2-17,15.5-3s-2.8,25.2-19.7,32.7S16.7,87.4,10.2,83.4z"
	/>
<path class="st2" d="M21.2,56.5c-3.1-0.8-1.9-6.8-0.2-8.7c1.4-1.5-1.6-4,2-7.8s4.1,0.8,5.9-3.9s6.6-6,8.3-3.7c1.9,2.6,5.1-3.8,10,0
	c4,3.2-1.4,5.2,0.5,9.8c1.7,4.3,7.2,3.1,9.5,6.2c2.5,3.5,0.6,6.4-2.2,8c-4.1,2.2-6-3.1-10.5-3.6c-5.2-0.6-4.6,2.4-8.6,5.1
	s-6.3-4.4-9.5-2.2C24.5,56.9,23.5,57.1,21.2,56.5z"/>
<path class="st2" d="M51.4,29.9c0.1-1,3.5-2.2,4.3-0.7c0.8,1.5-0.4,2.5-2,2.4C52.1,31.5,51.2,31.1,51.4,29.9z"/>
<path class="st2" d="M49.4,42.3c-0.6-1.7,4.3-5.9,7.1-4.1s1.6,4.3-1.4,5.4C52.1,44.6,50.3,44.5,49.4,42.3z"/>
<path class="st2" d="M51.8,65.6c-1.1-1,0.8-5.9,3.6-5.7c2.8,0.3,3.5,3,1.7,5C55.2,66.7,53.2,66.9,51.8,65.6z"/>
<path class="st0" d="M28.5,54.4c-2.1-1.5,2.2-6.4,4.7-5.5s2.1,4.1-0.2,5.4S30.1,55.5,28.5,54.4z"/>
<path class="st0" d="M40,49.8c-2-1.7,2.9-6.1,5.3-5c2.4,1.1,1.6,4.3-0.7,5.4C42.2,51.3,41.5,51.1,40,49.8z"/>
<path class="st0" d="M37.9,38.4c0.2-1.4,5.7-3.3,7-1.1c1.3,2.2-1.1,4.3-3.6,3.9C38.7,40.8,37.6,40.3,37.9,38.4z"/>
<path class="st0" d="M28.7,37.5c-0.2-1.4,4.7-4.7,6.5-2.9c1.8,1.8,0,4.5-2.5,4.7S28.9,39.4,28.7,37.5z"/>
<path class="st0" d="M28,45.6c-0.5-1.4,3.4-5.7,5.6-4.4s1.1,4.3-1.3,5.2S28.7,47.4,28,45.6z"/>
<path class="st0" d="M21.4,52.7c-0.8-1.2,2.1-6,4.5-5.2c2.4,0.8,1.9,3.8-0.2,5.1S22.4,54.2,21.4,52.7z"/>
<path class="st1" d="M37.7,37.4c0.2-1.4,5.7-3.3,7-1.1c1.3,2.2-1.1,4.3-3.6,3.9C38.6,39.8,37.5,39.3,37.7,37.4z"/>
<path class="st1" d="M50.1,30.3c0.1-1.1,4.2-2.3,5.1-0.6c0.9,1.6-0.8,3-2.6,2.7C50.8,32,49.9,31.7,50.1,30.3z"/>
<path class="st1" d="M49.1,41.5c-0.2-1.4,4.3-4.2,6.5-2.8c2.8,1.8,0.1,5.2-2.5,5.5C50.6,44.6,49.4,43.5,49.1,41.5z"/>
<path class="st1" d="M38.6,47.3c-0.2-1.4,4.3-4.2,6.5-2.8c2.8,1.8,0.1,5.2-2.5,5.5C40.1,50.3,38.9,49.2,38.6,47.3z"/>
<path class="st0" d="M49.8,52.7c-0.2-2.4,4-5.3,5.8-3c2,2.5,0.1,6.1-2.4,6C51.1,55.8,49.9,54.5,49.8,52.7z"/>
<path class="st1" d="M48.3,51.9c-0.3-2.6,4.3-5.3,6.5-2.8c2.4,2.7,0.4,6.4-2.3,6.2C49.9,55.1,48.6,53.8,48.3,51.9z"/>
<path class="st1" d="M28.5,53.5c-0.2-1.4,4.3-4.2,6.5-2.8c2.8,1.8,0.1,5.2-2.5,5.5C30,56.6,28.8,55.5,28.5,53.5z"/>
<path class="st1" d="M28.8,37.4c-0.4-1.3,3.5-4.9,5.4-3.6c2,1.3,0.8,3.8-1.5,4.5S29.3,39.1,28.8,37.4z"/>
<path class="st3" d="M39.2,38.8c0.4,0.5,3.3,0.7,4-0.4s-0.5-1.9-2.1-1.7C39.4,36.8,38.6,38,39.2,38.8z"/>
<path class="st3" d="M51.4,31.4c0.3,0.4,2.8,0.8,3.4,0s-0.2-1.5-1.7-1.5C51.7,29.9,50.9,30.8,51.4,31.4z"/>
<path class="st3" d="M51.4,42.5c0.5,0.3,3.2-0.1,3.5-1.2c0.4-1.1-0.8-1.6-2.3-1.1C51.1,40.7,50.6,42,51.4,42.5z"/>
<path class="st3" d="M40.8,49.5c0.5,0.3,3.2-0.1,3.5-1.2c0.4-1.1-0.8-1.6-2.3-1.1C40.6,47.7,40,49,40.8,49.5z"/>
<path class="st3" d="M52.1,54.2c0.6,0.2,3.4-0.8,3.5-2.1c0.1-1.3-1.3-1.6-2.7-0.7C51.4,52.3,51.1,53.8,52.1,54.2z"/>
<path class="st3" d="M31.5,56c0.6,0.2,3-1,3-2.2c0-1.2-1.2-1.3-2.5-0.4S30.6,55.7,31.5,56z"/>
<path class="st3" d="M31.1,36.7c0.5,0.4,3,0.2,3.4-1c0.4-1.1-0.7-1.8-2.2-1.4C30.9,34.7,30.4,36.1,31.1,36.7z"/>
<g>
	<path class="st4" d="M39.7,38.1c0-0.5,2.4-1.6,3.1-0.9s-0.1,1.5-1.3,1.6C40.4,38.9,39.7,38.8,39.7,38.1z"/>
	<path class="st5" d="M40.5,38.2c0-0.2,1.2-0.7,1.6-0.5c0.4,0.2-0.1,0.6-0.7,0.7S40.5,38.5,40.5,38.2z"/>
	<path class="st6" d="M40.5,38c0-0.2,1.2-0.7,1.6-0.5s-0.1,0.6-0.7,0.7S40.5,38.2,40.5,38z"/>
</g>
<path class="st3" d="M41.2,29.6c0.4,0.4,3.1,0.6,3.7-0.4s-0.4-1.8-2-1.6C41.4,27.8,40.6,29,41.2,29.6z"/>
<g>
	<path class="st4" d="M41.6,29c0-0.5,2.2-1.4,2.9-0.9c0.7,0.6-0.1,1.4-1.2,1.5C42.3,29.8,41.7,29.6,41.6,29z"/>
	<path class="st5" d="M42.4,29.1c0-0.2,1.2-0.6,1.5-0.4c0.3,0.2-0.1,0.5-0.6,0.6C42.7,29.4,42.4,29.4,42.4,29.1z"/>
	<path class="st6" d="M42.4,28.9c0-0.2,1.2-0.6,1.5-0.4c0.3,0.2-0.1,0.5-0.6,0.6S42.4,29.1,42.4,28.9z"/>
</g>
<path class="st3" d="M33,29.9c0.5,0.4,3.2,0.1,3.6-0.9c0.4-1.1-0.7-1.7-2.2-1.3C32.9,28,32.3,29.3,33,29.9z"/>
<g>
	<path class="st4" d="M33.3,29.2c-0.1-0.5,2-1.8,2.7-1.3s0.1,1.4-0.9,1.7C34.1,29.9,33.4,29.8,33.3,29.2z"/>
	<path class="st5" d="M34.1,29.2c0-0.2,1.1-0.8,1.4-0.6c0.4,0.1,0,0.6-0.5,0.7C34.4,29.4,34.1,29.5,34.1,29.2z"/>
	<path class="st6" d="M34,29c0-0.2,1.1-0.8,1.4-0.6c0.4,0.1,0,0.6-0.5,0.7C34.4,29.2,34.1,29.2,34,29z"/>
</g>
<path class="st3" d="M24.9,36.3c0.5,0.3,3.2,0.1,3.6-0.9c0.4-1-0.7-1.6-2.2-1.2C24.8,34.5,24.1,35.7,24.9,36.3z"/>
<g>
	<path class="st4" d="M24.8,35.6c-0.1-0.4,2-1.7,2.7-1.2c0.8,0.4,0.1,1.3-0.9,1.6C25.6,36.2,24.9,36.2,24.8,35.6z"/>
	<path class="st5" d="M25.6,35.6c0-0.2,1.1-0.7,1.4-0.6c0.4,0.1,0,0.5-0.5,0.7S25.6,35.9,25.6,35.6z"/>
	<path class="st6" d="M25.5,35.4c0-0.2,1.1-0.7,1.4-0.6s0,0.5-0.5,0.7C25.9,35.6,25.6,35.6,25.5,35.4z"/>
</g>
<path class="st1" d="M15.8,53.5c-0.3-0.7,0.8-2.8,2-2.4c1.5,0.5,0.6,2.6-0.5,3.1S16.1,54.4,15.8,53.5z"/>
<path class="st3" d="M15.9,55.7c0.6,0,2.6-1.8,2.4-2.8c-0.3-1.1-1.5-0.9-2.5,0.3C14.7,54.4,15,55.7,15.9,55.7z"/>
<g>
	<path class="st4" d="M15.4,55.3c-0.3-0.3,0.6-2.5,1.5-2.6s0.9,1,0.2,1.8C16.4,55.3,15.9,55.6,15.4,55.3z"/>
	<path class="st5" d="M16.1,54.8c-0.1-0.1,0.4-1.2,0.8-1.3s0.3,0.4,0,0.9C16.5,54.8,16.2,55,16.1,54.8z"/>
	<path class="st6" d="M15.9,54.6c-0.1-0.1,0.4-1.2,0.8-1.3s0.3,0.4,0,0.9C16.3,54.6,16.1,54.8,15.9,54.6z"/>
</g>
<g>
	<path class="st3" d="M15.8,49.6c0.4,0,1.9-1.3,1.7-2s-1.1-0.6-1.8,0.2C15,48.7,15.2,49.6,15.8,49.6z"/>
	<g>
		<path class="st4" d="M15.5,49.3c-0.2-0.2,0.4-1.8,1.1-1.9c0.6-0.1,0.6,0.7,0.1,1.3C16.2,49.3,15.9,49.6,15.5,49.3z"/>
		<path class="st5" d="M16,49c-0.1-0.1,0.3-0.9,0.6-1c0.3-0.1,0.2,0.3,0,0.6S16.1,49.1,16,49z"/>
		<path class="st6" d="M15.8,48.9c-0.1-0.1,0.3-0.9,0.6-1s0.2,0.3,0,0.6C16.1,48.8,16,49,15.8,48.9z"/>
	</g>
</g>
<path class="st1" d="M11.2,59.7c-0.3-0.6,0.8-2.4,1.9-2.1c1.4,0.5,0.7,2.2-0.4,2.6C11.6,60.7,11.6,60.5,11.2,59.7z"/>
<g>
	<path class="st3" d="M11.6,60.8c0.4,0,1.9-1.3,1.7-2c-0.2-0.8-1.1-0.6-1.8,0.2C10.8,59.8,10.9,60.8,11.6,60.8z"/>
	<g>
		<path class="st4" d="M11.3,60.4c-0.2-0.2,0.4-1.8,1.1-1.9c0.6-0.1,0.6,0.7,0.1,1.3C12,60.5,11.6,60.7,11.3,60.4z"/>
		<path class="st5" d="M11.7,60.1c-0.1-0.1,0.3-0.9,0.6-1s0.2,0.3,0,0.6C12,60.1,11.8,60.2,11.7,60.1z"/>
		<path class="st6" d="M11.6,60c-0.1-0.1,0.3-0.9,0.6-1c0.3-0.1,0.2,0.3,0,0.6C11.9,60,11.7,60.1,11.6,60z"/>
	</g>
</g>
<g>
	<path class="st3" d="M9.3,58.1c0.4,0,1.9-1.3,1.7-2c-0.2-0.8-1.1-0.6-1.8,0.2C8.5,57.2,8.7,58.1,9.3,58.1z"/>
	<g>
		<path class="st4" d="M9,57.8c-0.2-0.2,0.4-1.8,1.1-1.9c0.6-0.1,0.6,0.7,0.1,1.3C9.7,57.8,9.4,58.1,9,57.8z"/>
		<path class="st5" d="M9.5,57.5c-0.1-0.1,0.3-0.9,0.6-1s0.2,0.3,0,0.6C9.8,57.4,9.6,57.6,9.5,57.5z"/>
		<path class="st6" d="M9.3,57.4c-0.1-0.1,0.3-0.9,0.6-1c0.3-0.1,0.2,0.3,0,0.6C9.6,57.3,9.5,57.5,9.3,57.4z"/>
	</g>
</g>
<g>
	<path class="st3" d="M6.4,63.7c0.4,0,1.9-1.3,1.7-2C7.9,60.9,7,61,6.3,61.9S5.8,63.7,6.4,63.7z"/>
	<g>
		<path class="st4" d="M6.1,63.4c-0.2-0.2,0.4-1.8,1.1-1.9s0.6,0.7,0.1,1.3C6.8,63.4,6.5,63.6,6.1,63.4z"/>
		<path class="st5" d="M6.6,63c-0.1-0.1,0.3-0.9,0.6-1c0.3-0.1,0.2,0.3,0,0.6S6.7,63.1,6.6,63z"/>
		<path class="st6" d="M6.4,62.9C6.4,62.8,6.7,62,7,62c0.3-0.1,0.2,0.3,0,0.6S6.6,63,6.4,62.9z"/>
	</g>
</g>
<g>
	<path class="st3" d="M10.7,68.7c0.4,0.1,2.2-0.6,2.3-1.4c0.1-0.8-0.8-0.9-1.8-0.4S10.1,68.5,10.7,68.7z"/>
	<g>
		<path class="st4" d="M10.5,68.3c-0.2-0.3,1-1.6,1.6-1.4c0.6,0.1,0.4,0.9-0.3,1.3S10.7,68.6,10.5,68.3z"/>
		<path class="st5" d="M11,68.1c-0.1-0.1,0.6-0.7,0.8-0.7s0.1,0.4-0.2,0.6S11.1,68.3,11,68.1z"/>
		<path class="st6" d="M11,68c-0.1-0.1,0.6-0.7,0.8-0.7c0.3,0,0.1,0.4-0.2,0.6C11.3,68,11,68.1,11,68z"/>
	</g>
</g>
<g>
	<path class="st3" d="M8.8,77.8c0.3,0.3,2.2,0.7,2.7,0c0.5-0.6-0.2-1.2-1.3-1.2S8.4,77.3,8.8,77.8z"/>
	<g>
		<path class="st4" d="M8.9,77.4c0-0.3,1.7-0.8,2.1-0.4c0.5,0.4-0.2,0.9-0.9,0.9C9.3,77.9,8.9,77.8,8.9,77.4z"/>
		<path class="st5" d="M9.4,77.5c0-0.1,0.9-0.3,1.1-0.2c0.2,0.2-0.1,0.4-0.5,0.4C9.7,77.7,9.4,77.7,9.4,77.5z"/>
		<path class="st6" d="M9.5,77.3c0-0.1,0.9-0.3,1.1-0.2c0.2,0.2-0.1,0.4-0.5,0.4C9.7,77.5,9.4,77.5,9.5,77.3z"/>
	</g>
</g>
<g>
	<path class="st3" d="M11.8,75.1c0.4,0.1,2.2-0.6,2.3-1.4c0.1-0.8-0.8-0.9-1.8-0.4S11.2,74.9,11.8,75.1z"/>
	<g>
		<path class="st4" d="M11.6,74.7c-0.2-0.3,1-1.6,1.6-1.4c0.6,0.1,0.4,0.9-0.3,1.3S11.9,75,11.6,74.7z"/>
		<path class="st5" d="M12.2,74.5c-0.1-0.1,0.6-0.7,0.8-0.7s0.1,0.4-0.2,0.6S12.2,74.6,12.2,74.5z"/>
		<path class="st6" d="M12.1,74.3c-0.1-0.1,0.6-0.7,0.8-0.7c0.3,0,0.1,0.4-0.2,0.6C12.4,74.4,12.2,74.5,12.1,74.3z"/>
	</g>
</g>
<g>
	<path class="st3" d="M12,81.4c0.2,0.5,2.4,1.6,3.1,1.1c0.7-0.5,0-1.5-1.3-2C12.5,80.1,11.6,80.7,12,81.4z"/>
	<g>
		<path class="st4" d="M12.2,80.9c0.1-0.4,2.1-0.2,2.6,0.5c0.5,0.7-0.4,1-1.3,0.7C12.6,81.7,12.1,81.4,12.2,80.9z"/>
		<path class="st5" d="M12.8,81.3c0-0.1,1.1,0,1.3,0.3c0.2,0.3-0.2,0.4-0.7,0.2C13,81.6,12.7,81.5,12.8,81.3z"/>
		<path class="st6" d="M12.8,81.1c0-0.1,1.1,0,1.3,0.3c0.2,0.3-0.2,0.4-0.7,0.2C13,81.4,12.8,81.3,12.8,81.1z"/>
	</g>
</g>
<g>
	<path class="st3" d="M17.1,84.4c0.3,0.4,3.1,1.6,4,1.1c0.9-0.5,0-1.4-1.6-1.9C17.8,83.1,16.7,83.7,17.1,84.4z"/>
	<g>
		<path class="st4" d="M17.4,83.9c0.1-0.4,2.7-0.2,3.3,0.4c0.6,0.7-0.5,1-1.7,0.7C17.9,84.7,17.3,84.4,17.4,83.9z"/>
		<path class="st5" d="M18.2,84.2c0-0.1,1.4,0,1.7,0.2c0.3,0.3-0.3,0.4-0.8,0.2S18.1,84.4,18.2,84.2z"/>
		<path class="st6" d="M18.2,84.1c0-0.1,1.4,0,1.7,0.2c0.3,0.3-0.3,0.4-0.8,0.2C18.5,84.4,18.2,84.2,18.2,84.1z"/>
	</g>
</g>
<g>
	<path class="st3" d="M20.8,82.6c0.4,0.4,3.4,0.7,4.1,0c0.7-0.7-0.3-1.4-2.1-1.4C21.1,81.2,20.1,82,20.8,82.6z"/>
	<g>
		<path class="st4" d="M20.9,82.1c0-0.4,2.6-1,3.3-0.5c0.7,0.5-0.2,1.1-1.4,1.1S20.9,82.6,20.9,82.1z"/>
		<path class="st5" d="M21.7,82.2c0-0.1,1.3-0.4,1.7-0.2s-0.1,0.4-0.8,0.4C22.1,82.4,21.7,82.4,21.7,82.2z"/>
		<path class="st6" d="M21.7,82c0-0.1,1.3-0.4,1.7-0.2s-0.1,0.4-0.8,0.4C22.1,82.3,21.7,82.2,21.7,82z"/>
	</g>
</g>
<g>
	<path class="st3" d="M30.1,85.3c0.5,0.3,3.5,0.2,4.1-0.6c0.6-0.8-0.5-1.3-2.2-1.1C30.2,83.9,29.4,84.9,30.1,85.3z"/>
	<g>
		<path class="st4" d="M30.1,84.8c-0.1-0.4,2.4-1.3,3.2-0.9c0.8,0.4-0.1,1.1-1.3,1.3S30.2,85.3,30.1,84.8z"/>
		<path class="st5" d="M30.9,84.8c0-0.1,1.3-0.6,1.7-0.4c0.4,0.1-0.1,0.4-0.7,0.5C31.3,85,31,85,30.9,84.8z"/>
		<path class="st6" d="M30.9,84.6c0-0.1,1.3-0.6,1.7-0.4c0.4,0.1-0.1,0.4-0.7,0.5C31.3,84.8,30.9,84.8,30.9,84.6z"/>
	</g>
</g>
<g>
	<path class="st3" d="M35.4,81.9c0.4,0.3,2.9,0.2,3.4-0.5c0.5-0.7-0.4-1.1-1.9-0.9S34.8,81.5,35.4,81.9z"/>
	<g>
		<path class="st4" d="M35.4,81.5c0-0.3,2-1.1,2.7-0.7c0.7,0.3-0.1,0.9-1,1.1C36.1,81.9,35.5,81.9,35.4,81.5z"/>
		<path class="st5" d="M36.1,81.5c0-0.1,1.1-0.5,1.4-0.4c0.3,0.1-0.1,0.4-0.6,0.4C36.4,81.7,36.1,81.7,36.1,81.5z"/>
		<path class="st6" d="M36.1,81.3c0-0.1,1.1-0.5,1.4-0.4c0.3,0.1-0.1,0.4-0.6,0.4C36.4,81.5,36.1,81.5,36.1,81.3z"/>
	</g>
</g>
<g>
	<path class="st3" d="M42.8,85.4c0.3,0.3,2.8,0.5,3.4-0.1s-0.3-1.2-1.7-1.1C43.1,84.2,42.2,84.9,42.8,85.4z"/>
	<g>
		<path class="st4" d="M42.9,84.9c0-0.3,2.1-0.8,2.7-0.4c0.6,0.4-0.2,0.9-1.2,0.9C43.5,85.5,42.9,85.4,42.9,84.9z"/>
		<path class="st5" d="M43.6,85.1c0-0.1,1.1-0.3,1.4-0.2s-0.1,0.3-0.6,0.4C43.8,85.2,43.6,85.2,43.6,85.1z"/>
		<path class="st6" d="M43.6,84.9c0-0.1,1.1-0.3,1.4-0.2c0.3,0.1-0.1,0.3-0.6,0.4C43.9,85.1,43.6,85.1,43.6,84.9z"/>
	</g>
</g>
<g>
	<path class="st3" d="M48,81.1c0.5,0.2,3.4-0.3,3.9-1.2c0.5-0.9-0.7-1.2-2.4-0.7S47.2,80.7,48,81.1z"/>
	<g>
		<path class="st4" d="M47.9,80.5c-0.1-0.4,2.2-1.6,3-1.4c0.8,0.3,0.1,1.1-1,1.4C48.8,81,48.1,81,47.9,80.5z"/>
		<path class="st5" d="M48.7,80.4c0-0.1,1.2-0.8,1.5-0.7c0.4,0.1,0,0.4-0.6,0.6C49.1,80.6,48.8,80.6,48.7,80.4z"/>
		<path class="st6" d="M48.7,80.3c0-0.1,1.2-0.8,1.5-0.7c0.4,0.1,0,0.4-0.6,0.6C49.1,80.4,48.7,80.4,48.7,80.3z"/>
	</g>
</g>
<g>
	<path class="st3" d="M59.1,77.5c0.5,0,3.1-1.5,3.3-2.5c0.1-1-1.1-0.9-2.5,0.1C58.6,76.2,58.3,77.4,59.1,77.5z"/>
	<g>
		<path class="st4" d="M58.9,77c-0.2-0.3,1.5-2.3,2.3-2.3c0.9,0,0.5,1-0.5,1.7S59.2,77.4,58.9,77z"/>
		<path class="st5" d="M59.7,76.6c-0.1-0.1,0.8-1.1,1.2-1.2c0.4-0.1,0.1,0.4-0.3,0.8C60.1,76.6,59.8,76.8,59.7,76.6z"/>
		<path class="st6" d="M59.6,76.5c-0.1-0.1,0.8-1.1,1.2-1.2c0.4-0.1,0.1,0.4-0.3,0.8S59.7,76.6,59.6,76.5z"/>
	</g>
</g>
<g>
	<path class="st3" d="M70.5,72c0.5,0,3-1.6,3.1-2.7c0.1-1-1.1-0.8-2.5,0.3S69.6,71.9,70.5,72z"/>
	<g>
		<path class="st4" d="M70.2,71.5c-0.2-0.3,1.3-2.4,2.2-2.5c0.9-0.1,0.5,1-0.4,1.7S70.5,71.9,70.2,71.5z"/>
		<path class="st5" d="M71,71.1c-0.1-0.1,0.8-1.2,1.1-1.3c0.4-0.1,0.2,0.4-0.3,0.8C71.4,71,71.1,71.2,71,71.1z"/>
		<path class="st6" d="M70.8,70.9c-0.1-0.1,0.8-1.2,1.1-1.3c0.4-0.1,0.2,0.4-0.3,0.8C71.3,70.9,71,71.1,70.8,70.9z"/>
	</g>
</g>
<g>
	<path class="st3" d="M67.9,80.6c0.5,0,3-1.6,3.1-2.7c0.1-1-1.1-0.8-2.5,0.3C67.2,79.3,67,80.6,67.9,80.6z"/>
	<g>
		<path class="st4" d="M67.6,80.2c-0.2-0.3,1.3-2.4,2.2-2.5c0.9-0.1,0.5,1-0.4,1.7S67.9,80.5,67.6,80.2z"/>
		<path class="st5" d="M68.3,79.7c-0.1-0.1,0.8-1.2,1.1-1.3c0.4-0.1,0.2,0.4-0.3,0.8C68.8,79.7,68.5,79.9,68.3,79.7z"/>
		<path class="st6" d="M68.2,79.6c-0.1-0.1,0.8-1.2,1.1-1.3c0.4-0.1,0.2,0.4-0.3,0.8C68.6,79.5,68.3,79.7,68.2,79.6z"/>
	</g>
</g>
<path class="st1" d="M74.1,81.4c0.5,0,3-1.6,3.1-2.7c0.1-1-1.1-0.8-2.5,0.3C73.5,80.1,73.3,81.4,74.1,81.4z"/>
<path class="st1" d="M64.5,86c0.5,0.1,3.3-0.8,3.8-1.6s-0.7-0.8-2.3-0.1C64.4,84.9,63.8,85.9,64.5,86z"/>
<path class="st1" d="M53.5,87.7c0.4,0.2,3.4,0.3,4.1-0.2c0.7-0.6-0.4-1-2.1-0.9C53.7,86.7,52.8,87.4,53.5,87.7z"/>
<path class="st1" d="M81.7,74.6c0.4-0.2,2.1-2.3,2.1-3.1c0-0.8-0.9-0.3-1.8,1.1S81.1,74.9,81.7,74.6z"/>
<g>
	<path class="st3" d="M56.9,83.9c0.5,0.2,3-0.6,3.3-1.4c0.3-0.8-0.7-1-2.1-0.4C56.7,82.6,56.2,83.6,56.9,83.9z"/>
	<g>
		<path class="st4" d="M56.8,83.4c-0.1-0.3,1.8-1.6,2.5-1.5s0.2,0.9-0.8,1.4C57.6,83.7,57,83.8,56.8,83.4z"/>
		<path class="st5" d="M57.5,83.3c0-0.1,0.9-0.8,1.3-0.7c0.4,0,0,0.4-0.5,0.6C57.9,83.3,57.6,83.4,57.5,83.3z"/>
		<path class="st6" d="M57.5,83.1c0-0.1,0.9-0.8,1.3-0.7c0.4,0,0,0.4-0.5,0.6S57.5,83.3,57.5,83.1z"/>
	</g>
</g>
<g>
	<path class="st3" d="M77.6,73.1c0.5,0,2.6-1.6,2.6-2.5c0-0.9-1.1-0.7-2.1,0.4S76.9,73.2,77.6,73.1z"/>
	<g>
		<path class="st4" d="M77.3,72.7c-0.2-0.2,1-2.2,1.8-2.3s0.5,0.8-0.2,1.5C78.2,72.7,77.6,73,77.3,72.7z"/>
		<path class="st5" d="M78,72.3c-0.1-0.1,0.6-1.1,0.9-1.2c0.3-0.1,0.2,0.3-0.2,0.7C78.3,72.3,78.1,72.4,78,72.3z"/>
		<path class="st6" d="M77.8,72.2c-0.1-0.1,0.6-1.1,0.9-1.2s0.2,0.3-0.2,0.7C78.2,72.1,78,72.3,77.8,72.2z"/>
	</g>
</g>
<g>
	<path class="st3" d="M14.3,79.5c0.3,0.3,2.4,0.3,2.7-0.4c0.3-0.6-0.5-1.1-1.7-0.9S13.7,79.2,14.3,79.5z"/>
	<g>
		<path class="st4" d="M14.2,79.1c-0.1-0.3,1.5-1,2-0.6c0.6,0.3,0.1,0.9-0.7,1C14.8,79.6,14.4,79.5,14.2,79.1z"/>
		<path class="st5" d="M14.8,79.2c0-0.1,0.8-0.4,1.1-0.3c0.3,0.1,0,0.3-0.4,0.4S14.9,79.3,14.8,79.2z"/>
		<path class="st6" d="M14.8,79c0-0.1,0.8-0.4,1.1-0.3c0.3,0.1,0,0.3-0.4,0.4S14.8,79.2,14.8,79z"/>
	</g>
</g>
<g>
	<path class="st3" d="M7.6,72.7c0.4,0.1,2.2-0.6,2.3-1.4c0.1-0.8-0.8-0.9-1.8-0.4S7,72.5,7.6,72.7z"/>
	<g>
		<path class="st4" d="M7.4,72.3c-0.2-0.3,1-1.6,1.6-1.4c0.6,0.1,0.4,0.9-0.3,1.3C8.1,72.5,7.7,72.7,7.4,72.3z"/>
		<path class="st5" d="M8,72.1c-0.1-0.1,0.6-0.7,0.8-0.7c0.3,0,0.1,0.4-0.2,0.6C8.3,72.2,8,72.3,8,72.1z"/>
		<path class="st6" d="M7.9,72c-0.1-0.1,0.6-0.7,0.8-0.7c0.3,0,0.1,0.4-0.2,0.6C8.2,72,8,72.1,7.9,72z"/>
	</g>
</g>
<g>
	<path class="st3" d="M7.5,66.3c0.3,0.1,1.9-0.5,2-1.2c0.1-0.7-0.7-0.8-1.5-0.3S7,66.1,7.5,66.3z"/>
	<g>
		<path class="st4" d="M7.4,65.9c-0.1-0.2,0.9-1.3,1.4-1.2c0.5,0.1,0.3,0.8-0.3,1.1C7.9,66.2,7.5,66.3,7.4,65.9z"/>
		<path class="st5" d="M7.8,65.8c-0.1-0.1,0.5-0.6,0.7-0.6c0.2,0,0.1,0.3-0.2,0.5C8.1,65.9,7.9,65.9,7.8,65.8z"/>
		<path class="st6" d="M7.7,65.7c-0.1-0.1,0.5-0.6,0.7-0.6c0.2,0,0.1,0.3-0.2,0.5C8,65.7,7.8,65.8,7.7,65.7z"/>
	</g>
</g>
<path class="st3" d="M19.5,45c0.4,0,1.8-1.7,1.6-2.7s-1.1-0.7-1.8,0.4C18.7,43.8,18.9,45,19.5,45z"/>
<g>
	<path class="st4" d="M19.2,44.5c-0.3-0.3,0.4-2.3,1-2.4c0.6-0.1,0.6,0.9,0.2,1.7C19.9,44.5,19.5,44.9,19.2,44.5z"/>
	<path class="st5" d="M19.6,44.1c-0.1-0.1,0.3-1.1,0.5-1.2c0.3-0.1,0.2,0.4,0,0.8S19.8,44.2,19.6,44.1z"/>
	<path class="st6" d="M19.5,44c-0.1-0.1,0.3-1.1,0.5-1.2c0.3-0.1,0.2,0.4,0,0.8C19.8,43.9,19.6,44.1,19.5,44z"/>
</g>
<path class="st3" d="M41.4,23.9c0.4,0.5,3.1,0.8,3.7-0.2c0.6-1-0.3-1.8-1.9-1.7C41.6,22,40.8,23.2,41.4,23.9z"/>
<g>
	<path class="st4" d="M41.8,23.3c0-0.5,2.3-1.4,3-0.8c0.7,0.6-0.2,1.4-1.2,1.5C42.4,24.1,41.8,23.9,41.8,23.3z"/>
	<path class="st5" d="M42.6,23.4c0-0.2,1.2-0.6,1.5-0.4c0.3,0.2-0.1,0.6-0.7,0.6C42.9,23.7,42.5,23.7,42.6,23.4z"/>
	<path class="st6" d="M42.6,23.2c0-0.2,1.2-0.6,1.5-0.4c0.3,0.2-0.1,0.6-0.7,0.6C42.9,23.5,42.6,23.4,42.6,23.2z"/>
</g>
<path class="st3" d="M49.2,20c0.4,0.4,3.1,0.7,3.7-0.2c0.6-0.9-0.3-1.6-1.9-1.6S48.6,19.3,49.2,20z"/>
<g>
	<path class="st4" d="M49.6,19.4c0-0.4,2.3-1.2,3-0.7c0.7,0.5-0.2,1.3-1.2,1.3C50.3,20.2,49.6,20,49.6,19.4z"/>
	<path class="st5" d="M50.4,19.6c0-0.2,1.2-0.5,1.5-0.3s-0.1,0.5-0.7,0.5C50.7,19.8,50.4,19.8,50.4,19.6z"/>
	<path class="st6" d="M50.4,19.3c0-0.2,1.2-0.5,1.5-0.3c0.3,0.2-0.1,0.5-0.7,0.5C50.7,19.6,50.4,19.6,50.4,19.3z"/>
</g>
<path class="st3" d="M50.5,24.1c0.2,0.5,2.7,1.7,3.6,1c0.9-0.6,0.2-1.7-1.3-2.1C51.4,22.6,50.2,23.3,50.5,24.1z"/>
<g>
	<path class="st4" d="M51.1,23.7c0.1-0.4,2.6-0.4,3,0.3s-0.6,1.1-1.6,0.9C51.5,24.6,51,24.3,51.1,23.7z"/>
	<path class="st5" d="M51.8,24.1c0.1-0.2,1.3-0.1,1.5,0.2s-0.3,0.4-0.8,0.3C52,24.4,51.7,24.3,51.8,24.1z"/>
	<path class="st6" d="M51.9,23.9c0.1-0.2,1.3-0.1,1.5,0.2s-0.3,0.4-0.8,0.3C52.1,24.2,51.8,24.1,51.9,23.9z"/>
</g>
<g>
	<path class="st4" d="M57.4,17.4c0.1-0.4,3.2-0.3,3.8,0.5c0.6,0.8-0.7,1.1-2,0.8C57.9,18.3,57.2,18,57.4,17.4z"/>
	<path class="st5" d="M58.2,17.8c0.1-0.2,1.6,0,1.9,0.3c0.3,0.3-0.3,0.4-1,0.3C58.5,18.2,58.1,18,58.2,17.8z"/>
	<path class="st6" d="M58.3,17.6c0.1-0.2,1.6,0,1.9,0.3c0.3,0.3-0.3,0.4-1,0.3C58.6,18,58.2,17.8,58.3,17.6z"/>
</g>
<g>
	<path class="st4" d="M38.5,21.7c0-0.3,1.9-1.2,2.5-0.9c0.6,0.3-0.1,0.9-1,1.1C39.1,22.2,38.5,22.1,38.5,21.7z"/>
	<path class="st5" d="M39.1,21.7c0-0.1,1-0.5,1.3-0.4c0.3,0.1-0.1,0.4-0.5,0.5C39.4,21.9,39.1,21.9,39.1,21.7z"/>
	<path class="st6" d="M39.1,21.6c0-0.1,1-0.5,1.3-0.4s-0.1,0.4-0.5,0.5S39.1,21.7,39.1,21.6z"/>
</g>
<g>
	<path class="st4" d="M30.2,29.3c-0.2-0.3,1.2-1.9,1.9-1.9c0.7,0,0.3,0.9-0.4,1.4C30.9,29.4,30.4,29.6,30.2,29.3z"/>
	<path class="st5" d="M30.8,29c-0.1-0.1,0.7-0.9,1-1c0.3,0,0.1,0.4-0.3,0.7C31.1,29,30.9,29.1,30.8,29z"/>
	<path class="st6" d="M30.7,28.9c-0.1-0.1,0.7-0.9,1-1c0.3,0,0.1,0.4-0.3,0.7C31.1,28.9,30.8,29,30.7,28.9z"/>
</g>
<g>
	<path class="st4" d="M4.9,69.6c-0.2-0.3,0.9-1.6,1.5-1.5c0.6,0.1,0.4,0.8-0.2,1.3C5.6,69.8,5.1,69.9,4.9,69.6z"/>
	<path class="st5" d="M5.4,69.4c-0.1-0.1,0.5-0.8,0.8-0.8s0.1,0.3-0.2,0.6C5.7,69.4,5.5,69.5,5.4,69.4z"/>
	<path class="st6" d="M5.3,69.2c-0.1-0.1,0.5-0.8,0.8-0.8c0.3,0,0.1,0.3-0.2,0.6S5.4,69.4,5.3,69.2z"/>
</g>
<g>
	<path class="st4" d="M5.9,74.6c0-0.3,1-0.8,1.4-0.4c0.3,0.4,0,0.9-0.5,0.9S5.9,75,5.9,74.6z"/>
	<path class="st5" d="M6.2,74.7c0-0.1,0.6-0.3,0.7-0.2c0.2,0.1,0,0.3-0.3,0.4C6.4,74.9,6.3,74.9,6.2,74.7z"/>
	<path class="st6" d="M6.2,74.6c0-0.1,0.6-0.3,0.7-0.2c0.2,0.1,0,0.3-0.3,0.4C6.4,74.8,6.2,74.7,6.2,74.6z"/>
</g>
<g>
	<path class="st4" d="M45.5,18c0-0.3,1.9-1.2,2.5-0.9c0.6,0.3-0.1,0.9-1,1.1C46.1,18.4,45.5,18.4,45.5,18z"/>
	<path class="st5" d="M46.1,18c0-0.1,1-0.5,1.3-0.4c0.3,0.1-0.1,0.4-0.5,0.5C46.4,18.1,46.1,18.1,46.1,18z"/>
	<path class="st6" d="M46.1,17.8c0-0.1,1-0.5,1.3-0.4s-0.1,0.4-0.5,0.5S46.1,18,46.1,17.8z"/>
</g>
<g>
	<path class="st4" d="M51.6,30.6c0.1-0.5,2.5-0.9,3-0.2c0.5,0.7-0.4,1.3-1.5,1.2S51.4,31.3,51.6,30.6z"/>
	<path class="st5" d="M52.3,30.9c0-0.2,1.3-0.3,1.6-0.1s-0.2,0.5-0.8,0.5C52.5,31.3,52.2,31.2,52.3,30.9z"/>
	<path class="st6" d="M52.3,30.7c0-0.2,1.3-0.3,1.6-0.1s-0.2,0.5-0.8,0.5C52.6,31,52.3,30.9,52.3,30.7z"/>
</g>
<g>
	<path class="st4" d="M51.4,41.5c-0.1-0.5,2-1.7,2.8-1.2s0.1,1.4-1,1.6C52.2,42.2,51.5,42.1,51.4,41.5z"/>
	<path class="st5" d="M52.2,41.5c0-0.2,1.1-0.7,1.4-0.6c0.4,0.2,0,0.6-0.6,0.7C52.5,41.8,52.2,41.8,52.2,41.5z"/>
	<path class="st6" d="M52.1,41.3c0-0.2,1.1-0.7,1.4-0.6c0.4,0.2,0,0.6-0.6,0.7C52.5,41.5,52.2,41.5,52.1,41.3z"/>
</g>
<path class="st1" d="M59.1,36.8c-0.3-1.4,4.1-4.4,6.3-3.1c2.9,1.7,0.4,5.2-2.1,5.7C60.7,39.7,59.5,38.7,59.1,36.8z"/>
<path class="st3" d="M61.4,37.6c0.5,0.3,3.1-0.3,3.4-1.4c0.3-1.1-0.9-1.6-2.3-1S60.6,37.2,61.4,37.6z"/>
<g>
	<path class="st4" d="M61.3,36.6c-0.1-0.5,1.9-1.8,2.7-1.3c0.8,0.4,0.1,1.4-0.9,1.7C62.2,37.3,61.5,37.2,61.3,36.6z"/>
	<path class="st5" d="M62.1,36.6c0-0.2,1-0.8,1.4-0.7s0,0.6-0.5,0.7C62.5,36.8,62.2,36.8,62.1,36.6z"/>
	<path class="st6" d="M62.1,36.4c0-0.2,1-0.8,1.4-0.7c0.4,0.1,0,0.6-0.5,0.7S62.1,36.6,62.1,36.4z"/>
</g>
<path class="st1" d="M60.2,47c-0.5-1.4,3.5-4.9,5.8-3.9c3.1,1.3,1.1,5.1-1.4,5.9C62.2,49.7,60.8,48.8,60.2,47z"/>
<path class="st3" d="M62.5,47.5c0.5,0.2,3.1-0.7,3.2-1.8c0.1-1.1-1.1-1.4-2.4-0.7C62,45.7,61.7,47.2,62.5,47.5z"/>
<g>
	<path class="st4" d="M62.4,46.5c-0.2-0.4,1.7-2,2.5-1.7c0.8,0.3,0.3,1.4-0.7,1.8C63.3,47,62.6,47.1,62.4,46.5z"/>
	<path class="st5" d="M63.2,46.4c-0.1-0.2,0.9-0.9,1.3-0.9c0.4,0.1,0.1,0.5-0.4,0.8C63.5,46.5,63.2,46.6,63.2,46.4z"/>
	<path class="st6" d="M63.1,46.1C63,46,64,45.2,64.4,45.3c0.4,0.1,0.1,0.5-0.4,0.8C63.5,46.3,63.2,46.4,63.1,46.1z"/>
</g>
<path class="st1" d="M69.4,51.9c-0.7-1.3,2.5-5.5,5-4.9c3.3,0.7,2,4.9-0.3,6C71.9,54.2,70.4,53.6,69.4,51.9z"/>
<path class="st3" d="M71.8,52c0.6,0.1,2.9-1.2,2.8-2.4c-0.1-1.2-1.3-1.2-2.5-0.2C70.9,50.3,70.9,51.8,71.8,52z"/>
<g>
	<path class="st4" d="M71.5,51c-0.3-0.4,1.3-2.3,2.2-2.1c0.9,0.2,0.6,1.3-0.3,1.9C72.5,51.4,71.8,51.5,71.5,51z"/>
	<path class="st5" d="M72.2,50.7c-0.1-0.2,0.7-1.1,1.1-1.1s0.2,0.5-0.3,0.8C72.6,50.8,72.3,51,72.2,50.7z"/>
	<path class="st6" d="M72.1,50.5c-0.1-0.2,0.7-1.1,1.1-1.1c0.4,0,0.2,0.5-0.3,0.8C72.5,50.6,72.2,50.7,72.1,50.5z"/>
</g>
<path class="st1" d="M70.6,62.1c-1-0.9,0.7-5.4,3.1-5.6c3-0.3,3,3.7,1.3,5.3S71.9,63.3,70.6,62.1z"/>
<path class="st3" d="M72.7,61.7c0.6,0,2.4-2,2-3.1c-0.4-1.1-1.6-0.8-2.5,0.5C71.4,60.4,71.8,61.8,72.7,61.7z"/>
<g>
	<path class="st4" d="M72.1,60.9c-0.4-0.3,0.6-2.6,1.5-2.7c0.9-0.1,0.9,1.1,0.2,1.9C73.2,60.9,72.6,61.3,72.1,60.9z"/>
	<path class="st5" d="M72.8,60.4c-0.1-0.1,0.4-1.3,0.8-1.4s0.3,0.5,0,0.9C73.2,60.4,72.9,60.6,72.8,60.4z"/>
	<path class="st6" d="M72.6,60.2c-0.1-0.1,0.4-1.3,0.8-1.4s0.3,0.5,0,0.9C73,60.2,72.8,60.4,72.6,60.2z"/>
</g>
<path class="st1" d="M59.4,68.5c-0.6-1.2,2.5-4.8,4.8-4.2c2.9,0.8,1.6,4.5-0.5,5.5S60.2,70.1,59.4,68.5z"/>
<path class="st3" d="M61.5,68.9c0.6,0.2,3-1.1,3-2.2c0-1.2-1.3-1.3-2.5-0.4C60.7,67.2,60.6,68.7,61.5,68.9z"/>
<g>
	<path class="st4" d="M61.2,67.9c-0.2-0.4,1.4-2.2,2.3-2c0.9,0.2,0.5,1.3-0.4,1.9C62.2,68.3,61.5,68.5,61.2,67.9z"/>
	<path class="st5" d="M61.9,67.7c-0.1-0.2,0.8-1.1,1.2-1c0.4,0,0.1,0.5-0.3,0.8S62.1,67.9,61.9,67.7z"/>
	<path class="st6" d="M61.8,67.5c-0.1-0.2,0.8-1.1,1.2-1c0.4,0,0.1,0.5-0.3,0.8C62.2,67.6,61.9,67.7,61.8,67.5z"/>
</g>
<path class="st1" d="M38.3,77.2c-0.4-0.9,2.7-3.3,4.5-2.6c2.4,0.9,0.8,3.5-1.1,4C39.8,79.1,38.8,78.5,38.3,77.2z"/>
<path class="st3" d="M40,77.7c0.5,0.2,2.6-0.5,2.8-1.3c0.1-0.9-0.9-1.1-2.1-0.5C39.5,76.4,39.3,77.4,40,77.7z"/>
<g>
	<path class="st4" d="M39.9,77c-0.1-0.3,1.4-1.5,2.1-1.3c0.7,0.3,0.3,1-0.6,1.3C40.6,77.4,40.1,77.4,39.9,77z"/>
	<path class="st5" d="M40.5,76.9c0-0.1,0.8-0.7,1.1-0.6s0.1,0.4-0.4,0.6C40.9,77,40.6,77,40.5,76.9z"/>
	<path class="st6" d="M40.5,76.7c0-0.1,0.8-0.7,1.1-0.6s0.1,0.4-0.4,0.6C40.8,76.8,40.5,76.9,40.5,76.7z"/>
</g>
<path class="st1" d="M24,79.3c-0.4-0.8,3-2.8,5-2.2c2.7,0.7,0.9,2.9-1.2,3.4S24.5,80.3,24,79.3z"/>
<path class="st3" d="M25.9,79.7c0.5,0.1,2.9-0.4,3.1-1.1c0.1-0.7-1-0.9-2.3-0.4C25.4,78.6,25.1,79.4,25.9,79.7z"/>
<g>
	<path class="st4" d="M25.8,79c-0.2-0.3,1.6-1.3,2.4-1.1c0.8,0.2,0.3,0.9-0.6,1.1C26.6,79.4,26,79.4,25.8,79z"/>
	<path class="st5" d="M26.5,79c-0.1-0.1,0.9-0.6,1.2-0.5c0.4,0.1,0.1,0.3-0.4,0.5C26.9,79.1,26.6,79.1,26.5,79z"/>
	<path class="st6" d="M26.5,78.8c-0.1-0.1,0.9-0.6,1.2-0.5c0.4,0.1,0.1,0.3-0.4,0.5C26.8,78.9,26.5,79,26.5,78.8z"/>
</g>
<path class="st1" d="M20.2,72.2c-0.4-0.9,3-3.3,5-2.6c2.7,0.9,0.9,3.5-1.2,4S20.7,73.4,20.2,72.2z"/>
<path class="st3" d="M22.1,72.7c0.5,0.2,2.9-0.5,3.1-1.3c0.1-0.9-1-1.1-2.3-0.5S21.3,72.4,22.1,72.7z"/>
<g>
	<path class="st4" d="M22,71.9c-0.2-0.3,1.6-1.5,2.4-1.3s0.3,1-0.6,1.3C22.8,72.3,22.2,72.4,22,71.9z"/>
	<path class="st5" d="M22.7,71.8c-0.1-0.1,0.9-0.7,1.2-0.6c0.4,0.1,0.1,0.4-0.4,0.6C23.1,72,22.8,72,22.7,71.8z"/>
	<path class="st6" d="M22.6,71.7c-0.1-0.1,0.9-0.7,1.2-0.6c0.4,0.1,0.1,0.4-0.4,0.6C23,71.8,22.7,71.8,22.6,71.7z"/>
</g>
<path class="st2" d="M51.4,74.1c-0.6-0.7,1.1-3.6,2.8-3.2c1.7,0.4,1.9,2.2,0.6,3.2C53.4,75.2,52.1,75.1,51.4,74.1z"/>
<path class="st1" d="M50.3,73.2c-0.5-0.9,1.7-3.7,3.4-3.4c2.2,0.5,1.4,3.3-0.2,4.1C52,74.8,51,74.4,50.3,73.2z"/>
<path class="st3" d="M51.9,73.6c0.5,0.1,2.5-1,2.4-2c-0.1-1-1.1-1-2.1-0.2C51.1,72.2,51.1,73.4,51.9,73.6z"/>
<g>
	<path class="st4" d="M51.6,72.7c-0.2-0.3,1.1-1.9,1.8-1.8c0.7,0.1,0.5,1.1-0.3,1.6C52.4,73,51.9,73.2,51.6,72.7z"/>
	<path class="st5" d="M52.2,72.5c-0.1-0.1,0.6-0.9,1-0.9c0.3,0,0.1,0.4-0.2,0.7C52.5,72.6,52.3,72.7,52.2,72.5z"/>
	<path class="st6" d="M52.1,72.3c-0.1-0.1,0.6-0.9,1-0.9c0.3,0,0.1,0.4-0.2,0.7S52.2,72.5,52.1,72.3z"/>
</g>
<path class="st1" d="M61.4,58.6c-0.9-1,1.4-5.4,3.8-5.3c3.1,0.1,2.6,4.1,0.7,5.6C64,60.3,62.5,60,61.4,58.6z"/>
<path class="st3" d="M63.6,58.4c0.6,0,2.6-1.7,2.4-2.8c-0.3-1.1-1.5-1-2.5,0.2C62.4,57,62.6,58.4,63.6,58.4z"/>
<g>
	<path class="st4" d="M63.1,57.5c-0.3-0.4,0.8-2.5,1.8-2.5c0.9,0,0.8,1.2,0,1.9S63.5,58,63.1,57.5z"/>
	<path class="st5" d="M63.7,57.2c-0.1-0.1,0.5-1.2,0.9-1.3c0.4-0.1,0.3,0.5-0.1,0.9C64.2,57.2,63.9,57.3,63.7,57.2z"/>
	<path class="st6" d="M63.6,57c-0.1-0.1,0.5-1.2,0.9-1.3c0.4-0.1,0.3,0.5-0.1,0.9C64,57,63.7,57.2,63.6,57z"/>
</g>
<path class="st1" d="M50.6,64c-0.6-1.2,2.6-5,4.9-4.4c3,0.8,1.6,4.6-0.5,5.6S51.4,65.7,50.6,64z"/>
<path class="st3" d="M52.8,64.4c0.6,0.2,3-1.1,2.9-2.3c0-1.2-1.3-1.3-2.5-0.3C52,62.7,51.9,64.1,52.8,64.4z"/>
<g>
	<path class="st4" d="M52.5,63.4c-0.2-0.4,1.4-2.2,2.3-2c0.9,0.2,0.5,1.3-0.4,1.9C53.4,63.8,52.8,63.9,52.5,63.4z"/>
	<path class="st5" d="M53.2,63.1c-0.1-0.2,0.8-1.1,1.2-1c0.4,0,0.1,0.5-0.3,0.8S53.3,63.4,53.2,63.1z"/>
	<path class="st6" d="M53.1,62.9c-0.1-0.2,0.8-1.1,1.2-1s0.1,0.5-0.3,0.8C53.5,63,53.2,63.1,53.1,62.9z"/>
</g>
<path class="st2" d="M43,69.7c-0.7-0.9,1.3-4.5,3.4-4c2.1,0.5,2.3,2.7,0.7,4C45.5,71,44,70.9,43,69.7z"/>
<path class="st1" d="M41.1,68c-0.4-1.3,3.3-4.5,5.4-3.6c2.9,1.2,0.9,4.8-1.3,5.5C43,70.5,41.7,69.7,41.1,68z"/>
<path class="st3" d="M43.2,68.6c0.5,0.2,3.1-0.7,3.2-1.8c0.2-1.1-1.1-1.5-2.4-0.7S42.4,68.3,43.2,68.6z"/>
<g>
	<path class="st4" d="M43.1,67.6c-0.2-0.4,1.7-2,2.5-1.7c0.8,0.3,0.3,1.4-0.7,1.8C44,68.1,43.3,68.2,43.1,67.6z"/>
	<path class="st5" d="M43.8,67.5c-0.1-0.2,0.9-0.9,1.3-0.8c0.4,0.1,0.1,0.5-0.4,0.8C44.2,67.7,43.9,67.7,43.8,67.5z"/>
	<path class="st6" d="M43.8,67.3c-0.1-0.2,0.9-0.9,1.3-0.8c0.4,0.1,0.1,0.5-0.4,0.8C44.2,67.4,43.8,67.5,43.8,67.3z"/>
</g>
<path class="st2" d="M32.1,74.3c-0.5-0.6,1-3.2,2.4-2.8c1.5,0.4,1.7,2,0.5,2.9C33.9,75.2,32.8,75.1,32.1,74.3z"/>
<path class="st1" d="M30.1,72.9c-0.4-1.1,2.7-3.8,4.5-3c2.4,1,0.8,4-1.1,4.5C31.6,75,30.5,74.3,30.1,72.9z"/>
<path class="st3" d="M31.6,73.6c0.5,0.2,3.1-0.7,3.2-1.8c0.2-1.1-1.1-1.5-2.4-0.7S30.8,73.3,31.6,73.6z"/>
<g>
	<path class="st4" d="M31.5,72.6c-0.2-0.4,1.7-2,2.5-1.7c0.8,0.3,0.3,1.4-0.7,1.8C32.3,73.1,31.7,73.2,31.5,72.6z"/>
	<path class="st5" d="M32.2,72.5c-0.1-0.2,0.9-0.9,1.3-0.8c0.4,0.1,0.1,0.5-0.4,0.8C32.6,72.7,32.3,72.7,32.2,72.5z"/>
	<path class="st6" d="M32.1,72.3c-0.1-0.2,0.9-0.9,1.3-0.8c0.4,0.1,0.1,0.5-0.4,0.8C32.5,72.4,32.2,72.5,32.1,72.3z"/>
</g>
<g>
	<path class="st4" d="M40.3,48.7c-0.1-0.5,2.7-1.9,3.6-1.5c0.9,0.4-0.1,1.4-1.4,1.8C41.2,49.4,40.4,49.4,40.3,48.7z"/>
	<path class="st5" d="M41.3,48.7c0-0.2,1.4-0.9,1.8-0.7s-0.1,0.6-0.8,0.8C41.7,48.9,41.3,48.9,41.3,48.7z"/>
	<path class="st6" d="M41.3,48.4c0-0.2,1.4-0.9,1.8-0.7s-0.1,0.6-0.8,0.8S41.3,48.7,41.3,48.4z"/>
</g>
<g>
	<path class="st4" d="M51.6,53.5c-0.2-0.4,2.1-2.4,3-2.2c0.9,0.2,0.2,1.3-0.9,1.9C52.6,53.8,51.8,54,51.6,53.5z"/>
	<path class="st5" d="M52.5,53.2c-0.1-0.2,1.1-1.1,1.6-1.1c0.4,0,0,0.5-0.5,0.9S52.6,53.4,52.5,53.2z"/>
	<path class="st6" d="M52.4,53c-0.1-0.2,1.1-1.1,1.6-1.1c0.4,0,0,0.5-0.5,0.9S52.5,53.2,52.4,53z"/>
</g>
<path class="st2" d="M41,60.7c-0.8-1.1,1.7-5.2,4.1-4.5s2.1,2.7,0.2,4.2C43.5,61.7,42.1,62.1,41,60.7z"/>
<path class="st1" d="M39.3,57.2c0.1-2.3,4.6-4,6.2-1.4c1.6,2.6-0.8,5.3-3.1,5.2C40.1,60.8,39.2,58.9,39.3,57.2z"/>
<path class="st3" d="M42.3,59.9c0.5,0.3,3.2-0.2,3.5-1.3c0.3-1.1-0.9-1.6-2.3-1.1C42,58.1,41.5,59.4,42.3,59.9z"/>
<g>
	<path class="st4" d="M42,59.2c-0.1-0.4,2.3-1.8,3.1-1.5s0,1.2-1.1,1.6S42.1,59.7,42,59.2z"/>
	<path class="st5" d="M42.8,59.1c0-0.2,1.2-0.8,1.6-0.8c0.4,0.1-0.1,0.5-0.6,0.7S42.8,59.3,42.8,59.1z"/>
	<path class="st6" d="M42.8,58.9c0-0.2,1.2-0.8,1.6-0.8c0.4,0.1-0.1,0.5-0.6,0.7S42.8,59.1,42.8,58.9z"/>
</g>
<path class="st2" d="M32.8,66.6c-0.6-0.7,1.2-3.5,2.9-3c1.7,0.5,1.5,1.8,0.1,2.8C34.5,67.3,33.5,67.5,32.8,66.6z"/>
<path class="st1" d="M28.8,62.4c0.1-2.6,5.2-4.4,7.1-1.6c1.9,2.8-0.9,5.9-3.5,5.7S28.7,64.3,28.8,62.4z"/>
<path class="st3" d="M31.8,65.6c0.6,0.4,3.9-0.2,4.3-1.6c0.4-1.3-1.1-1.9-2.9-1.3S30.8,65,31.8,65.6z"/>
<g>
	<path class="st4" d="M31.4,64.7c-0.1-0.5,2.8-2.1,3.8-1.8c1,0.4,0,1.4-1.4,1.9C32.4,65.3,31.6,65.4,31.4,64.7z"/>
	<path class="st5" d="M32.4,64.6c0-0.2,1.5-1,2-0.9s-0.1,0.6-0.8,0.8S32.5,64.9,32.4,64.6z"/>
	<path class="st6" d="M32.4,64.4c0-0.2,1.5-1,2-0.9s-0.1,0.6-0.8,0.8C32.9,64.6,32.4,64.6,32.4,64.4z"/>
</g>
<g>
	<path class="st4" d="M31.1,55.5C30.9,55,33,52.8,34,52.9c1,0.1,0.4,1.4-0.7,2.1C32.1,55.8,31.4,56,31.1,55.5z"/>
	<path class="st5" d="M32,55.1c-0.1-0.2,1.1-1.3,1.5-1.3c0.5,0,0.1,0.6-0.5,1C32.5,55.2,32.1,55.3,32,55.1z"/>
	<path class="st6" d="M31.9,54.9c-0.1-0.2,1.1-1.3,1.5-1.3c0.5,0,0.1,0.6-0.5,1C32.4,55,32,55.1,31.9,54.9z"/>
</g>
<path class="st1" d="M28.7,44.5c-0.1-1.3,3.8-4,5.5-2.8c2.2,1.5-0.2,4.7-2.3,5.1S28.9,46.3,28.7,44.5z"/>
<path class="st3" d="M30.8,46.4c0.5,0.2,2.8-0.9,2.8-2c0-1.1-1.2-1.2-2.4-0.4S29.9,46.2,30.8,46.4z"/>
<g>
	<path class="st4" d="M30.4,45.9c-0.2-0.4,1.8-2.5,2.8-2.3c0.9,0.1,0.4,1.3-0.7,2C31.4,46.3,30.7,46.5,30.4,45.9z"/>
	<path class="st5" d="M31.2,45.6c-0.1-0.2,1-1.2,1.4-1.2c0.4,0,0.1,0.5-0.5,0.9C31.7,45.7,31.3,45.8,31.2,45.6z"/>
	<path class="st6" d="M31.1,45.4c-0.1-0.2,1-1.2,1.4-1.2c0.4,0,0.1,0.5-0.5,0.9C31.6,45.5,31.2,45.6,31.1,45.4z"/>
</g>
<path class="st1" d="M21.4,51c0.5-1.8,2.8-3.7,4.9-2.3c2.8,1.8,0.1,5.2-2.5,5.5C21.3,54.5,20.8,52.8,21.4,51z"/>
<path class="st3" d="M22.8,53.9c0.6,0.2,3-1,3-2.2c0-1.2-1.2-1.3-2.5-0.4S22,53.6,22.8,53.9z"/>
<g>
	<path class="st4" d="M22.4,53.4c-0.2-0.4,1.9-2.6,2.9-2.5c1,0.1,0.4,1.4-0.7,2.1C23.5,53.7,22.7,53.9,22.4,53.4z"/>
	<path class="st5" d="M23.3,53c-0.1-0.2,1.1-1.3,1.5-1.3c0.5,0,0.1,0.6-0.5,1C23.8,53.1,23.4,53.2,23.3,53z"/>
	<path class="st6" d="M23.2,52.8c-0.1-0.2,1.1-1.3,1.5-1.3c0.5,0,0.1,0.6-0.5,1C23.7,52.9,23.3,53,23.2,52.8z"/>
</g>
<path class="st2" d="M20.6,65.2c-0.5-0.9,2-3.6,3.7-2.8c1.7,0.8,1.2,2.3-0.4,3.1C22.3,66.3,21.2,66.4,20.6,65.2z"/>
<path class="st1" d="M19.8,61.6c0.1-1.3,4.6-2.7,6.2-1c2.1,2.2-1,4.6-3.2,4.3S19.6,63.4,19.8,61.6z"/>
<path class="st3" d="M21.7,64.2c0.5,0.3,3.1-0.3,3.4-1.4c0.3-1.1-0.9-1.6-2.3-1C21.4,62.4,21,63.7,21.7,64.2z"/>
<g>
	<path class="st4" d="M21.5,63.6c-0.1-0.5,2.5-2.1,3.4-1.8c0.9,0.4,0.1,1.4-1.2,1.9S21.6,64.2,21.5,63.6z"/>
	<path class="st5" d="M22.4,63.5c0-0.2,1.3-1,1.8-0.9c0.4,0.1,0,0.6-0.7,0.8C22.9,63.6,22.5,63.7,22.4,63.5z"/>
	<path class="st6" d="M22.4,63.2c0-0.2,1.3-1,1.8-0.9s0,0.6-0.7,0.8C22.8,63.4,22.4,63.5,22.4,63.2z"/>
</g>
<path class="st2" d="M14.3,63c-0.5-0.9,2-3.6,3.7-2.8c1.7,0.8,1.2,2.3-0.4,3.1C15.9,64.1,14.9,64.2,14.3,63z"/>
<path class="st1" d="M14.4,60.3c0.5-1.4,3.6-3.6,5.3-1.9c2.1,2.2-1.1,4.2-3.4,4.6C14.5,63.2,13.8,62,14.4,60.3z"/>
<path class="st3" d="M15.4,62c0.5,0.3,3.1-0.3,3.4-1.4c0.3-1.1-0.9-1.6-2.3-1C15,60.2,14.6,61.5,15.4,62z"/>
<g>
	<path class="st4" d="M15.1,61.4c-0.1-0.5,2.5-2.1,3.4-1.8c0.9,0.4,0.1,1.4-1.2,1.9C16.1,62,15.3,62,15.1,61.4z"/>
	<path class="st5" d="M16.1,61.3c0-0.2,1.3-1,1.8-0.9c0.4,0.1,0,0.6-0.7,0.8C16.5,61.5,16.1,61.5,16.1,61.3z"/>
	<path class="st6" d="M16,61c0-0.2,1.3-1,1.8-0.9c0.4,0.1,0,0.6-0.7,0.8C16.5,61.2,16.1,61.3,16,61z"/>
</g>
<path class="st2" d="M14.8,70.7c-0.5-0.9,1.5-3,3.2-2.2c1.7,0.8,1.4,1.9-0.2,2.7C16.2,72,15.4,71.9,14.8,70.7z"/>
<path class="st1" d="M14.4,68.6c0.1-1.3,3.6-3.6,5.3-1.9c2.1,2.2-1,4.6-3.2,4.3C14.1,70.7,14.2,70.3,14.4,68.6z"/>
<path class="st3" d="M15.4,70.3c0.5,0.3,3.1-0.3,3.4-1.4c0.3-1.1-0.9-1.6-2.3-1S14.6,69.8,15.4,70.3z"/>
<g>
	<path class="st4" d="M15.7,69.5c-0.1-0.3,1.8-1.5,2.5-1.3c0.7,0.3,0,1-0.9,1.4C16.4,69.9,15.8,69.9,15.7,69.5z"/>
	<path class="st5" d="M16.4,69.4c0-0.1,1-0.7,1.3-0.6s0,0.4-0.5,0.6C16.7,69.5,16.4,69.6,16.4,69.4z"/>
	<path class="st6" d="M16.3,69.2c0-0.1,1-0.7,1.3-0.6s0,0.4-0.5,0.6C16.6,69.3,16.4,69.4,16.3,69.2z"/>
</g>
<path class="st2" d="M17.2,77.4c-0.3-0.5,0.8-1.7,1.8-1.3c1,0.5,0.8,1.1-0.1,1.5C18,78.2,17.5,78.1,17.2,77.4z"/>
<path class="st1" d="M16.2,75.4c0.1-1,2.9-2.8,4.2-1.5c1.7,1.7-0.8,3.6-2.6,3.4C16,77.1,16.1,76.8,16.2,75.4z"/>
<path class="st3" d="M17.1,76.8c0.4,0.2,2.5-0.2,2.7-1.1c0.2-0.9-0.7-1.2-1.9-0.8C16.8,75.3,16.4,76.4,17.1,76.8z"/>
<g>
	<path class="st4" d="M17.3,76.1c-0.1-0.3,1.4-1.2,2-1c0.5,0.2,0,0.8-0.7,1.1C17.8,76.5,17.4,76.5,17.3,76.1z"/>
	<path class="st5" d="M17.8,76.1c0-0.1,0.8-0.6,1-0.5s0,0.3-0.4,0.5C18.1,76.2,17.9,76.2,17.8,76.1z"/>
	<path class="st6" d="M17.8,75.9c0-0.1,0.8-0.6,1-0.5s0,0.3-0.4,0.5S17.8,76.1,17.8,75.9z"/>
</g>
<g>
	<path class="st4" d="M31.7,35.9c0-0.4,1.8-1.2,2.3-0.7c0.6,0.5-0.1,1.1-0.9,1.2C32.2,36.5,31.7,36.4,31.7,35.9z"/>
	<path class="st5" d="M32.3,36c0-0.1,0.9-0.5,1.2-0.3c0.3,0.2-0.1,0.4-0.5,0.5S32.3,36.1,32.3,36z"/>
	<path class="st6" d="M32.3,35.8c0-0.1,0.9-0.5,1.2-0.3c0.3,0.2-0.1,0.4-0.5,0.5S32.3,36,32.3,35.8z"/>
</g>
<path class="st0" d="M22.2,45.1c-0.8-1.2,2.2-6.4,4.7-5.5c2.5,0.9,2.1,4.1-0.2,5.4S23.3,46.8,22.2,45.1z"/>
<path class="st1" d="M23,45.3c-1-0.9,0.4-4.8,2.8-4.8s2.7,2,1.1,3.8C25.3,46.1,24.4,46.5,23,45.3z"/>
<path class="st3" d="M24.7,44.6c0.6,0.1,2.7-1.5,2.4-2.6s-1.6-1.1-2.6,0C23.4,43,23.7,44.5,24.7,44.6z"/>
<g>
	<path class="st4" d="M24.7,43.6c-0.2-0.3,0.9-1.9,1.6-1.8c0.7,0.1,0.5,1-0.2,1.5C25.5,43.9,25,44,24.7,43.6z"/>
	<path class="st5" d="M25.3,43.4c-0.1-0.1,0.5-0.9,0.8-0.9c0.3,0,0.2,0.4-0.2,0.7C25.6,43.4,25.4,43.5,25.3,43.4z"/>
	<path class="st6" d="M25.2,43.2c-0.1-0.1,0.5-0.9,0.8-0.9c0.3,0,0.2,0.4-0.2,0.7C25.5,43.3,25.3,43.4,25.2,43.2z"/>
</g>
<path class="st7" d="M56.1,9c0,0,2.1,2.5,7.1,4s10.1,4.8,10.1,4.8s0-3.8,1.5-5s3.9-1.2,3.9-1.2s0.4,3.6,0.4,5.5s-0.8,5.1-0.8,5.1
	s0.9,3.9,3.1,5.1s3.4,4.2,3.4,4.2s2.1-0.5,6-2.5c3-1.6,5-2.7,5.7-3.2c0.2-0.1,0.5-0.2,0.8-0.1c0.4,0.2,1,0.6,1.4,1.5
	c0.2,0.5,0.3,0.9,0.4,1.2c0.1,0.3-0.1,0.7-0.3,0.9c-0.9,0.7-3.1,2.5-6.2,4.3c-4,2.4-5.1,3.2-5.1,3.2s1.6,2.2,2,5.9S89.2,48.5,92,52
	s4.1,7.9,2.9,11.9s-1.9,7-1.9,7s-2.5-4.9-4.1-8.1c-1.6-3.2-2.6-7.5-2.6-7.5s0.8,5.1-3.1,7.9c-3.9,2.8-9.2,3.9-9.2,3.9
	s5.5-1.9,5.8-10.3s1.2-12.4,1.2-12.4s-2,2.8-7.4,3.8s-9.9,0-9.9,0s-0.2-4.6,4.6-9.1s6.8-4.2,6.8-4.2s-4.2-2.7-11.6-6.2
	S53,26.8,53,26.8s5.9-3.9,9.8-4.5s6.5,0.1,6.5,0.1s-2.9-2.2-8.5-4.2C55.8,16.3,56.1,9,56.1,9z"/>
<path class="st8" d="M96.9,25.9c0.2,0,1,0,1.5,1s0.6,1.8,0.4,2c-0.2,0.1-1.2-0.7-1.7-1.5C96.8,26.6,96.7,25.8,96.9,25.9z"/>
<path class="st8" d="M96.8,27.5c0,0.3,0.2,0.5-3.8,2.6c-4,2.1-6.8,3.7-8.7,3.3c-1.8-0.5-0.5-1.4,0.3-1.4c0.8,0,3.9-1,7.1-2.8
	c3.2-1.7,4-2.2,4.4-2.4C96.5,26.5,96.8,27.5,96.8,27.5z"/>
<path class="st8" d="M85.5,37c-0.6-0.4-2.9-3.3-2.9-4.9c0-1.6-0.4-3.4-1.3-4.3s-2.6-1.9-3.7-5.2s-5.3-5-8.2-6.7s-7.6-2.6-9.9-4.2
	s-2.8-1.9-2.8-1.9s0.6,2.7,2.6,4.6s6.4,3.4,10.2,5.4s3.6,3.9,6.1,6.9s5.1,4,5.5,6.7s3.1,3.9,4.3,4.4S88,41,88,44.6
	s-0.3,6.3,2.4,10.4c2.7,4.1,2.2,11.9,2.2,11.9s2.2-2.2,1.6-8.6c-0.6-6.4-5.2-5.2-5.2-12.2S86.6,37.7,85.5,37z"/>
<path class="st8" d="M81.7,37.5c-0.2,0.5-6,3.7-10.3,6c-4.3,2.3-6,3.8-6,3.8s-2.2-1.5,4.5-7.8S81.7,37.5,81.7,37.5z"/>
<path class="st8" d="M75.3,29.9c-0.9-1.9-2.5-5.9-6.8-6.6s-11.2,1.5-11.2,1.5s10,2.1,12.9,4.6C73.2,31.8,75.3,29.9,75.3,29.9z"/>
<path class="st8" d="M76.7,12.7c0,0-1.8,0.5-2.3,2.5s0,2.7,0.7,3.5c0.7,0.8,0.3-2,0.7-3.3C76,14,76.7,12.7,76.7,12.7z"/>
<path class="st8" d="M83.7,40.8c1,3-0.2,9-0.3,12.2c-0.2,3.2-3.5,10.3-3.5,10.3s4.5-0.3,5.2-5s1.5-7.3,1.5-12S83.7,40.8,83.7,40.8z"
	/>
</svg>
