<?xml version="1.0" encoding="utf-8"?>
<!-- Generator: Adobe Illustrator 19.1.0, SVG Export Plug-In . SVG Version: 6.00 Build 0)  -->
<!DOCTYPE svg PUBLIC "-//W3C//DTD SVG 1.1//EN" "http://www.w3.org/Graphics/SVG/1.1/DTD/svg11.dtd">
<svg version="1.1" id="Layer_1" xmlns="http://www.w3.org/2000/svg" xmlns:xlink="http://www.w3.org/1999/xlink" x="0px" y="0px"
	 viewBox="0 0 245 50" style="enable-background:new 0 0 245 50;" xml:space="preserve">
<style type="text/css">
	.st0{fill:none;}
	.st1{fill:#FF2C00;}
	.st2{fill:#FFB73F;}
	.st3{fill:#009EFF;}
	.st4{fill:#FF54E6;}
	.st5{fill:#4FC9A1;}
	.st6{fill:#C271FF;}
	.st7{fill:#FF9866;}
</style>
<g>
	<path id="XMLID_441_" class="st0" d="M66.1,16.8c-4.9,0-7.6,3.1-7.6,9.7c0,6.5,2.7,9.6,7.6,9.6c5,0,7.1-4.3,7.1-4.3v-7.6
		C73.2,19.2,70,16.8,66.1,16.8z"/>
	<path id="XMLID_442_" class="st0" d="M92.2,16.8c-4.6,0-7.1,3-7.5,7.7H99C99,20.7,97.6,16.8,92.2,16.8z"/>
	<path id="XMLID_443_" class="st0" d="M158.1,16.8c-4.6,0-7.1,3-7.5,7.7h14.2C164.9,20.7,163.6,16.8,158.1,16.8z"/>
	<path id="XMLID_444_" class="st0" d="M40.3,16.8c-4.9,0-7.7,3-7.7,9.6c0,6.8,2.8,9.7,7.7,9.7s7.7-2.9,7.7-9.7
		C48,19.8,45.1,16.8,40.3,16.8z"/>
	<path id="XMLID_445_" class="st1" d="M30.5,4.6c0-1-0.7-1.7-1.7-1.7H6.3c-1,0-1.7,0.7-1.7,1.7c0,1,0.7,1.7,1.7,1.7h9.5v30.9
		c0,1,0.8,1.8,1.8,1.8c1,0,1.8-0.8,1.8-1.8V6.3h9.4C29.7,6.3,30.5,5.6,30.5,4.6z"/>
	<path id="XMLID_446_" class="st2" d="M40.3,13.8c-6.8,0-11.1,4-11.1,12.7s4.3,12.8,11.1,12.8c6.9,0,11.1-4.1,11.1-12.8
		S47.2,13.8,40.3,13.8z M40.3,36.1c-4.9,0-7.7-2.9-7.7-9.7c0-6.7,2.8-9.6,7.7-9.6s7.7,3,7.7,9.6C48,33.2,45.1,36.1,40.3,36.1z"/>
	<path id="XMLID_449_" class="st3" d="M66.1,13.8c-6.9,0-11,4.1-11,12.8c0,8.7,4.1,12.7,11,12.7c3.4,0,5.9-1.6,7.1-3.2v3
		c0,4.8-3.1,7-7.4,7c-3.3,0-5-1.3-6.2-2.5c-0.5-0.5-0.8-0.6-1.3-0.6c-0.9,0-1.6,0.7-1.6,1.6c0,0.4,0.2,0.7,0.3,1
		c1.7,2.1,4.7,3.7,8.8,3.7c5.9,0,10.8-3,10.8-10.2V24.2C76.6,17.2,72.1,13.8,66.1,13.8z M73.2,31.9c0,0-2.2,4.3-7.1,4.3
		c-4.9,0-7.6-3.1-7.6-9.6c0-6.6,2.7-9.7,7.6-9.7c4,0,7.1,2.4,7.1,7.4V31.9z"/>
	<path id="XMLID_452_" class="st4" d="M92.2,13.8c-6.9,0-10.9,4.6-10.9,12.7c0,8.9,4.4,12.8,11.4,12.8c4.7,0,7.5-2.2,8.3-3
		c0.3-0.3,0.6-0.6,0.6-1.2c0-0.8-0.7-1.5-1.5-1.5c-0.4,0-0.6,0.1-1,0.3c-1.5,1.1-3.3,2.3-6.4,2.3c-5,0-8-3.4-8-8.6h15.5
		c2.1,0,2.1-1.9,2.1-3.4C102.3,20.5,100.7,13.8,92.2,13.8z M84.7,24.5c0.3-4.7,2.9-7.7,7.5-7.7c5.5,0,6.8,3.9,6.8,7.7H84.7z"/>
	<path id="XMLID_455_" class="st5" d="M115.7,17.7c0.9,0,1.6-0.7,1.6-1.6c0-0.9-0.7-1.6-1.6-1.6h-3.4V8.9c0-0.9-0.7-1.7-1.7-1.7
		c-0.9,0-1.7,0.8-1.7,1.7v5.6h-2.1c-0.9,0-1.6,0.7-1.6,1.6c0,0.9,0.7,1.6,1.6,1.6h2.1v14.6c0,3.9,2.3,6.7,6.5,6.7
		c0.9,0,1.6-0.7,1.6-1.6c0-0.9-0.7-1.6-1.6-1.6c-1.8,0-3.1-1.2-3.1-3.5V17.7H115.7z"/>
	<path id="XMLID_456_" class="st6" d="M132.7,13.8c-3.4,0-6,1.7-7,3.7V2.5c0-1-0.7-1.7-1.7-1.7s-1.7,0.7-1.7,1.7v34.7
		c0,1,0.7,1.7,1.7,1.7s1.7-0.7,1.7-1.7V24.2c0-4.2,1.8-7.4,7-7.4c5.1,0,6.4,2.9,6.4,7v13.4c0,1,0.7,1.7,1.7,1.7c1,0,1.7-0.7,1.7-1.7
		V23.1C142.5,18.6,140.9,13.8,132.7,13.8z"/>
	<path id="XMLID_457_" class="st7" d="M158.1,13.8c-6.9,0-10.9,4.6-10.9,12.7c0,8.9,4.4,12.8,11.4,12.8c4.7,0,7.5-2.2,8.3-3
		c0.3-0.3,0.6-0.6,0.6-1.2c0-0.8-0.7-1.5-1.5-1.5c-0.4,0-0.6,0.1-1,0.3c-1.5,1.1-3.3,2.3-6.4,2.3c-5,0-8-3.4-8-8.6h15.5
		c2.1,0,2.1-1.9,2.1-3.4C168.2,20.5,166.6,13.8,158.1,13.8z M150.7,24.5c0.3-4.7,2.9-7.7,7.5-7.7c5.5,0,6.8,3.9,6.8,7.7H150.7z"/>
	<path id="XMLID_460_" class="st1" d="M184.2,13.9c-3.7,0-6.3,1.8-7.4,4.2v-2.3c0-1-0.7-1.7-1.7-1.7c-1,0-1.7,0.7-1.7,1.7v21.5
		c0,1,0.7,1.7,1.7,1.7c1,0,1.7-0.7,1.7-1.7V25.4c0-4.9,2.5-8.3,7.4-8.3c0.9,0,1.6-0.7,1.6-1.6C185.9,14.6,185.1,13.9,184.2,13.9z"/>
	<path id="XMLID_461_" class="st5" d="M221.2,39.3c-2.7,0-5.3-1.1-7.3-3.1l-0.2-0.2l-0.1-0.2c-0.6-0.6-3.6-3.9-5-8.7
		c-1.5-5.1-4.4-7.8-4.4-7.8l-0.4-0.4c-1.4-1.3-3.1-2-4.9-2c-2.1,0-4,1-5.5,2.7c-1.6,1.8-2.4,4.2-2.4,6.8s0.9,5,2.4,6.8
		c1.5,1.7,3.5,2.7,5.5,2.7c1.8,0,3.5-0.7,4.9-2l0.2-0.2c0.6-0.6,1.7-0.7,2.3,0c0.6,0.6,0.7,1.7,0,2.3l-0.3,0.3
		c-2,1.9-4.5,2.9-7.1,2.9c-3,0-5.9-1.4-8-3.8c-2.1-2.4-3.2-5.6-3.2-9c0-3.4,1.1-6.5,3.2-9c2.1-2.5,5-3.8,8-3.8c2.6,0,5.1,1,7.1,2.9
		l0.4,0.4c0.1,0.1,3.5,3.3,5.3,9.3c1.3,4.4,4.3,7.4,4.3,7.4l0.1,0.2l0.1,0.2c1.4,1.3,3.1,2.1,4.9,2.1c2.1,0,4-1,5.5-2.7
		c1.6-1.8,2.4-4.2,2.4-6.8s-0.9-5-2.4-6.8c-1.5-1.7-3.5-2.7-5.5-2.7c-1.7,0-3.3,0.6-4.7,1.8l-0.5,0.5c-0.6,0.6-1.7,0.6-2.3,0
		c-0.6-0.6-0.6-1.7,0-2.3l0.6-0.6c2-1.8,4.4-2.7,6.9-2.7c3,0,5.9,1.4,8,3.8c2.1,2.4,3.2,5.6,3.2,9c0,3.4-1.1,6.5-3.2,9
		C227.1,37.9,224.2,39.3,221.2,39.3z"/>
</g>
<g>
	<path class="st5" d="M231.6,6.5h-1v3.4c0,0.1-0.1,0.2-0.3,0.2c-0.1,0-0.2-0.1-0.2-0.2V6.5h-1c-0.1,0-0.2-0.1-0.2-0.3
		c0-0.1,0.1-0.2,0.2-0.2h2.5c0.1,0,0.2,0.1,0.2,0.2C231.8,6.4,231.7,6.5,231.6,6.5z M235.9,10.1c-0.1,0-0.2-0.1-0.2-0.2V6.7l-1.3,3
		c0,0.1-0.1,0.1-0.2,0.1c-0.1,0-0.1,0-0.2-0.1l-1.3-3v3.2c0,0.1-0.1,0.2-0.3,0.2c-0.1,0-0.2-0.1-0.2-0.2V6.4c0-0.2,0.2-0.4,0.5-0.4
		c0.2,0,0.3,0.1,0.4,0.3l1.1,2.7l1.1-2.7c0.1-0.1,0.2-0.3,0.4-0.3c0.3,0,0.5,0.2,0.5,0.4v3.5C236.2,10,236.1,10.1,235.9,10.1z"/>
</g>
</svg>
