<?xml version="1.0" encoding="utf-8"?>
<!-- Generator: Adobe Illustrator 19.1.0, SVG Export Plug-In . SVG Version: 6.00 Build 0)  -->
<!DOCTYPE svg PUBLIC "-//W3C//DTD SVG 1.1//EN" "http://www.w3.org/Graphics/SVG/1.1/DTD/svg11.dtd">
<svg version="1.1" id="Layer_1" xmlns="http://www.w3.org/2000/svg" xmlns:xlink="http://www.w3.org/1999/xlink" x="0px" y="0px"
	 viewBox="0 0 50 50" style="enable-background:new 0 0 50 50;" xml:space="preserve">
<style type="text/css">
	.st0{fill:#A0C3FF;}
	.st1{fill:#FFFFFF;}
</style>
<g>
	<path id="paperplane_2_" class="st0" d="M40.5,9.3c-0.2-0.1-0.4-0.2-0.5-0.2c-0.2,0-0.4,0.1-0.6,0.2l-30,20C9.1,29.5,9,29.8,9,30.2
		c0,0.4,0.3,0.7,0.6,0.8l7.8,3.1l3.7,6.4c0.2,0.3,0.5,0.5,0.9,0.5c0,0,0,0,0,0c0.4,0,0.7-0.2,0.9-0.5l2.1-3.5l9.7,3.9
		c0.1,0,0.2,0.1,0.4,0.1c0.2,0,0.3,0,0.5-0.1c0.3-0.1,0.4-0.4,0.5-0.7l5-30C41.1,9.9,40.9,9.5,40.5,9.3z"/>
</g>
<path id="paperplane_1_" class="st1" d="M40.5,9.3c-0.2-0.1-0.4-0.2-0.5-0.2c-0.2,0-0.4,0.1-0.6,0.2l-30,20C9.1,29.5,9,29.8,9,30.2
	c0,0.4,0.3,0.7,0.6,0.8l7.8,3.1l3.7,6.4c0.2,0.3,0.5,0.5,0.9,0.5c0,0,0,0,0,0c0.4,0,0.7-0.2,0.9-0.5l2.1-3.5l9.7,3.9
	c0.1,0,0.2,0.1,0.4,0.1c0.2,0,0.3,0,0.5-0.1c0.3-0.1,0.4-0.4,0.5-0.7l5-30C41.1,9.9,40.9,9.5,40.5,9.3z M12.1,29.9l23.2-15.5
	l-16.8,18c-0.1-0.1-0.2-0.1-0.3-0.2L12.1,29.9z M19.2,33.2C19.2,33.2,19.2,33.2,19.2,33.2l18.9-20.3L22,38.1L19.2,33.2z M34.2,38.7
	l-8.5-3.4c-0.2-0.1-0.4-0.1-0.6-0.1l13.2-20.4L34.2,38.7z"/>
</svg>
