<?xml version="1.0" encoding="utf-8"?>
<!-- Generator: Adobe Illustrator 19.1.0, SVG Export Plug-In . SVG Version: 6.00 Build 0)  -->
<!DOCTYPE svg PUBLIC "-//W3C//DTD SVG 1.1//EN" "http://www.w3.org/Graphics/SVG/1.1/DTD/svg11.dtd">
<svg version="1.1" id="Layer_1" xmlns="http://www.w3.org/2000/svg" xmlns:xlink="http://www.w3.org/1999/xlink" x="0px" y="0px"
	 viewBox="0 0 40 28" style="enable-background:new 0 0 40 28;" xml:space="preserve">
<style type="text/css">
	
		.st0{fill-rule:evenodd;clip-rule:evenodd;fill:none;stroke:#A0C3FF;stroke-width:2;stroke-linecap:round;stroke-linejoin:round;stroke-miterlimit:10;}
</style>
<path id="cloud_3_" class="st0" d="M30.4,10.1C30,5.6,26.2,2,21.5,2c-3.6,0-6.7,2.1-8.1,5.2C12.9,7.1,12.5,7,12,7
	c-2.5,0-4.5,2-4.5,4.5c0,0.5,0.1,1,0.2,1.4c-1.9,1.1-3.2,3.2-3.2,5.6c0,3.6,2.9,6.5,6.5,6.5v0h18v0c4.1,0,7.5-3.4,7.5-7.5
	C36.5,13.8,33.9,10.8,30.4,10.1z"/>
</svg>
