<?xml version="1.0" encoding="utf-8"?>
<!-- Generator: Adobe Illustrator 19.1.0, SVG Export Plug-In . SVG Version: 6.00 Build 0)  -->
<!DOCTYPE svg PUBLIC "-//W3C//DTD SVG 1.1//EN" "http://www.w3.org/Graphics/SVG/1.1/DTD/svg11.dtd">
<svg version="1.1" id="Layer_1" xmlns="http://www.w3.org/2000/svg" xmlns:xlink="http://www.w3.org/1999/xlink" x="0px" y="0px"
	 viewBox="45 -33 130 95" style="enable-background:new 45 -33 130 95;" xml:space="preserve">
<style type="text/css">
	.st0{fill:#A0C3FF;}
</style>
<path class="st0" d="M144,61.5H72c-14.9,0-27-12.1-27-27c0-9.2,4.9-17.9,12.8-22.8C57.3,9.8,57,8.2,57,6.5c0-10.5,8.5-19,19-19
	c1.8,0,3.5,0.3,4.9,0.7C87.1-24.4,100-32.5,114-32.5c18.8,0,34.4,14,36.6,32.8c14.2,3,24.4,15.6,24.4,30.2
	C175,47.6,161.1,61.5,144,61.5z M76-10.5c-9.4,0-17,7.6-17,17c0,1.7,0.3,3.3,0.9,5.3c0.1,0.4,0,0.9-0.4,1.2
	C51.8,17.5,47,25.7,47,34.5c0,13.8,11.2,25,25,25h72c16,0,29-13,29-29c0-13.9-9.9-25.9-23.5-28.4c-0.4-0.1-0.8-0.4-0.8-0.9
	C146.9-16.9,132-30.5,114-30.5c-13.5,0-26,8-31.7,20.3c-0.2,0.4-0.7,0.7-1.2,0.5C79.8-10,77.9-10.5,76-10.5z"/>
</svg>
