<?xml version="1.0" encoding="utf-8"?>
<!-- Generator: Adobe Illustrator 19.2.0, SVG Export Plug-In . SVG Version: 6.00 Build 0)  -->
<!DOCTYPE svg PUBLIC "-//W3C//DTD SVG 1.1//EN" "http://www.w3.org/Graphics/SVG/1.1/DTD/svg11.dtd">
<svg version="1.1" xmlns="http://www.w3.org/2000/svg" xmlns:xlink="http://www.w3.org/1999/xlink" x="0px" y="0px" width="72px"
	 height="90px" viewBox="0 0 72 90" style="enable-background:new 0 0 72 90;" xml:space="preserve">
<style type="text/css">
	.st0{fill:#E4A189;}
	.st1{fill:#BB8F88;}
	.st2{fill:#202A4C;}
	.st3{fill:#623A2E;}
	.st4{fill:#122F5E;}
	.st5{fill:#ADB8C2;}
	.st6{fill:#FFFFFF;}
</style>
<g id="police_x5F_head">
	<path class="st0" d="M60.6,50.2C60.6,63.4,50,74,36.8,74S13,63.4,13,50.2c0-6.6,0.8-18.8,5.1-23.1s12.2-6.9,18.7-6.9
		s15.3,2.6,19.6,6.9S60.6,43.7,60.6,50.2z"/>
	<circle class="st0" cx="13" cy="50.2" r="6"/>
	<circle class="st0" cx="60.6" cy="50.2" r="6"/>
	<path class="st1" d="M54.7,21.9c-4.3-4.8-10.5-7.3-18.3-7.3c-7.7,0-13.8,2.4-18,7.2c-8,9-6.4,23-6.4,23.6c0.1,1.1,1.1,1.9,2.2,1.8
		c1.1-0.1,1.9-1.1,1.8-2.2c0-0.1-0.8-7.2,1.6-14c0.1-0.1,0.1-0.2,0.2-0.4c1.9-3.1,4.4-5,7-5.6c1.9-0.4,3.8,0,5.4,1.2
		c5.2,3.7,7.8,3.6,12.6-0.2c1.5-1.2,3.6-1.6,5.7-1.2c2.7,0.6,5.1,2.7,6.6,5.6c0.1,0.1,0.1,0.2,0.2,0.3c2.6,6.8,1.9,14.1,1.9,14.2
		C57.1,46,57.9,47,59,47.1c0.1,0,0.1,0,0.2,0c1,0,1.9-0.8,2-1.8C61.3,44.8,62.7,30.9,54.7,21.9z"/>
</g>
<g id="police_x5F_mouth">
</g>
<g id="police_x5F_eyes">
</g>
<g id="police_x5F_mustache">
</g>
<g id="police_x5F_hat">
</g>
</svg>
