<?xml version="1.0" encoding="utf-8"?>
<!-- Generator: Adobe Illustrator 19.2.0, SVG Export Plug-In . SVG Version: 6.00 Build 0)  -->
<!DOCTYPE svg PUBLIC "-//W3C//DTD SVG 1.1//EN" "http://www.w3.org/Graphics/SVG/1.1/DTD/svg11.dtd">
<svg version="1.1" xmlns="http://www.w3.org/2000/svg" xmlns:xlink="http://www.w3.org/1999/xlink" x="0px" y="0px" width="72px"
	 height="90px" viewBox="0 0 72 90" style="enable-background:new 0 0 72 90;" xml:space="preserve">
<style type="text/css">
	.st0{fill:#E4A189;}
	.st1{fill:#BB8F88;}
	.st2{fill:#202A4C;}
	.st3{fill:#623A2E;}
	.st4{fill:#122F5E;}
	.st5{fill:#ADB8C2;}
	.st6{fill:#FFFFFF;}
</style>
<g id="police_x5F_head">
</g>
<g id="police_x5F_mouth">
</g>
<g id="police_x5F_eyes">
</g>
<g id="police_x5F_mustache">
</g>
<g id="police_x5F_hat">
	<g>
		<path class="st4" d="M61.8,15.9C60.4,14,58,7.7,58,7.7s-4.9,0.9-8.7,0c-5.8-1.3-12.9-6.2-12.9-6.2s-7.3,4.8-13,6.2
			c-3.8,0.9-8.7,0-8.7,0s-2.4,6.3-3.9,8.2c-1.4,1.9-5.3,3.4-5.3,3.4l6.7,9.2h24h0.1h24l6.7-9.2C67.1,19.3,63.3,17.8,61.8,15.9z"/>
		<path d="M56.2,30c0,3.6-8.9,7.4-19.8,7.4S16.6,33.5,16.6,30c0-1.7-0.4-2.6,3.2-3.8c4.1-1.4,10.7-1.7,16.6-1.7
			c6.3,0,13.4,0.2,17.4,1.7C56.8,27.3,56.2,28.5,56.2,30z"/>
		<path d="M12.2,28.3c0,0,9.6-6.4,24.2-6.4s24,6.4,24,6.4V31c0,0.6-0.6,0.9-1.1,0.7c-3-1.6-11.8-5.7-22.9-5.7
			c-11.1,0-20.1,4.1-23.1,5.7c-0.5,0.3-1.1-0.1-1.1-0.6L12.2,28.3z"/>
		<path class="st5" d="M36.4,20.2l-4-2.8c-1.3-1.1-2-2.6-2-4.1v0V9.5l0,0c1.5,1.9,4.6,1.9,6,0l0,0l0,0c1.5,1.9,4.6,1.9,6,0l0,0v3.8
			v0c0,1.6-0.7,3.1-2,4.1L36.4,20.2z"/>
	</g>
</g>
</svg>
