<?xml version="1.0" encoding="utf-8"?>
<!-- Generator: Adobe Illustrator 19.0.0, SVG Export Plug-In . SVG Version: 6.00 Build 0)  -->
<!DOCTYPE svg PUBLIC "-//W3C//DTD SVG 1.1//EN" "http://www.w3.org/Graphics/SVG/1.1/DTD/svg11.dtd">
<svg version="1.1" id="Layer_1" xmlns="http://www.w3.org/2000/svg" xmlns:xlink="http://www.w3.org/1999/xlink" x="0px" y="0px"
	 viewBox="114 -115 250 250" style="enable-background:new 114 -115 250 250;" xml:space="preserve">
<style type="text/css">
	.st0{display:none;}
	
		.st1{display:inline;fill:none;stroke:#000000;stroke-width:3.6617;stroke-linecap:round;stroke-linejoin:round;stroke-miterlimit:10;}
	.st2{display:inline;fill:#E2BF95;}
	.st3{display:inline;}
	.st4{fill:#FFFFFF;}
	.st5{display:inline;fill:#D7864B;}
	.st6{display:inline;fill:#E9D5B5;}
	.st7{display:inline;fill:#EFF3FD;}
	.st8{display:inline;fill:#FFFFFF;}
	.st9{fill:#FF54E6;}
	.st10{fill:#FFB500;}
	.st11{fill:#E9D5B5;}
</style>
<g id="Layer_1_1_" class="st0">
	<path id="XMLID_588_" class="st1" d="M145.8,10c0,0-21.3,2-25.5,19.4c-3.7,15.6,1.9,29.3,1.9,29.3"/>
	<path id="XMLID_589_" class="st1" d="M322.1,17.1c0,0,26.8-1.9,32.8-19c5.3-15.3-0.7-28.6-0.7-28.6"/>
	<path id="XMLID_590_" class="st1" d="M199,87.9c0,0-9.7,10.3-6.2,22.4c3.1,10.7,3.3,10.6,3.3,10.6s-9.1,0.1-13.2,0.3"/>
	<path id="XMLID_591_" class="st1" d="M258.7,90c0,0,11.7,11.3,9.4,23.5c-2,10.6-2.2,10.6-2.2,10.6s9.1-0.4,13.4,0.4"/>
	<path id="XMLID_598_" class="st2" d="M221.4,93.3c-6.7-0.4-13.2-1.1-19.4-2.2c-6.1-1.6-11.9-3.5-17.6-5.9
		c-5.4-2.9-10.5-6.1-15.5-9.6c-4.6-4-9-8.4-13.1-13.1c-3.7-5.1-7-10.4-10-15.8c-2.6-5.7-4.9-11.5-6.9-17.3
		c-1.6-5.9-2.9-11.9-3.8-17.8c-0.4-6-0.5-12-0.3-18c0.6-6,1.5-11.7,2.7-17.4c1.7-5.5,3.7-10.9,5.6-16.1c2.4-5.3,5.2-10.8,8.4-16.2
		c3.5-5.2,7.4-10.1,11.6-14.9c4.6-4.3,9.4-8.3,14.2-12c4.9-3.2,9.8-6.1,14.8-8.7c5.2-2,10.5-3.8,16-5.4c5.6-1,11.3-1.7,17.3-2
		c5.9-0.1,11.7,0,17.4,0.3c5.5,0.8,10.9,1.8,16.1,3.2c5,1.8,9.8,4,14.4,6.5c4.4,2.9,8.6,6.2,12.8,10c4.3,4.1,8.9,8.6,13.7,13.6
		c4.7,5.3,9.1,10.8,13,16.6c3.4,6,6.3,12.1,8.7,18.4c1.8,6.5,3.2,13,3.8,19.8c0.3,6.8-0.2,13.5-1.3,20c-1.3,6.6-3.3,13.1-5.4,20.1
		c-2.3,6.9-5.2,13.6-8.8,20c-3.8,6.1-8.1,11.9-12.9,17.3c-5.1,5-10.5,9.5-16.2,13.4c-5.9,3.5-12.1,6.4-18.4,8.8
		c-6.6,1.9-13.2,3.3-20,4.2C235.3,93.5,228.3,93.5,221.4,93.3z M221.7-39.8c-4.5,0.4-8.6,1.1-12.6,2c-3.7,1.9-7.1,3.9-10.5,6.1
		c-2.6,3-5.1,6.1-7.4,9.3c-1.1,3.9-2,7.8-2.7,12.1c0.6,4.3,1.3,8.4,2.3,12.5c2,3.6,4,7.1,6.3,10.5c3.1,2.6,6.2,5,9.6,7.1
		c3.8,1,7.8,1.7,12.1,2.2c4.3-0.7,8.4-1.6,12.4-2.8c3.6-2.2,7-4.5,10.3-7c2.6-3.3,4.9-6.7,7.1-10.2c1.2-4,2.2-8,2.9-12.3
		c-0.4-4.2-1.1-8.1-2-11.8c-1.9-3.3-3.9-6.3-6.1-9.2c-2.9-2.1-5.9-4-9.1-5.8C230.4-38.2,226.2-39.1,221.7-39.8z"/>
	<g id="XMLID_667_" class="st3">
		<g id="XMLID_18_">
			<path id="XMLID_22_" d="M165.7-58.6c0.8-1.9,3.2-5.5,5.2-7.4c2.4-2.3,5.5-4.3,8.8-4.9c2.2-0.4,1.3-3.8-0.9-3.4
				c-7.4,1.5-13.7,8-16.5,14.8C161.4-57.5,164.8-56.6,165.7-58.6L165.7-58.6z"/>
		</g>
	</g>
	<g id="XMLID_674_" class="st3">
		<g id="XMLID_12_">
			<path id="XMLID_16_" d="M285.2-68.4c-2.9-7.6-10.6-13.1-18.7-13.7c-2.2-0.2-2.2,3.3,0,3.5c6.4,0.5,13,5,15.4,11.1
				C282.7-65.4,286-66.3,285.2-68.4L285.2-68.4z"/>
		</g>
	</g>
	<g id="XMLID_675_" class="st3">
		<path id="XMLID_676_" d="M185.7-55.2c-0.9,6.4-4.6,12.2-8.4,12.7c-3.7,0.5-6-4.4-5-10.7c1-6.1,4.7-11.3,8.3-11.9
			C184.3-65.7,186.5-61.3,185.7-55.2z"/>
		<path id="XMLID_677_" class="st4" d="M180.2-57.8c-0.3,1.9-1.3,3.5-2.2,3.7c-0.9,0.1-1.4-1.3-1.1-3.2s1.3-3.5,2.2-3.6
			C180-61,180.5-59.7,180.2-57.8z"/>
	</g>
	<g id="XMLID_678_" class="st3">
		<path id="XMLID_679_" d="M274.5-59.6c0.5,6.6-2.8,11.9-7.3,11.7c-4.6-0.2-8.4-5.9-8.7-12.5c-0.2-6.3,3.1-11.1,7.4-10.8
			C270.2-70.9,274-65.8,274.5-59.6z"/>
		<path id="XMLID_680_" class="st4" d="M267-63.5c0.1,1.9-0.7,3.5-1.8,3.4c-1.1,0-2-1.7-2.1-3.6c-0.1-1.9,0.7-3.4,1.8-3.4
			C265.9-67,266.9-65.5,267-63.5z"/>
	</g>
</g>
<g id="Layer_6" class="st0">
	<path id="XMLID_592_" class="st5" d="M232.3,104c-29.1-1-56.5-14-75.4-35.6C139,47.8,130,20.7,131.7-6.4
		c1.7-26.1,13.4-50.9,32.3-69.1c18.7-17.9,43.8-28.6,69.6-29.6c26.4-1,52.6,8.1,72.6,25.3c20.9,18.1,33.8,44.1,35.5,71.9
		c1.8,29.2-8.9,58.1-29.5,79.4C291.5,93.2,262.4,105,232.3,104z"/>
</g>
<g id="Layer_5" class="st0">
	<path id="XMLID_595_" class="st6" d="M228.9-103c-25.9,1.4-49.9,12.8-67.2,29.7c-17.3,17-29.1,41-30.9,66.9
		c-1.8,27,7.5,53,23.7,72.1c17.2,20.2,43.2,33.9,72.2,35.2c59.6,2.7,111.9-50.2,108.5-109.4c-1.7-28.4-15.3-53.9-35.2-70.8
		C281.3-95.2,255.6-104.4,228.9-103z"/>
</g>
<g id="Layer_3" class="st0">
	<path id="XMLID_601_" class="st7" d="M221,87.4c-7.8-0.5-13.7-1.1-19.1-2c-5.8-1.5-11.5-3.4-16.9-5.6c-5.2-2.7-10.1-5.8-14.8-9.2
		c-4.3-3.7-8.4-7.8-12.5-12.6c-3.4-4.7-6.5-9.7-9.6-15.3c-2.5-5.5-4.7-11.1-6.7-16.8c-1.5-5.7-2.7-11.5-3.6-17.2
		c-0.3-5.6-0.4-11-0.2-17.4c0.7-6,1.6-11.5,2.7-16.6c0.8-2.6,1.7-5.1,2.6-7.6c1-2.7,2-5.4,3-8.1c2.5-5.4,5.2-10.6,8.2-15.6
		c3.4-4.8,7.2-9.6,11.2-14.1c4.1-3.7,8.5-7.5,13.7-11.5c4.9-3.1,9.5-5.9,14.2-8.3c5.4-2.1,10.4-3.7,15.3-5.1c5-0.9,9.8-1.5,14.7-1.8
		c0.6,0,1.3-0.1,1.9-0.1c0.7,0,1.4,0,2.1,0c5.1,0,10.1,0.1,14.9,0.3c5.7,0.8,10.7,1.8,15.2,3c4.7,1.7,9.1,3.7,13.5,6.1
		c4,2.7,8,5.8,12.2,9.4c3.9,3.8,8.4,8.1,13.7,13.5c4.7,5.2,8.9,10.6,12.6,15.9c3.2,5.6,6,11.5,8.3,17.5c2,7.1,3.2,13,3.7,18.7
		c0.2,6.2-0.2,12.6-1.2,19c-1.1,5.4-2.6,10.9-4.4,16.7c-0.3,1-0.6,2.1-0.9,3.1c-2.2,6.7-5,13.2-8.4,19.2
		c-3.7,5.9-7.9,11.6-12.4,16.8c-4.9,4.8-10.1,9.1-15.5,12.9c-5.4,3.2-11.2,6-17.7,8.5c-6.4,1.8-12.9,3.2-19.4,4.1
		C234.6,87.6,227.5,87.6,221,87.4z"/>
</g>
<g id="Layer_4" class="st0">
	<path id="XMLID_604_" class="st8" d="M169-60.3c17.5-17.9,41.1-27.7,65.2-28.4c23.8,0.3,56,14.8,46.1,7.7
		c-16.3-11-36.8-16.7-57.4-15.2c-19.6,1.7-38.8,10.4-53.4,23.7c-14.6,14.3-24.6,33.6-27.4,55C140.6,0.4,152.6-41.2,169-60.3z"/>
</g>
<g id="Layer_2" class="st0">
	<g id="XMLID_605_" class="st3">
		<g id="XMLID_296_">
			<g id="XMLID_345_">
				<path id="XMLID_351_" class="st9" d="M252.7-71.7c2.2-0.8,4.3-1.5,6.5-2.3c0.9-0.3,2,0.1,2.4,0.8l0,0c0.5,0.7,0.1,1.6-0.8,1.9
					c-2.2,0.7-4.3,1.5-6.5,2.3c-0.9,0.3-2,0-2.5-0.8l0,0C251.4-70.5,251.8-71.4,252.7-71.7z"/>
				<path id="XMLID_350_" class="st10" d="M172.7-44.3c-1.2-1.3-2.3-2.7-3.5-4c-0.5-0.5-0.3-1.5,0.4-2.2l0,0
					c0.7-0.7,1.6-0.8,2.1-0.3c1.1,1.3,2.3,2.6,3.5,3.9c0.5,0.6,0.3,1.6-0.4,2.3l0,0C174.1-43.9,173.2-43.8,172.7-44.3z"/>
				<path id="XMLID_349_" class="st9" d="M219.1,26.5c-2.4,1-4.9,2-7.3,3c-1,0.4-2.1-0.1-2.6-1.1l0,0c-0.4-1,0-2.2,1-2.6
					c2.4-1,4.8-2,7.3-3.1c1-0.4,2.2,0.1,2.6,1.1l0,0C220.6,24.9,220.1,26.1,219.1,26.5z"/>
				<path id="XMLID_348_" class="st10" d="M305.3,3.1c2.2,0.9,4.4,1.8,6.5,2.7c0.9,0.4,1.3,1.5,1,2.5l0,0c-0.3,1-1.3,1.5-2.1,1.1
					c-2.1-0.9-4.3-1.8-6.5-2.7c-0.9-0.4-1.4-1.5-1.1-2.5l0,0C303.4,3.2,304.4,2.7,305.3,3.1z"/>
				<path id="XMLID_347_" class="st9" d="M223.4-40.7c1.8-1.8,3.7-3.5,5.5-5.3c0.8-0.7,2-0.8,2.7-0.1l0,0c0.8,0.7,0.8,1.8,0,2.5
					c-1.9,1.7-3.7,3.5-5.6,5.3c-0.8,0.7-2,0.8-2.8,0.1l0,0C222.6-38.8,222.6-40,223.4-40.7z"/>
				<path id="XMLID_346_" class="st10" d="M159.2,13.1c-1.8,0.9-3.5,1.8-5.2,2.7c-0.7,0.4-1.5-0.1-1.8-1l0,0c-0.3-0.9,0.1-2,0.7-2.3
					c1.7-0.9,3.4-1.8,5.2-2.7c0.7-0.4,1.6,0.1,1.9,1l0,0C160.3,11.6,159.9,12.7,159.2,13.1z"/>
			</g>
			<g id="XMLID_335_">
				<path id="XMLID_344_" class="st9" d="M287.4-34c0.2-2.4,0.3-4.7,0.4-7c0.1-0.9,0.9-1.5,1.9-1.3c0,0,0,0,0.1,0
					c1,0.2,1.7,1.1,1.7,2c-0.1,2.3-0.2,4.7-0.4,7c-0.1,1-0.9,1.6-1.9,1.4c0,0,0,0-0.1,0C288.1-32.1,287.4-33.1,287.4-34z"/>
				<path id="XMLID_343_" class="st10" d="M256.2,53.6c2.5-0.9,5.1-1.8,7.6-2.7c1-0.4,2.2,0.1,2.5,1.1l0,0c0.3,1-0.2,2.1-1.3,2.5
					c-2.5,0.9-5,1.8-7.5,2.7c-1,0.4-2.2-0.1-2.5-1.1l0,0C254.6,55.1,255.1,54,256.2,53.6z"/>
				<path id="XMLID_342_" class="st9" d="M171.2,59.7c1.2,2.1,2.4,4.2,3.6,6.3c0.5,0.9,0.3,1.8-0.3,2.2l0,0
					c-0.7,0.3-1.7-0.1-2.2-0.9c-1.2-2.1-2.4-4.2-3.6-6.2c-0.5-0.9-0.3-1.9,0.3-2.2l0,0C169.8,58.4,170.7,58.8,171.2,59.7z"/>
				<path id="XMLID_341_" class="st10" d="M152.3-19.6c-1.5,1.6-2.9,3.1-4.4,4.7c-0.6,0.6-1.4,0.6-1.7-0.1l0,0
					c-0.4-0.7-0.2-1.7,0.4-2.4c1.4-1.6,2.9-3.1,4.3-4.7c0.6-0.6,1.4-0.6,1.8,0l0,0C153.1-21.4,152.9-20.3,152.3-19.6z"/>
				<path id="XMLID_340_" class="st9" d="M225.4-61.2c-2.4-0.2-4.8-0.4-7.2-0.6c-1-0.1-1.6-0.8-1.4-1.7l0,0c0.2-0.8,1.2-1.5,2.2-1.4
					c2.4,0.2,4.8,0.3,7.2,0.5c1,0.1,1.7,0.9,1.5,1.7l0,0C227.4-61.8,226.4-61.1,225.4-61.2z"/>
				<path id="XMLID_339_" class="st10" d="M310.7-27.8c0.3-2.3,0.6-4.5,0.9-6.7c0.1-0.9,0.9-1.4,1.8-1l0,0c0.9,0.3,1.5,1.3,1.4,2.2
					c-0.3,2.2-0.6,4.4-0.9,6.7c-0.1,0.9-1,1.4-1.8,1.1l0,0C311.2-25.9,310.6-26.9,310.7-27.8z"/>
				<path id="XMLID_338_" class="st9" d="M272,54.4c2.5-0.8,5-1.7,7.4-2.6c1-0.4,2.1,0.2,2.3,1.1l0,0c0.3,1-0.3,2.1-1.3,2.4
					c-2.5,0.9-4.9,1.7-7.4,2.6c-1,0.3-2.1-0.2-2.4-1.1l0,0C270.4,55.8,271,54.7,272,54.4z"/>
				<path id="XMLID_337_" class="st10" d="M177,60.7c2.2,0.7,4.3,1.4,6.6,2c0.9,0.3,1.6,1.3,1.5,2.2l0,0c-0.1,0.9-0.9,1.4-1.8,1.1
					c-2.2-0.7-4.4-1.4-6.5-2.1c-0.9-0.3-1.5-1.3-1.5-2.2l0,0C175.4,60.9,176.1,60.4,177,60.7z"/>
				<path id="XMLID_336_" class="st9" d="M208.1-84.4c-1.9-0.5-3.7-1-5.5-1.4c-0.7-0.2-1-0.8-0.5-1.5l0,0c0.5-0.6,1.5-1,2.2-0.8
					c1.8,0.4,3.6,0.9,5.5,1.4c0.8,0.2,1,0.9,0.5,1.5l0,0C209.9-84.5,208.9-84.2,208.1-84.4z"/>
			</g>
			<g id="XMLID_331_">
				<path id="XMLID_334_" class="st10" d="M212.5-82c1.2-1.6,2.3-3.2,3.5-4.7c0.5-0.6,1.5-1,2.3-0.7l0,0c0.8,0.2,1.1,0.9,0.6,1.5
					c-1.1,1.6-2.3,3.2-3.5,4.8c-0.5,0.7-1.5,1-2.3,0.8l0,0C212.2-80.6,212-81.3,212.5-82z"/>
				<path id="XMLID_333_" class="st9" d="M159.7-12.2c-0.7-2.1-1.4-4.1-2-6.1c-0.3-0.8,0.1-1.9,0.8-2.4l0,0c0.7-0.5,1.5-0.2,1.8,0.6
					c0.7,2,1.4,4.1,2.1,6.1c0.3,0.8-0.1,1.9-0.8,2.4l0,0C160.8-11.1,160-11.4,159.7-12.2z"/>
				<path id="XMLID_332_" class="st10" d="M185.5,70.2c-2,0.4-4.1,0.8-6,1.2c-0.8,0.1-1.8-0.5-2.1-1.4l0,0c-0.4-0.9,0-1.8,0.8-1.9
					c2-0.4,4-0.8,6-1.2c0.9-0.2,1.8,0.4,2.2,1.4l0,0C186.8,69.1,186.4,70,185.5,70.2z"/>
			</g>
			<g id="XMLID_326_">
				<path id="XMLID_330_" class="st9" d="M233.3,83.8c-1.8,1.4-3.5,2.9-5.3,4.3c-0.7,0.6-1.9,0.5-2.6-0.2l0,0
					c-0.7-0.7-0.8-1.7,0-2.3c1.7-1.4,3.5-2.8,5.3-4.3c0.7-0.6,2-0.6,2.7,0.1l0,0C234.1,82.2,234.1,83.2,233.3,83.8z"/>
				<path id="XMLID_329_" class="st10" d="M308.4,31.6c0.6,2.4,1.1,4.8,1.6,7.2c0.2,1-0.3,2-1.2,2.4l0,0c-0.9,0.3-1.8-0.2-2-1.1
					c-0.5-2.4-1.1-4.8-1.7-7.2c-0.2-1,0.3-2.1,1.2-2.4l0,0C307.2,30,308.2,30.6,308.4,31.6z"/>
				<path id="XMLID_328_" class="st9" d="M293.1-57.4c2.2,0.9,4.4,1.9,6.6,2.8c0.9,0.4,1.5,1.4,1.3,2.2l0,0c-0.2,0.8-1.1,1.1-2,0.7
					c-2.2-1-4.4-1.9-6.7-2.9c-0.9-0.4-1.5-1.4-1.3-2.1l0,0C291.3-57.4,292.2-57.7,293.1-57.4z"/>
				<path id="XMLID_327_" class="st10" d="M222.9-88.4c-1.5-1-2.9-2-4.3-3c-0.6-0.4-0.5-1.1,0.2-1.6l0,0c0.7-0.5,1.7-0.6,2.3-0.2
					c1.4,1,2.9,1.9,4.3,2.9c0.6,0.4,0.5,1.2-0.2,1.7l0,0C224.5-88,223.5-88,222.9-88.4z"/>
			</g>
			<g id="XMLID_320_">
				<path id="XMLID_325_" class="st9" d="M252-40.5c2.5-0.7,4.9-1.5,7.4-2.2c1-0.3,2.1,0.2,2.5,1.2l0,0c0.4,0.9-0.1,2-1.2,2.3
					c-2.5,0.7-4.9,1.5-7.4,2.2c-1,0.3-2.2-0.2-2.5-1.2l0,0C250.4-39.1,251-40.2,252-40.5z"/>
				<path id="XMLID_324_" class="st10" d="M169.6-25.8c-1.4,2-2.8,4-4.2,6c-0.6,0.8-1.5,1-2.1,0.5l0,0c-0.6-0.5-0.6-1.6-0.1-2.4
					c1.4-2,2.7-4,4.1-5.9c0.6-0.8,1.5-1.1,2.2-0.6l0,0C170.2-27.7,170.2-26.6,169.6-25.8z"/>
				<path id="XMLID_323_" class="st9" d="M234.8-77.4c-2.1-0.8-4.1-1.6-6.2-2.3c-0.8-0.3-1.1-1.1-0.6-1.8l0,0
					c0.5-0.6,1.6-0.9,2.4-0.6c2,0.7,4.1,1.5,6.1,2.3c0.9,0.3,1.2,1.1,0.7,1.8l0,0C236.8-77.4,235.7-77.1,234.8-77.4z"/>
				<path id="XMLID_322_" class="st10" d="M301.7-24.3c-0.2-2.5-0.4-4.9-0.7-7.3c-0.1-1,0.6-1.7,1.5-1.7c0,0,0,0,0.1,0
					c0.9,0.1,1.8,0.9,1.9,1.9c0.3,2.4,0.5,4.8,0.7,7.3c0.1,1-0.6,1.8-1.5,1.7c0,0,0,0-0.1,0C302.6-22.5,301.8-23.3,301.7-24.3z"/>
				<path id="XMLID_321_" class="st9" d="M284.2,63.2c2.2-1.3,4.5-2.5,6.7-3.8c0.9-0.5,2-0.3,2.4,0.6l0,0c0.4,0.8,0,2-0.9,2.5
					c-2.2,1.3-4.4,2.5-6.6,3.8c-0.9,0.5-2,0.3-2.4-0.6l0,0C282.9,64.8,283.3,63.7,284.2,63.2z"/>
			</g>
			<g id="XMLID_316_">
				<path id="XMLID_319_" class="st9" d="M247.5,63.1c2.5,0.7,5.1,1.3,7.6,1.9c1,0.3,1.6,1.3,1.3,2.2l0,0c-0.3,1-1.4,1.5-2.4,1.3
					c-2.5-0.6-5-1.3-7.6-1.9c-1-0.3-1.7-1.3-1.4-2.3l0,0C245.3,63.4,246.4,62.8,247.5,63.1z"/>
				<path id="XMLID_318_" class="st10" d="M162.1,13.2c-0.1,2.5-0.2,4.9-0.2,7.4c0,1-0.7,1.8-1.5,1.7l0,0c-0.8-0.1-1.4-0.9-1.4-1.9
					c0-2.4,0.1-4.9,0.2-7.3c0-1,0.7-1.8,1.5-1.7l0,0C161.6,11.4,162.2,12.2,162.1,13.2z"/>
				<path id="XMLID_317_" class="st9" d="M183.7-61.6c-0.5-1.7-0.9-3.4-1.4-5c-0.2-0.7,0.4-1.5,1.2-1.9l0,0c0.8-0.4,1.7-0.2,1.8,0.5
					c0.5,1.6,0.9,3.3,1.4,5c0.2,0.7-0.3,1.6-1.2,2l0,0C184.8-60.7,183.9-60.9,183.7-61.6z"/>
			</g>
			<g id="XMLID_313_">
				<path id="XMLID_315_" class="st9" d="M258.2-84.7c1.5-1.1,3-2.2,4.5-3.3c0.6-0.4,1.7-0.4,2.4,0.1l0,0c0.7,0.5,0.8,1.3,0.2,1.7
					c-1.5,1.1-3,2.2-4.5,3.4c-0.6,0.5-1.7,0.5-2.5-0.1l0,0C257.6-83.4,257.6-84.2,258.2-84.7z"/>
				<path id="XMLID_314_" class="st10" d="M182.2-39.2c2.2-0.5,4.5-1,6.8-1.5c0.9-0.2,1.7,0.4,1.8,1.3l0,0c0,0.9-0.7,1.9-1.7,2.1
					c-2.3,0.5-4.6,1-6.8,1.5c-0.9,0.2-1.7-0.4-1.7-1.3l0,0C180.5-38,181.3-38.9,182.2-39.2z"/>
			</g>
			<g id="XMLID_310_">
				<path id="XMLID_312_" class="st9" d="M255,8.4c2.5-1.1,5-2.3,7.4-3.4c1-0.5,2.2,0,2.7,1l0,0c0.5,1,0,2.2-1,2.7
					c-2.5,1.1-4.9,2.3-7.4,3.4c-1,0.5-2.2,0-2.7-1l0,0C253.6,10.1,254,8.8,255,8.4z"/>
				<path id="XMLID_311_" class="st10" d="M169.9,26.2c0.6,2.4,1.2,4.9,1.8,7.3c0.3,1-0.2,2-1,2.2l0,0c-0.8,0.2-1.7-0.4-1.9-1.4
					c-0.6-2.4-1.2-4.8-1.8-7.3c-0.2-1,0.2-2,1-2.2l0,0C168.8,24.5,169.6,25.2,169.9,26.2z"/>
			</g>
			<g id="XMLID_307_">
				<path id="XMLID_309_" class="st9" d="M198.1-73.6c0.4-1.8,0.9-3.6,1.3-5.4c0.2-0.7,1-1.3,1.9-1.4c0,0,0,0,0.1,0
					c0.9-0.1,1.4,0.5,1.3,1.2c-0.4,1.8-0.8,3.6-1.3,5.4c-0.2,0.8-1,1.4-1.9,1.5c0,0,0,0-0.1,0C198.5-72.3,197.9-72.9,198.1-73.6z"/>
				<path id="XMLID_308_" class="st10" d="M175.3,6c-2.2-0.1-4.3-0.3-6.4-0.4c-0.9-0.1-1.5-0.9-1.4-2l0,0c0.1-1,0.8-1.8,1.7-1.8
					c2.1,0.1,4.3,0.2,6.4,0.3c0.9,0.1,1.6,1,1.5,2l0,0C177.1,5.2,176.3,6,175.3,6z"/>
			</g>
			<g id="XMLID_303_">
				<path id="XMLID_306_" class="st9" d="M265.2-58c0-2.1,0-4.2,0.1-6.3c0-0.8,0.8-1.4,1.8-1.3c0,0,0,0,0.1,0c1,0.1,1.8,0.8,1.8,1.7
					c0,2.1,0,4.2,0,6.3c0,0.9-0.8,1.5-1.8,1.4c0,0,0,0-0.1,0C266-56.3,265.2-57.1,265.2-58z"/>
				<path id="XMLID_305_" class="st10" d="M240.1,29.3c2.7-0.6,5.4-1.2,8-1.8c1.1-0.2,2.2,0.4,2.4,1.5l0,0c0.2,1.1-0.5,2.2-1.6,2.4
					c-2.7,0.6-5.3,1.2-8,1.8c-1.1,0.2-2.2-0.5-2.4-1.5l0,0C238.3,30.7,239,29.6,240.1,29.3z"/>
				<path id="XMLID_304_" class="st9" d="M157.3,26.8c0.9,2.2,1.8,4.4,2.7,6.7c0.4,0.9,0.1,2-0.6,2.3l0,0c-0.7,0.4-1.5-0.1-1.9-1
					c-0.9-2.2-1.8-4.4-2.7-6.6c-0.4-0.9-0.1-1.9,0.6-2.3l0,0C156.1,25.5,156.9,25.9,157.3,26.8z"/>
			</g>
			<g id="XMLID_299_">
				<path id="XMLID_302_" class="st9" d="M280.3-13.3c1.9-1.7,3.7-3.3,5.5-5c0.7-0.7,1.9-0.6,2.7,0.3l0,0c0.7,0.8,0.7,2,0,2.7
					c-1.8,1.7-3.6,3.3-5.5,5c-0.8,0.7-2,0.6-2.7-0.2l0,0C279.5-11.4,279.5-12.6,280.3-13.3z"/>
				<path id="XMLID_301_" class="st10" d="M199.9,30.8c2,1.6,4.1,3.3,6.2,4.9c0.9,0.7,1.1,1.9,0.4,2.8l0,0c-0.6,0.8-1.8,1-2.7,0.3
					c-2.1-1.6-4.1-3.3-6.1-4.9c-0.8-0.7-1-1.9-0.4-2.8l0,0C197.9,30.2,199,30.1,199.9,30.8z"/>
				<path id="XMLID_300_" class="st9" d="M154.9-32.7c-1,2.1-2,4.2-3,6.3c-0.4,0.9-1.2,1.3-1.8,1l0,0c-0.6-0.3-0.7-1.2-0.3-2.1
					c1-2.1,2-4.1,3-6.2c0.4-0.8,1.2-1.3,1.8-1l0,0C155.2-34.5,155.3-33.6,154.9-32.7z"/>
			</g>
			<g id="XMLID_297_">
				<path id="XMLID_298_" class="st9" d="M165.9-63.6c-0.6-1.4-1.1-2.7-1.6-4c-0.2-0.5,0.2-1.4,0.9-1.9l0,0c0.7-0.5,1.5-0.5,1.7,0
					c0.5,1.3,1.1,2.7,1.7,4c0.2,0.6-0.2,1.5-0.9,2l0,0C166.9-63,166.2-63,165.9-63.6z"/>
			</g>
		</g>
	</g>
</g>
<path id="XMLID_1368_" class="st11" d="M258.8-5.9c-0.2,20.6-17,38-37.9,38.8c-20.8,0.6-37.9-15.8-38.7-36.7
	c-0.6-20.2,16.5-38.1,37.9-38.5C241.5-42.6,258.8-26,258.8-5.9z"/>
</svg>
