<?xml version="1.0" encoding="utf-8"?>
<!-- Generator: Adobe Illustrator 19.0.0, SVG Export Plug-In . SVG Version: 6.00 Build 0)  -->
<!DOCTYPE svg PUBLIC "-//W3C//DTD SVG 1.1//EN" "http://www.w3.org/Graphics/SVG/1.1/DTD/svg11.dtd">
<svg version="1.1" id="Layer_1" xmlns="http://www.w3.org/2000/svg" xmlns:xlink="http://www.w3.org/1999/xlink" x="0px" y="0px"
	 viewBox="114 -115 250 250" style="enable-background:new 114 -115 250 250;" xml:space="preserve">
<style type="text/css">
	.st0{display:none;}
	
		.st1{display:inline;fill:none;stroke:#000000;stroke-width:3.6617;stroke-linecap:round;stroke-linejoin:round;stroke-miterlimit:10;}
	.st2{display:inline;fill:#E2BF95;}
	.st3{display:inline;}
	.st4{fill:#FFFFFF;}
	.st5{display:inline;fill:#D7864B;}
	.st6{display:inline;fill:#E9D5B5;}
	.st7{display:inline;fill:#EFF3FD;}
	.st8{display:inline;fill:#FFFFFF;}
	.st9{fill:none;stroke:#C9D1DE;stroke-width:3;stroke-linecap:round;stroke-miterlimit:10;}
</style>
<g id="Layer_1_1_" class="st0">
	<path id="XMLID_588_" class="st1" d="M145.8,10c0,0-21.3,2-25.5,19.4c-3.7,15.6,1.9,29.3,1.9,29.3"/>
	<path id="XMLID_589_" class="st1" d="M322.1,17.1c0,0,26.8-1.9,32.8-19c5.3-15.3-0.7-28.6-0.7-28.6"/>
	<path id="XMLID_590_" class="st1" d="M199,87.9c0,0-9.7,10.3-6.2,22.4c3.1,10.7,3.3,10.6,3.3,10.6s-9.1,0.1-13.2,0.3"/>
	<path id="XMLID_591_" class="st1" d="M258.7,90c0,0,11.7,11.3,9.4,23.5c-2,10.6-2.2,10.6-2.2,10.6s9.1-0.4,13.4,0.4"/>
	<path id="XMLID_598_" class="st2" d="M221.4,93.3c-6.7-0.4-13.2-1.1-19.4-2.2c-6.1-1.6-11.9-3.5-17.6-5.9
		c-5.4-2.9-10.5-6.1-15.5-9.6c-4.6-4-9-8.4-13.1-13.1c-3.7-5.1-7-10.4-10-15.8c-2.6-5.7-4.9-11.5-6.9-17.3
		c-1.6-5.9-2.9-11.9-3.8-17.8c-0.4-6-0.5-12-0.3-18c0.6-6,1.5-11.7,2.7-17.4c1.7-5.5,3.7-10.9,5.6-16.1c2.4-5.3,5.2-10.8,8.4-16.2
		c3.5-5.2,7.4-10.1,11.6-14.9c4.6-4.3,9.4-8.3,14.2-12c4.9-3.2,9.8-6.1,14.8-8.7c5.2-2,10.5-3.8,16-5.4c5.6-1,11.3-1.7,17.3-2
		c5.9-0.1,11.7,0,17.4,0.3c5.5,0.8,10.9,1.8,16.1,3.2c5,1.8,9.8,4,14.4,6.5c4.4,2.9,8.6,6.2,12.8,10c4.3,4.1,8.9,8.6,13.7,13.6
		c4.7,5.3,9.1,10.8,13,16.6c3.4,6,6.3,12.1,8.7,18.4c1.8,6.5,3.2,13,3.8,19.8c0.3,6.8-0.2,13.5-1.3,20c-1.3,6.6-3.3,13.1-5.4,20.1
		c-2.3,6.9-5.2,13.6-8.8,20c-3.8,6.1-8.1,11.9-12.9,17.3c-5.1,5-10.5,9.5-16.2,13.4c-5.9,3.5-12.1,6.4-18.4,8.8
		c-6.6,1.9-13.2,3.3-20,4.2C235.3,93.5,228.3,93.5,221.4,93.3z M221.7-39.8c-4.5,0.4-8.6,1.1-12.6,2c-3.7,1.9-7.1,3.9-10.5,6.1
		c-2.6,3-5.1,6.1-7.4,9.3c-1.1,3.9-2,7.8-2.7,12.1c0.6,4.3,1.3,8.4,2.3,12.5c2,3.6,4,7.1,6.3,10.5c3.1,2.6,6.2,5,9.6,7.1
		c3.8,1,7.8,1.7,12.1,2.2c4.3-0.7,8.4-1.6,12.4-2.8c3.6-2.2,7-4.5,10.3-7c2.6-3.3,4.9-6.7,7.1-10.2c1.2-4,2.2-8,2.9-12.3
		c-0.4-4.2-1.1-8.1-2-11.8c-1.9-3.3-3.9-6.3-6.1-9.2c-2.9-2.1-5.9-4-9.1-5.8C230.4-38.2,226.2-39.1,221.7-39.8z"/>
	<g id="XMLID_667_" class="st3">
		<g id="XMLID_18_">
			<path id="XMLID_22_" d="M165.7-58.6c0.8-1.9,3.2-5.5,5.2-7.4c2.4-2.3,5.5-4.3,8.8-4.9c2.2-0.4,1.3-3.8-0.9-3.4
				c-7.4,1.5-13.7,8-16.5,14.8C161.4-57.5,164.8-56.6,165.7-58.6L165.7-58.6z"/>
		</g>
	</g>
	<g id="XMLID_674_" class="st3">
		<g id="XMLID_12_">
			<path id="XMLID_16_" d="M285.2-68.4c-2.9-7.6-10.6-13.1-18.7-13.7c-2.2-0.2-2.2,3.3,0,3.5c6.4,0.5,13,5,15.4,11.1
				C282.7-65.4,286-66.3,285.2-68.4L285.2-68.4z"/>
		</g>
	</g>
	<g id="XMLID_675_" class="st3">
		<path id="XMLID_676_" d="M185.7-55.2c-0.9,6.4-4.6,12.2-8.4,12.7c-3.7,0.5-6-4.4-5-10.7c1-6.1,4.7-11.3,8.3-11.9
			C184.3-65.7,186.5-61.3,185.7-55.2z"/>
		<path id="XMLID_677_" class="st4" d="M180.2-57.8c-0.3,1.9-1.3,3.5-2.2,3.7c-0.9,0.1-1.4-1.3-1.1-3.2s1.3-3.5,2.2-3.6
			C180-61,180.5-59.7,180.2-57.8z"/>
	</g>
	<g id="XMLID_678_" class="st3">
		<path id="XMLID_679_" d="M274.5-59.6c0.5,6.6-2.8,11.9-7.3,11.7c-4.6-0.2-8.4-5.9-8.7-12.5c-0.2-6.3,3.1-11.1,7.4-10.8
			C270.2-70.9,274-65.8,274.5-59.6z"/>
		<path id="XMLID_680_" class="st4" d="M267-63.5c0.1,1.9-0.7,3.5-1.8,3.4c-1.1,0-2-1.7-2.1-3.6c-0.1-1.9,0.7-3.4,1.8-3.4
			C265.9-67,266.9-65.5,267-63.5z"/>
	</g>
</g>
<g id="Layer_6" class="st0">
	<path id="XMLID_592_" class="st5" d="M232.3,104c-29.1-1-56.5-14-75.4-35.6C139,47.8,130,20.7,131.7-6.4
		c1.7-26.1,13.4-50.9,32.3-69.1c18.7-17.9,43.8-28.6,69.6-29.6c26.4-1,52.6,8.1,72.6,25.3c20.9,18.1,33.8,44.1,35.5,71.9
		c1.8,29.2-8.9,58.1-29.5,79.4C291.5,93.2,262.4,105,232.3,104z"/>
</g>
<g id="Layer_5" class="st0">
	<path id="XMLID_595_" class="st6" d="M228.9-103c-25.9,1.4-49.9,12.8-67.2,29.7c-17.3,17-29.1,41-30.9,66.9
		c-1.8,27,7.5,53,23.7,72.1c17.2,20.2,43.2,33.9,72.2,35.2c59.6,2.7,111.9-50.2,108.5-109.4c-1.7-28.4-15.3-53.9-35.2-70.8
		C281.3-95.2,255.6-104.4,228.9-103z"/>
</g>
<g id="Layer_3" class="st0">
	<path id="XMLID_601_" class="st7" d="M221,87.4c-7.8-0.5-13.7-1.1-19.1-2c-5.8-1.5-11.5-3.4-16.9-5.6c-5.2-2.7-10.1-5.8-14.8-9.2
		c-4.3-3.7-8.4-7.8-12.5-12.6c-3.4-4.7-6.5-9.7-9.6-15.3c-2.5-5.5-4.7-11.1-6.7-16.8c-1.5-5.7-2.7-11.5-3.6-17.2
		c-0.3-5.6-0.4-11-0.2-17.4c0.7-6,1.6-11.5,2.7-16.6c0.8-2.6,1.7-5.1,2.6-7.6c1-2.7,2-5.4,3-8.1c2.5-5.4,5.2-10.6,8.2-15.6
		c3.4-4.8,7.2-9.6,11.2-14.1c4.1-3.7,8.5-7.5,13.7-11.5c4.9-3.1,9.5-5.9,14.2-8.3c5.4-2.1,10.4-3.7,15.3-5.1c5-0.9,9.8-1.5,14.7-1.8
		c0.6,0,1.3-0.1,1.9-0.1c0.7,0,1.4,0,2.1,0c5.1,0,10.1,0.1,14.9,0.3c5.7,0.8,10.7,1.8,15.2,3c4.7,1.7,9.1,3.7,13.5,6.1
		c4,2.7,8,5.8,12.2,9.4c3.9,3.8,8.4,8.1,13.7,13.5c4.7,5.2,8.9,10.6,12.6,15.9c3.2,5.6,6,11.5,8.3,17.5c2,7.1,3.2,13,3.7,18.7
		c0.2,6.2-0.2,12.6-1.2,19c-1.1,5.4-2.6,10.9-4.4,16.7c-0.3,1-0.6,2.1-0.9,3.1c-2.2,6.7-5,13.2-8.4,19.2
		c-3.7,5.9-7.9,11.6-12.4,16.8c-4.9,4.8-10.1,9.1-15.5,12.9c-5.4,3.2-11.2,6-17.7,8.5c-6.4,1.8-12.9,3.2-19.4,4.1
		C234.6,87.6,227.5,87.6,221,87.4z"/>
</g>
<g id="Layer_4" class="st0">
	<path id="XMLID_604_" class="st8" d="M169-60.3c17.5-17.9,41.1-27.7,65.2-28.4c23.8,0.3,56,14.8,46.1,7.7
		c-16.3-11-36.8-16.7-57.4-15.2c-19.6,1.7-38.8,10.4-53.4,23.7c-14.6,14.3-24.6,33.6-27.4,55C140.6,0.4,152.6-41.2,169-60.3z"/>
</g>
<path id="XMLID_1349_" class="st9" d="M185-2.4c-5.3,0-4.2,6.7-16.1,13.1S149,7.2,144.4,9.7"/>
<circle id="XMLID_1638_" class="st4" cx="160.6" cy="-6.7" r="14.5"/>
</svg>
