<?xml version="1.0" encoding="utf-8"?>
<!-- Generator: Adobe Illustrator 19.0.0, SVG Export Plug-In . SVG Version: 6.00 Build 0)  -->
<!DOCTYPE svg PUBLIC "-//W3C//DTD SVG 1.1//EN" "http://www.w3.org/Graphics/SVG/1.1/DTD/svg11.dtd">
<svg version="1.1" xmlns="http://www.w3.org/2000/svg" xmlns:xlink="http://www.w3.org/1999/xlink" x="0px" y="0px"
	 viewBox="0 0 250 250" style="enable-background:new 0 0 250 250;" xml:space="preserve">
<style type="text/css">
	.st0{display:none;}
	
		.st1{display:inline;fill:none;stroke:#000000;stroke-width:3.6617;stroke-linecap:round;stroke-linejoin:round;stroke-miterlimit:10;}
	.st2{display:inline;fill:#E2BF95;}
	.st3{display:inline;}
	.st4{fill:#FFFFFF;}
	.st5{display:inline;fill:#D7864B;}
	.st6{display:inline;fill:#E9D5B5;}
	.st7{fill:#EFF3FD;}
	.st8{display:inline;fill:#FFFFFF;}
	.st9{opacity:0.25;}
	.st10{fill:#FF54E6;}
	.st11{fill:#FFB500;}
</style>
<g id="Layer_1" class="st0">
	<path id="XMLID_588_" class="st1" d="M31.8,125c0,0-21.3,2-25.5,19.4c-3.7,15.6,1.9,29.3,1.9,29.3"/>
	<path id="XMLID_589_" class="st1" d="M208.1,132.1c0,0,26.8-1.9,32.8-19c5.3-15.3-0.7-28.6-0.7-28.6"/>
	<path id="XMLID_590_" class="st1" d="M85,202.9c0,0-9.7,10.3-6.2,22.4c3.1,10.7,3.3,10.6,3.3,10.6s-9.1,0.1-13.2,0.3"/>
	<path id="XMLID_591_" class="st1" d="M144.7,205c0,0,11.7,11.3,9.4,23.5c-2,10.6-2.2,10.6-2.2,10.6s9.1-0.4,13.4,0.4"/>
	<path id="XMLID_598_" class="st2" d="M107.4,208.3c-6.7-0.4-13.2-1.1-19.4-2.2c-6.1-1.6-11.9-3.5-17.6-5.9
		c-5.4-2.9-10.5-6.1-15.5-9.6c-4.6-4-9-8.4-13.1-13.1c-3.7-5.1-7-10.4-10-15.8c-2.6-5.7-4.9-11.5-6.9-17.3
		c-1.6-5.9-2.9-11.9-3.8-17.8c-0.4-6-0.5-12-0.3-18c0.6-6,1.5-11.7,2.7-17.4c1.7-5.5,3.7-10.9,5.6-16.1c2.4-5.3,5.2-10.8,8.4-16.2
		C41,53.7,44.9,48.8,49.1,44c4.6-4.3,9.4-8.3,14.2-12c4.9-3.2,9.8-6.1,14.8-8.7c5.2-2,10.5-3.8,16-5.4c5.6-1,11.3-1.7,17.3-2
		c5.9-0.1,11.7,0,17.4,0.3c5.5,0.8,10.9,1.8,16.1,3.2c5,1.8,9.8,4,14.4,6.5c4.4,2.9,8.6,6.2,12.8,10c4.3,4.1,8.9,8.6,13.7,13.6
		c4.7,5.3,9.1,10.8,13,16.6c3.4,6,6.3,12.1,8.7,18.4c1.8,6.5,3.2,13,3.8,19.8c0.3,6.8-0.2,13.5-1.3,20c-1.3,6.6-3.3,13.1-5.4,20.1
		c-2.3,6.9-5.2,13.6-8.8,20c-3.8,6.1-8.1,11.9-12.9,17.3c-5.1,5-10.5,9.5-16.2,13.4c-5.9,3.5-12.1,6.4-18.4,8.8
		c-6.6,1.9-13.2,3.3-20,4.2C121.3,208.5,114.3,208.5,107.4,208.3z M107.7,75.2c-4.5,0.4-8.6,1.1-12.6,2c-3.7,1.9-7.1,3.9-10.5,6.1
		c-2.6,3-5.1,6.1-7.4,9.3c-1.1,3.9-2,7.8-2.7,12.1c0.6,4.3,1.3,8.4,2.3,12.5c2,3.6,4,7.1,6.3,10.5c3.1,2.6,6.2,5,9.6,7.1
		c3.8,1,7.8,1.7,12.1,2.2c4.3-0.7,8.4-1.6,12.4-2.8c3.6-2.2,7-4.5,10.3-7c2.6-3.3,4.9-6.7,7.1-10.2c1.2-4,2.2-8,2.9-12.3
		c-0.4-4.2-1.1-8.1-2-11.8c-1.9-3.3-3.9-6.3-6.1-9.2c-2.9-2.1-5.9-4-9.1-5.8C116.4,76.8,112.2,75.9,107.7,75.2z"/>
	<g id="XMLID_667_" class="st3">
		<g id="XMLID_18_">
			<path id="XMLID_22_" d="M51.7,56.4c0.8-1.9,3.2-5.5,5.2-7.4c2.4-2.3,5.5-4.3,8.8-4.9c2.2-0.4,1.3-3.8-0.9-3.4
				c-7.4,1.5-13.7,8-16.5,14.8C47.4,57.5,50.8,58.4,51.7,56.4L51.7,56.4z"/>
		</g>
	</g>
	<g id="XMLID_674_" class="st3">
		<g id="XMLID_12_">
			<path id="XMLID_16_" d="M171.2,46.6c-2.9-7.6-10.6-13.1-18.7-13.7c-2.2-0.2-2.2,3.3,0,3.5c6.4,0.5,13,5,15.4,11.1
				C168.7,49.6,172,48.7,171.2,46.6L171.2,46.6z"/>
		</g>
	</g>
	<g id="XMLID_675_" class="st3">
		<path id="XMLID_676_" d="M71.7,59.8c-0.9,6.4-4.6,12.2-8.4,12.7c-3.7,0.5-6-4.4-5-10.7c1-6.1,4.7-11.3,8.3-11.9
			C70.3,49.3,72.5,53.7,71.7,59.8z"/>
		<path id="XMLID_677_" class="st4" d="M66.2,57.2c-0.3,1.9-1.3,3.5-2.2,3.7c-0.9,0.1-1.4-1.3-1.1-3.2c0.3-1.9,1.3-3.5,2.2-3.6
			C66,54,66.5,55.3,66.2,57.2z"/>
	</g>
	<g id="XMLID_678_" class="st3">
		<path id="XMLID_679_" d="M160.5,55.4c0.5,6.6-2.8,11.9-7.3,11.7c-4.6-0.2-8.4-5.9-8.7-12.5c-0.2-6.3,3.1-11.1,7.4-10.8
			C156.2,44.1,160,49.2,160.5,55.4z"/>
		<path id="XMLID_680_" class="st4" d="M153,51.5c0.1,1.9-0.7,3.5-1.8,3.4c-1.1,0-2-1.7-2.1-3.6c-0.1-1.9,0.7-3.4,1.8-3.4
			C151.9,48,152.9,49.5,153,51.5z"/>
	</g>
</g>
<g id="Layer_6" class="st0">
	<path id="XMLID_592_" class="st5" d="M118.3,219c-29.1-1-56.5-14-75.4-35.6c-17.9-20.6-26.9-47.7-25.2-74.8
		c1.7-26.1,13.4-50.9,32.3-69.1c18.7-17.9,43.8-28.6,69.6-29.6c26.4-1,52.6,8.1,72.6,25.3c20.9,18.1,33.8,44.1,35.5,71.9
		c1.8,29.2-8.9,58.1-29.5,79.4C177.5,208.2,148.4,220,118.3,219z"/>
</g>
<g id="Layer_5" class="st0">
	<path id="XMLID_595_" class="st6" d="M114.9,12C89,13.4,65,24.8,47.7,41.7c-17.3,17-29.1,41-30.9,66.9c-1.8,27,7.5,53,23.7,72.1
		c17.2,20.2,43.2,33.9,72.2,35.2c59.6,2.7,111.9-50.2,108.5-109.4c-1.7-28.4-15.3-53.9-35.2-70.8C167.3,19.8,141.6,10.6,114.9,12z"
		/>
</g>
<g id="Layer_3">
	<path id="XMLID_601_" class="st7" d="M107,202.4c-7.8-0.5-13.7-1.1-19.1-2c-5.8-1.5-11.5-3.4-16.9-5.6c-5.2-2.7-10.1-5.8-14.8-9.2
		c-4.3-3.7-8.4-7.8-12.5-12.6c-3.4-4.7-6.5-9.7-9.6-15.3c-2.5-5.5-4.7-11.1-6.7-16.8c-1.5-5.7-2.7-11.5-3.6-17.2
		c-0.3-5.6-0.4-11-0.2-17.4c0.7-6,1.6-11.5,2.7-16.6c0.8-2.6,1.7-5.1,2.6-7.6c1-2.7,2-5.4,3-8.1c2.5-5.4,5.2-10.6,8.2-15.6
		c3.4-4.8,7.2-9.6,11.2-14.1c4.1-3.7,8.5-7.5,13.7-11.5c4.9-3.1,9.5-5.9,14.2-8.3c5.4-2.1,10.4-3.7,15.3-5.1c5-0.9,9.8-1.5,14.7-1.8
		c0.6,0,1.3-0.1,1.9-0.1c0.7,0,1.4,0,2.1,0c5.1,0,10.1,0.1,14.9,0.3c5.7,0.8,10.7,1.8,15.2,3c4.7,1.7,9.1,3.7,13.5,6.1
		c4,2.7,8,5.8,12.2,9.4c3.9,3.8,8.4,8.1,13.7,13.5c4.7,5.2,8.9,10.6,12.6,15.9c3.2,5.6,6,11.5,8.3,17.5c2,7.1,3.2,13,3.7,18.7
		c0.2,6.2-0.2,12.6-1.2,19c-1.1,5.4-2.6,10.9-4.4,16.7c-0.3,1-0.6,2.1-0.9,3.1c-2.2,6.7-5,13.2-8.4,19.2
		c-3.7,5.9-7.9,11.6-12.4,16.8c-4.9,4.8-10.1,9.1-15.5,12.9c-5.4,3.2-11.2,6-17.7,8.5c-6.4,1.8-12.9,3.2-19.4,4.1
		C120.6,202.6,113.5,202.6,107,202.4z"/>
</g>
<g id="Layer_4" class="st0">
	<path id="XMLID_604_" class="st8" d="M55,54.7c17.5-17.9,41.1-27.7,65.2-28.4c23.8,0.3,56,14.8,46.1,7.7
		c-16.3-11-36.8-16.7-57.4-15.2c-19.6,1.7-38.8,10.4-53.4,23.7C40.9,56.8,30.9,76.1,28.1,97.5C26.6,115.4,38.6,73.8,55,54.7z"/>
</g>
<g id="Layer_2" class="st0">
	<g id="XMLID_605_" class="st3">
		<g id="XMLID_790_" class="st9">
			<path id="XMLID_876_" d="M140,44.7c2.2-0.8,4.3-1.5,6.5-2.3c0.9-0.3,2,0.1,2.4,0.8v0c0.5,0.7,0.1,1.6-0.8,1.9
				c-2.2,0.7-4.3,1.5-6.5,2.3c-0.9,0.3-2,0-2.5-0.8v0C138.7,45.9,139.1,45,140,44.7z"/>
			<path id="XMLID_875_" d="M60,72c-1.2-1.3-2.3-2.7-3.5-4c-0.5-0.5-0.3-1.5,0.4-2.2c0,0,0,0,0,0c0.7-0.7,1.6-0.8,2.1-0.3
				c1.1,1.3,2.3,2.6,3.5,3.9c0.5,0.6,0.3,1.6-0.4,2.3c0,0,0,0,0,0C61.5,72.5,60.5,72.6,60,72z"/>
			<path id="XMLID_874_" d="M106.5,142.9c-2.4,1-4.9,2-7.3,3c-1,0.4-2.1-0.1-2.6-1.1h0c-0.4-1,0-2.2,1-2.6c2.4-1,4.8-2,7.3-3.1
				c1-0.4,2.2,0.1,2.6,1.1l0,0C107.9,141.2,107.5,142.4,106.5,142.9z"/>
			<path id="XMLID_873_" d="M192.6,119.4c2.2,0.9,4.4,1.8,6.5,2.7c0.9,0.4,1.3,1.5,1,2.5l0,0c-0.3,1-1.3,1.5-2.1,1.1
				c-2.1-0.9-4.3-1.8-6.5-2.7c-0.9-0.4-1.4-1.5-1.1-2.5v0C190.7,119.5,191.7,119,192.6,119.4z"/>
			<path id="XMLID_872_" d="M110.7,75.6c1.8-1.8,3.7-3.5,5.5-5.3c0.8-0.7,2-0.8,2.7-0.1c0,0,0,0,0,0c0.8,0.7,0.8,1.8,0,2.5
				c-1.9,1.7-3.7,3.5-5.6,5.3c-0.8,0.7-2,0.8-2.8,0.1c0,0,0,0,0,0C109.9,77.5,109.9,76.4,110.7,75.6z"/>
			<path id="XMLID_871_" d="M46.5,129.4c-1.8,0.9-3.5,1.8-5.2,2.7c-0.7,0.4-1.5-0.1-1.8-1v0c-0.3-0.9,0.1-2,0.7-2.3
				c1.7-0.9,3.4-1.8,5.2-2.7c0.7-0.4,1.6,0.1,1.9,1v0C47.6,127.9,47.3,129,46.5,129.4z"/>
			<path id="XMLID_870_" d="M174.8,82.3c0.2-2.4,0.3-4.7,0.4-7c0.1-0.9,0.9-1.5,1.9-1.3c0,0,0,0,0.1,0c1,0.2,1.7,1.1,1.7,2
				c-0.1,2.3-0.2,4.7-0.4,7c-0.1,1-0.9,1.6-1.9,1.4c0,0,0,0-0.1,0C175.5,84.2,174.7,83.3,174.8,82.3z"/>
			<path id="XMLID_869_" d="M143.5,170c2.5-0.9,5.1-1.8,7.6-2.7c1-0.4,2.2,0.1,2.5,1.1h0c0.3,1-0.2,2.1-1.3,2.5
				c-2.5,0.9-5,1.8-7.5,2.7c-1,0.4-2.2-0.1-2.5-1.1l0,0C141.9,171.4,142.5,170.3,143.5,170z"/>
			<path id="XMLID_868_" d="M58.5,176c1.2,2.1,2.4,4.2,3.6,6.3c0.5,0.9,0.3,1.8-0.3,2.2c0,0,0,0,0,0c-0.7,0.3-1.7-0.1-2.2-0.9
				c-1.2-2.1-2.4-4.2-3.6-6.2c-0.5-0.9-0.3-1.9,0.3-2.2c0,0,0,0,0,0C57.1,174.8,58.1,175.2,58.5,176z"/>
			<path id="XMLID_867_" d="M39.6,96.7c-1.5,1.6-2.9,3.1-4.4,4.7c-0.6,0.6-1.4,0.6-1.7-0.1l0,0c-0.4-0.7-0.2-1.7,0.4-2.4
				c1.4-1.6,2.9-3.1,4.3-4.7c0.6-0.6,1.4-0.6,1.8,0v0C40.4,95,40.3,96.1,39.6,96.7z"/>
			<path id="XMLID_866_" d="M112.7,55.1c-2.4-0.2-4.8-0.4-7.2-0.6c-1-0.1-1.6-0.8-1.4-1.7v0c0.2-0.8,1.2-1.5,2.2-1.4
				c2.4,0.2,4.8,0.3,7.2,0.5c1,0.1,1.7,0.9,1.5,1.7v0C114.7,54.6,113.7,55.2,112.7,55.1z"/>
			<path id="XMLID_865_" d="M198,88.5c0.3-2.3,0.6-4.5,0.9-6.7c0.1-0.9,0.9-1.4,1.8-1c0,0,0,0,0,0c0.9,0.3,1.5,1.3,1.4,2.2
				c-0.3,2.2-0.6,4.4-0.9,6.7c-0.1,0.9-1,1.4-1.8,1.1c0,0,0,0,0,0C198.5,90.5,197.9,89.5,198,88.5z"/>
			<path id="XMLID_864_" d="M159.3,170.7c2.5-0.8,5-1.7,7.4-2.6c1-0.4,2.1,0.2,2.3,1.1v0c0.3,1-0.3,2.1-1.3,2.4
				c-2.5,0.9-4.9,1.7-7.4,2.6c-1,0.3-2.1-0.2-2.4-1.1v0C157.7,172.2,158.3,171.1,159.3,170.7z"/>
			<path id="XMLID_863_" d="M64.3,177c2.2,0.7,4.3,1.4,6.6,2c0.9,0.3,1.6,1.3,1.5,2.2l0,0c-0.1,0.9-0.9,1.4-1.8,1.1
				c-2.2-0.7-4.4-1.4-6.5-2.1c-0.9-0.3-1.5-1.3-1.5-2.2l0,0C62.7,177.2,63.5,176.7,64.3,177z"/>
			<path id="XMLID_862_" d="M95.4,32c-1.9-0.5-3.7-1-5.5-1.4c-0.7-0.2-1-0.8-0.5-1.5v0c0.5-0.6,1.5-1,2.2-0.8
				c1.8,0.4,3.6,0.9,5.5,1.4c0.8,0.2,1,0.9,0.5,1.5v0C97.2,31.8,96.2,32.2,95.4,32z"/>
			<path id="XMLID_861_" d="M99.8,34.3c1.2-1.6,2.3-3.2,3.5-4.7c0.5-0.6,1.5-1,2.3-0.7c0,0,0,0,0,0c0.8,0.2,1.1,0.9,0.6,1.5
				c-1.1,1.6-2.3,3.2-3.5,4.8c-0.5,0.7-1.5,1-2.3,0.8c0,0,0,0,0,0C99.6,35.7,99.3,35,99.8,34.3z"/>
			<path id="XMLID_860_" d="M47,104.1c-0.7-2.1-1.4-4.1-2-6.1c-0.3-0.8,0.1-1.9,0.8-2.4c0,0,0,0,0,0c0.7-0.5,1.5-0.2,1.8,0.6
				c0.7,2,1.4,4.1,2.1,6.1c0.3,0.8-0.1,1.9-0.8,2.4c0,0,0,0,0,0C48.1,105.3,47.3,105,47,104.1z"/>
			<path id="XMLID_859_" d="M72.8,186.5c-2,0.4-4.1,0.8-6,1.2c-0.8,0.1-1.8-0.5-2.1-1.4v0c-0.4-0.9,0-1.8,0.8-1.9c2-0.4,4-0.8,6-1.2
				c0.9-0.2,1.8,0.4,2.2,1.4v0C74.1,185.5,73.7,186.4,72.8,186.5z"/>
			<path id="XMLID_858_" d="M120.7,200.2c-1.8,1.4-3.5,2.9-5.3,4.3c-0.7,0.6-1.9,0.5-2.6-0.2l0,0c-0.7-0.7-0.8-1.7,0-2.3
				c1.7-1.4,3.5-2.8,5.3-4.3c0.7-0.6,2-0.6,2.7,0.1l0,0C121.4,198.5,121.4,199.5,120.7,200.2z"/>
			<path id="XMLID_857_" d="M195.7,147.9c0.6,2.4,1.1,4.8,1.6,7.2c0.2,1-0.3,2-1.2,2.4c0,0,0,0,0,0c-0.9,0.3-1.8-0.2-2-1.1
				c-0.5-2.4-1.1-4.8-1.7-7.2c-0.2-1,0.3-2.1,1.2-2.4c0,0,0,0,0,0C194.6,146.4,195.5,146.9,195.7,147.9z"/>
			<path id="XMLID_856_" d="M180.5,59c2.2,0.9,4.4,1.9,6.6,2.8c0.9,0.4,1.5,1.4,1.3,2.2l0,0c-0.2,0.8-1.1,1.1-2,0.7
				c-2.2-1-4.4-1.9-6.7-2.9c-0.9-0.4-1.5-1.4-1.3-2.1l0,0C178.6,58.9,179.5,58.6,180.5,59z"/>
			<path id="XMLID_855_" d="M110.2,27.9c-1.5-1-2.9-2-4.3-3c-0.6-0.4-0.5-1.1,0.2-1.6l0,0c0.7-0.5,1.7-0.6,2.3-0.2
				c1.4,1,2.9,1.9,4.3,2.9c0.6,0.4,0.5,1.2-0.2,1.7c0,0,0,0,0,0C111.9,28.3,110.8,28.4,110.2,27.9z"/>
			<path id="XMLID_854_" d="M139.3,75.8c2.5-0.7,4.9-1.5,7.4-2.2c1-0.3,2.1,0.2,2.5,1.2l0,0c0.4,0.9-0.1,2-1.2,2.3
				c-2.5,0.7-4.9,1.5-7.4,2.2c-1,0.3-2.2-0.2-2.5-1.2v0C137.8,77.2,138.3,76.2,139.3,75.8z"/>
			<path id="XMLID_853_" d="M57,90.5c-1.4,2-2.8,4-4.2,6c-0.6,0.8-1.5,1-2.1,0.5c0,0,0,0,0,0c-0.6-0.5-0.6-1.6-0.1-2.4
				c1.4-2,2.7-4,4.1-5.9c0.6-0.8,1.5-1.1,2.2-0.6c0,0,0,0,0,0C57.5,88.6,57.5,89.7,57,90.5z"/>
			<path id="XMLID_852_" d="M122.2,38.9c-2.1-0.8-4.1-1.6-6.2-2.3c-0.8-0.3-1.1-1.1-0.6-1.8l0,0c0.5-0.6,1.6-0.9,2.4-0.6
				c2,0.7,4.1,1.5,6.1,2.3c0.9,0.3,1.2,1.1,0.7,1.8l0,0C124.1,39,123,39.2,122.2,38.9z"/>
			<path id="XMLID_851_" d="M189,92c-0.2-2.5-0.4-4.9-0.7-7.3c-0.1-1,0.6-1.7,1.5-1.7c0,0,0,0,0.1,0c0.9,0.1,1.8,0.9,1.9,1.9
				c0.3,2.4,0.5,4.8,0.7,7.3c0.1,1-0.6,1.8-1.5,1.7c0,0,0,0-0.1,0C190,93.9,189.1,93,189,92z"/>
			<path id="XMLID_850_" d="M171.6,179.5c2.2-1.3,4.5-2.5,6.7-3.8c0.9-0.5,2-0.3,2.4,0.6l0,0c0.4,0.8,0,2-0.9,2.5
				c-2.2,1.3-4.4,2.5-6.6,3.8c-0.9,0.5-2,0.3-2.4-0.6l0,0C170.2,181.2,170.6,180,171.6,179.5z"/>
			<path id="XMLID_849_" d="M134.8,179.4c2.5,0.7,5.1,1.3,7.6,1.9c1,0.3,1.6,1.3,1.3,2.2l0,0c-0.3,1-1.4,1.5-2.4,1.3
				c-2.5-0.6-5-1.3-7.6-1.9c-1-0.3-1.7-1.3-1.4-2.3h0C132.7,179.7,133.8,179.1,134.8,179.4z"/>
			<path id="XMLID_848_" d="M49.5,129.5c-0.1,2.5-0.2,4.9-0.2,7.4c0,1-0.7,1.8-1.5,1.7c0,0,0,0,0,0c-0.8-0.1-1.4-0.9-1.4-1.9
				c0-2.4,0.1-4.9,0.2-7.3c0-1,0.7-1.8,1.5-1.7c0,0,0,0,0,0C48.9,127.7,49.5,128.5,49.5,129.5z"/>
			<path id="XMLID_847_" d="M71.1,54.7c-0.5-1.7-0.9-3.4-1.4-5c-0.2-0.7,0.4-1.5,1.2-1.9c0,0,0,0,0,0c0.8-0.4,1.7-0.2,1.8,0.5
				c0.5,1.6,0.9,3.3,1.4,5c0.2,0.7-0.3,1.6-1.2,2c0,0,0,0,0,0C72.1,55.6,71.3,55.4,71.1,54.7z"/>
			<path id="XMLID_846_" d="M145.5,31.6c1.5-1.1,3-2.2,4.5-3.3c0.6-0.4,1.7-0.4,2.4,0.1c0,0,0,0,0,0c0.7,0.5,0.8,1.3,0.2,1.7
				c-1.5,1.1-3,2.2-4.5,3.4c-0.6,0.5-1.7,0.5-2.5-0.1c0,0,0,0,0,0C145,32.9,144.9,32.1,145.5,31.6z"/>
			<path id="XMLID_845_" d="M69.5,77.2c2.2-0.5,4.5-1,6.8-1.5C77.2,75.5,78,76,78,77v0c0,0.9-0.7,1.9-1.7,2.1
				c-2.3,0.5-4.6,1-6.8,1.5c-0.9,0.2-1.7-0.4-1.7-1.3l0,0C67.9,78.3,68.6,77.4,69.5,77.2z"/>
			<path id="XMLID_844_" d="M142.4,124.7c2.5-1.1,5-2.3,7.4-3.4c1-0.5,2.2,0,2.7,1l0,0c0.5,1,0,2.2-1,2.7c-2.5,1.1-4.9,2.3-7.4,3.4
				c-1,0.5-2.2,0-2.7-1v0C140.9,126.4,141.3,125.2,142.4,124.7z"/>
			<path id="XMLID_843_" d="M57.2,142.5c0.6,2.4,1.2,4.9,1.8,7.3c0.3,1-0.2,2-1,2.2c0,0,0,0,0,0c-0.8,0.2-1.7-0.4-1.9-1.4
				c-0.6-2.4-1.2-4.8-1.8-7.3c-0.2-1,0.2-2,1-2.2c0,0,0,0,0,0C56.1,140.9,57,141.5,57.2,142.5z"/>
			<path id="XMLID_842_" d="M85.4,42.7c0.4-1.8,0.9-3.6,1.3-5.4c0.2-0.7,1-1.3,1.9-1.4c0,0,0,0,0.1,0c0.9-0.1,1.4,0.5,1.3,1.2
				c-0.4,1.8-0.8,3.6-1.3,5.4c-0.2,0.8-1,1.4-1.9,1.5c0,0,0,0-0.1,0C85.8,44,85.3,43.5,85.4,42.7z"/>
			<path id="XMLID_841_" d="M62.7,122.3c-2.2-0.1-4.3-0.3-6.4-0.4c-0.9-0.1-1.5-0.9-1.4-2v0c0.1-1,0.8-1.8,1.7-1.8
				c2.1,0.1,4.3,0.2,6.4,0.3c0.9,0.1,1.6,1,1.5,2v0C64.4,121.5,63.6,122.3,62.7,122.3z"/>
			<path id="XMLID_840_" d="M152.5,58.3c0-2.1,0-4.2,0.1-6.3c0-0.8,0.8-1.4,1.8-1.3c0,0,0,0,0.1,0c1,0.1,1.8,0.8,1.8,1.7
				c0,2.1,0,4.2,0,6.3c0,0.9-0.8,1.5-1.8,1.4c0,0,0,0-0.1,0C153.3,60,152.5,59.2,152.5,58.3z"/>
			<path id="XMLID_839_" d="M127.4,145.7c2.7-0.6,5.4-1.2,8-1.8c1.1-0.2,2.2,0.4,2.4,1.5l0,0c0.2,1.1-0.5,2.2-1.6,2.4
				c-2.7,0.6-5.3,1.2-8,1.8c-1.1,0.2-2.2-0.5-2.4-1.5l0,0C125.6,147,126.3,145.9,127.4,145.7z"/>
			<path id="XMLID_838_" d="M44.6,143.1c0.9,2.2,1.8,4.4,2.7,6.7c0.4,0.9,0.1,2-0.6,2.3c0,0,0,0,0,0c-0.7,0.4-1.5-0.1-1.9-1
				c-0.9-2.2-1.8-4.4-2.7-6.6c-0.4-0.9-0.1-1.9,0.6-2.3c0,0,0,0,0,0C43.4,141.8,44.2,142.2,44.6,143.1z"/>
			<path id="XMLID_837_" d="M167.6,103c1.9-1.7,3.7-3.3,5.5-5c0.7-0.7,1.9-0.6,2.7,0.3l0,0c0.7,0.8,0.7,2,0,2.7
				c-1.8,1.7-3.6,3.3-5.5,5c-0.8,0.7-2,0.6-2.7-0.2l0,0C166.8,105,166.8,103.7,167.6,103z"/>
			<path id="XMLID_836_" d="M87.2,147.1c2,1.6,4.1,3.3,6.2,4.9c0.9,0.7,1.1,1.9,0.4,2.8l0,0c-0.6,0.8-1.8,1-2.7,0.3
				c-2.1-1.6-4.1-3.3-6.1-4.9c-0.8-0.7-1-1.9-0.4-2.8v0C85.2,146.6,86.4,146.4,87.2,147.1z"/>
			<path id="XMLID_835_" d="M42.2,83.6c-1,2.1-2,4.2-3,6.3c-0.4,0.9-1.2,1.3-1.8,1c0,0,0,0,0,0c-0.6-0.3-0.7-1.2-0.3-2.1
				c1-2.1,2-4.1,3-6.2c0.4-0.8,1.2-1.3,1.8-1c0,0,0,0,0,0C42.5,81.8,42.7,82.7,42.2,83.6z"/>
			<path id="XMLID_834_" d="M53.3,52.8c-0.6-1.4-1.1-2.7-1.6-4c-0.2-0.5,0.2-1.4,0.9-1.9c0,0,0,0,0,0c0.7-0.5,1.5-0.5,1.7,0
				c0.5,1.3,1.1,2.7,1.7,4c0.2,0.6-0.2,1.5-0.9,2c0,0,0,0,0,0C54.3,53.4,53.5,53.3,53.3,52.8z"/>
		</g>
		<g id="XMLID_540_">
			<g id="XMLID_671_">
				<g id="XMLID_727_">
					<path id="XMLID_733_" class="st10" d="M138.7,43.3c2.2-0.8,4.3-1.5,6.5-2.3c0.9-0.3,2,0.1,2.4,0.8v0c0.5,0.7,0.1,1.6-0.8,1.9
						c-2.2,0.7-4.3,1.5-6.5,2.3c-0.9,0.3-2,0-2.5-0.8v0C137.4,44.5,137.8,43.6,138.7,43.3z"/>
					<path id="XMLID_732_" class="st11" d="M58.7,70.7c-1.2-1.3-2.3-2.7-3.5-4c-0.5-0.5-0.3-1.5,0.4-2.2c0,0,0,0,0,0
						c0.7-0.7,1.6-0.8,2.1-0.3c1.1,1.3,2.3,2.6,3.5,3.9c0.5,0.6,0.3,1.6-0.4,2.3c0,0,0,0,0,0C60.1,71.1,59.2,71.2,58.7,70.7z"/>
					<path id="XMLID_731_" class="st10" d="M105.1,141.5c-2.4,1-4.9,2-7.3,3c-1,0.4-2.1-0.1-2.6-1.1l0,0c-0.4-1,0-2.2,1-2.6
						c2.4-1,4.8-2,7.3-3.1c1-0.4,2.2,0.1,2.6,1.1l0,0C106.6,139.9,106.1,141.1,105.1,141.5z"/>
					<path id="XMLID_730_" class="st11" d="M191.3,118.1c2.2,0.9,4.4,1.8,6.5,2.7c0.9,0.4,1.3,1.5,1,2.5l0,0c-0.3,1-1.3,1.5-2.1,1.1
						c-2.1-0.9-4.3-1.8-6.5-2.7c-0.9-0.4-1.4-1.5-1.1-2.5v0C189.4,118.2,190.4,117.7,191.3,118.1z"/>
					<path id="XMLID_729_" class="st10" d="M109.4,74.3c1.8-1.8,3.7-3.5,5.5-5.3c0.8-0.7,2-0.8,2.7-0.1c0,0,0,0,0,0
						c0.8,0.7,0.8,1.8,0,2.5c-1.9,1.7-3.7,3.5-5.6,5.3c-0.8,0.7-2,0.8-2.8,0.1c0,0,0,0,0,0C108.6,76.2,108.6,75,109.4,74.3z"/>
					<path id="XMLID_728_" class="st11" d="M45.2,128.1c-1.8,0.9-3.5,1.8-5.2,2.7c-0.7,0.4-1.5-0.1-1.8-1l0,0
						c-0.3-0.9,0.1-2,0.7-2.3c1.7-0.9,3.4-1.8,5.2-2.7c0.7-0.4,1.6,0.1,1.9,1l0,0C46.3,126.6,45.9,127.7,45.2,128.1z"/>
				</g>
				<g id="XMLID_717_">
					<path id="XMLID_726_" class="st10" d="M173.4,81c0.2-2.4,0.3-4.7,0.4-7c0.1-0.9,0.9-1.5,1.9-1.3c0,0,0,0,0.1,0
						c1,0.2,1.7,1.1,1.7,2c-0.1,2.3-0.2,4.7-0.4,7c-0.1,1-0.9,1.6-1.9,1.4c0,0,0,0-0.1,0C174.1,82.9,173.4,81.9,173.4,81z"/>
					<path id="XMLID_725_" class="st11" d="M142.2,168.6c2.5-0.9,5.1-1.8,7.6-2.7c1-0.4,2.2,0.1,2.5,1.1l0,0c0.3,1-0.2,2.1-1.3,2.5
						c-2.5,0.9-5,1.8-7.5,2.7c-1,0.4-2.2-0.1-2.5-1.1v0C140.6,170.1,141.1,169,142.2,168.6z"/>
					<path id="XMLID_724_" class="st10" d="M57.2,174.7c1.2,2.1,2.4,4.2,3.6,6.3c0.5,0.9,0.3,1.8-0.3,2.2c0,0,0,0,0,0
						c-0.7,0.3-1.7-0.1-2.2-0.9c-1.2-2.1-2.4-4.2-3.6-6.2c-0.5-0.9-0.3-1.9,0.3-2.2c0,0,0,0,0,0C55.8,173.4,56.7,173.8,57.2,174.7z"
						/>
					<path id="XMLID_723_" class="st11" d="M38.3,95.4c-1.5,1.6-2.9,3.1-4.4,4.7c-0.6,0.6-1.4,0.6-1.7-0.1l0,0
						c-0.4-0.7-0.2-1.7,0.4-2.4c1.4-1.6,2.9-3.1,4.3-4.7c0.6-0.6,1.4-0.6,1.8,0l0,0C39.1,93.6,38.9,94.7,38.3,95.4z"/>
					<path id="XMLID_722_" class="st10" d="M111.4,53.8c-2.4-0.2-4.8-0.4-7.2-0.6c-1-0.1-1.6-0.8-1.4-1.7v0c0.2-0.8,1.2-1.5,2.2-1.4
						c2.4,0.2,4.8,0.3,7.2,0.5c1,0.1,1.7,0.9,1.5,1.7l0,0C113.4,53.2,112.4,53.9,111.4,53.8z"/>
					<path id="XMLID_721_" class="st11" d="M196.7,87.2c0.3-2.3,0.6-4.5,0.9-6.7c0.1-0.9,0.9-1.4,1.8-1c0,0,0,0,0,0
						c0.9,0.3,1.5,1.3,1.4,2.2c-0.3,2.2-0.6,4.4-0.9,6.7c-0.1,0.9-1,1.4-1.8,1.1c0,0,0,0,0,0C197.2,89.1,196.6,88.1,196.7,87.2z"/>
					<path id="XMLID_720_" class="st10" d="M158,169.4c2.5-0.8,5-1.7,7.4-2.6c1-0.4,2.1,0.2,2.3,1.1v0c0.3,1-0.3,2.1-1.3,2.4
						c-2.5,0.9-4.9,1.7-7.4,2.6c-1,0.3-2.1-0.2-2.4-1.1l0,0C156.4,170.8,157,169.7,158,169.4z"/>
					<path id="XMLID_719_" class="st11" d="M63,175.7c2.2,0.7,4.3,1.4,6.6,2c0.9,0.3,1.6,1.3,1.5,2.2l0,0c-0.1,0.9-0.9,1.4-1.8,1.1
						c-2.2-0.7-4.4-1.4-6.5-2.1c-0.9-0.3-1.5-1.3-1.5-2.2l0,0C61.4,175.9,62.1,175.4,63,175.7z"/>
					<path id="XMLID_718_" class="st10" d="M94.1,30.6c-1.9-0.5-3.7-1-5.5-1.4c-0.7-0.2-1-0.8-0.5-1.5v0c0.5-0.6,1.5-1,2.2-0.8
						c1.8,0.4,3.6,0.9,5.5,1.4c0.8,0.2,1,0.9,0.5,1.5v0C95.9,30.5,94.9,30.8,94.1,30.6z"/>
				</g>
				<g id="XMLID_713_">
					<path id="XMLID_716_" class="st11" d="M98.5,33c1.2-1.6,2.3-3.2,3.5-4.7c0.5-0.6,1.5-1,2.3-0.7c0,0,0,0,0,0
						c0.8,0.2,1.1,0.9,0.6,1.5c-1.1,1.6-2.3,3.2-3.5,4.8c-0.5,0.7-1.5,1-2.3,0.8c0,0,0,0,0,0C98.2,34.4,98,33.7,98.5,33z"/>
					<path id="XMLID_715_" class="st10" d="M45.7,102.8c-0.7-2.1-1.4-4.1-2-6.1c-0.3-0.8,0.1-1.9,0.8-2.4c0,0,0,0,0,0
						c0.7-0.5,1.5-0.2,1.8,0.6c0.7,2,1.4,4.1,2.1,6.1c0.3,0.8-0.1,1.9-0.8,2.4c0,0,0,0,0,0C46.8,103.9,46,103.6,45.7,102.8z"/>
					<path id="XMLID_714_" class="st11" d="M71.5,185.2c-2,0.4-4.1,0.8-6,1.2c-0.8,0.1-1.8-0.5-2.1-1.4l0,0c-0.4-0.9,0-1.8,0.8-1.9
						c2-0.4,4-0.8,6-1.2c0.9-0.2,1.8,0.4,2.2,1.4l0,0C72.8,184.1,72.4,185,71.5,185.2z"/>
				</g>
				<g id="XMLID_708_">
					<path id="XMLID_712_" class="st10" d="M119.3,198.8c-1.8,1.4-3.5,2.9-5.3,4.3c-0.7,0.6-1.9,0.5-2.6-0.2l0,0
						c-0.7-0.7-0.8-1.7,0-2.3c1.7-1.4,3.5-2.8,5.3-4.3c0.7-0.6,2-0.6,2.7,0.1l0,0C120.1,197.2,120.1,198.2,119.3,198.8z"/>
					<path id="XMLID_711_" class="st11" d="M194.4,146.6c0.6,2.4,1.1,4.8,1.6,7.2c0.2,1-0.3,2-1.2,2.4c0,0,0,0,0,0
						c-0.9,0.3-1.8-0.2-2-1.1c-0.5-2.4-1.1-4.8-1.7-7.2c-0.2-1,0.3-2.1,1.2-2.4c0,0,0,0,0,0C193.2,145,194.2,145.6,194.4,146.6z"/>
					<path id="XMLID_710_" class="st10" d="M179.1,57.6c2.2,0.9,4.4,1.9,6.6,2.8c0.9,0.4,1.5,1.4,1.3,2.2v0c-0.2,0.8-1.1,1.1-2,0.7
						c-2.2-1-4.4-1.9-6.7-2.9c-0.9-0.4-1.5-1.4-1.3-2.1v0C177.3,57.6,178.2,57.3,179.1,57.6z"/>
					<path id="XMLID_709_" class="st11" d="M108.9,26.6c-1.5-1-2.9-2-4.3-3c-0.6-0.4-0.5-1.1,0.2-1.6l0,0c0.7-0.5,1.7-0.6,2.3-0.2
						c1.4,1,2.9,1.9,4.3,2.9c0.6,0.4,0.5,1.2-0.2,1.7c0,0,0,0,0,0C110.5,27,109.5,27,108.9,26.6z"/>
				</g>
				<g id="XMLID_702_">
					<path id="XMLID_707_" class="st10" d="M138,74.5c2.5-0.7,4.9-1.5,7.4-2.2c1-0.3,2.1,0.2,2.5,1.2l0,0c0.4,0.9-0.1,2-1.2,2.3
						c-2.5,0.7-4.9,1.5-7.4,2.2c-1,0.3-2.2-0.2-2.5-1.2l0,0C136.4,75.9,137,74.8,138,74.5z"/>
					<path id="XMLID_706_" class="st11" d="M55.6,89.2c-1.4,2-2.8,4-4.2,6c-0.6,0.8-1.5,1-2.1,0.5c0,0,0,0,0,0
						c-0.6-0.5-0.6-1.6-0.1-2.4c1.4-2,2.7-4,4.1-5.9c0.6-0.8,1.5-1.1,2.2-0.6c0,0,0,0,0,0C56.2,87.3,56.2,88.4,55.6,89.2z"/>
					<path id="XMLID_705_" class="st10" d="M120.8,37.6c-2.1-0.8-4.1-1.6-6.2-2.3c-0.8-0.3-1.1-1.1-0.6-1.8v0
						c0.5-0.6,1.6-0.9,2.4-0.6c2,0.7,4.1,1.5,6.1,2.3c0.9,0.3,1.2,1.1,0.7,1.8l0,0C122.8,37.6,121.7,37.9,120.8,37.6z"/>
					<path id="XMLID_704_" class="st11" d="M187.7,90.7c-0.2-2.5-0.4-4.9-0.7-7.3c-0.1-1,0.6-1.7,1.5-1.7c0,0,0,0,0.1,0
						c0.9,0.1,1.8,0.9,1.9,1.9c0.3,2.4,0.5,4.8,0.7,7.3c0.1,1-0.6,1.8-1.5,1.7c0,0,0,0-0.1,0C188.6,92.5,187.8,91.7,187.7,90.7z"/>
					<path id="XMLID_703_" class="st10" d="M170.2,178.2c2.2-1.3,4.5-2.5,6.7-3.8c0.9-0.5,2-0.3,2.4,0.6l0,0c0.4,0.8,0,2-0.9,2.5
						c-2.2,1.3-4.4,2.5-6.6,3.8c-0.9,0.5-2,0.3-2.4-0.6l0,0C168.9,179.8,169.3,178.7,170.2,178.2z"/>
				</g>
				<g id="XMLID_698_">
					<path id="XMLID_701_" class="st10" d="M133.5,178.1c2.5,0.7,5.1,1.3,7.6,1.9c1,0.3,1.6,1.3,1.3,2.2l0,0c-0.3,1-1.4,1.5-2.4,1.3
						c-2.5-0.6-5-1.3-7.6-1.9c-1-0.3-1.7-1.3-1.4-2.3l0,0C131.3,178.4,132.4,177.8,133.5,178.1z"/>
					<path id="XMLID_700_" class="st11" d="M48.1,128.2c-0.1,2.5-0.2,4.9-0.2,7.4c0,1-0.7,1.8-1.5,1.7c0,0,0,0,0,0
						c-0.8-0.1-1.4-0.9-1.4-1.9c0-2.4,0.1-4.9,0.2-7.3c0-1,0.7-1.8,1.5-1.7c0,0,0,0,0,0C47.6,126.4,48.2,127.2,48.1,128.2z"/>
					<path id="XMLID_699_" class="st10" d="M69.7,53.4c-0.5-1.7-0.9-3.4-1.4-5c-0.2-0.7,0.4-1.5,1.2-1.9c0,0,0,0,0,0
						c0.8-0.4,1.7-0.2,1.8,0.5c0.5,1.6,0.9,3.3,1.4,5c0.2,0.7-0.3,1.6-1.2,2c0,0,0,0,0,0C70.8,54.3,69.9,54.1,69.7,53.4z"/>
				</g>
				<g id="XMLID_695_">
					<path id="XMLID_697_" class="st10" d="M144.2,30.3c1.5-1.1,3-2.2,4.5-3.3c0.6-0.4,1.7-0.4,2.4,0.1c0,0,0,0,0,0
						c0.7,0.5,0.8,1.3,0.2,1.7c-1.5,1.1-3,2.2-4.5,3.4c-0.6,0.5-1.7,0.5-2.5-0.1c0,0,0,0,0,0C143.6,31.6,143.6,30.8,144.2,30.3z"/>
					<path id="XMLID_696_" class="st11" d="M68.2,75.8c2.2-0.5,4.5-1,6.8-1.5c0.9-0.2,1.7,0.4,1.8,1.3v0c0,0.9-0.7,1.9-1.7,2.1
						c-2.3,0.5-4.6,1-6.8,1.5c-0.9,0.2-1.7-0.4-1.7-1.3v0C66.5,77,67.3,76.1,68.2,75.8z"/>
				</g>
				<g id="XMLID_692_">
					<path id="XMLID_694_" class="st10" d="M141,123.4c2.5-1.1,5-2.3,7.4-3.4c1-0.5,2.2,0,2.7,1l0,0c0.5,1,0,2.2-1,2.7
						c-2.5,1.1-4.9,2.3-7.4,3.4c-1,0.5-2.2,0-2.7-1v0C139.6,125.1,140,123.8,141,123.4z"/>
					<path id="XMLID_693_" class="st11" d="M55.9,141.2c0.6,2.4,1.2,4.9,1.8,7.3c0.3,1-0.2,2-1,2.2c0,0,0,0,0,0
						c-0.8,0.2-1.7-0.4-1.9-1.4c-0.6-2.4-1.2-4.8-1.8-7.3c-0.2-1,0.2-2,1-2.2c0,0,0,0,0,0C54.8,139.5,55.6,140.2,55.9,141.2z"/>
				</g>
				<g id="XMLID_689_">
					<path id="XMLID_691_" class="st10" d="M84.1,41.4c0.4-1.8,0.9-3.6,1.3-5.4c0.2-0.7,1-1.3,1.9-1.4c0,0,0,0,0.1,0
						c0.9-0.1,1.4,0.5,1.3,1.2c-0.4,1.8-0.8,3.6-1.3,5.4c-0.2,0.8-1,1.4-1.9,1.5c0,0,0,0-0.1,0C84.5,42.7,83.9,42.1,84.1,41.4z"/>
					<path id="XMLID_690_" class="st11" d="M61.3,121c-2.2-0.1-4.3-0.3-6.4-0.4c-0.9-0.1-1.5-0.9-1.4-2v0c0.1-1,0.8-1.8,1.7-1.8
						c2.1,0.1,4.3,0.2,6.4,0.3c0.9,0.1,1.6,1,1.5,2l0,0C63.1,120.2,62.3,121,61.3,121z"/>
				</g>
				<g id="XMLID_685_">
					<path id="XMLID_688_" class="st10" d="M151.2,57c0-2.1,0-4.2,0.1-6.3c0-0.8,0.8-1.4,1.8-1.3c0,0,0,0,0.1,0
						c1,0.1,1.8,0.8,1.8,1.7c0,2.1,0,4.2,0,6.3c0,0.9-0.8,1.5-1.8,1.4c0,0,0,0-0.1,0C152,58.7,151.2,57.9,151.2,57z"/>
					<path id="XMLID_687_" class="st11" d="M126.1,144.3c2.7-0.6,5.4-1.2,8-1.8c1.1-0.2,2.2,0.4,2.4,1.5l0,0
						c0.2,1.1-0.5,2.2-1.6,2.4c-2.7,0.6-5.3,1.2-8,1.8c-1.1,0.2-2.2-0.5-2.4-1.5l0,0C124.3,145.7,125,144.6,126.1,144.3z"/>
					<path id="XMLID_686_" class="st10" d="M43.3,141.8c0.9,2.2,1.8,4.4,2.7,6.7c0.4,0.9,0.1,2-0.6,2.3c0,0,0,0,0,0
						c-0.7,0.4-1.5-0.1-1.9-1c-0.9-2.2-1.8-4.4-2.7-6.6c-0.4-0.9-0.1-1.9,0.6-2.3c0,0,0,0,0,0C42.1,140.5,42.9,140.9,43.3,141.8z"/>
				</g>
				<g id="XMLID_681_">
					<path id="XMLID_684_" class="st10" d="M166.3,101.7c1.9-1.7,3.7-3.3,5.5-5c0.7-0.7,1.9-0.6,2.7,0.3v0c0.7,0.8,0.7,2,0,2.7
						c-1.8,1.7-3.6,3.3-5.5,5c-0.8,0.7-2,0.6-2.7-0.2l0,0C165.5,103.6,165.5,102.4,166.3,101.7z"/>
					<path id="XMLID_683_" class="st11" d="M85.9,145.8c2,1.6,4.1,3.3,6.2,4.9c0.9,0.7,1.1,1.9,0.4,2.8l0,0c-0.6,0.8-1.8,1-2.7,0.3
						c-2.1-1.6-4.1-3.3-6.1-4.9c-0.8-0.7-1-1.9-0.4-2.8l0,0C83.9,145.2,85,145.1,85.9,145.8z"/>
					<path id="XMLID_682_" class="st10" d="M40.9,82.3c-1,2.1-2,4.2-3,6.3c-0.4,0.9-1.2,1.3-1.8,1c0,0,0,0,0,0
						c-0.6-0.3-0.7-1.2-0.3-2.1c1-2.1,2-4.1,3-6.2c0.4-0.8,1.2-1.3,1.8-1c0,0,0,0,0,0C41.2,80.5,41.3,81.4,40.9,82.3z"/>
				</g>
				<g id="XMLID_672_">
					<path id="XMLID_673_" class="st10" d="M51.9,51.4c-0.6-1.4-1.1-2.7-1.6-4c-0.2-0.5,0.2-1.4,0.9-1.9c0,0,0,0,0,0
						c0.7-0.5,1.5-0.5,1.7,0c0.5,1.3,1.1,2.7,1.7,4c0.2,0.6-0.2,1.5-0.9,2c0,0,0,0,0,0C52.9,52,52.2,52,51.9,51.4z"/>
				</g>
			</g>
		</g>
	</g>
</g>
</svg>
