<?xml version="1.0" encoding="utf-8"?>
<!-- Generator: Adobe Illustrator 19.2.0, SVG Export Plug-In . SVG Version: 6.00 Build 0)  -->
<!DOCTYPE svg PUBLIC "-//W3C//DTD SVG 1.1//EN" "http://www.w3.org/Graphics/SVG/1.1/DTD/svg11.dtd">
<svg version="1.1" xmlns="http://www.w3.org/2000/svg" xmlns:xlink="http://www.w3.org/1999/xlink" x="0px" y="0px" width="72px"
	 height="90px" viewBox="0 0 72 90" style="enable-background:new 0 0 72 90;" xml:space="preserve">
<style type="text/css">
	.st0{display:none;}
	.st1{display:inline;fill:#E4A189;}
	.st2{display:inline;fill:#A17E75;}
	.st3{display:inline;fill:#FFFFFF;}
	.st4{display:inline;}
	.st5{fill:#202A4C;}
	.st6{display:inline;fill:#492F2C;}
	.st7{fill:#118E46;}
	.st8{fill:#12792A;}
	.st9{fill:none;stroke:#F77000;stroke-width:2;stroke-linecap:round;stroke-miterlimit:10;}
	.st10{fill:#F77000;}
	.st11{fill:#C03D00;}
	.st12{display:inline;fill:#DCE1DC;}
</style>
<g id="fisherman_x5F_head" class="st0">
	<path class="st1" d="M59.4,50.5c0,13.1-10.7,23.8-23.8,23.8S11.8,63.7,11.8,50.5c0-6.6,0.8-18.8,5.1-23.1s12.2-6.9,18.7-6.9
		s15.3,2.6,19.6,6.9S59.4,44,59.4,50.5z"/>
	<circle class="st1" cx="11.8" cy="50.5" r="6"/>
	<circle class="st1" cx="59.4" cy="50.5" r="6"/>
	<path class="st2" d="M53.4,22.2c-4.3-4.8-10.5-7.3-18.3-7.3c-7.7,0-13.8,2.4-18,7.2c-8,9-6.4,23-6.4,23.6c0.1,1.1,1.1,1.9,2.2,1.8
		c1.1-0.1,1.9-1.1,1.8-2.2c0-0.1-0.8-7.2,1.6-14c0.1-0.1,0.1-0.2,0.2-0.4c1.9-3.1,4.4-5,7-5.6c1.9-0.4,3.8,0,5.4,1.2
		c5.2,3.7,7.8,3.6,12.6-0.2c1.5-1.2,3.6-1.6,5.7-1.2c2.7,0.6,5.1,2.7,6.6,5.6c0.1,0.1,0.1,0.2,0.2,0.3c2.6,6.8,1.9,14.1,1.9,14.2
		c-0.1,1.1,0.7,2.1,1.8,2.2c0.1,0,0.1,0,0.2,0c1,0,1.9-0.8,2-1.8C60.1,45.1,61.5,31.2,53.4,22.2z"/>
</g>
<g id="fisherman_x5F_mouth" class="st0">
	<path class="st3" d="M40.7,58.7c0,3-2.6,5.7-5.7,5.7s-5.7-2.7-5.7-5.7H40.7z"/>
</g>
<g id="fisherman_x5F_eyesOpen" class="st0">
	<g class="st4">
		<circle class="st5" cx="25.4" cy="46.3" r="3"/>
		<circle class="st5" cx="44.6" cy="46.3" r="3"/>
	</g>
</g>
<g id="fisherman_x5F_beard" class="st0">
	<path class="st6" d="M38.2,53.2c-1.2-0.3-2.4,0.2-3.1,1.1c-0.8-0.9-2-1.4-3.1-1.1c-4.7,1.1-2.7,7.1-12.1,6c1.1,2.7,12,4.3,15.3,0.1
		c3.3,4.2,14.2,2.7,15.3-0.1C40.9,60.3,42.9,54.3,38.2,53.2z"/>
	<path class="st6" d="M58.3,46L58.3,46c-0.9-0.6-2.1-0.1-2.2,1c-0.3,2.6-1.2,6.7-4,9.7c-2.2,2.3-6.9,3.7-6.3,5
		c1.7,3.3-0.6,7.3-4,7.3c-5.3,0-3.4-2-6.4-2s-1,2-6.3,2c-3.3,0-5.6-4-4-7.3c0.7-1.3-4.1-2.7-6.3-5c-2.8-3-3.7-7.1-4-9.7
		c-0.1-1.1-1.3-1.7-2.2-1l0,0c-0.6,0.4-0.8,1.2-0.4,1.9c1.5,3,0.6,8.8-0.3,11.1c-1,2.7,0,21,23.4,21C58.9,80,60,61.7,59,59
		c-0.9-2.3-1.8-8.2-0.3-11.1C59,47.2,58.9,46.4,58.3,46z"/>
</g>
<g id="fisherman_x5F_hat" class="st0">
	<g class="st4">
		<path class="st7" d="M10.4,36.2c1.1,1.5,20.6,5.3,30.2,5s17.4-1.2,19-4.8c1.6-3.6-1.3-12.7-3.4-16.3s-4.1-6.2-4.1-6.2
			s0.7-0.2,0.6-3.4c-0.1-3.5-4.8-7.6-13.8-8S17.1,6.2,12.6,18.9S9.7,35.2,10.4,36.2z"/>
		<g>
			<path class="st8" d="M52.9,15.1c0,0,1,1.8-3.9,2.4c-2.5,0.3-5.4-0.3-7.5-0.9c-0.4-0.1-0.3-0.6,0.1-0.6c2.2,0.3,5,0.6,6.6,0.2
				c3.1-0.7,3.9-2.3,3.9-2.3L52.9,15.1z"/>
			<path class="st8" d="M55,18.2c0.4,0.7-0.1,1.4-1.9,2.2c-3.3,1.3-7.2,1.5-10.8,1.3c-0.8-0.1-0.5,0.7,0.3,0.8
				c2.4,0.4,4.8,0.7,7,0.5c7.9-0.7,7-2.2,7-2.2L55,18.2z"/>
			<path class="st8" d="M57.9,24.4c0.1,0.7-1.1,1.6-4.3,2.5c-1.9,0.5-4.9,0.2-7.5,0.2c-0.5,0-0.5,0.7,0,0.7c2.2,0.2,4.7,0.4,7.3,0.4
				c5.6,0,5.5-0.9,5.5-0.9L57.9,24.4z"/>
			<path class="st8" d="M51.4,17c1.2-0.5,4.2,2,1.7,3.4c-2.5,1.4-0.2,2.4,1.5,1.8c1.7-0.6,3.3,2.9,1.8,3.6s-1.8,2.3,0.1,2.1
				c2-0.2,2.5,2.5,2,5.9s-1,4.3-8.7,5.7c-2.8,0.5-6.8,0.7-10.9,0.8c-7.1,0-14.7-0.5-17.5-1c-3.1-0.6,6.2,1.8,17.1,2.2
				c4.5,0.2,10.7-0.5,14.2-1.2c7.1-1.4,7.6-3.6,7.6-8.1c0-3.9-2.3-10.5-6.7-16.3c0,0-0.9-1.3-1.4-2C51.9,13.7,51.4,17,51.4,17z"/>
		</g>
		<g>
			<path class="st8" d="M52.9,15.1c0,0,1,1.8-3.9,2.4c-2.5,0.3-5.4-0.3-7.5-0.9c-0.4-0.1-0.3-0.6,0.1-0.6c2.2,0.3,5,0.6,6.6,0.2
				c3.1-0.7,3.9-2.3,3.9-2.3L52.9,15.1z"/>
			<path class="st8" d="M55,18.2c0.4,0.7-0.1,1.4-1.9,2.2c-3.3,1.3-7.2,1.5-10.8,1.3c-0.8-0.1-0.5,0.7,0.3,0.8
				c2.4,0.4,4.8,0.7,7,0.5c7.9-0.7,7-2.2,7-2.2L55,18.2z"/>
			<path class="st8" d="M57.9,24.4c0.1,0.7-1.1,1.6-4.3,2.5c-1.9,0.5-4.9,0.2-7.5,0.2c-0.5,0-0.5,0.7,0,0.7c2.2,0.2,4.7,0.4,7.3,0.4
				c5.6,0,5.5-0.9,5.5-0.9L57.9,24.4z"/>
			<path class="st8" d="M51.4,17c1.2-0.5,4.2,2,1.7,3.4c-2.5,1.4-0.2,2.4,1.5,1.8c1.7-0.6,3.3,2.9,1.8,3.6s-1.8,2.3,0.1,2.1
				c2-0.2,2.5,2.5,2,5.9s-1,4.3-8.7,5.7c-2.8,0.5-6.8,0.7-10.9,0.8c-7.1,0-14.7-0.5-17.5-1c-3.1-0.6,6.2,1.8,17.1,2.2
				c4.5,0.2,10.7-0.5,14.2-1.2c7.1-1.4,7.6-3.6,7.6-8.1c0-3.9-2.3-10.5-6.7-16.3c0,0-0.9-1.3-1.4-2C51.9,13.7,51.4,17,51.4,17z"/>
		</g>
	</g>
</g>
<g id="fisherman_x5F_pipe">
	<line class="st9" x1="30.6" y1="62.5" x2="22.3" y2="66.8"/>
	<path class="st10" d="M20.1,70.2L20.1,70.2c-1.9,0.6-4-0.5-4.6-2.4l-0.9-2.9c-0.2-0.7-0.2-1.4,0-2.1c0.6-1.8,4.2-3,6-1.7
		c0.5,0.4,0.8,1,1,1.6l0.9,2.9C23.1,67.5,22,69.6,20.1,70.2z"/>
	<ellipse transform="matrix(0.9697 -0.2443 0.2443 0.9697 -14.6751 6.2132)" class="st11" cx="17.7" cy="62.3" rx="3.1" ry="1.6"/>
</g>
<g id="fisherman_x5F_smoke" class="st0">
	<circle class="st12" cx="18.3" cy="56.6" r="5.3"/>
</g>
</svg>
