<?xml version="1.0" encoding="utf-8"?>
<!-- Generator: Adobe Illustrator 19.2.0, SVG Export Plug-In . SVG Version: 6.00 Build 0)  -->
<!DOCTYPE svg PUBLIC "-//W3C//DTD SVG 1.1//EN" "http://www.w3.org/Graphics/SVG/1.1/DTD/svg11.dtd">
<svg version="1.1" xmlns="http://www.w3.org/2000/svg" xmlns:xlink="http://www.w3.org/1999/xlink" x="0px" y="0px" width="72px"
	 height="90px" viewBox="0 0 72 90" style="enable-background:new 0 0 72 90;" xml:space="preserve">
<style type="text/css">
	.st0{fill:#E4A189;}
	.st1{fill:#A17E75;}
	.st2{fill:#118E46;}
	.st3{fill:#12792A;}
	.st4{fill:#FFFFFF;}
	.st5{fill:#492F2C;}
	.st6{fill:none;stroke:#F77000;stroke-width:2;stroke-linecap:round;stroke-miterlimit:10;}
	.st7{fill:#F77000;}
	.st8{fill:#C03D00;}
	.st9{fill:#202A4C;}
	.st10{fill:url(#SVGID_1_);}
</style>
<g id="fisherman_x5F_head_1_">
</g>
<g id="fisherman_x5F_hat_1_">
	<g id="fisherman_x5F_hat_4_">
		<g>
			<path class="st2" d="M10.4,36.2c1.1,1.5,20.6,5.3,30.2,5s17.4-1.2,19-4.8s-1.3-12.7-3.4-16.3s-4.1-6.2-4.1-6.2s0.7-0.2,0.6-3.4
				c-0.1-3.5-4.8-7.6-13.8-8S17.1,6.2,12.6,18.9S9.7,35.2,10.4,36.2z"/>
			<g>
				<path class="st3" d="M52.9,15.1c0,0,1,1.8-3.9,2.4c-2.5,0.3-5.4-0.3-7.5-0.9c-0.4-0.1-0.3-0.6,0.1-0.6c2.2,0.3,5,0.6,6.6,0.2
					c3.1-0.7,3.9-2.3,3.9-2.3L52.9,15.1z"/>
				<path class="st3" d="M55,18.2c0.4,0.7-0.1,1.4-1.9,2.2c-3.3,1.3-7.2,1.5-10.8,1.3c-0.8-0.1-0.5,0.7,0.3,0.8
					c2.4,0.4,4.8,0.7,7,0.5c7.9-0.7,7-2.2,7-2.2L55,18.2z"/>
				<path class="st3" d="M57.9,24.4c0.1,0.7-1.1,1.6-4.3,2.5c-1.9,0.5-4.9,0.2-7.5,0.2c-0.5,0-0.5,0.7,0,0.7
					c2.2,0.2,4.7,0.4,7.3,0.4c5.6,0,5.5-0.9,5.5-0.9L57.9,24.4z"/>
				<path class="st3" d="M51.4,17c1.2-0.5,4.2,2,1.7,3.4s-0.2,2.4,1.5,1.8s3.3,2.9,1.8,3.6s-1.8,2.3,0.1,2.1c2-0.2,2.5,2.5,2,5.9
					s-1,4.3-8.7,5.7C47,40,43,40.2,38.9,40.3c-7.1,0-14.7-0.5-17.5-1c-3.1-0.6,6.2,1.8,17.1,2.2c4.5,0.2,10.7-0.5,14.2-1.2
					c7.1-1.4,7.6-3.6,7.6-8.1c0-3.9-2.3-10.5-6.7-16.3c0,0-0.9-1.3-1.4-2C51.9,13.7,51.4,17,51.4,17z"/>
			</g>
			<g>
				<path class="st3" d="M52.9,15.1c0,0,1,1.8-3.9,2.4c-2.5,0.3-5.4-0.3-7.5-0.9c-0.4-0.1-0.3-0.6,0.1-0.6c2.2,0.3,5,0.6,6.6,0.2
					c3.1-0.7,3.9-2.3,3.9-2.3L52.9,15.1z"/>
				<path class="st3" d="M55,18.2c0.4,0.7-0.1,1.4-1.9,2.2c-3.3,1.3-7.2,1.5-10.8,1.3c-0.8-0.1-0.5,0.7,0.3,0.8
					c2.4,0.4,4.8,0.7,7,0.5c7.9-0.7,7-2.2,7-2.2L55,18.2z"/>
				<path class="st3" d="M57.9,24.4c0.1,0.7-1.1,1.6-4.3,2.5c-1.9,0.5-4.9,0.2-7.5,0.2c-0.5,0-0.5,0.7,0,0.7
					c2.2,0.2,4.7,0.4,7.3,0.4c5.6,0,5.5-0.9,5.5-0.9L57.9,24.4z"/>
				<path class="st3" d="M51.4,17c1.2-0.5,4.2,2,1.7,3.4s-0.2,2.4,1.5,1.8s3.3,2.9,1.8,3.6s-1.8,2.3,0.1,2.1c2-0.2,2.5,2.5,2,5.9
					s-1,4.3-8.7,5.7C47,40,43,40.2,38.9,40.3c-7.1,0-14.7-0.5-17.5-1c-3.1-0.6,6.2,1.8,17.1,2.2c4.5,0.2,10.7-0.5,14.2-1.2
					c7.1-1.4,7.6-3.6,7.6-8.1c0-3.9-2.3-10.5-6.7-16.3c0,0-0.9-1.3-1.4-2C51.9,13.7,51.4,17,51.4,17z"/>
			</g>
		</g>
	</g>
</g>
<g id="fisherman_x5F_smile">
</g>
<g id="fisherman_x5F_beard_1_">
</g>
<g id="fisherman_x5F_pipe_1_">
</g>
<g id="fisherman_x5F_eyes">
</g>
<g id="fisherman_x5F_bubble">
</g>
</svg>
