<?xml version="1.0" encoding="utf-8"?>
<!-- Generator: Adobe Illustrator 19.2.0, SVG Export Plug-In . SVG Version: 6.00 Build 0)  -->
<!DOCTYPE svg PUBLIC "-//W3C//DTD SVG 1.1//EN" "http://www.w3.org/Graphics/SVG/1.1/DTD/svg11.dtd">
<svg version="1.1" xmlns="http://www.w3.org/2000/svg" xmlns:xlink="http://www.w3.org/1999/xlink" x="0px" y="0px" width="72px"
	 height="90px" viewBox="0 0 72 90" style="enable-background:new 0 0 72 90;" xml:space="preserve">
<style type="text/css">
	.st0{fill:#E4A189;}
	.st1{fill:#A17E75;}
	.st2{fill:#118E46;}
	.st3{fill:#12792A;}
	.st4{fill:#FFFFFF;}
	.st5{fill:#492F2C;}
	.st6{fill:none;stroke:#F77000;stroke-width:2;stroke-linecap:round;stroke-miterlimit:10;}
	.st7{fill:#F77000;}
	.st8{fill:#C03D00;}
	.st9{fill:#202A4C;}
	.st10{fill:url(#SVGID_1_);}
</style>
<g id="fisherman_x5F_head_1_">
	<g id="fisherman_x5F_head">
		<path class="st0" d="M59.4,50.5c0,13.1-10.7,23.8-23.8,23.8S11.8,63.7,11.8,50.5c0-6.6,0.8-18.8,5.1-23.1s12.2-6.9,18.7-6.9
			s15.3,2.6,19.6,6.9S59.4,44,59.4,50.5z"/>
		<circle class="st0" cx="11.8" cy="50.5" r="6"/>
		<circle class="st0" cx="59.4" cy="50.5" r="6"/>
		<path class="st1" d="M53.4,22.2c-4.3-4.8-10.5-7.3-18.3-7.3c-7.7,0-13.8,2.4-18,7.2c-8,9-6.4,23-6.4,23.6c0.1,1.1,1.1,1.9,2.2,1.8
			c1.1-0.1,1.9-1.1,1.8-2.2c0-0.1-0.8-7.2,1.6-14c0.1-0.1,0.1-0.2,0.2-0.4c1.9-3.1,4.4-5,7-5.6c1.9-0.4,3.8,0,5.4,1.2
			c5.2,3.7,7.8,3.6,12.6-0.2c1.5-1.2,3.6-1.6,5.7-1.2c2.7,0.6,5.1,2.7,6.6,5.6c0.1,0.1,0.1,0.2,0.2,0.3c2.6,6.8,1.9,14.1,1.9,14.2
			c-0.1,1.1,0.7,2.1,1.8,2.2c0.1,0,0.1,0,0.2,0c1,0,1.9-0.8,2-1.8C60.1,45.1,61.5,31.2,53.4,22.2z"/>
	</g>
</g>
<g id="fisherman_x5F_hat_1_">
</g>
<g id="fisherman_x5F_smile">
</g>
<g id="fisherman_x5F_beard_1_">
</g>
<g id="fisherman_x5F_pipe_1_">
</g>
<g id="fisherman_x5F_eyes">
</g>
<g id="fisherman_x5F_bubble">
</g>
</svg>
