<?xml version="1.0" encoding="utf-8"?>
<!-- Generator: Adobe Illustrator 19.2.0, SVG Export Plug-In . SVG Version: 6.00 Build 0)  -->
<!DOCTYPE svg PUBLIC "-//W3C//DTD SVG 1.1//EN" "http://www.w3.org/Graphics/SVG/1.1/DTD/svg11.dtd">
<svg version="1.1" xmlns="http://www.w3.org/2000/svg" xmlns:xlink="http://www.w3.org/1999/xlink" x="0px" y="0px" width="72px"
	 height="90px" viewBox="0 0 72 90" style="enable-background:new 0 0 72 90;" xml:space="preserve">
<style type="text/css">
	.st0{fill:#E4A189;}
	.st1{fill:#A17E75;}
	.st2{fill:#118E46;}
	.st3{fill:#12792A;}
	.st4{fill:#FFFFFF;}
	.st5{fill:#492F2C;}
	.st6{fill:none;stroke:#F77000;stroke-width:2;stroke-linecap:round;stroke-miterlimit:10;}
	.st7{fill:#F77000;}
	.st8{fill:#C03D00;}
	.st9{fill:#202A4C;}
	.st10{fill:url(#SVGID_1_);}
</style>
<g id="fisherman_x5F_head_1_">
</g>
<g id="fisherman_x5F_hat_1_">
</g>
<g id="fisherman_x5F_smile">
</g>
<g id="fisherman_x5F_beard_1_">
	<g id="fisherman_x5F_beard_2_">
		<path class="st5" d="M38.2,52.2c-1.2-0.3-2.4,0.2-3.1,1.1c-0.8-0.9-2-1.4-3.1-1.1c-4.7,1.1-2.7,7.1-12.1,6
			c1.1,2.7,12,4.3,15.3,0.1c3.3,4.2,14.2,2.7,15.3-0.1C40.9,59.3,42.9,53.3,38.2,52.2z"/>
		<path class="st5" d="M58.3,45L58.3,45c-0.9-0.6-2.1-0.1-2.2,1c-0.3,2.6-1.2,6.7-4,9.7c-2.2,2.3-6.9,3.7-6.3,5
			c1.7,3.3-0.6,7.3-4,7.3c-5.3,0-3.4-2-6.4-2s-1,2-6.3,2c-3.3,0-5.6-4-4-7.3c0.7-1.3-4.1-2.7-6.3-5c-2.8-3-3.7-7.1-4-9.7
			c-0.1-1.1-1.3-1.7-2.2-1l0,0c-0.6,0.4-0.8,1.2-0.4,1.9c1.5,3,0.6,8.8-0.3,11.1c-1,2.7,0,21,23.4,21C58.9,79,60,60.7,59,58
			c-0.9-2.3-1.8-8.2-0.3-11.1C59,46.2,58.9,45.4,58.3,45z"/>
	</g>
</g>
<g id="fisherman_x5F_pipe_1_">
</g>
<g id="fisherman_x5F_eyes">
</g>
<g id="fisherman_x5F_bubble">
</g>
</svg>
