<?xml version="1.0" encoding="utf-8"?>
<!-- Generator: Adobe Illustrator 19.0.0, SVG Export Plug-In . SVG Version: 6.00 Build 0)  -->
<!DOCTYPE svg PUBLIC "-//W3C//DTD SVG 1.1//EN" "http://www.w3.org/Graphics/SVG/1.1/DTD/svg11.dtd">
<svg version="1.1" id="Layer_1" xmlns="http://www.w3.org/2000/svg" xmlns:xlink="http://www.w3.org/1999/xlink" x="0px" y="0px"
	 viewBox="0 0 250 250" style="enable-background:new 0 0 250 250;" xml:space="preserve">
<style type="text/css">
	.st0{fill:#F5C2A0;}
	.st1{fill:#FFFFFF;}
	.st2{fill:#FFE4FF;}
	.st3{fill:#985224;}
</style>
<g id="XMLID_2577_">
	<path id="XMLID_2612_" class="st0" d="M200,175.3c0,0,0-0.1,0-0.1c0-0.1,0-72.6,0-72.6c0-10.3-8.4-18.7-18.7-18.7
		s-18.8,8.4-18.8,18.7c0-10.3-8.4-18.7-18.8-18.7c-9.6,0-17.5,7.2-18.6,16.5c0,0-0.1,0-0.1,0s-0.1,0-0.1,0
		c-1.1-9.3-9-16.5-18.6-16.5c-10.4,0-18.8,8.4-18.8,18.7c0-40.9,0-83.8,0-83.8C87.5,8.4,79.1,0,68.8,0S50,8.4,50,18.7
		c0,0.1,0,157.7,0,157.9c0.8,40.6,34,73.4,75,73.4c41.3,0,74.8-33.3,75-74.4C200,175.5,200,175.4,200,175.3
		C200,175.3,200,175.3,200,175.3z M162.5,102.8c0,0.8,0,3.5,0,7.6l0,0C162.5,106.3,162.5,103.5,162.5,102.8z M87.5,110.3L87.5,110.3
		c0-2.5,0-5,0-7.6C87.5,103.5,87.5,106.3,87.5,110.3z"/>
	<ellipse id="XMLID_2666_" class="st1" cx="68.6" cy="16.8" rx="15" ry="15"/>
	<path id="XMLID_2590_" class="st2" d="M83.6,18.8c0,8.3-6.7,15-15,15c-8.3,0-15-6.7-15-15s6.7-13.1,15-13.1
		C76.9,5.6,83.6,10.5,83.6,18.8z"/>
	<g id="XMLID_2559_">
		<path id="XMLID_2589_" class="st3" d="M91.4,190.7C91.4,190.7,91.4,190.7,91.4,190.7c-0.6,0-1-0.5-1-1.1c0.2-2.1-0.1-4.3-0.3-6.5
			c-0.4-3.8-0.8-7.4,1-10.1c0.3-0.5,0.9-0.6,1.4-0.3c0.5,0.3,0.6,0.9,0.3,1.4c-1.4,2.1-1,5.3-0.7,8.8c0.2,2.3,0.5,4.6,0.3,6.8
			C92.4,190.3,91.9,190.7,91.4,190.7z"/>
		<path id="XMLID_2587_" class="st3" d="M115.6,186.4c-0.1,0-0.2,0-0.3,0c-0.5-0.1-0.9-0.7-0.7-1.2c1.1-4.1,1-8.1-0.2-12.2
			c-0.2-0.5,0.1-1.1,0.7-1.2c0.5-0.2,1.1,0.1,1.2,0.7c1.3,4.4,1.4,8.8,0.2,13.3C116.5,186.1,116.1,186.4,115.6,186.4z"/>
		<path id="XMLID_2586_" class="st3" d="M103.3,225.9c-0.1,0-0.2,0-0.3,0c-0.5-0.1-0.9-0.7-0.7-1.2c1.1-4.1,1-8.1-0.2-12.2
			c-0.2-0.5,0.1-1.1,0.7-1.2c0.5-0.2,1.1,0.1,1.2,0.7c1.3,4.4,1.4,8.8,0.2,13.3C104.1,225.6,103.7,225.9,103.3,225.9z"/>
		<path id="XMLID_2584_" class="st3" d="M136.7,192c-0.1,0-0.2,0-0.3,0c-0.5-0.1-0.9-0.7-0.7-1.2c1.5-5.5,1.6-11.5,0.5-17.4
			c-0.1-0.5,0.2-1.1,0.8-1.2c0.5-0.1,1.1,0.2,1.2,0.8c1.2,6.2,1,12.5-0.5,18.3C137.5,191.7,137.1,192,136.7,192z"/>
		<path id="XMLID_2582_" class="st3" d="M148.2,228.2c-0.1,0-0.2,0-0.3,0c-0.5-0.1-0.9-0.7-0.7-1.2c1.5-5.5,1.6-11.5,0.5-17.4
			c-0.1-0.5,0.2-1.1,0.8-1.2c0.5-0.1,1.1,0.2,1.2,0.8c1.2,6.2,1,12.5-0.5,18.3C149,227.9,148.6,228.2,148.2,228.2z"/>
		<path id="XMLID_2581_" class="st3" d="M158.8,189c-0.1,0-0.1,0-0.2,0c-0.5-0.1-0.9-0.6-0.8-1.2c0.2-1.3,0.6-2.6,0.9-3.8
			c0.9-3.8,1.8-7.4,0.3-10.7c-0.2-0.5,0-1.1,0.5-1.3c0.5-0.2,1.1,0,1.3,0.5c1.8,4,0.8,8.1-0.2,12c-0.3,1.2-0.6,2.5-0.8,3.7
			C159.7,188.7,159.3,189,158.8,189z"/>
		<path id="XMLID_2579_" class="st3" d="M86.6,215.2c-0.3,0-0.5-0.1-0.7-0.3c-0.4-0.4-0.4-1,0-1.4c3.8-3.9,4.4-7.9,4.5-9.9
			c0-1.2-0.1-2.4-0.2-3.6c-0.1-1-0.2-2-0.2-3c0-0.6,0.4-1,1-1c0.6,0,1,0.4,1,1c0,0.9,0.1,1.9,0.2,2.8c0.1,1.2,0.2,2.5,0.2,3.8
			c0,2.3-0.7,6.9-5,11.3C87.1,215.1,86.8,215.2,86.6,215.2z"/>
		<path id="XMLID_2563_" class="st3" d="M113.7,211.4c-0.3,0-0.7-0.2-0.8-0.5c-0.3-0.5-0.2-1.1,0.3-1.4c1.7-1.1,1.1-4.2,0.4-7.9
			c-0.5-2.8-1.1-5.7-0.8-8.4c0.1-0.5,0.6-0.9,1.1-0.9c0.5,0.1,0.9,0.6,0.9,1.1c-0.3,2.4,0.2,5.1,0.7,7.8c0.8,4.2,1.6,8.1-1.3,10
			C114,211.4,113.8,211.4,113.7,211.4z"/>
		<path id="XMLID_2562_" class="st3" d="M135.3,212.9c-0.2,0-0.4-0.1-0.6-0.2c-0.5-0.3-0.6-0.9-0.2-1.4c1.9-2.7,1.2-5.4,0.4-8.3
			c-0.5-1.7-0.9-3.4-0.8-5c0.1-0.5,0.5-1,1.1-0.9c0.5,0.1,1,0.5,0.9,1.1c-0.1,1.3,0.3,2.7,0.7,4.3c0.8,3,1.7,6.5-0.7,10
			C135.9,212.7,135.6,212.9,135.3,212.9z"/>
		<path id="XMLID_2518_" class="st3" d="M158.6,212.2c-0.5,0-1-0.4-1-0.9c-0.2-1.9-0.6-3.8-1-5.6c-0.8-3.8-1.6-7.3-0.3-10.7
			c0.2-0.5,0.8-0.8,1.3-0.6c0.5,0.2,0.8,0.8,0.6,1.3c-1.1,2.8-0.4,6.1,0.4,9.5c0.4,1.9,0.8,3.8,1,5.9
			C159.6,211.6,159.2,212.1,158.6,212.2C158.6,212.2,158.6,212.2,158.6,212.2z"/>
		<path id="XMLID_2517_" class="st3" d="M77.1,201.8c0,0-0.1,0-0.1,0c-0.5-0.1-0.9-0.5-0.9-1.1c0.4-4.4,1.9-8.6,3.2-12.7
			c0.2-0.7,0.5-1.5,0.7-2.2c0.2-0.5,0.7-0.8,1.3-0.6c0.5,0.2,0.8,0.7,0.6,1.3c-0.2,0.7-0.5,1.4-0.7,2.2c-1.3,4-2.7,8.2-3.1,12.3
			C78,201.4,77.6,201.8,77.1,201.8z"/>
		<path id="XMLID_2513_" class="st3" d="M102.7,199.2c-0.1,0-0.3,0-0.4-0.1c-0.5-0.2-0.7-0.8-0.5-1.3c1-2.2,0.9-5.4,0.8-8.8
			c-0.1-1.5-0.1-3.1-0.1-4.7c0-0.5,0.5-1,1-1c0,0,0,0,0,0c0.6,0,1,0.5,1,1c0,1.5,0,3.1,0.1,4.6c0.1,3.6,0.3,7-0.9,9.6
			C103.5,199,103.1,199.2,102.7,199.2z"/>
		<path id="XMLID_2482_" class="st3" d="M122.4,200.3c0,0-0.1,0-0.1,0c-0.5-0.1-0.9-0.6-0.9-1.1c0.5-4.5,1.7-9.3,3.7-15
			c0.2-0.5,0.8-0.8,1.3-0.6c0.5,0.2,0.8,0.8,0.6,1.3c-2,5.5-3.1,10.2-3.6,14.5C123.4,199.9,122.9,200.3,122.4,200.3z"/>
		<path id="XMLID_2476_" class="st3" d="M146.6,201.4c0,0-0.1,0-0.1,0c-0.5-0.1-0.9-0.6-0.8-1.1c0.6-4.1,0.5-7.9,0.4-11.6
			c0-1.4-0.1-2.8-0.1-4.1c0-0.6,0.4-1,1-1c0,0,0,0,0,0c0.6,0,1,0.4,1,1c0,1.4,0,2.7,0.1,4.1c0.1,3.8,0.2,7.7-0.4,11.9
			C147.5,201.1,147.1,201.4,146.6,201.4z"/>
		<path id="XMLID_2465_" class="st3" d="M125.2,229.4c0,0-0.1,0-0.1,0c-0.5-0.1-0.9-0.6-0.8-1.1c0.6-4.1,0.5-7.9,0.4-11.6
			c0-1.4-0.1-2.8-0.1-4.1c0-0.6,0.4-1,1-1h0c0.6,0,1,0.4,1,1c0,1.4,0,2.7,0.1,4.1c0.1,3.8,0.2,7.7-0.4,11.9
			C126.1,229,125.7,229.4,125.2,229.4z"/>
		<path id="XMLID_2463_" class="st3" d="M166.4,202.4c-0.5,0-1-0.4-1-1c0-3.3,1-6.6,2.1-9.9c0.5-1.6,1-3.2,1.4-4.8
			c0.1-0.5,0.7-0.9,1.2-0.7c0.5,0.1,0.9,0.7,0.7,1.2c-0.4,1.7-0.9,3.3-1.5,4.9c-1,3.2-2,6.3-2,9.2
			C167.4,201.9,167,202.4,166.4,202.4C166.5,202.4,166.4,202.4,166.4,202.4z"/>
	</g>
</g>
</svg>
