<?xml version="1.0" encoding="utf-8"?>
<!-- Generator: Adobe Illustrator 19.0.0, SVG Export Plug-In . SVG Version: 6.00 Build 0)  -->
<!DOCTYPE svg PUBLIC "-//W3C//DTD SVG 1.1//EN" "http://www.w3.org/Graphics/SVG/1.1/DTD/svg11.dtd">
<svg version="1.1" id="Layer_1" xmlns="http://www.w3.org/2000/svg" xmlns:xlink="http://www.w3.org/1999/xlink" x="0px" y="0px"
	 viewBox="0 0 150 150" style="enable-background:new 0 0 150 150;" xml:space="preserve">
<style type="text/css">
	.st0{fill:#FFCAA0;}
	.st1{fill:#FFEAFF;}
</style>
<g id="XMLID_2576_">
	<path id="XMLID_2671_" class="st0" d="M115.5,103.3C115.5,103.2,115.5,103.2,115.5,103.3c0-0.1,0-39.8,0-39.8
		c0-5.7-4.6-10.2-10.2-10.2c-5.7,0-10.2,4.6-10.2,10.2c0-5.7-4.6-10.2-10.2-10.2c-5.2,0-9.6,3.9-10.2,9c0,0-0.1,0-0.1,0
		c0,0-0.1,0-0.1,0c-0.6-5.1-4.9-9-10.2-9c-5.7,0-10.2,4.6-10.2,10.2c0-22.4,0-45.9,0-45.9c0-5.7-4.6-10.2-10.2-10.2
		s-10.2,4.6-10.2,10.2c0,0,0,86.1,0,86.1c0,0.1,0,0.3,0,0.4c0.4,22.3,18.6,40.2,41,40.2c22.6,0,40.9-18.2,41-40.8
		C115.5,103.4,115.5,103.3,115.5,103.3C115.5,103.3,115.5,103.3,115.5,103.3z M95,63.7c0,0.6,0,2,0,4c0,0,0,0,0,0
		C95,65.7,95,64.2,95,63.7z M54,67.7C54,67.7,54,67.7,54,67.7c0-1.3,0-2.7,0-4C54,64.2,54,65.7,54,67.7z"/>
	<path id="XMLID_2674_" class="st1" d="M51.9,17.5c0,4.5-3.7,8.2-8.2,8.2s-8.2-3.7-8.2-8.2s3.7-7.2,8.2-7.2S51.9,13,51.9,17.5z"/>
</g>
</svg>
