<?xml version="1.0" encoding="utf-8"?>
<!-- Generator: Adobe Illustrator 19.0.0, SVG Export Plug-In . SVG Version: 6.00 Build 0)  -->
<!DOCTYPE svg PUBLIC "-//W3C//DTD SVG 1.1//EN" "http://www.w3.org/Graphics/SVG/1.1/DTD/svg11.dtd">
<svg version="1.1" id="Layer_1" xmlns="http://www.w3.org/2000/svg" xmlns:xlink="http://www.w3.org/1999/xlink" x="0px" y="0px"
	 viewBox="0 0 250 250" style="enable-background:new 0 0 250 250;" xml:space="preserve">
<style type="text/css">
	.st0{fill:#FFDAB4;}
	.st1{fill:#FF8470;}
	.st2{fill:#FF5B60;}
</style>
<g id="XMLID_2578_">
	<path id="XMLID_2740_" class="st0" d="M192.5,117.5c0-8.9-7.3-16.1-16.3-16.1s-16.3,7.2-16.3,16.1c0-8.9-7.3-16.1-16.3-16.1
		c-8.8,0-15.9,6.8-16.3,15.4c0,0,0,0-0.1,0c-0.4-8.6-7.5-15.4-16.3-15.4c-9,0-16.3,7.2-16.3,16.1c0-42.9,0-92.7,0-92.7
		c0-10.1-8.3-18.3-18.5-18.3s-18.5,8.2-18.5,18.3c0,0.1,0,157.5,0,158.6c0,36.8,30.2,66.6,67.5,66.6c37.3,0,67.5-29.8,67.5-66.6
		C192.5,182.7,192.5,117.5,192.5,117.5z M159.9,117.7c0,0.8,0,4,0,8.6l0,0C159.9,121.7,159.9,118.5,159.9,117.7z M94.6,123.9
		c0-1.8,0-3.5,0-5.3C94.6,119.7,94.6,121.5,94.6,123.9L94.6,123.9z"/>
	<path id="XMLID_2638_" class="st1" d="M88.6,27.1c0-11.1-1-22.4-4.7-25.6C81.5,0.5,78.8,0,76,0c-2.8,0-5.5,0.5-7.9,1.5
		c-3.7,3.3-4.7,14.5-4.7,25.6c0,6.3,4.8,11.5,11,12.3c0.5,0,1,0.1,1.6,0.1c0.5,0,1.1,0,1.6-0.1C83.8,38.7,88.6,33.5,88.6,27.1z"/>
	<path id="XMLID_2636_" class="st2" d="M74.7,37.1c0.6,0.1,1.2,0.1,1.8,0.1c0.6,0,1.2,0,1.8-0.1c-0.6,0.1-1.2,0.1-1.8,0.1
		C75.9,37.2,75.3,37.2,74.7,37.1z"/>
</g>
</svg>
