<?xml version="1.0" encoding="utf-8"?>
<!-- Generator: Adobe Illustrator 19.0.0, SVG Export Plug-In . SVG Version: 6.00 Build 0)  -->
<!DOCTYPE svg PUBLIC "-//W3C//DTD SVG 1.1//EN" "http://www.w3.org/Graphics/SVG/1.1/DTD/svg11.dtd">
<svg version="1.1" id="Layer_1" xmlns="http://www.w3.org/2000/svg" xmlns:xlink="http://www.w3.org/1999/xlink" x="0px" y="0px"
	 viewBox="0 0 350 350" style="enable-background:new 0 0 350 350;" xml:space="preserve">
<style type="text/css">
	.st0{fill:#C67600;}
	.st1{fill:#5C5C83;}
</style>
<g id="XMLID_1431_">
	<path id="XMLID_1432_" class="st0" d="M176.2,112.5h-2.7H98c0,0-0.1,62.1,46.7,52.5c19.1-3.9,26.3-12,30.2-18.9
		c4.1,6.9,11.1,15,30.2,18.9c46.8,9.6,46.7-52.5,46.7-52.5H176.2z"/>
	<path id="XMLID_1433_" d="M176.2,111.6h-2.7H98c0,0-0.1,57.9,46.7,46.5c19.1-4.6,27-15.8,30.2-26c3.2,10.2,11.1,21.4,30.2,26
		c46.8,11.4,46.7-46.5,46.7-46.5H176.2z"/>
	<path id="XMLID_1434_" class="st1" d="M105.8,118.9c0,0-1,15.7,12.4,26.4c6.8,5.4-3.2-5.8,14.9-19.8c6.2-4.8,18.5-6.6,18.5-6.6
		H105.8z"/>
	<path id="XMLID_1435_" class="st1" d="M181.6,118.9c0,0-1,15.7,12.4,26.4c6.8,5.4-3.2-5.8,14.9-19.8c6.2-4.8,18.5-6.6,18.5-6.6
		H181.6z"/>
</g>
</svg>
