<?xml version="1.0" encoding="utf-8"?>
<!-- Generator: Adobe Illustrator 19.0.0, SVG Export Plug-In . SVG Version: 6.00 Build 0)  -->
<!DOCTYPE svg PUBLIC "-//W3C//DTD SVG 1.1//EN" "http://www.w3.org/Graphics/SVG/1.1/DTD/svg11.dtd">
<svg version="1.1" id="Layer_1" xmlns="http://www.w3.org/2000/svg" xmlns:xlink="http://www.w3.org/1999/xlink" x="0px" y="0px"
	 viewBox="0 0 200 200" style="enable-background:new 0 0 200 200;" xml:space="preserve">
<style type="text/css">
	.st0{fill:#00D030;}
	.st1{fill:none;stroke:#000000;stroke-width:10;stroke-miterlimit:10;}
	.st2{fill:none;stroke:#000000;stroke-width:10;stroke-miterlimit:0;}
	.st3{fill:#FFFFFF;}
</style>
<path id="XMLID_58_" class="st0" d="M112.9,86.8c0.7-4.8,2.2-7.5,2.2-7.6l1.8,0.8c0,0-0.9,2.1-2.5,6.7
	C113,90.6,112.2,91.7,112.9,86.8z"/>
<line id="XMLID_2561_" class="st1" x1="111.6" y1="122.1" x2="189" y2="176.7"/>
<g id="XMLID_2514_">
	<path id="XMLID_2558_" class="st2" d="M37.7,99.3c-0.5,0.8-0.8,1.6-0.9,2.5c-0.6,4.5,0,10.2,9,14.5c9.6,4.5,15.2,1.1,15.5,1
		l1.3-0.8l0.3,1.5c0,0,0.7,2.8,6.9,7c6.4,4.3,14.8,4.4,14.8,4.4l1.4,0l-0.4,1.3c-0.3,1,1.7,1.1,1.9,1.4c4.4,2.9,13.2,6.6,23.8-0.3
		c9.3-6,9.5-12.4,9.7-15.3c0.1-2.9-0.7-5.5-1-5.7c-1.5-1.2-4.4-1.6-5.4-1.6l-1.6-0.1l0.7-1.4c0-0.1,2.6-6.4,1.8-13
		c-0.9-7.1-1.1-9.1-1.1-9.1c0-0.4,0.6-4.5,4.4-6.7c1-0.6,2.1-1,3.1-1.4c2.7-1.1,5.4-2.1,7.5-5.8c1.1-1.9,0.7-4.9-1-7.8
		c-1.8-3.1-5.6-6.7-10.3-6.6c-9.5,0.1-15.8,6.5-17.8,13c-1.3,4.1-1.6,4.9-2.7,4.7c-0.4-0.1-0.4-2.3-0.3-3.3
		c-1.2-2.1-8-9.3-11.4-12.4c-3.7-3.5-9.4-7.9-15.5-10.9c-3.1-1.5-25.8-16.3-29.1-18.4c-3.3-2.1-7.7-1.3-10.6,0.4
		c-2.8,1.6-3.4,6.5-1.7,9.1c2,3.1,15,14.4,22.2,17.3l3,3.4c0,0-2.4-0.1-4-0.1c-1.5,0.1-3-0.1-5.2,3.5C42.3,67.6,44,73,44,73l0.2,0.7
		l-0.6,0.5c-0.1,0.1-7.7,6.5-7.1,12.3c0.5,4.8,4,7.4,4.8,7.9c0.1,0,0.1,0.1,0.2,0.1l0.7,0.4l-0.5,1.7l-0.8-0.1c-0.1,0-0.1,0-0.2-0.1
		C40.1,96.5,38.7,97.7,37.7,99.3z"/>
	<path id="XMLID_2552_" class="st3" d="M37.7,99.3c-0.5,0.8-0.8,1.6-0.9,2.5c-0.6,4.5,0,10.2,9,14.5c9.6,4.5,15.2,1.1,15.5,1
		l1.3-0.8l0.3,1.5c0,0,0.7,2.8,6.9,7c6.4,4.3,14.8,4.4,14.8,4.4l1.4,0l-0.4,1.3c-0.3,1,1.7,1.1,1.9,1.4c4.4,2.9,13.2,6.6,23.8-0.3
		c9.3-6,9.5-12.4,9.7-15.3c0.1-2.9-0.7-5.5-1-5.7c-1.5-1.2-4.4-1.6-5.4-1.6l-1.6-0.1l0.7-1.4c0-0.1,2.6-6.4,1.8-13
		c-0.9-7.1-1.1-9.1-1.1-9.1c0-0.4,0.6-4.5,4.4-6.7c1-0.6,2.1-1,3.1-1.4c2.7-1.1,5.4-2.1,7.5-5.8c1.1-1.9,0.7-4.9-1-7.8
		c-1.8-3.1-5.6-6.7-10.3-6.6c-9.5,0.1-15.8,6.5-17.8,13c-1.3,4.1-1.6,4.9-2.7,4.7c-0.4-0.1-0.4-2.3-0.3-3.3
		c-1.2-2.1-8-9.3-11.4-12.4c-3.7-3.5-9.4-7.9-15.5-10.9c-3.1-1.5-25.8-16.3-29.1-18.4c-3.3-2.1-7.7-1.3-10.6,0.4
		c-2.8,1.6-3.4,6.5-1.7,9.1c2,3.1,15.1,13.6,22.1,17.5l3.1,3.2c0,0-2.4-0.1-4-0.1c-1.5,0.1-3-0.1-5.2,3.5C42.3,67.6,44,73,44,73
		l0.2,0.7l-0.6,0.5c-0.1,0.1-7.7,6.5-7.1,12.3c0.5,4.8,4,7.4,4.8,7.9c0.1,0,0.1,0.1,0.2,0.1l0.7,0.4l-0.5,1.7l-0.8-0.1
		c-0.1,0-0.1,0-0.2-0.1C40.1,96.5,38.7,97.7,37.7,99.3z"/>
	<path id="XMLID_2557_" d="M74.2,72.2c-4.7,2.5-6.3,5.1-6.3,5.2l-1.7-1.2c0.1-0.1,2-2.9,7-5.8C76.4,68.5,78.4,69.9,74.2,72.2z"/>
	<path id="XMLID_2554_" d="M118.8,126.1c-1.7,2.8-2.4,4.7-6.5,7.4c-11.7,7.5-21.2,3.5-25.9,0.4c-1.3-0.8-3.4-1.4-3.2-2.6
		c-2.7-0.2-9.2-1.1-14.7-4.7c-4.7-3.1-6.6-5.6-7.3-7.1c-2.3,1-8.1,2.5-16.4-1.4c-10.3-4.9-10.8-11.8-10.2-16.6
		c0.3-2.8,2.5-5.3,4.2-6.5c-1.7-1.6-4-4.4-4.3-8.4c-0.6-6,5.5-11.9,7.4-13.6c-0.4-1.8-1.3-6.6,1.3-10.8c1.2-2,2.9-3.7,5.2-4.6
		c-1.1-0.8-15.6-10.2-21.2-17.1c-2.4-2.9-2.4-8.1,0.7-11.2c2.9-2.9,9.4-3.8,13.7-1.7c1.7,0.8,3,1.6,4.3,2.2
		c3.2,1.7,21.5,14.5,24.7,16.1c6.3,3.2,12.8,7.8,16.9,11.7c3.3,3.1,8.4,7.4,10.7,11.3c0.1-0.4,0,0,0.2-0.6c2.3-7.4,9-13.5,19.5-13.5
		c4.6,0,9.4,3,12.1,7.7c2.1,3.6,2.5,7.3,1,9.9c-2.5,4.4-5.7,5.6-8.6,6.8c-1,0.4-2,0.8-2.8,1.3c-2.8,1.6-3.3,4.6-3.3,4.9
		c0,0,0.3,2.2,1.1,8.8c0.7,5.6-0.3,10.3-1.4,12.9c1.4,0.2,3.6,0.8,5.1,1.9c1.2,0.9,1.9,4.5,1.8,7.5
		C122.8,118.4,121.3,122.1,118.8,126.1z M37.7,99.3c-0.5,0.8-0.8,1.6-0.9,2.5c-0.6,4.5,0,10.2,9,14.5c9.6,4.5,15.2,1.1,15.5,1
		l1.3-0.8l0.3,1.5c0,0,0.7,2.8,6.9,7c6.4,4.3,14.8,4.4,14.8,4.4l1.4,0l-0.4,1.3c-0.3,1,1.7,1.1,1.9,1.4c4.4,2.9,13.2,6.6,23.8-0.3
		c9.3-6,9.5-12.4,9.7-15.3c0.1-2.9-0.7-5.5-1-5.7c-1.5-1.2-4.4-1.6-5.4-1.6l-1.6-0.1l0.7-1.4c0-0.1,2.6-6.4,1.8-13
		c-0.9-7.1-1.1-9.1-1.1-9.1c0-0.4,0.6-4.5,4.4-6.7c1-0.6,2.1-1,3.1-1.4c2.7-1.1,5.4-2.1,7.5-5.8c1.1-1.9,0.7-4.9-1-7.8
		c-1.8-3.1-5.6-6.7-10.3-6.6c-9.5,0.1-15.8,6.5-17.8,13c-1.3,4.1-1.6,4.9-2.7,4.7c-0.4-0.1-0.4-2.3-0.3-3.3
		c-1.2-2.1-8-9.3-11.4-12.4c-3.7-3.5-9.4-7.9-15.5-10.9c-3.1-1.5-25.8-16.3-29.1-18.4c-3.3-2.1-7.7-1.3-10.6,0.4
		c-2.8,1.6-3.1,6.4-1.7,9.1c2.9,5.9,15.7,14.1,22.2,17.6l3,3.1c0,0-2.4-0.1-4-0.1c-1.5,0.1-3-0.1-5.2,3.5C42.3,67.6,44,73,44,73
		l0.2,0.7l-0.6,0.5c-0.1,0.1-7.7,6.5-7.1,12.3c0.5,4.8,4,7.4,4.8,7.9c0.1,0,0.1,0.1,0.2,0.1l0.7,0.4l-0.5,1.7l-0.8-0.1
		c-0.1,0-0.1,0-0.2-0.1C40.1,96.5,38.7,97.7,37.7,99.3z"/>
	<path id="XMLID_2546_" d="M66.9,89.1c-2,3.2-5,4.6-7.8,5.3c-2.5,0.6-4.8,0.2-6.7-1c-2.1-1.3-3.6-3.7-4.1-6.4c-0.8-4-2.8-9.5-4-11.2
		c-1.4-1.8-2.5-3.5-2.5-3.5s1.3-5.3,1.8-2.9s1.1,3.3,2.4,5.1c1.6,2.1,3.7,8.1,4.4,12.1c0.3,1.6,1.3,3.8,3.2,5
		c1.4,0.9,3.1,1.2,5.1,0.7c5.8-1.3,8.5-5.6,8.2-12.5c-0.3-7.3-7.5-13.6-7.5-13.7l0,0c0.4,0.2,9.3,5.2,9.6,13.6
		C69.1,83.9,68.2,86.9,66.9,89.1z"/>
	<path id="XMLID_2545_" d="M62.9,103.1c-1.2,2-3.1,3.3-5.7,4.1c-7.2,2.2-10-3.8-11.2-6.4c-0.1-0.3-0.2-0.5-0.3-0.7
		c-0.5-0.9-3.4-2.9-5.3-4l1.1-1.8c0.8,0.5,5.1,3,6.1,4.8c0.1,0.2,0.2,0.5,0.4,0.8c1.6,3.3,3.7,6.8,8.7,5.3c2.3-0.7,3.9-2,4.8-3.7
		c1.9-3.7,0.3-8.5,0.3-8.5l2-0.7c0.1,0.2,1.9,5.7-0.4,10.2C63.1,102.7,63,102.9,62.9,103.1z"/>
	<path id="XMLID_2539_" d="M63.9,117.4c-0.9,1.4-1.9,2-2,2.1l-1-1.8c0.1,0,2.3-1.4,2.2-5.4c-0.1-4.1-3.8-6.2-3.9-6.2l1-1.8
		c0.2,0.1,4.8,2.7,5,8C65.3,114.6,64.7,116.3,63.9,117.4z"/>
	<path id="XMLID_2534_" d="M96.4,79.5c0.2-3.9,0.7-5.6,1.6-8.5c0.8-2.5,1.1,2.1,1.1,2.1c0,0-0.8,3.8-1,7.6
		C97.9,84.3,96.2,84.8,96.4,79.5z"/>
	<path id="XMLID_57_" d="M85.4,114.4l0.3,0.5c-0.4-0.4-9.1-10.2,1-29c5.5-10.3,10.1-9.9,10.6-12.8l0.1,1.5l0.2,3.3c0,0-4.1-0.1-9,9
		C79.2,104.4,85,113.5,85.4,114.4z"/>
	<path id="XMLID_56_" d="M114.8,109.1c-0.7,1.1-2.7,4.3-5.9,7.4c-8.8,8.7-16.9,3.8-17.3,3.8c0,0,10.2,1.3,15.4-4.3
		c4.8-5.1,6.4-8.4,6.5-8.5l0.6,0.3l1.1-0.5C115.4,107.7,115.5,108,114.8,109.1z"/>
	<path id="XMLID_2521_" d="M93.5,125.8c-0.1,0.1-1.7,2.4-4.2,3.9c-3,1.8-7,1.5-7.2,1.5l0.3-2.1c0,0,4.6,0.6,7-0.8
		c2.1-1.2,3.6-2.4,3.6-2.4L93.5,125.8z"/>
	<path id="XMLID_2560_" d="M72.5,72.4c-0.1-0.1-2.8-1.5-5.2-3.3c-1.7-1.3-3.2-2.3-4.5-3.1C62,65.5,50,58.3,50,58.3l1-1.4
		c0,0,12.1,7,12.9,7.4c1.4,0.8,8.6,6,11.5,5.1L72.5,72.4z"/>
</g>
</svg>
