<?xml version="1.0" encoding="utf-8"?>
<!-- Generator: Adobe Illustrator 19.1.0, SVG Export Plug-In . SVG Version: 6.00 Build 0)  -->
<!DOCTYPE svg PUBLIC "-//W3C//DTD SVG 1.1//EN" "http://www.w3.org/Graphics/SVG/1.1/DTD/svg11.dtd">
<svg version="1.1" id="Layer_1" xmlns="http://www.w3.org/2000/svg" xmlns:xlink="http://www.w3.org/1999/xlink" x="0px" y="0px"
	 viewBox="155 -161 350 350" style="enable-background:new 155 -161 350 350;" xml:space="preserve">
<style type="text/css">
	.st0{fill:#97999C;}
	.st1{fill:#BCBEC5;}
	.st2{fill:#E2E9E9;}
</style>
<g id="XMLID_55_">
	<path id="XMLID_1419_" class="st0" d="M330.4,2.6h-0.9c-36,0-65.2-29.2-65.2-65.2v-33.2c0-36,29.2-65.2,65.2-65.2h0.9
		c36,0,65.2,29.2,65.2,65.2v33.2C395.6-26.6,366.3,2.6,330.4,2.6z M329.4-135.3c-21.8,0-39.5,17.7-39.5,39.5v33.2
		c0,21.8,17.7,39.5,39.5,39.5h0.9c21.8,0,39.5-17.7,39.5-39.5v-33.2c0-21.8-17.7-39.5-39.5-39.5
		C330.3-135.3,329.4-135.3,329.4-135.3z"/>
	<path id="XMLID_1422_" class="st1" d="M329.4-2.1c-33.4,0-60.5-27.1-60.5-60.5v-33.2c0-33.4,27.1-60.5,60.5-60.5h0.9
		c33.4,0,60.5,27.1,60.5,60.5v33.2c0,33.4-27.1,60.5-60.5,60.5H329.4z M329.4-140c-24.4,0-44.2,19.8-44.2,44.2v33.2
		c0,24.4,19.8,44.2,44.2,44.2h0.9c24.4,0,44.2-19.8,44.2-44.2v-33.2c0-24.4-19.8-44.2-44.2-44.2C330.3-140,329.4-140,329.4-140z"/>
	<path id="XMLID_1425_" class="st2" d="M329.4-2.1c-33.4,0-60.5-27.1-60.5-60.5v-33.2c0-33.4,27.1-60.5,60.5-60.5h0.9
		c33.4,0,60.5,27.1,60.5,60.5v33.2c0,33.4-27.1,60.5-60.5,60.5H329.4z M327.7-147.8c-28.3,0-51.3,22.4-51.3,49.9v37.5
		c0,27.5,23,49.9,51.3,49.9h4.3c28.3,0,51.3-22.4,51.3-49.9v-37.5c0-27.5-23-49.9-51.3-49.9C332-147.8,327.7-147.8,327.7-147.8z"/>
</g>
</svg>
