<?xml version="1.0" encoding="utf-8"?>
<!-- Generator: Adobe Illustrator 19.1.0, SVG Export Plug-In . SVG Version: 6.00 Build 0)  -->
<!DOCTYPE svg PUBLIC "-//W3C//DTD SVG 1.1//EN" "http://www.w3.org/Graphics/SVG/1.1/DTD/svg11.dtd">
<svg version="1.1" id="Layer_1" xmlns="http://www.w3.org/2000/svg" xmlns:xlink="http://www.w3.org/1999/xlink" x="0px" y="0px"
	 viewBox="155 -161 350 350" style="enable-background:new 155 -161 350 350;" xml:space="preserve">
<style type="text/css">
	.st0{fill:#C67600;}
	.st1{fill:#FFB500;}
	.st2{fill:#FFD53A;}
</style>
<path id="XMLID_1428_" class="st0" d="M429.9,70.6c0,8.1-6.6,14.7-14.7,14.7H244.5c-8.1,0-14.7-6.6-14.7-14.7V-65.1
	c0-8.1,6.6-14.7,14.7-14.7h170.7c8.1,0,14.7,6.6,14.7,14.7L429.9,70.6L429.9,70.6z"/>
<path id="XMLID_1429_" class="st1" d="M244.5,80.6c-5.5,0-10-4.5-10-10V-65.1c0-5.5,4.5-10,10-10h170.7c5.5,0,10,4.5,10,10V70.6
	c0,5.5-4.5,10-10,10H244.5z"/>
<path id="XMLID_1430_" class="st2" d="M415.2-75.1H244.5c-5.5,0-10,4.5-10,10v7.3c0-5.5,4.5-10,10-10h170.7c5.5,0,10,4.5,10,10v-7.3
	C425.2-70.6,420.8-75.1,415.2-75.1z"/>
</svg>
