<?xml version="1.0" encoding="utf-8"?>
<!-- Generator: Adobe Illustrator 19.1.0, SVG Export Plug-In . SVG Version: 6.00 Build 0)  -->
<!DOCTYPE svg PUBLIC "-//W3C//DTD SVG 1.1//EN" "http://www.w3.org/Graphics/SVG/1.1/DTD/svg11.dtd">
<svg version="1.1" id="Layer_1" xmlns="http://www.w3.org/2000/svg" xmlns:xlink="http://www.w3.org/1999/xlink" x="0px" y="0px"
	 viewBox="95 -5 350 135" style="enable-background:new 95 -5 350 135;" xml:space="preserve">
<style type="text/css">
	.st0{fill:#A9C3FF;}
	.st1{fill:#FFFFFF;}
</style>
<g id="XMLID_2295_">
	<path id="XMLID_2481_" class="st0" d="M127.7-5h251.7c18,0,32.7,14.8,32.7,32.8v7.8c0.3,5.7,1.9,16.2,8.4,25s17.9,12.2,22.4,13.2
		c-3.7-0.6-12-1-20.1,4.5c-8,5.4-10.2,13.2-10.7,18.3V97c0,0.6,0,1.3-0.1,1.9v2.8c0,0-0.1-0.6-0.1-1.5
		c-1.6,16.6-15.6,29.6-32.6,29.6H127.7C109.7,130,95,115.2,95,97.2V27.8C95,9.8,109.7-5,127.7-5z"/>
	<path id="XMLID_2483_" class="st0" d="M443,73.9c1.2,0.2,2,0.4,2,0.4S444.3,74.1,443,73.9z"/>
</g>
<g>
	<path class="st1" d="M149.7,21.7c0.2-0.8,0.9-1.3,3-1.3c2.2,0,2.7,0.6,3,1.3l5.2,13c0.2,0.4-1.1,1.5-2.6,1.5c-1,0-2.1-0.6-2.8-2.3
		l-0.4-1.2h-5l-0.4,1.2c-0.6,1.7-1.6,2.2-2.6,2.2c-1.3,0-2.6-1.1-2.5-1.5L149.7,21.7z M154.4,29.3l-1.7-4.5l-1.7,4.5H154.4z"/>
	<path class="st1" d="M167,23.9c1.5,0,2.8,0.7,3.5,1.6v-5.9c0-0.2,0.8-0.5,1.8-0.5c1.3,0,2.8,0.7,2.8,3.5v11.3c0,1.7-0.8,2.2-2,2.2
		h-0.5c-1.2,0-2-0.5-2.1-2c-0.6,1.3-1.9,2.2-3.5,2.2c-3.3,0-5.4-2.6-5.4-6.3C161.5,26.3,163.7,23.9,167,23.9z M168.2,32.8
		c1.3,0,2.2-0.8,2.2-2.1v-1.9c-0.4-0.8-1.1-1.4-2.2-1.4c-1.4,0-2.4,1-2.4,2.7C165.9,31.7,166.8,32.8,168.2,32.8z"/>
	<path class="st1" d="M182.1,23.9c1.5,0,2.8,0.7,3.5,1.6v-5.9c0-0.2,0.8-0.5,1.8-0.5c1.3,0,2.8,0.7,2.8,3.5v11.3
		c0,1.7-0.8,2.2-2,2.2h-0.5c-1.2,0-2-0.5-2.1-2c-0.6,1.3-1.9,2.2-3.5,2.2c-3.3,0-5.4-2.6-5.4-6.3C176.6,26.3,178.8,23.9,182.1,23.9z
		 M183.3,32.8c1.3,0,2.2-0.8,2.2-2.1v-1.9c-0.4-0.8-1.1-1.4-2.2-1.4c-1.4,0-2.4,1-2.4,2.7C181,31.7,181.9,32.8,183.3,32.8z"/>
	<path class="st1" d="M203,28.7h0.5c-0.1-1-0.7-1.6-1.8-1.6c-1.5,0-2.1,0.9-2.4,1.6c0,0.1-3,0.2-3-1.8c0-1.9,1.8-3,5.7-3
		c4.3,0,6.1,1.7,6.1,5.1v6.8c0,0.2-0.9,0.5-1.8,0.5c-1.3,0-2.2-0.6-2.6-1.9c-0.8,1.2-2.3,1.9-4,1.9c-2.4,0-4-1.4-4-3.5
		C195.8,30,198,28.7,203,28.7z M201.5,33.4c1.2,0,2-0.8,2-2V31H203c-1.8,0-2.8,0.4-2.8,1.3C200.1,33,200.7,33.4,201.5,33.4z"/>
	<path class="st1" d="M214.2,24.5c0-0.2,0.8-0.5,1.8-0.5c1.1,0,2.3,0.5,2.7,2.2c0.6-1.4,1.9-2.3,3.6-2.3c3.3,0,5.4,2.4,5.4,6.2
		c0,3.7-2.2,6.3-5.4,6.3c-1.6,0-2.9-0.9-3.5-2.1v4.2c0,1.7-0.9,2.2-2,2.2h-0.5c-1.2,0-2.1-0.5-2.1-2.2V24.5z M221,32.8
		c1.4,0,2.4-1.1,2.4-2.7c0-1.6-0.9-2.7-2.3-2.7c-1.1,0-1.8,0.6-2.2,1.4v1.8C218.7,32,219.7,32.8,221,32.8z"/>
	<path class="st1" d="M236,28.7h0.5c-0.1-1-0.7-1.6-1.8-1.6c-1.5,0-2.1,0.9-2.4,1.6c0,0.1-3,0.2-3-1.8c0-1.9,1.8-3,5.7-3
		c4.3,0,6.1,1.7,6.1,5.1v6.8c0,0.2-0.9,0.5-1.8,0.5c-1.3,0-2.2-0.6-2.6-1.9c-0.8,1.2-2.3,1.9-4,1.9c-2.4,0-4-1.4-4-3.5
		C228.7,30,230.9,28.7,236,28.7z M234.5,33.4c1.2,0,2-0.8,2-2V31h-0.6c-1.8,0-2.8,0.4-2.8,1.3C233.1,33,233.6,33.4,234.5,33.4z"/>
	<path class="st1" d="M243.5,31.8c0.8,0.8,2.2,1.4,3.8,1.4c1,0,1.5-0.1,1.5-0.6c0-0.6-0.8-0.6-1.9-0.9c-1.5-0.3-4.2-0.9-4.2-3.8
		c0-2.4,2-4,5.2-4c3.4,0,5.1,1,5.1,2.7c0,1.1-1.2,1.9-1.3,1.8c-0.9-0.9-2.2-1.5-3.5-1.5c-0.9,0-1.4,0.1-1.4,0.6
		c0,0.6,0.8,0.6,2.1,0.8c1.5,0.3,4.4,0.9,4.4,3.8c0,2.5-2.1,4-5.6,4c-3.7,0-5.3-1-5.3-2.7C242.3,32.5,243.4,31.7,243.5,31.8z"/>
	<path class="st1" d="M255.4,31.8c0.8,0.8,2.2,1.4,3.8,1.4c1,0,1.5-0.1,1.5-0.6c0-0.6-0.8-0.6-1.9-0.9c-1.5-0.3-4.2-0.9-4.2-3.8
		c0-2.4,2-4,5.2-4c3.4,0,5.1,1,5.1,2.7c0,1.1-1.2,1.9-1.3,1.8c-0.9-0.9-2.2-1.5-3.5-1.5c-0.9,0-1.4,0.1-1.4,0.6
		c0,0.6,0.8,0.6,2.1,0.8c1.5,0.3,4.4,0.9,4.4,3.8c0,2.5-2.1,4-5.6,4c-3.7,0-5.3-1-5.3-2.7C254.2,32.5,255.3,31.7,255.4,31.8z"/>
	<path class="st1" d="M265.9,25.3c-0.1-0.3,1.5-1.3,2.8-1.3c0.9,0,1.8,0.4,2.1,1.8l1,5.7l1.5-5c0.3-0.9,1.2-1.4,2.3-1.4
		c1.1,0,1.9,0.5,2.2,1.4l1.3,4.8l1-5.4c0.2-1.3,1.2-1.8,2-1.8c1.3,0,2.9,1.1,2.8,1.3l-3.1,9.6c-0.3,1.1-1.5,1.2-2.3,1.2
		c-1.5,0-2.1-0.2-2.5-1.5l-1.5-4.6l-1.5,4.6c-0.4,1.3-1.1,1.5-2.5,1.5c-0.8,0-1.9-0.2-2.3-1.2L265.9,25.3z"/>
	<path class="st1" d="M291.9,23.9c3.9,0,6.5,2.5,6.5,6.2c0,3.8-2.6,6.2-6.5,6.2c-3.9,0-6.5-2.4-6.5-6.3
		C285.4,26.4,288,23.9,291.9,23.9z M291.9,32.8c1.5,0,2.6-1.2,2.6-2.7c0-1.6-1.1-2.8-2.6-2.8c-1.5,0-2.6,1.2-2.6,2.7
		C289.3,31.7,290.3,32.8,291.9,32.8z"/>
	<path class="st1" d="M300,24.5c0-0.2,0.8-0.5,1.8-0.5c1.1,0,2.2,0.5,2.6,2.1c0.5-1.3,1.4-2.2,2.9-2.2c1.5,0,2.5,1,2.5,2.5
		c0,1.8-1.5,2.5-1.5,2.4c-0.4-0.4-1-0.6-1.7-0.6c-1.4,0-2,1-2,2.9v2.8c0,1.7-0.9,2.2-2,2.2H302c-1.2,0-2.1-0.5-2.1-2.2V24.5z"/>
	<path class="st1" d="M315.9,23.9c1.5,0,2.8,0.7,3.5,1.6v-5.9c0-0.2,0.8-0.5,1.8-0.5c1.3,0,2.8,0.7,2.8,3.5v11.3
		c0,1.7-0.8,2.2-2,2.2h-0.5c-1.2,0-2-0.5-2.1-2c-0.6,1.3-1.9,2.2-3.5,2.2c-3.3,0-5.4-2.6-5.4-6.3C310.4,26.3,312.6,23.9,315.9,23.9z
		 M317.1,32.8c1.3,0,2.2-0.8,2.2-2.1v-1.9c-0.4-0.8-1.1-1.4-2.2-1.4c-1.4,0-2.4,1-2.4,2.7C314.8,31.7,315.8,32.8,317.1,32.8z"/>
	<path class="st1" d="M331.4,27.6h-0.3c-1.2,0-1.9-0.6-1.9-1.6v-0.3c0-1.1,0.6-1.7,1.9-1.7h0.3v-1.2c0-1.5,0.7-2.2,2.1-2.2h0.4
		c1.2,0,2.1,0.5,2.1,2.2v1.2h1.4c1.2,0,1.8,0.5,1.8,1.6v0.3c0,1.1-0.6,1.7-1.8,1.7h-1.4v4c0,0.8,0.3,1.2,1,1.2c0.6,0,1-0.3,1.3-0.7
		c0.1-0.1,1,0.5,1,1.7c0,1.5-1.4,2.6-3.6,2.6c-2.8,0-4.2-1.4-4.2-4.3V27.6z"/>
	<path class="st1" d="M346.4,23.9c3.9,0,6.5,2.5,6.5,6.2c0,3.8-2.6,6.2-6.5,6.2c-3.9,0-6.5-2.4-6.5-6.3
		C339.8,26.4,342.4,23.9,346.4,23.9z M346.3,32.8c1.5,0,2.6-1.2,2.6-2.7c0-1.6-1.1-2.8-2.6-2.8s-2.6,1.2-2.6,2.7
		C343.7,31.7,344.8,32.8,346.3,32.8z"/>
	<path class="st1" d="M136,52.6c0-0.2,0.8-0.5,1.8-0.5c1.3,0,2.8,0.7,2.8,3.5v6.3l2.4-3.6c0.6-1,1.6-1.4,2.4-1.4
		c1.4,0,2.6,1.2,2.5,1.4l-3.2,4.5l3.5,4.9c0.1,0.2-1.2,1.4-2.5,1.4c-0.8,0-1.8-0.4-2.5-1.4l-2.6-3.7v2.8c0,1.7-0.9,2.2-2,2.2h-0.5
		c-1.2,0-2.1-0.5-2.1-2.2V52.6z"/>
	<path class="st1" d="M155,56.9c3.6,0,6.2,2.5,6.2,5.9v0.3c0,0.7-0.2,1.2-0.9,1.2h-7.5c0.3,1.2,1.3,1.9,2.8,1.9
		c1.4,0,2.4-0.7,2.9-1.5c0,0,2.1,0.2,2.1,1.9c0,1.6-1.8,2.8-5.2,2.8c-4.1,0-6.6-2.3-6.6-6.1C148.6,59.5,151.3,56.9,155,56.9z
		 M157,61.9c0-1.2-0.8-2-2.1-2c-1.2,0-2.1,0.9-2.3,2H157z"/>
	<path class="st1" d="M168.5,56.9c3.6,0,6.2,2.5,6.2,5.9v0.3c0,0.7-0.2,1.2-0.9,1.2h-7.5c0.3,1.2,1.3,1.9,2.8,1.9
		c1.4,0,2.4-0.7,2.9-1.5c0,0,2.1,0.2,2.1,1.9c0,1.6-1.8,2.8-5.2,2.8c-4.1,0-6.6-2.3-6.6-6.1C162.1,59.5,164.8,56.9,168.5,56.9z
		 M170.5,61.9c0-1.2-0.8-2-2.1-2c-1.2,0-2.1,0.9-2.3,2H170.5z"/>
	<path class="st1" d="M176.2,57.5c0-0.2,0.8-0.5,1.8-0.5c1.1,0,2.3,0.5,2.7,2.2c0.6-1.4,1.9-2.3,3.6-2.3c3.3,0,5.4,2.4,5.4,6.2
		c0,3.7-2.2,6.3-5.4,6.3c-1.6,0-2.9-0.9-3.5-2.1v4.2c0,1.7-0.9,2.2-2,2.2h-0.5c-1.2,0-2.1-0.5-2.1-2.2V57.5z M183,65.8
		c1.4,0,2.4-1.1,2.4-2.7c0-1.6-0.9-2.7-2.3-2.7c-1.1,0-1.8,0.6-2.2,1.4v1.8C180.8,65,181.7,65.8,183,65.8z"/>
	<path class="st1" d="M194.5,58.3c-0.1-0.2,1.2-1.3,2.6-1.3c1,0,1.9,0.5,2.4,2.1l1.8,5.2l1.7-5.2c0.5-1.6,1.4-2.1,2.4-2.1
		c1.3,0,2.6,1.1,2.5,1.3l-5.2,13.2c-0.6,1.5-1.5,2-2.4,2c-1.3,0-2.6-1-2.5-1.3l2-4.1c-0.6-0.1-1-0.4-1.2-0.9L194.5,58.3z"/>
	<path class="st1" d="M214.5,56.9c3.9,0,6.5,2.5,6.5,6.2c0,3.8-2.6,6.2-6.5,6.2c-3.9,0-6.5-2.4-6.5-6.3
		C208,59.4,210.6,56.9,214.5,56.9z M214.5,65.8c1.5,0,2.6-1.2,2.6-2.7c0-1.6-1.1-2.8-2.6-2.8s-2.6,1.2-2.6,2.7
		C211.9,64.7,213,65.8,214.5,65.8z"/>
	<path class="st1" d="M222.5,59.2c0-1.7,0.8-2.2,2-2.2h0.5c1.2,0,2.1,0.5,2.1,2.2v4.6c0,1.1,0.6,1.8,1.6,1.8c0.8,0,1.4-0.4,1.8-0.9
		v-5.4c0-1.7,0.9-2.2,2-2.2h0.5c1.2,0,2.1,0.5,2.1,2.2v9.4c0,0.1-0.8,0.5-1.8,0.5c-1.1,0-2.2-0.4-2.6-2c-0.8,1.3-2,2.2-3.9,2.2
		c-3.1,0-4.2-2.3-4.2-4.7V59.2z"/>
	<path class="st1" d="M237.1,57.5c0-0.2,0.8-0.5,1.8-0.5c1.1,0,2.2,0.5,2.6,2.1c0.5-1.3,1.4-2.2,2.9-2.2c1.5,0,2.5,1,2.5,2.5
		c0,1.8-1.5,2.5-1.5,2.4c-0.4-0.4-1-0.6-1.7-0.6c-1.4,0-2,1-2,2.9v2.8c0,1.7-0.9,2.2-2,2.2h-0.5c-1.2,0-2.1-0.5-2.1-2.2V57.5z"/>
	<path class="st1" d="M252.4,57.5c0-0.2,0.8-0.5,1.8-0.5c1.1,0,2.3,0.5,2.7,2.2c0.6-1.4,1.9-2.3,3.6-2.3c3.3,0,5.4,2.4,5.4,6.2
		c0,3.7-2.2,6.3-5.4,6.3c-1.6,0-2.9-0.9-3.5-2.1v4.2c0,1.7-0.9,2.2-2,2.2h-0.5c-1.2,0-2.1-0.5-2.1-2.2V57.5z M259.2,65.8
		c1.4,0,2.4-1.1,2.4-2.7c0-1.6-0.9-2.7-2.3-2.7c-1.1,0-1.8,0.6-2.2,1.4v1.8C257,65,257.9,65.8,259.2,65.8z"/>
	<path class="st1" d="M267.6,52.6c0-0.2,0.8-0.5,1.8-0.5c1.3,0,2.8,0.7,2.8,3.5v11.3c0,1.7-0.8,2.2-2,2.2h-0.5
		c-1.2,0-2.1-0.5-2.1-2.2V52.6z"/>
	<path class="st1" d="M281.1,61.7h0.5c-0.1-1-0.7-1.6-1.8-1.6c-1.5,0-2.1,0.9-2.4,1.6c0,0.1-3,0.2-3-1.8c0-1.9,1.8-3,5.7-3
		c4.3,0,6.1,1.7,6.1,5.1v6.8c0,0.2-0.9,0.5-1.8,0.5c-1.3,0-2.2-0.6-2.6-1.9c-0.8,1.2-2.3,1.9-4,1.9c-2.4,0-4-1.4-4-3.5
		C273.8,63,276.1,61.7,281.1,61.7z M279.6,66.4c1.2,0,2-0.8,2-2V64H281c-1.8,0-2.8,0.4-2.8,1.3C278.2,66,278.7,66.4,279.6,66.4z"/>
	<path class="st1" d="M287.1,58.3c-0.1-0.2,1.2-1.3,2.6-1.3c1,0,1.9,0.5,2.4,2.1l1.8,5.2l1.7-5.2c0.5-1.6,1.4-2.1,2.4-2.1
		c1.3,0,2.6,1.1,2.5,1.3l-5.2,13.2c-0.6,1.5-1.5,2-2.4,2c-1.3,0-2.6-1-2.5-1.3l2-4.1c-0.6-0.1-1-0.4-1.2-0.9L287.1,58.3z"/>
	<path class="st1" d="M302,64.8c0.8,0.8,2.2,1.4,3.8,1.4c1,0,1.5-0.1,1.5-0.6c0-0.6-0.8-0.6-1.9-0.9c-1.5-0.3-4.2-0.9-4.2-3.8
		c0-2.4,2-4,5.2-4c3.4,0,5.1,1,5.1,2.7c0,1.1-1.2,1.9-1.3,1.8c-0.9-0.9-2.2-1.5-3.5-1.5c-0.9,0-1.4,0.1-1.4,0.6
		c0,0.6,0.8,0.6,2.1,0.8c1.5,0.3,4.4,0.9,4.4,3.8c0,2.5-2.1,4-5.6,4c-3.7,0-5.3-1-5.3-2.7C300.9,65.5,302,64.7,302,64.8z"/>
	<path class="st1" d="M313.4,57.5c0-0.2,0.8-0.5,1.8-0.5c1.1,0,2.3,0.5,2.7,2.2c0.6-1.4,1.9-2.3,3.6-2.3c3.3,0,5.4,2.4,5.4,6.2
		c0,3.7-2.2,6.3-5.4,6.3c-1.6,0-2.9-0.9-3.5-2.1v4.2c0,1.7-0.9,2.2-2,2.2h-0.5c-1.2,0-2.1-0.5-2.1-2.2V57.5z M320.2,65.8
		c1.4,0,2.4-1.1,2.4-2.7c0-1.6-0.9-2.7-2.3-2.7c-1.1,0-1.8,0.6-2.2,1.4v1.8C318,65,318.9,65.8,320.2,65.8z"/>
	<path class="st1" d="M335.3,61.7h0.5c-0.1-1-0.7-1.6-1.8-1.6c-1.5,0-2.1,0.9-2.4,1.6c0,0.1-3,0.2-3-1.8c0-1.9,1.8-3,5.7-3
		c4.3,0,6.1,1.7,6.1,5.1v6.8c0,0.2-0.9,0.5-1.8,0.5c-1.3,0-2.2-0.6-2.6-1.9c-0.8,1.2-2.3,1.9-4,1.9c-2.4,0-4-1.4-4-3.5
		C328,63,330.2,61.7,335.3,61.7z M333.7,66.4c1.2,0,2-0.8,2-2V64h-0.6c-1.8,0-2.8,0.4-2.8,1.3C332.3,66,332.9,66.4,333.7,66.4z"/>
	<path class="st1" d="M348.1,56.9c3.8,0,5.1,2,5.1,3.2c0,1.8-2.4,2.1-2.4,2c-0.4-0.9-1.1-1.6-2.4-1.6c-1.4,0-2.5,1.1-2.5,2.6
		c0,1.6,1,2.7,2.5,2.7c1.2,0,2-0.6,2.4-1.6c0.1-0.2,2.4,0.1,2.4,2c0,1.2-1.4,3.1-5.1,3.1c-3.8,0-6.3-2.5-6.3-6.3
		C341.8,59.5,344.4,56.9,348.1,56.9z"/>
	<path class="st1" d="M360.4,56.9c3.6,0,6.2,2.5,6.2,5.9v0.3c0,0.7-0.2,1.2-0.9,1.2h-7.5c0.3,1.2,1.3,1.9,2.8,1.9
		c1.4,0,2.4-0.7,2.9-1.5c0,0,2.1,0.2,2.1,1.9c0,1.6-1.8,2.8-5.2,2.8c-4.1,0-6.6-2.3-6.6-6.1C354.1,59.5,356.7,56.9,360.4,56.9z
		 M362.4,61.9c0-1.2-0.8-2-2.1-2c-1.2,0-2.1,0.9-2.3,2H362.4z"/>
	<path class="st1" d="M160.5,97.8c0.8,0.8,2.2,1.4,3.8,1.4c1,0,1.5-0.1,1.5-0.6c0-0.6-0.8-0.6-1.9-0.9c-1.5-0.3-4.2-0.9-4.2-3.8
		c0-2.4,2-4,5.2-4c3.4,0,5.1,1,5.1,2.7c0,1.1-1.2,1.9-1.3,1.8c-0.9-0.9-2.2-1.5-3.5-1.5c-0.9,0-1.4,0.1-1.4,0.6
		c0,0.6,0.8,0.6,2.1,0.8c1.5,0.3,4.4,0.9,4.4,3.8c0,2.5-2.1,4-5.6,4c-3.7,0-5.3-1-5.3-2.7C159.3,98.5,160.4,97.7,160.5,97.8z"/>
	<path class="st1" d="M178.6,94.7h0.5c-0.1-1-0.7-1.6-1.8-1.6c-1.5,0-2.1,0.9-2.4,1.6c0,0.1-3,0.2-3-1.8c0-1.9,1.8-3,5.7-3
		c4.3,0,6.1,1.7,6.1,5.1v6.8c0,0.2-0.9,0.5-1.8,0.5c-1.3,0-2.2-0.6-2.6-1.9c-0.8,1.2-2.3,1.9-4,1.9c-2.4,0-4-1.4-4-3.5
		C171.3,96,173.6,94.7,178.6,94.7z M177.1,99.4c1.2,0,2-0.8,2-2V97h-0.6c-1.8,0-2.8,0.4-2.8,1.3C175.7,99,176.3,99.4,177.1,99.4z"/>
	<path class="st1" d="M186.9,93.6h-0.5c-1.2,0-1.9-0.6-1.9-1.7v-0.3c0-1,0.6-1.6,1.9-1.6h0.5v-0.3c0-3.7,1.9-4.8,4.5-4.8
		c2.4,0,3.4,1,3.4,2.2c0,1-0.8,1.8-0.9,1.8c-0.3-0.3-0.8-0.6-1.5-0.6c-0.8,0-1.2,0.3-1.2,1.3v0.4h1c1.2,0,1.9,0.6,1.9,1.7V92
		c0,1-0.6,1.6-1.9,1.6h-0.8v6.3c0,1.7-0.8,2.2-2.1,2.2H189c-1.2,0-2.1-0.6-2.1-2.2V93.6z"/>
	<path class="st1" d="M201,89.9c3.6,0,6.2,2.5,6.2,5.9v0.3c0,0.7-0.2,1.2-0.9,1.2h-7.5c0.3,1.2,1.3,1.9,2.8,1.9
		c1.4,0,2.4-0.7,2.9-1.5c0,0,2.1,0.2,2.1,1.9c0,1.6-1.8,2.8-5.2,2.8c-4.1,0-6.6-2.3-6.6-6.1C194.6,92.5,197.3,89.9,201,89.9z
		 M203,94.9c0-1.2-0.8-2-2.1-2c-1.2,0-2.1,0.9-2.3,2H203z"/>
	<path class="st1" d="M219.5,94.7h0.5c-0.1-1-0.7-1.6-1.8-1.6c-1.5,0-2.1,0.9-2.4,1.6c0,0.1-3,0.2-3-1.8c0-1.9,1.8-3,5.7-3
		c4.3,0,6.1,1.7,6.1,5.1v6.8c0,0.2-0.9,0.5-1.8,0.5c-1.3,0-2.2-0.6-2.6-1.9c-0.8,1.2-2.3,1.9-4,1.9c-2.4,0-4-1.4-4-3.5
		C212.2,96,214.4,94.7,219.5,94.7z M218,99.4c1.2,0,2-0.8,2-2V97h-0.6c-1.8,0-2.8,0.4-2.8,1.3C216.6,99,217.1,99.4,218,99.4z"/>
	<path class="st1" d="M226.5,90.5c0-0.2,0.8-0.5,1.8-0.5c1.1,0,2.2,0.5,2.6,2.1c0.8-1.3,2-2.2,3.9-2.2c3.1,0,4.2,2.2,4.2,4.7v5.3
		c0,1.7-0.8,2.2-2,2.2h-0.5c-1.2,0-2.1-0.5-2.1-2.2v-4.5c0-1.1-0.6-1.8-1.5-1.8c-0.8,0-1.4,0.4-1.8,1v5.3c0,1.7-0.9,2.2-2,2.2h-0.5
		c-1.2,0-2.1-0.5-2.1-2.2V90.5z"/>
	<path class="st1" d="M246,89.9c1.5,0,2.8,0.7,3.5,1.6v-5.9c0-0.2,0.8-0.5,1.8-0.5c1.3,0,2.8,0.7,2.8,3.5v11.3c0,1.7-0.8,2.2-2,2.2
		h-0.5c-1.2,0-2-0.5-2.1-2c-0.6,1.3-1.9,2.2-3.5,2.2c-3.3,0-5.4-2.6-5.4-6.3C240.5,92.3,242.7,89.9,246,89.9z M247.3,98.8
		c1.3,0,2.2-0.8,2.2-2.1v-1.9c-0.4-0.8-1.1-1.4-2.2-1.4c-1.4,0-2.4,1-2.4,2.7C244.9,97.7,245.9,98.8,247.3,98.8z"/>
	<path class="st1" d="M260.7,97.8c0.8,0.8,2.2,1.4,3.8,1.4c1,0,1.5-0.1,1.5-0.6c0-0.6-0.8-0.6-1.9-0.9c-1.5-0.3-4.2-0.9-4.2-3.8
		c0-2.4,2-4,5.2-4c3.4,0,5.1,1,5.1,2.7c0,1.1-1.2,1.9-1.3,1.8c-0.9-0.9-2.2-1.5-3.5-1.5c-0.9,0-1.4,0.1-1.4,0.6
		c0,0.6,0.8,0.6,2.1,0.8c1.5,0.3,4.4,0.9,4.4,3.8c0,2.5-2.1,4-5.6,4c-3.7,0-5.3-1-5.3-2.7C259.5,98.5,260.6,97.7,260.7,97.8z"/>
	<path class="st1" d="M277.9,89.9c3.6,0,6.2,2.5,6.2,5.9v0.3c0,0.7-0.2,1.2-0.9,1.2h-7.5c0.3,1.2,1.3,1.9,2.8,1.9
		c1.4,0,2.4-0.7,2.9-1.5c0,0,2.1,0.2,2.1,1.9c0,1.6-1.8,2.8-5.2,2.8c-4.1,0-6.6-2.3-6.6-6.1C271.5,92.5,274.2,89.9,277.9,89.9z
		 M279.9,94.9c0-1.2-0.8-2-2.1-2c-1.2,0-2.1,0.9-2.3,2H279.9z"/>
	<path class="st1" d="M291.4,89.9c3.8,0,5.1,2,5.1,3.2c0,1.8-2.4,2.1-2.4,2c-0.4-0.9-1.1-1.6-2.4-1.6c-1.4,0-2.5,1.1-2.5,2.6
		c0,1.6,1,2.7,2.5,2.7c1.2,0,2-0.6,2.4-1.6c0.1-0.2,2.4,0.1,2.4,2c0,1.2-1.4,3.1-5.1,3.1c-3.8,0-6.3-2.5-6.3-6.3
		C285,92.5,287.7,89.9,291.4,89.9z"/>
	<path class="st1" d="M297.7,92.2c0-1.7,0.8-2.2,2-2.2h0.5c1.2,0,2.1,0.5,2.1,2.2v4.6c0,1.1,0.6,1.8,1.6,1.8c0.8,0,1.4-0.4,1.8-0.9
		v-5.4c0-1.7,0.9-2.2,2-2.2h0.5c1.2,0,2.1,0.5,2.1,2.2v9.4c0,0.1-0.8,0.5-1.8,0.5c-1.1,0-2.2-0.4-2.6-2c-0.8,1.3-2,2.2-3.9,2.2
		c-3.1,0-4.2-2.3-4.2-4.7V92.2z"/>
	<path class="st1" d="M312.4,90.5c0-0.2,0.8-0.5,1.8-0.5c1.1,0,2.2,0.5,2.6,2.1c0.5-1.3,1.4-2.2,2.9-2.2c1.5,0,2.5,1,2.5,2.5
		c0,1.8-1.5,2.5-1.5,2.4c-0.4-0.4-1-0.6-1.7-0.6c-1.4,0-2,1-2,2.9v2.8c0,1.7-0.9,2.2-2,2.2h-0.5c-1.2,0-2.1-0.5-2.1-2.2V90.5z"/>
	<path class="st1" d="M329.2,89.9c3.6,0,6.2,2.5,6.2,5.9v0.3c0,0.7-0.2,1.2-0.9,1.2h-7.5c0.3,1.2,1.3,1.9,2.8,1.9
		c1.4,0,2.4-0.7,2.9-1.5c0,0,2.1,0.2,2.1,1.9c0,1.6-1.8,2.8-5.2,2.8c-4.1,0-6.6-2.3-6.6-6.1C322.9,92.5,325.5,89.9,329.2,89.9z
		 M331.2,94.9c0-1.2-0.8-2-2.1-2c-1.2,0-2.1,0.9-2.3,2H331.2z"/>
	<path class="st1" d="M338,95.4l-1.2-6.3c-0.5-1.8,0.6-2.9,2.3-2.9h0.6c1.8,0,2.9,1.2,2.4,2.9l-1.2,6.3c-0.3,1-0.6,1.4-1.2,1.4h-0.5
		C338.6,96.8,338.3,96.4,338,95.4z M337.2,99.9c0-1.3,0.6-1.9,1.9-1.9h0.6c1.4,0,2,0.6,2,1.9v0.4c0,1.3-0.6,1.9-2,1.9h-0.6
		c-1.3,0-1.9-0.6-1.9-1.9V99.9z"/>
</g>
</svg>
