<?xml version="1.0" encoding="utf-8"?>
<!-- Generator: Adobe Illustrator 19.0.0, SVG Export Plug-In . SVG Version: 6.00 Build 0)  -->
<!DOCTYPE svg PUBLIC "-//W3C//DTD SVG 1.1//EN" "http://www.w3.org/Graphics/SVG/1.1/DTD/svg11.dtd">
<svg version="1.1" id="Layer_1" xmlns="http://www.w3.org/2000/svg" xmlns:xlink="http://www.w3.org/1999/xlink" x="0px" y="0px"
	 viewBox="0 0 350 350" style="enable-background:new 0 0 350 350;" xml:space="preserve">
<style type="text/css">
	.st0{fill:#BCBEC5;}
	.st1{fill:#E2E9E9;}
	.st2{fill:#97999C;}
	.st3{fill:#FF54E6;}
	.st4{fill:#FF98FF;}
</style>
<g id="XMLID_53_">
	<g id="XMLID_1436_">
		<path id="XMLID_1437_" class="st0" d="M214.4,167.4c-11.1-12.3-32-8.6-39.5,4.6c-7.5-13.1-28.4-16.8-39.5-4.6
			c-13.6,15.1-15,36.2-15,36.2h49h10.9h49C229.3,203.6,228,182.5,214.4,167.4z"/>
		<path id="XMLID_1438_" class="st1" d="M153.9,164.5c0,0-12.5-0.6-20.1,16.1c-6.1,13.7-5.7,22.9-5.7,22.9H139
			c0,0-1.1-15.2,5.5-28.9C148,167.5,153.9,164.5,153.9,164.5z"/>
		<path id="XMLID_1439_" class="st1" d="M158.8,166.5c0,0-8.7,5.9-11.4,17.3c-2.4,9.9-2.4,19.6-2.4,19.6h9c0,0-0.5-8.5,1.5-20.5
			C157.1,173.8,158.8,166.5,158.8,166.5z"/>
		<path id="XMLID_1440_" class="st1" d="M165.3,171.1c0,0-3.1,6.8-3.6,16.9c-0.5,10-0.5,15.9-0.5,15.9h8.1c0,0,0.1-15.9,0.1-20.9
			S165.3,171.1,165.3,171.1z"/>
		<path id="XMLID_2528_" class="st1" d="M195.6,164.5c0,0,12.5-0.6,20.1,16.1c6.1,13.7,5.7,22.9,5.7,22.9h-10.9
			c0,0,1.1-15.2-5.5-28.9C201.5,167.5,195.6,164.5,195.6,164.5z"/>
		<path id="XMLID_2527_" class="st1" d="M190.7,166.5c0,0,8.7,5.9,11.4,17.3c2.4,9.9,2.4,19.6,2.4,19.6h-9c0,0,0.5-8.5-1.5-20.5
			C192.4,173.8,190.7,166.5,190.7,166.5z"/>
		<path id="XMLID_2526_" class="st1" d="M184.2,171.1c0,0,3.1,6.8,3.6,16.9c0.5,10,0.5,15.9,0.5,15.9h-8.1c0,0-0.1-15.9-0.1-20.9
			S184.2,171.1,184.2,171.1z"/>
		<rect id="XMLID_1404_" x="120.5" y="199.2" class="st2" width="108.3" height="4.1"/>
	</g>
	<ellipse id="XMLID_1441_" class="st3" cx="174.9" cy="158.6" rx="15" ry="13.4"/>
	<ellipse id="XMLID_1442_" class="st4" cx="169.9" cy="153.9" rx="4.9" ry="3.8"/>
</g>
</svg>
