<?xml version="1.0" encoding="utf-8"?>
<!-- Generator: Adobe Illustrator 19.0.0, SVG Export Plug-In . SVG Version: 6.00 Build 0)  -->
<!DOCTYPE svg PUBLIC "-//W3C//DTD SVG 1.1//EN" "http://www.w3.org/Graphics/SVG/1.1/DTD/svg11.dtd">
<svg version="1.1" id="Layer_1" xmlns="http://www.w3.org/2000/svg" xmlns:xlink="http://www.w3.org/1999/xlink" x="0px" y="0px"
	 viewBox="0 0 75 75" style="enable-background:new 0 0 75 75;" xml:space="preserve">
<style type="text/css">
	.st0{fill:#A62F00;}
	.st1{fill:#FFFFFF;}
</style>
<g id="XMLID_7_">
	<path id="XMLID_897_" class="st0" d="M31.5,32c-0.6,4.3-3.9,7.4-7.5,6.9c-3.4-0.5-5.6-4.2-5-8.2c0.6-4,3.7-8.1,7-7.8
		C29.4,23.2,32,27.8,31.5,32z"/>
	<path id="XMLID_899_" class="st1" d="M31,33.6c-0.5,3.5-3.2,5.9-6.2,5.5c-2.9-0.4-4.8-3.4-4.3-6.7c0.5-3.3,3.1-5.7,6-5.5
		C29.4,27.2,31.5,30.2,31,33.6z"/>
	<path id="XMLID_4_" class="st0" d="M54.6,32c-0.6,4.3-3.9,7.4-7.5,6.9c-3.4-0.5-5.6-4.2-5-8.2c0.6-4,3.7-8.1,7-7.8
		C52.6,23.2,55.2,27.8,54.6,32z"/>
	<path id="XMLID_3_" class="st1" d="M54.2,33.6c-0.5,3.5-3.2,5.9-6.2,5.5c-2.9-0.4-4.8-3.4-4.3-6.7c0.5-3.3,3.1-5.7,6-5.5
		C52.6,27.2,54.7,30.2,54.2,33.6z"/>
</g>
</svg>
