<?xml version="1.0" encoding="utf-8"?>
<!-- Generator: Adobe Illustrator 19.0.0, SVG Export Plug-In . SVG Version: 6.00 Build 0)  -->
<!DOCTYPE svg PUBLIC "-//W3C//DTD SVG 1.1//EN" "http://www.w3.org/Graphics/SVG/1.1/DTD/svg11.dtd">
<svg version="1.1" id="Layer_1" xmlns="http://www.w3.org/2000/svg" xmlns:xlink="http://www.w3.org/1999/xlink" x="0px" y="0px"
	 viewBox="0 0 75 75" style="enable-background:new 0 0 75 75;" xml:space="preserve">
<g id="XMLID_6_">
	<path id="XMLID_901_" d="M25.9,28.4c-0.2,0-0.5,0-0.7,0c0.2,0.3,0.4,0.7,0.3,1.1c-0.1,0.7-0.8,1.3-1.5,1.2
		c-0.6-0.1-1.1-0.6-1.1-1.2c-0.6,0.6-1,1.4-1.1,2.2c-0.3,2.1,1.1,3.9,3,4.2c2,0.2,3.9-1.3,4.2-3.4C29.3,30.5,27.9,28.6,25.9,28.4z"
		/>
	<path id="XMLID_2_" d="M49.1,28.4c-0.2,0-0.5,0-0.7,0c0.2,0.3,0.4,0.7,0.3,1.1c-0.1,0.7-0.8,1.3-1.5,1.2c-0.6-0.1-1.1-0.6-1.1-1.2
		c-0.6,0.6-1,1.4-1.1,2.2c-0.3,2.1,1.1,3.9,3,4.2c2,0.2,3.9-1.3,4.2-3.4C52.5,30.5,51.1,28.6,49.1,28.4z"/>
</g>
</svg>
