<?xml version="1.0" encoding="utf-8"?>
<!-- Generator: Adobe Illustrator 19.0.0, SVG Export Plug-In . SVG Version: 6.00 Build 0)  -->
<!DOCTYPE svg PUBLIC "-//W3C//DTD SVG 1.1//EN" "http://www.w3.org/Graphics/SVG/1.1/DTD/svg11.dtd">
<svg version="1.1" id="Layer_1" xmlns="http://www.w3.org/2000/svg" xmlns:xlink="http://www.w3.org/1999/xlink" x="0px" y="0px"
	 viewBox="0 0 75 75" style="enable-background:new 0 0 75 75;" xml:space="preserve">
<style type="text/css">
	.st0{fill:#B95700;}
	.st1{fill:#A62F00;}
</style>
<path id="XMLID_893_" class="st0" d="M73,38c0-3.4-1.3-6.6-3.2-8.4c0.9-2.5,0.6-6-1.1-9c-1.6-3-4.3-5.1-7-5.7
	c-0.5-2.7-2.4-5.5-5.4-7.4c-3.2-2-6.8-2.4-9.5-1.4c-1.8-2.4-5.2-4-8.9-4.1c-3.5-0.1-6.7,1.3-8.5,3.4c-2.7-0.9-6.2-0.6-9.2,1.1
	c-3.1,1.7-5.2,4.5-5.7,7.2c-2.8,0.5-5.7,2.5-7.5,5.5c-1.8,3-2.2,6.5-1.3,9.2c-2.2,1.8-3.7,5-3.8,8.6c-0.1,3.6,1.3,6.8,3.5,8.7
	c-1,2.6-0.7,6.2,1,9.3c1.7,3.1,4.6,5.2,7.4,5.8c0.4,2.7,2.4,5.6,5.5,7.4c3.3,1.9,7.1,2.3,9.9,1.1c1.7,2.3,5.1,3.9,8.9,3.9
	c3.5-0.1,6.7-1.5,8.5-3.6c2.6,0.9,6,0.5,9-1.3c3-1.8,5-4.6,5.6-7.3c2.6-0.5,5.4-2.5,7.1-5.5c1.7-3,2.1-6.4,1.3-9
	C71.6,44.5,73,41.4,73,38z"/>
<g id="XMLID_895_">
	<path id="XMLID_896_" class="st1" d="M44.3,7.8c-1.2-1.7-3.6-2.9-6.3-3c-2.7,0-5.1,1.1-6.2,2.8c1.9-0.8,4-1.3,6.2-1.2
		C40.3,6.5,42.5,7,44.3,7.8z"/>
	<path id="XMLID_2594_" class="st1" d="M15.8,17c-2.1,0.1-4.5,1.6-5.9,3.9c-1.4,2.4-1.6,5.1-0.7,7c0.2-2.1,0.9-4.2,2.1-6.2
		C12.5,19.8,14.1,18.2,15.8,17z"/>
	<path id="XMLID_2593_" class="st1" d="M9.4,46.7c-1,1.9-0.9,4.6,0.4,7c1.4,2.4,3.7,3.9,5.8,4.1c-1.7-1.2-3.2-2.9-4.4-4.9
		C10.2,50.9,9.6,48.8,9.4,46.7z"/>
	<path id="XMLID_2592_" class="st1" d="M18,59.8c0,2.1,1.5,4.4,3.9,5.8c2.4,1.4,5.1,1.6,7.1,0.7c-2.1-0.2-4.2-0.9-6.2-2
		C20.8,63.1,19.2,61.5,18,59.8z"/>
	<path id="XMLID_2591_" class="st1" d="M47.4,66c1.7,0.9,4.4,0.8,6.7-0.5c2.3-1.3,3.9-3.5,4.1-5.6c-1.2,1.6-2.9,3.1-4.8,4.2
		C51.5,65.2,49.4,65.9,47.4,66z"/>
	<path id="XMLID_2590_" class="st1" d="M60.3,57.7c2-0.1,4.2-1.5,5.5-3.7c1.4-2.3,1.6-4.9,0.9-6.8c-0.3,2-1,4.1-2.1,6
		C63.5,55,62,56.6,60.3,57.7z"/>
	<path id="XMLID_2589_" class="st1" d="M67.4,44.2c1.7-1,2.9-3.3,3-6c0.1-2.6-1-5.1-2.5-6.3c0.7,1.9,1.1,4,1,6.2
		C68.9,40.4,68.3,42.4,67.4,44.2z"/>
</g>
<path id="XMLID_907_" class="st1" d="M50.7,15.1c0.1,0.6-0.4,1-1,0.9c-0.6-0.1-1.2-0.6-1.3-1.1c-0.1-0.6,0.4-1,1-0.9
	C50.1,14,50.6,14.5,50.7,15.1z"/>
<path id="XMLID_908_" class="st1" d="M37.3,12.6c0,0.4-0.4,0.8-1,0.8c-0.5,0-1-0.3-1-0.8c0-0.4,0.4-0.8,1-0.8
	C36.9,11.8,37.3,12.1,37.3,12.6z"/>
<path id="XMLID_909_" class="st1" d="M60.8,34.9c0,1.1,0.7,2,1.6,2c0.8,0,1.5-0.8,1.5-1.9c0-1-0.7-1.9-1.6-2
	C61.5,32.9,60.8,33.8,60.8,34.9z"/>
</svg>
