<?xml version="1.0" encoding="utf-8"?>
<!-- Generator: Adobe Illustrator 19.0.0, SVG Export Plug-In . SVG Version: 6.00 Build 0)  -->
<!DOCTYPE svg PUBLIC "-//W3C//DTD SVG 1.1//EN" "http://www.w3.org/Graphics/SVG/1.1/DTD/svg11.dtd">
<svg version="1.1" id="Layer_1" xmlns="http://www.w3.org/2000/svg" xmlns:xlink="http://www.w3.org/1999/xlink" x="0px" y="0px"
	 viewBox="0 0 75 75" style="enable-background:new 0 0 75 75;" xml:space="preserve">
<style type="text/css">
	.st0{fill:#A62F00;}
	.st1{fill:#6A0000;}
</style>
<path id="XMLID_2_" class="st0" d="M55.7,46H20.9c0,0,0.4,8.4,6.2,12.6c2.6,1.9,6.4,3.2,11.7,3.1c7.6-0.2,11.8-2.8,14.1-5.7
	C56.6,51.3,55.7,46,55.7,46z"/>
<path id="XMLID_905_" class="st1" d="M38.8,61.7c7.6-0.2,11.8-2.8,14.1-5.8c-0.8-4.6-4.9-8.8-10.7-9.4c-9.5-0.6-14.7,4.6-15.2,11.4
	c0,0.2,0,0.4,0,0.7C29.7,60.4,33.4,61.8,38.8,61.7z"/>
</svg>
