<?xml version="1.0" encoding="utf-8"?>
<!-- Generator: Adobe Illustrator 19.1.0, SVG Export Plug-In . SVG Version: 6.00 Build 0)  -->
<!DOCTYPE svg PUBLIC "-//W3C//DTD SVG 1.1//EN" "http://www.w3.org/Graphics/SVG/1.1/DTD/svg11.dtd">
<svg version="1.1" id="Layer_1" xmlns="http://www.w3.org/2000/svg" xmlns:xlink="http://www.w3.org/1999/xlink" x="0px" y="0px"
	 viewBox="0 0 100 100" style="enable-background:new 0 0 100 100;" xml:space="preserve">
<style type="text/css">
	.st0{fill:#B28247;}
	.st1{fill:#DBAB9A;}
	.st2{fill:#FFD7D7;}
	.st3{fill:#955D2D;}
	.st4{fill:#744104;}
</style>
<ellipse class="st0" cx="49.8" cy="65.3" rx="30.8" ry="19"/>
<circle class="st0" cx="25" cy="38.4" r="18.6"/>
<path class="st1" d="M25,53.5c-8.3,0-15.1-6.8-15.1-15.1S16.7,23.3,25,23.3c8.3,0,15.1,6.8,15.1,15.1S33.3,53.5,25,53.5z"/>
<path class="st2" d="M25,53.2c-7.3,0-13.2-5.9-13.2-13.2S17.7,26.8,25,26.8S38.2,32.7,38.2,40S32.3,53.2,25,53.2z"/>
<circle class="st0" cx="74.7" cy="38.4" r="18.6"/>
<path class="st1" d="M74.7,53.5c-8.3,0-15.1-6.8-15.1-15.1s6.8-15.1,15.1-15.1s15.1,6.8,15.1,15.1S83,53.5,74.7,53.5z"/>
<path class="st2" d="M74.7,53.2c-7.3,0-13.2-5.9-13.2-13.2s5.9-13.2,13.2-13.2c7.3,0,13.2,5.9,13.2,13.2S81.9,53.2,74.7,53.2z"/>
<path class="st0" d="M76.5,42.6c-0.3-6.1-3.7-11.5-8.6-14.5c-0.2-0.1-7.4-4.7-13.4-6.8c-0.8-0.3-1.3-0.8-1.6-1.7
	c-0.4-1.5,0.3-2.2,1-2.5c0.6-0.3,0.4-1.2-0.3-1.2c-0.4,0-0.9,0-1.5,0.2c-3.3,0.9-3.7,3.3-7.8,5.4c-5.9,2.2-12.8,6.7-13,6.8
	c-4.8,3.1-8,8.3-8.3,14.3c-0.5,10.3,7.8,18.8,18,18.8c3.2,0,6.1-0.8,8.7-2.2c2.6,1.4,5.5,2.2,8.7,2.2C68.7,61.5,77,52.9,76.5,42.6z"
	/>
<path class="st3" d="M49.7,20.3c0,0,0.2-1.4,1-2.4c0.8-1.1,2.1-1.9,1.9-1.8c-3,0.4-4.7,4.1-8.2,5.5c-5.9,2.3-12.7,6.7-12.9,6.8
	c-4.8,3.1-8,8.3-8.3,14.3c-0.2,3.9,0.9,7.5,2.9,10.6c-4.4,3.3-7,7.5-7,12c0,10.5,13.8,19,30.8,19L49.7,20.3z"/>
<path class="st2" d="M67.2,57c-1.2-0.7-2.5-1.4-3.8-1.9c3.7-2,6.2-6,6.2-10.5c0-6.6-5.4-12-12-12c-3,0-5.7,1.1-7.8,2.9
	c-2.1-1.8-4.8-2.9-7.8-2.9c-6.6,0-12,5.4-12,12c0,4.5,2.5,8.5,6.2,10.5c-1.4,0.6-2.7,1.2-3.8,1.9c-2.3,1.4-6.1,4.4-6.1,8.5
	c0,4.1,3.8,7.1,6.1,8.5c4.5,2.8,10.9,4.4,17.4,4.4s12.9-1.6,17.4-4.4c2.3-1.4,6.1-4.4,6.1-8.5C73.3,61.4,69.5,58.4,67.2,57z"/>
<path class="st1" d="M42,32.6c-6.6,0-12,5.4-12,12c0,4.5,2.5,8.5,6.2,10.5c-1.4,0.6-2.7,1.2-3.8,1.9c-2.3,1.4-6.1,4.4-6.1,8.5
	c0,4.1,3.8,7.1,6.1,8.5c4.5,2.8,10.8,4.4,17.4,4.4l-0.1-42.9C47.6,33.7,44.9,32.6,42,32.6z"/>
<g>
	<ellipse class="st4" cx="46.6" cy="56.2" rx="1.2" ry="1.5"/>
	<ellipse class="st4" cx="53" cy="56.2" rx="1.2" ry="1.5"/>
</g>
</svg>
