<?xml version="1.0" encoding="utf-8"?>
<!-- Generator: Adobe Illustrator 19.0.0, SVG Export Plug-In . SVG Version: 6.00 Build 0)  -->
<!DOCTYPE svg PUBLIC "-//W3C//DTD SVG 1.1//EN" "http://www.w3.org/Graphics/SVG/1.1/DTD/svg11.dtd">
<svg version="1.1" id="Layer_1" xmlns="http://www.w3.org/2000/svg" xmlns:xlink="http://www.w3.org/1999/xlink" x="0px" y="0px"
	 viewBox="0 0 230 230" style="enable-background:new 0 0 230 230;" xml:space="preserve">
<style type="text/css">
	.st0{fill:#FFCD17;}
	.st1{fill:#FFEC17;}
	.st2{fill:#FFFAC9;}
</style>
<path id="XMLID_1377_" class="st0" d="M205.9,44.7l-10.6,1.6l0,0l-51,7.9l-32.6-35.4l0,0L100.5,6.7C92.4-2,84.6,0.4,83,12.2l-1,7.5
	l0,0l-0.3,1.9l-1.4,10.1l0,0l-6.1,44.6L33.8,96.1l-15.5,7.6c-10.2,5-10.2,13.6,0.1,19.1l16.9,9.1l0,0l39.2,21l7.4,51.8l0,0l1.8,12.7
	c1.7,11.8,9.6,14.7,17.5,6.3l9.9-10.4l0,0l33.6-35.1l49.6,10l0,0l12.1,2.4c11.3,2.3,16.1-4.6,10.8-15.2l-7.5-14.9l0,0l-21.8-43.3
	l23.8-46.8l0,0l5.1-10C222,50.1,217.1,43,205.9,44.7z"/>
<path id="XMLID_1378_" class="st1" d="M212.4,184.7c-0.7,0.2-2.2,0.5-4.9-0.1l-64.8-13.1L97,219.4c-1.9,2-3.3,2.7-4,2.9
	c-0.8,0.3-1.1,0.1-1.2,0c-0.6-0.4-1.7-2-2.2-5.6l-9.7-67.8l-59-31.6c-3.2-1.7-4.4-3.4-4.4-4.1c0-0.7,1.2-2.4,4.4-3.9l58.8-28.8
	l9.2-67.3c0.5-3.6,1.7-5.3,2.3-5.5c0.6-0.2,2.6,0.5,5.1,3.2l46,50l64.7-10c3.5-0.5,5.4,0.2,5.8,0.7c0.4,0.6,0.4,2.7-1.2,5.9
	l-30.3,59.7l30.8,61.1c1.6,3.2,1.6,5.2,1.4,5.8C213.3,184.2,213.2,184.5,212.4,184.7L212.4,184.7z"/>
<path id="XMLID_1379_" class="st2" d="M93,222.2 M211.5,57.5c1.6-3.2,1.6-5.3,1.2-5.9c-0.4-0.6-2.3-1.3-5.8-0.7l-64.7,10l-46-50
	c-2.5-2.7-4.4-3.4-5.1-3.2c-0.6,0.2-1.8,1.9-2.3,5.5l-9.2,67.3l-58.8,28.8c-3.2,1.6-4.4,3.2-4.4,3.9c0,0.7,1.2,2.4,4.4,4.1l5.6-3.9
	l58.6-28.7l9.2-67.1l45.9,49.8l64.5-10L211.5,57.5z M212.4,184.7"/>
</svg>
