<?xml version="1.0" encoding="utf-8"?>
<!-- Generator: Adobe Illustrator 19.0.0, SVG Export Plug-In . SVG Version: 6.00 Build 0)  -->
<!DOCTYPE svg PUBLIC "-//W3C//DTD SVG 1.1//EN" "http://www.w3.org/Graphics/SVG/1.1/DTD/svg11.dtd">
<svg version="1.1" id="Layer_1" xmlns="http://www.w3.org/2000/svg" xmlns:xlink="http://www.w3.org/1999/xlink" x="0px" y="0px"
	 viewBox="65 -65 230 230" style="enable-background:new 65 -65 230 230;" xml:space="preserve">
<style type="text/css">
	.st0{fill:#FFCD17;}
	.st1{fill:#FFEC17;}
	.st2{fill:#FFFAC9;}
</style>
<g>
	<path id="XMLID_2690_" class="st0" d="M253.9-9.4c-2.6,0.2-5.3,0.5-7.9,0.7l0,0c-13.3,1.3-27.4,3-41.9,5.2
		c-9.6-9-19.1-17.5-28.2-25.3c0,0,0,0,0,0c-3-2.6-6.1-5.1-9-7.6c-6.1-5.1-12.5-2.9-14.3,4.8c-0.4,1.7-0.8,3.4-1.2,5.2l0,0
		c-0.1,0.4-0.2,0.9-0.3,1.3c-0.5,2.4-1.1,4.8-1.6,7.3l0,0c-2.4,11.2-4.7,22.9-6.7,35c-11.3,6.2-22,12.4-32.1,18.6
		c-3.8,2.3-7.4,4.6-11,6.8c-6.8,4.3-6.7,11.1,0.1,15.2c3.9,2.3,7.9,4.7,12,7.1l0,0c9.9,5.7,20.4,11.5,31.5,17.2
		c2.6,14.1,5.5,27.7,8.5,40.4l0,0c0.7,3,1.5,6,2.2,8.9c2,7.9,8.5,10,14.6,4.6c2.6-2.3,5.2-4.6,7.9-7l0,0
		c9.4-8.5,19.1-17.6,28.9-27.3c14.3,1.9,28.1,3.4,41.2,4.5l0,0c3.1,0.3,6.1,0.5,9.1,0.7c8.1,0.6,12-5,8.8-12.5
		c-1.5-3.6-3.2-7.3-4.8-11c0,0,0,0,0,0c-5-11.3-10.6-22.9-16.6-34.9c6.3-13.2,12-26.1,17.1-38.3l0,0c1-2.5,2.1-5,3.1-7.5
		C266.1-4.6,262-10.1,253.9-9.4z"/>
	<path id="XMLID_2670_" class="st1" d="M260.3,101.9c-0.5,0.2-1.7,0.6-3.7,0.4c-16.6-1.3-34.4-3.3-53.2-5.9
		c-13.3,13.4-26.4,25.6-38.7,36.7c-1.5,1.3-2.6,1.7-3.1,1.9c-0.6,0.2-0.9,0-1,0c-0.5-0.3-1.5-1.4-2.1-3.8
		c-3.9-16.2-7.7-33.8-11-52.4c-16.7-8.6-32.1-17.1-46.2-25.4c-2.2-1.3-3-2.6-3-3.2c0-0.5,0.8-1.9,2.9-3.3
		c14-8.7,29.3-17.7,45.8-26.6c3-18.4,6.4-35.8,10-51.7c0.6-2.5,1.6-3.6,2.1-3.8c0.5-0.2,2,0.1,4,1.8c12.5,10.5,25.6,22.2,39.2,35.1
		c18.6-2.9,36.3-5.1,52.8-6.6c2.5-0.2,4,0.4,4.3,0.8c0.3,0.4,0.5,2-0.5,4.3c-6.3,15.2-13.5,31.4-21.6,48.3
		c8.6,16.9,16.3,33.1,23,48.4c1,2.3,0.9,3.8,0.7,4.3C261,101.4,260.9,101.6,260.3,101.9C260.3,101.9,260.3,101.9,260.3,101.9z"/>
	<path id="XMLID_2609_" class="st2" d="M163.7,128.4 M259,0.3c1-2.3,0.8-3.9,0.5-4.3c-0.3-0.4-1.8-1-4.3-0.8
		c-16.5,1.5-34.2,3.7-52.8,6.6c-13.5-12.9-26.7-24.6-39.2-35.1c-1.9-1.6-3.5-1.9-4-1.8c-0.5,0.2-1.5,1.4-2.1,3.8
		c-3.6,15.9-7,33.3-10,51.7c-16.5,8.9-31.8,17.9-45.8,26.6c-2.2,1.3-2.9,2.7-2.9,3.3c0,0.5,0.8,1.9,3,3.2c1.3-1.1,2.5-2.2,3.8-3.3
		c14.3-8.7,29.8-17.6,46.5-26.5c2.9-18.6,6.2-36.2,9.7-52.4c12.5,10.8,25.7,22.8,39.3,35.8c18.7-3,36.6-5.4,53.3-7.1
		C255.7,0.1,257.4,0.2,259,0.3z M254.6,97.9"/>
</g>
</svg>
