<?xml version="1.0" encoding="utf-8"?>
<!-- Generator: Adobe Illustrator 19.0.0, SVG Export Plug-In . SVG Version: 6.00 Build 0)  -->
<!DOCTYPE svg PUBLIC "-//W3C//DTD SVG 1.1//EN" "http://www.w3.org/Graphics/SVG/1.1/DTD/svg11.dtd">
<svg version="1.1" id="Layer_1" xmlns="http://www.w3.org/2000/svg" xmlns:xlink="http://www.w3.org/1999/xlink" x="0px" y="0px"
	 viewBox="0 0 230 230" style="enable-background:new 0 0 230 230;" xml:space="preserve">
<g id="XMLID_258_">
	<rect id="XMLID_483_" x="5" y="215" width="10" height="10"/>
	<rect id="XMLID_482_" x="20" y="215" width="10" height="10"/>
	<rect id="XMLID_481_" x="35" y="215" width="10" height="10"/>
	<rect id="XMLID_480_" x="50" y="215" width="10" height="10"/>
	<rect id="XMLID_479_" x="65" y="215" width="10" height="10"/>
	<rect id="XMLID_478_" x="80" y="215" width="10" height="10"/>
	<rect id="XMLID_477_" x="95" y="215" width="10" height="10"/>
	<rect id="XMLID_476_" x="110" y="215" width="10" height="10"/>
	<rect id="XMLID_475_" x="125" y="215" width="10" height="10"/>
	<rect id="XMLID_474_" x="140" y="215" width="10" height="10"/>
	<rect id="XMLID_473_" x="155" y="215" width="10" height="10"/>
	<rect id="XMLID_472_" x="170" y="215" width="10" height="10"/>
	<rect id="XMLID_471_" x="185" y="215" width="10" height="10"/>
	<rect id="XMLID_470_" x="200" y="215" width="10" height="10"/>
	<rect id="XMLID_469_" x="215" y="215" width="10" height="10"/>
	<rect id="XMLID_468_" x="5" y="200" width="10" height="10"/>
	<rect id="XMLID_467_" x="20" y="200" width="10" height="10"/>
	<rect id="XMLID_466_" x="35" y="200" width="10" height="10"/>
	<rect id="XMLID_465_" x="50" y="200" width="10" height="10"/>
	<rect id="XMLID_464_" x="65" y="200" width="10" height="10"/>
	<rect id="XMLID_463_" x="80" y="200" width="10" height="10"/>
	<rect id="XMLID_462_" x="95" y="200" width="10" height="10"/>
	<rect id="XMLID_461_" x="110" y="200" width="10" height="10"/>
	<rect id="XMLID_460_" x="125" y="200" width="10" height="10"/>
	<rect id="XMLID_459_" x="140" y="200" width="10" height="10"/>
	<rect id="XMLID_458_" x="155" y="200" width="10" height="10"/>
	<rect id="XMLID_457_" x="170" y="200" width="10" height="10"/>
	<rect id="XMLID_456_" x="185" y="200" width="10" height="10"/>
	<rect id="XMLID_455_" x="200" y="200" width="10" height="10"/>
	<rect id="XMLID_454_" x="215" y="200" width="10" height="10"/>
	<rect id="XMLID_453_" x="5" y="185" width="10" height="10"/>
	<rect id="XMLID_452_" x="20" y="185" width="10" height="10"/>
	<rect id="XMLID_451_" x="35" y="185" width="10" height="10"/>
	<rect id="XMLID_450_" x="50" y="185" width="10" height="10"/>
	<rect id="XMLID_449_" x="65" y="185" width="10" height="10"/>
	<rect id="XMLID_448_" x="80" y="185" width="10" height="10"/>
	<rect id="XMLID_447_" x="95" y="185" width="10" height="10"/>
	<rect id="XMLID_446_" x="110" y="185" width="10" height="10"/>
	<rect id="XMLID_445_" x="125" y="185" width="10" height="10"/>
	<rect id="XMLID_444_" x="140" y="185" width="10" height="10"/>
	<rect id="XMLID_443_" x="155" y="185" width="10" height="10"/>
	<rect id="XMLID_442_" x="170" y="185" width="10" height="10"/>
	<rect id="XMLID_441_" x="185" y="185" width="10" height="10"/>
	<rect id="XMLID_440_" x="200" y="185" width="10" height="10"/>
	<rect id="XMLID_439_" x="215" y="185" width="10" height="10"/>
	<rect id="XMLID_438_" x="5" y="170" width="10" height="10"/>
	<rect id="XMLID_437_" x="20" y="170" width="10" height="10"/>
	<rect id="XMLID_436_" x="35" y="170" width="10" height="10"/>
	<rect id="XMLID_435_" x="50" y="170" width="10" height="10"/>
	<rect id="XMLID_434_" x="65" y="170" width="10" height="10"/>
	<rect id="XMLID_433_" x="80" y="170" width="10" height="10"/>
	<rect id="XMLID_432_" x="95" y="170" width="10" height="10"/>
	<rect id="XMLID_431_" x="110" y="170" width="10" height="10"/>
	<rect id="XMLID_430_" x="125" y="170" width="10" height="10"/>
	<rect id="XMLID_429_" x="140" y="170" width="10" height="10"/>
	<rect id="XMLID_428_" x="155" y="170" width="10" height="10"/>
	<rect id="XMLID_427_" x="170" y="170" width="10" height="10"/>
	<rect id="XMLID_426_" x="185" y="170" width="10" height="10"/>
	<rect id="XMLID_425_" x="200" y="170" width="10" height="10"/>
	<rect id="XMLID_424_" x="215" y="170" width="10" height="10"/>
	<rect id="XMLID_423_" x="5" y="155" width="10" height="10"/>
	<rect id="XMLID_422_" x="20" y="155" width="10" height="10"/>
	<rect id="XMLID_421_" x="35" y="155" width="10" height="10"/>
	<rect id="XMLID_420_" x="50" y="155" width="10" height="10"/>
	<rect id="XMLID_419_" x="65" y="155" width="10" height="10"/>
	<rect id="XMLID_418_" x="80" y="155" width="10" height="10"/>
	<rect id="XMLID_417_" x="95" y="155" width="10" height="10"/>
	<rect id="XMLID_416_" x="110" y="155" width="10" height="10"/>
	<rect id="XMLID_415_" x="125" y="155" width="10" height="10"/>
	<rect id="XMLID_414_" x="140" y="155" width="10" height="10"/>
	<rect id="XMLID_413_" x="155" y="155" width="10" height="10"/>
	<rect id="XMLID_412_" x="170" y="155" width="10" height="10"/>
	<rect id="XMLID_411_" x="185" y="155" width="10" height="10"/>
	<rect id="XMLID_410_" x="200" y="155" width="10" height="10"/>
	<rect id="XMLID_409_" x="215" y="155" width="10" height="10"/>
	<rect id="XMLID_408_" x="5" y="140" width="10" height="10"/>
	<rect id="XMLID_407_" x="20" y="140" width="10" height="10"/>
	<rect id="XMLID_406_" x="35" y="140" width="10" height="10"/>
	<rect id="XMLID_405_" x="50" y="140" width="10" height="10"/>
	<rect id="XMLID_404_" x="65" y="140" width="10" height="10"/>
	<rect id="XMLID_403_" x="80" y="140" width="10" height="10"/>
	<rect id="XMLID_402_" x="95" y="140" width="10" height="10"/>
	<rect id="XMLID_401_" x="110" y="140" width="10" height="10"/>
	<rect id="XMLID_400_" x="125" y="140" width="10" height="10"/>
	<rect id="XMLID_399_" x="140" y="140" width="10" height="10"/>
	<rect id="XMLID_398_" x="155" y="140" width="10" height="10"/>
	<rect id="XMLID_397_" x="170" y="140" width="10" height="10"/>
	<rect id="XMLID_396_" x="185" y="140" width="10" height="10"/>
	<rect id="XMLID_395_" x="200" y="140" width="10" height="10"/>
	<rect id="XMLID_394_" x="215" y="140" width="10" height="10"/>
	<rect id="XMLID_393_" x="5" y="125" width="10" height="10"/>
	<rect id="XMLID_392_" x="20" y="125" width="10" height="10"/>
	<rect id="XMLID_391_" x="35" y="125" width="10" height="10"/>
	<rect id="XMLID_390_" x="50" y="125" width="10" height="10"/>
	<rect id="XMLID_389_" x="65" y="125" width="10" height="10"/>
	<rect id="XMLID_388_" x="80" y="125" width="10" height="10"/>
	<rect id="XMLID_387_" x="95" y="125" width="10" height="10"/>
	<rect id="XMLID_386_" x="110" y="125" width="10" height="10"/>
	<rect id="XMLID_385_" x="125" y="125" width="10" height="10"/>
	<rect id="XMLID_384_" x="140" y="125" width="10" height="10"/>
	<rect id="XMLID_383_" x="155" y="125" width="10" height="10"/>
	<rect id="XMLID_382_" x="170" y="125" width="10" height="10"/>
	<rect id="XMLID_381_" x="185" y="125" width="10" height="10"/>
	<rect id="XMLID_380_" x="200" y="125" width="10" height="10"/>
	<rect id="XMLID_379_" x="215" y="125" width="10" height="10"/>
	<rect id="XMLID_378_" x="5" y="110" width="10" height="10"/>
	<rect id="XMLID_377_" x="20" y="110" width="10" height="10"/>
	<rect id="XMLID_376_" x="35" y="110" width="10" height="10"/>
	<rect id="XMLID_375_" x="50" y="110" width="10" height="10"/>
	<rect id="XMLID_374_" x="65" y="110" width="10" height="10"/>
	<rect id="XMLID_373_" x="80" y="110" width="10" height="10"/>
	<rect id="XMLID_372_" x="95" y="110" width="10" height="10"/>
	<rect id="XMLID_371_" x="110" y="110" width="10" height="10"/>
	<rect id="XMLID_370_" x="125" y="110" width="10" height="10"/>
	<rect id="XMLID_369_" x="140" y="110" width="10" height="10"/>
	<rect id="XMLID_368_" x="155" y="110" width="10" height="10"/>
	<rect id="XMLID_367_" x="170" y="110" width="10" height="10"/>
	<rect id="XMLID_366_" x="185" y="110" width="10" height="10"/>
	<rect id="XMLID_365_" x="200" y="110" width="10" height="10"/>
	<rect id="XMLID_364_" x="215" y="110" width="10" height="10"/>
	<rect id="XMLID_363_" x="5" y="95" width="10" height="10"/>
	<rect id="XMLID_362_" x="20" y="95" width="10" height="10"/>
	<rect id="XMLID_361_" x="35" y="95" width="10" height="10"/>
	<rect id="XMLID_360_" x="50" y="95" width="10" height="10"/>
	<rect id="XMLID_359_" x="65" y="95" width="10" height="10"/>
	<rect id="XMLID_358_" x="80" y="95" width="10" height="10"/>
	<rect id="XMLID_357_" x="95" y="95" width="10" height="10"/>
	<rect id="XMLID_356_" x="110" y="95" width="10" height="10"/>
	<rect id="XMLID_355_" x="125" y="95" width="10" height="10"/>
	<rect id="XMLID_354_" x="140" y="95" width="10" height="10"/>
	<rect id="XMLID_353_" x="155" y="95" width="10" height="10"/>
	<rect id="XMLID_352_" x="170" y="95" width="10" height="10"/>
	<rect id="XMLID_351_" x="185" y="95" width="10" height="10"/>
	<rect id="XMLID_350_" x="200" y="95" width="10" height="10"/>
	<rect id="XMLID_349_" x="215" y="95" width="10" height="10"/>
	<rect id="XMLID_348_" x="5" y="80" width="10" height="10"/>
	<rect id="XMLID_347_" x="20" y="80" width="10" height="10"/>
	<rect id="XMLID_346_" x="35" y="80" width="10" height="10"/>
	<rect id="XMLID_345_" x="50" y="80" width="10" height="10"/>
	<rect id="XMLID_344_" x="65" y="80" width="10" height="10"/>
	<rect id="XMLID_343_" x="80" y="80" width="10" height="10"/>
	<rect id="XMLID_342_" x="95" y="80" width="10" height="10"/>
	<rect id="XMLID_341_" x="110" y="80" width="10" height="10"/>
	<rect id="XMLID_340_" x="125" y="80" width="10" height="10"/>
	<rect id="XMLID_339_" x="140" y="80" width="10" height="10"/>
	<rect id="XMLID_338_" x="155" y="80" width="10" height="10"/>
	<rect id="XMLID_337_" x="170" y="80" width="10" height="10"/>
	<rect id="XMLID_336_" x="185" y="80" width="10" height="10"/>
	<rect id="XMLID_335_" x="200" y="80" width="10" height="10"/>
	<rect id="XMLID_334_" x="215" y="80" width="10" height="10"/>
	<rect id="XMLID_333_" x="5" y="65" width="10" height="10"/>
	<rect id="XMLID_332_" x="20" y="65" width="10" height="10"/>
	<rect id="XMLID_331_" x="35" y="65" width="10" height="10"/>
	<rect id="XMLID_330_" x="50" y="65" width="10" height="10"/>
	<rect id="XMLID_329_" x="65" y="65" width="10" height="10"/>
	<rect id="XMLID_328_" x="80" y="65" width="10" height="10"/>
	<rect id="XMLID_327_" x="95" y="65" width="10" height="10"/>
	<rect id="XMLID_326_" x="110" y="65" width="10" height="10"/>
	<rect id="XMLID_325_" x="125" y="65" width="10" height="10"/>
	<rect id="XMLID_324_" x="140" y="65" width="10" height="10"/>
	<rect id="XMLID_323_" x="155" y="65" width="10" height="10"/>
	<rect id="XMLID_322_" x="170" y="65" width="10" height="10"/>
	<rect id="XMLID_321_" x="185" y="65" width="10" height="10"/>
	<rect id="XMLID_320_" x="200" y="65" width="10" height="10"/>
	<rect id="XMLID_319_" x="215" y="65" width="10" height="10"/>
	<rect id="XMLID_318_" x="5" y="50" width="10" height="10"/>
	<rect id="XMLID_317_" x="20" y="50" width="10" height="10"/>
	<rect id="XMLID_316_" x="35" y="50" width="10" height="10"/>
	<rect id="XMLID_315_" x="50" y="50" width="10" height="10"/>
	<rect id="XMLID_314_" x="65" y="50" width="10" height="10"/>
	<rect id="XMLID_313_" x="80" y="50" width="10" height="10"/>
	<rect id="XMLID_312_" x="95" y="50" width="10" height="10"/>
	<rect id="XMLID_311_" x="110" y="50" width="10" height="10"/>
	<rect id="XMLID_310_" x="125" y="50" width="10" height="10"/>
	<rect id="XMLID_309_" x="140" y="50" width="10" height="10"/>
	<rect id="XMLID_308_" x="155" y="50" width="10" height="10"/>
	<rect id="XMLID_307_" x="170" y="50" width="10" height="10"/>
	<rect id="XMLID_306_" x="185" y="50" width="10" height="10"/>
	<rect id="XMLID_305_" x="200" y="50" width="10" height="10"/>
	<rect id="XMLID_304_" x="215" y="50" width="10" height="10"/>
	<rect id="XMLID_303_" x="5" y="35" width="10" height="10"/>
	<rect id="XMLID_302_" x="20" y="35" width="10" height="10"/>
	<rect id="XMLID_301_" x="35" y="35" width="10" height="10"/>
	<rect id="XMLID_300_" x="50" y="35" width="10" height="10"/>
	<rect id="XMLID_299_" x="65" y="35" width="10" height="10"/>
	<rect id="XMLID_298_" x="80" y="35" width="10" height="10"/>
	<rect id="XMLID_297_" x="95" y="35" width="10" height="10"/>
	<rect id="XMLID_296_" x="110" y="35" width="10" height="10"/>
	<rect id="XMLID_295_" x="125" y="35" width="10" height="10"/>
	<rect id="XMLID_294_" x="140" y="35" width="10" height="10"/>
	<rect id="XMLID_293_" x="155" y="35" width="10" height="10"/>
	<rect id="XMLID_292_" x="170" y="35" width="10" height="10"/>
	<rect id="XMLID_291_" x="185" y="35" width="10" height="10"/>
	<rect id="XMLID_290_" x="200" y="35" width="10" height="10"/>
	<rect id="XMLID_289_" x="215" y="35" width="10" height="10"/>
	<rect id="XMLID_288_" x="5" y="20" width="10" height="10"/>
	<rect id="XMLID_287_" x="20" y="20" width="10" height="10"/>
	<rect id="XMLID_286_" x="35" y="20" width="10" height="10"/>
	<rect id="XMLID_285_" x="50" y="20" width="10" height="10"/>
	<rect id="XMLID_284_" x="65" y="20" width="10" height="10"/>
	<rect id="XMLID_283_" x="80" y="20" width="10" height="10"/>
	<rect id="XMLID_282_" x="95" y="20" width="10" height="10"/>
	<rect id="XMLID_281_" x="110" y="20" width="10" height="10"/>
	<rect id="XMLID_280_" x="125" y="20" width="10" height="10"/>
	<rect id="XMLID_279_" x="140" y="20" width="10" height="10"/>
	<rect id="XMLID_278_" x="155" y="20" width="10" height="10"/>
	<rect id="XMLID_277_" x="170" y="20" width="10" height="10"/>
	<rect id="XMLID_276_" x="185" y="20" width="10" height="10"/>
	<rect id="XMLID_275_" x="200" y="20" width="10" height="10"/>
	<rect id="XMLID_274_" x="215" y="20" width="10" height="10"/>
	<rect id="XMLID_273_" x="5" y="5" width="10" height="10"/>
	<rect id="XMLID_272_" x="20" y="5" width="10" height="10"/>
	<rect id="XMLID_271_" x="35" y="5" width="10" height="10"/>
	<rect id="XMLID_270_" x="50" y="5" width="10" height="10"/>
	<rect id="XMLID_269_" x="65" y="5" width="10" height="10"/>
	<rect id="XMLID_268_" x="80" y="5" width="10" height="10"/>
	<rect id="XMLID_267_" x="95" y="5" width="10" height="10"/>
	<rect id="XMLID_266_" x="110" y="5" width="10" height="10"/>
	<rect id="XMLID_265_" x="125" y="5" width="10" height="10"/>
	<rect id="XMLID_264_" x="140" y="5" width="10" height="10"/>
	<rect id="XMLID_263_" x="155" y="5" width="10" height="10"/>
	<rect id="XMLID_262_" x="170" y="5" width="10" height="10"/>
	<rect id="XMLID_261_" x="185" y="5" width="10" height="10"/>
	<rect id="XMLID_260_" x="200" y="5" width="10" height="10"/>
	<rect id="XMLID_259_" x="215" y="5" width="10" height="10"/>
</g>
</svg>
