<?xml version="1.0" encoding="utf-8"?>
<!-- Generator: Adobe Illustrator 19.0.0, SVG Export Plug-In . SVG Version: 6.00 Build 0)  -->
<!DOCTYPE svg PUBLIC "-//W3C//DTD SVG 1.1//EN" "http://www.w3.org/Graphics/SVG/1.1/DTD/svg11.dtd">
<svg version="1.1" id="Layer_1" xmlns="http://www.w3.org/2000/svg" xmlns:xlink="http://www.w3.org/1999/xlink" x="0px" y="0px"
	 viewBox="0 0 480 750" style="enable-background:new 0 0 480 750;" xml:space="preserve">
<style type="text/css">
	.st0{fill:#7A45CE;}
	.st1{fill:#C38DE2;}
	.st2{fill:#D9B6FF;}
</style>
<g id="XMLID_1_">
	<path id="XMLID_2591_" class="st0" d="M445,477.3c87.3,143.9-17.2,269.9-10.3,272.7H157.2c0,0,54.1-97.2,54.1-168.4
		c0-92.8-130.2-144-173.4-201.9S-9.1,225.6,57,159.6s61.7-109.8,51.1-129c-10-18,2.2-35.3,21-23c15.2,9.9,34.1,80,0,135
		c-42.1,68-25.9,125.2,0,155C196.2,374.6,370.5,354.6,445,477.3z"/>
	<path id="XMLID_2642_" class="st1" d="M394.6,561.6c-42.1-172-255.4-129.5-314.6-239c-53.3-98.5,2-157,32.1-207
		c18.9-31.5,9.3-60.2-0.5-77.1c7.2,22,3.7,63-54.5,121.1c-66.1,66-62.2,162.1-19.1,220.1s173.4,109.2,173.4,201.9
		c0,65.1-46.3,155.1-54.1,168.4h203.3C360.5,750,421,669.6,394.6,561.6z"/>
	<path id="XMLID_2637_" class="st0" d="M389.1,662.3c-5.2,43-55.5,87.6-101.6,86.2c-46.7-1.6-81.5-45.5-77.5-92.4
		c4.1-46.9,47.3-81.8,96.7-78.1c24.7,1.9,46.3,13,61.5,28.8C383,622.1,391.6,640.9,389.1,662.3z"/>
	<path id="XMLID_2599_" class="st2" d="M372.1,662.3c-4.8,40.8-46,77.4-87.3,75.8c-41.4-1.8-71.8-41-68.1-83.7
		c3.8-42.7,41.5-74.5,84.4-71.4C344.1,586.3,376.8,621.7,372.1,662.3z"/>
	<path id="XMLID_2635_" class="st0" d="M348.9,657.3c-3.5,31.4-33,57-64.5,55.5c-31.5-1.6-54.5-30.1-51.7-62.2
		c2.9-32.1,31.1-55.9,63.3-53.8C328.1,599.1,352.2,626,348.9,657.3z"/>
	<path id="XMLID_2641_" class="st0" d="M149.9,393.7c20.4,18.3,26.1,50.7,14.7,63.5c-11.6,12.9-39.3,9.6-61.8-5.8
		c-21.6-15-30.7-38.8-17.8-54.4C99.4,379.8,132.5,378.2,149.9,393.7z"/>
	<path id="XMLID_2640_" class="st2" d="M146.3,397.7c17.1,14.6,19.7,40.1,8.2,52.3c-11.3,11.9-35.5,8.5-54.2-5.6
		c-18.2-13.7-24.4-34.3-12-47C101.5,384,130,383.8,146.3,397.7z"/>
	<path id="XMLID_2639_" class="st0" d="M135.3,404.3c11.4,10.4,12.9,26.8,4.2,35.2c-8.5,8.2-25,5.9-37.2-4.1
		c-12-9.9-15.1-24.4-6-32.9C105.8,393.6,124.1,394.1,135.3,404.3z"/>
	<path id="XMLID_2663_" class="st0" d="M32.9,233.7c-2.5,0-4.9-0.6-7-1.8c-4.7-2.6-7.8-7.5-8.7-13.9c-0.9-6,0.3-12.6,3.3-18.7
		c4.7-9.7,13.1-15.9,21.2-15.9c2.5,0,4.9,0.6,7,1.8c9.3,5.1,11.7,19.7,5.4,32.6C49.4,227.4,41.1,233.7,32.9,233.7z"/>
	<path id="XMLID_2616_" class="st0" d="M55,265.5c4.9,16.6-3.2,33.2-18,37.2s-30.8-6.2-35.7-22.8s3.2-33.2,18-37.2
		S50.2,249,55,265.5z"/>
	<ellipse id="XMLID_2646_" class="st2" cx="25.4" cy="268.7" rx="24.3" ry="27"/>
	<ellipse id="XMLID_2647_" class="st0" cx="25.4" cy="268.7" rx="17.5" ry="19.4"/>
	<path id="XMLID_2665_" class="st2" d="M32,228c-2.3,0-4.4-0.5-6.4-1.5c-4.2-2.2-7-6.5-7.9-12.1c-0.8-5.2,0.3-11,3-16.2
		c4.3-8.4,11.8-13.8,19.2-13.8c2.3,0,4.4,0.5,6.4,1.5c8.4,4.4,10.6,17.1,4.9,28.3C46.9,222.6,39.4,228,32,228z"/>
	<path id="XMLID_2664_" class="st0" d="M46.2,209.3c-4.5,8.6-13.1,13-19.3,9.8c-6.2-3.2-7.6-12.8-3.1-21.4s13.1-13,19.3-9.8
		S50.6,200.7,46.2,209.3z"/>
	<path id="XMLID_2634_" class="st0" d="M62.3,174c-3,0-5.8-0.9-8-2.7c-6.8-5.4-6.7-16.7,0.3-25.6c4.4-5.7,10.5-9.1,16.4-9.1
		c3,0,5.8,0.9,8,2.7c6.8,5.4,6.7,16.7-0.3,25.6C74.3,170.6,68.2,174,62.3,174z"/>
	<path id="XMLID_2668_" class="st2" d="M62.4,167.3c-2.6,0-5-0.8-6.9-2.3c-5.8-4.6-5.7-14.3,0.2-22c3.8-4.9,9-7.8,14-7.8
		c2.6,0,5,0.8,6.9,2.3c5.8,4.6,5.7,14.3-0.2,22C72.7,164.4,67.5,167.3,62.4,167.3z"/>
	<path id="XMLID_2667_" class="st0" d="M71.7,155.7c-4.4,5.7-11.4,7.7-15.4,4.5s-3.8-10.4,0.7-16c4.4-5.7,11.4-7.7,15.4-4.5
		C76.4,142.9,76.1,150.1,71.7,155.7z"/>
	<path id="XMLID_2648_" class="st0" d="M110.7,114c-4.5,8.4-12.8,12.8-18.5,9.7c-5.8-3.1-6.9-12.4-2.4-20.8
		c4.5-8.4,12.8-12.8,18.5-9.7C114.1,96.3,115.2,105.6,110.7,114z"/>
	<path id="XMLID_2649_" class="st2" d="M108.8,111.4c-3.9,7.4-11.2,11.3-16.4,8.6c-5.1-2.7-6.1-10.9-2.1-18.3
		c3.9-7.4,11.2-11.3,16.4-8.6C111.7,95.8,112.7,104,108.8,111.4z"/>
	<path id="XMLID_2650_" class="st0" d="M105.2,109.5c-2.4,4.6-6.9,6.9-10,5.3c-3.1-1.7-3.7-6.7-1.3-11.2c2.4-4.6,6.9-6.9,10-5.3
		S107.6,105,105.2,109.5z"/>
	<path id="XMLID_2651_" class="st0" d="M288.2,448.2c21,11.6,34.8,26.6,39.9,41.8c4.7,13.8,1.5,32.2-13.6,48.5
		c-31.3,33.4-76.8,33.9-107.4,9.5c-34.7-27.7-42.5-67.9-20.3-95C207.1,428.4,243.2,423.6,288.2,448.2z"/>
	<path id="XMLID_2653_" class="st2" d="M277.7,454c34.7,20.6,46.7,54,23.2,79c-24.4,25.7-64.8,26.9-93.2,5.1
		c-30.5-23.6-38.2-58.6-19.2-81.4C206.6,435.1,241.2,432.5,277.7,454z"/>
	<path id="XMLID_2654_" class="st0" d="M269.7,465c24.9,15.5,33.1,41.3,16.7,59.2c-16.9,18.3-47.8,19.5-69.7,3.3
		c-22.8-17-28.9-43.4-14.7-60.5C215.9,450.5,244.3,449.3,269.7,465z"/>
	<path id="XMLID_2655_" class="st0" d="M58.3,390.1c-14,0-27.7-11.6-33.3-28.1c-3.2-9.6-3.4-19.6-0.5-28.2c3-9,9.1-15.3,16.9-18
		c2.5-0.9,5.2-1.3,7.9-1.3c14,0,27.7,11.6,33.3,28.1c6.8,20.1-0.6,40.9-16.4,46.2C63.6,389.6,61,390.1,58.3,390.1z"/>
	<path id="XMLID_2662_" class="st2" d="M53.1,384.8c-12.4,0-24.6-10.3-29.5-25c-2.9-8.5-3-17.4-0.4-25.1c2.7-8,8-13.6,15-16
		c2.2-0.8,4.6-1.1,7-1.1c12.4,0,24.6,10.3,29.5,25c6,17.9-0.5,36.3-14.6,41C57.9,384.4,55.5,384.8,53.1,384.8z"/>
	<path id="XMLID_2652_" class="st0" d="M67.8,343.9c4.2,12.4-1.2,25.5-12.1,29.1c-10.9,3.7-23.1-3.4-27.3-15.9s1.2-25.5,12.1-29.1
		C51.3,324.3,63.6,331.5,67.8,343.9z"/>
</g>
</svg>
