<?xml version="1.0" encoding="utf-8"?>
<!-- Generator: Adobe Illustrator 19.2.0, SVG Export Plug-In . SVG Version: 6.00 Build 0)  -->
<!DOCTYPE svg PUBLIC "-//W3C//DTD SVG 1.1//EN" "http://www.w3.org/Graphics/SVG/1.1/DTD/svg11.dtd">
<svg version="1.1" id="head" xmlns="http://www.w3.org/2000/svg" xmlns:xlink="http://www.w3.org/1999/xlink" x="0px" y="0px"
	 width="72px" height="90px" viewBox="0 0 72 90" style="enable-background:new 0 0 72 90;" xml:space="preserve">
<style type="text/css">
	.st0{fill:#F6B388;}
	.st1{fill:#FF9B34;}
</style>
<path class="st0" d="M53.5,53.6c0,12-9.8,21.8-21.8,21.8S9.9,65.6,9.9,53.6c0-6,0.7-17.2,4.6-21.2S25.7,26,31.7,26s14,2.4,18,6.4
	S53.5,47.5,53.5,53.6z"/>
<circle class="st0" cx="9.9" cy="53.6" r="5.5"/>
<circle class="st0" cx="53.5" cy="53.6" r="5.5"/>
<path class="st1" d="M49.5,27.6c-4-4.4-11.4-8.4-18.5-8.4c-7.1,0-13.5,3.4-17.4,7.8C6.2,35.2,8.9,48.6,9,49.1c0.1,1,1,1.7,2,1.6
	c1-0.1,1.7-1,1.6-2c0-0.1-0.7-6.6,1.5-12.8c0.1-0.1,0.1-0.2,0.2-0.4c1.7-2.8,4-4.6,6.4-5.1c1.7-0.4,3.2,0.6,5,1.1
	c4.8,1.4,7.2,1.3,11.6-0.2c1.7-0.6,3.3-1.5,5.2-1.1c2.5,0.6,4.7,2.4,6,5.1c0,0.1,0.1,0.2,0.2,0.3c2.4,6.3,1.8,12.9,1.8,13.1
	c-0.1,1,0.6,1.9,1.6,2c0.1,0,0.1,0,0.2,0c0.9,0,1.7-0.7,1.8-1.6C54.1,48.5,56.9,35.8,49.5,27.6z"/>
</svg>
