<?xml version="1.0" encoding="utf-8"?>
<!-- Generator: Adobe Illustrator 19.2.0, SVG Export Plug-In . SVG Version: 6.00 Build 0)  -->
<!DOCTYPE svg PUBLIC "-//W3C//DTD SVG 1.1//EN" "http://www.w3.org/Graphics/SVG/1.1/DTD/svg11.dtd">
<svg version="1.1" id="bubble" xmlns="http://www.w3.org/2000/svg" xmlns:xlink="http://www.w3.org/1999/xlink" x="0px" y="0px"
	 width="72px" height="90px" viewBox="0 0 72 90" style="enable-background:new 0 0 72 90;" xml:space="preserve">
<style type="text/css">
	.st0{opacity:0.4;fill:#FF5FFF;}
	.st1{opacity:0.4;}
	.st2{fill:#FF5FFF;}
</style>
<ellipse transform="matrix(0.486 -0.874 0.874 0.486 -41.6026 61.1301)" class="st0" cx="31.2" cy="65.9" rx="13.2" ry="13.2"/>
<g class="st1">
	<path class="st2" d="M31.2,52.7v1.8c1.9,0,3.8,0.5,5.5,1.4c2.7,1.5,4.6,3.9,5.4,6.8c0.8,2.9,0.5,6-1,8.7c-2,3.6-5.8,5.9-10,5.9
		c-1.9,0-3.8-0.5-5.5-1.4c-5.5-3.1-7.5-10-4.4-15.5c2-3.6,5.8-5.9,10-5.9L31.2,52.7 M31.2,52.7c-4.6,0-9.1,2.5-11.6,6.8
		c-3.5,6.4-1.3,14.4,5.1,18c2,1.1,4.2,1.7,6.4,1.7c4.6,0,9.1-2.5,11.6-6.8c3.5-6.4,1.3-14.4-5.1-18C35.6,53.2,33.4,52.7,31.2,52.7
		L31.2,52.7z"/>
</g>
</svg>
