<?xml version="1.0" encoding="utf-8"?>
<!-- Generator: Adobe Illustrator 19.2.0, SVG Export Plug-In . SVG Version: 6.00 Build 0)  -->
<!DOCTYPE svg PUBLIC "-//W3C//DTD SVG 1.1//EN" "http://www.w3.org/Graphics/SVG/1.1/DTD/svg11.dtd">
<svg version="1.1" id="tail" xmlns="http://www.w3.org/2000/svg" xmlns:xlink="http://www.w3.org/1999/xlink" x="0px" y="0px"
	 width="72px" height="90px" viewBox="0 0 72 90" style="enable-background:new 0 0 72 90;" xml:space="preserve">
<style type="text/css">
	.st0{fill:#FF9B34;}
	.st1{fill:#FF5FFF;}
</style>
<path class="st0" d="M45.7,22.5c2.3-2.3,6.9-2.4,7.9,2.5c1.1,5.1-11.2,24.3-7.8,36.4c4.6,16.3,19.9,11.7,22.4,8.1
	c-0.2,0.1-4.6,1.8-8.1-6.9c-4.6-11.6,8.7-23.7,8.2-34.8c-0.6-14.4-8.3-16.9-13.8-17.7c-6.2-0.9-12.8,3.2-14.7,8.2
	C38.1,22.8,43.4,24.8,45.7,22.5z"/>
<path class="st1" d="M39.6,18.8c0.1-0.2,0.2-0.3,0.4-0.3c0.6,0,2.1,0.3,3.2,1c1.9,1.3,2.6,2.8,2.4,3.1c-0.3,0.5-1.2,0.7-1.2,0.7
	s-1.2-0.7-2.5-1.3c-1.3-0.6-2.2-1.1-2.2-1.1s-0.2-0.5-0.2-1C39.5,19.5,39.5,19,39.6,18.8z"/>
</svg>
