<?xml version="1.0" encoding="utf-8"?>
<!-- Generator: Adobe Illustrator 19.0.0, SVG Export Plug-In . SVG Version: 6.00 Build 0)  -->
<!DOCTYPE svg PUBLIC "-//W3C//DTD SVG 1.1//EN" "http://www.w3.org/Graphics/SVG/1.1/DTD/svg11.dtd">
<svg version="1.1" id="Layer_1" xmlns="http://www.w3.org/2000/svg" xmlns:xlink="http://www.w3.org/1999/xlink" x="0px" y="0px"
	 viewBox="0 0 350 135" style="enable-background:new 0 0 350 135;" xml:space="preserve">
<style type="text/css">
	.st0{fill:#A9C3FF;}
	.st1{fill:#FFFFFF;}
</style>
<g id="XMLID_1369_">
	<path id="XMLID_2522_" class="st0" d="M317,0.2H65.2C47.2,0.2,32.5,15,32.5,33v7.8c-0.3,5.7-1.9,16.2-8.4,25
		C17.6,74.7,6.2,78,1.7,79.1c3.7-0.6,12-1,20.1,4.5c8,5.4,10.2,13.2,10.7,18.3v0.4c0,0.6,0,1.3,0.1,1.9v2.8c0,0,0.1-0.6,0.1-1.5
		c1.6,16.6,15.6,29.6,32.6,29.6H317c18,0,32.7-14.8,32.7-32.8V33C349.7,15,335,0.2,317,0.2z"/>
	<path id="XMLID_2523_" class="st0" d="M1.7,79.1c-1.2,0.2-2,0.4-2,0.4S0.4,79.3,1.7,79.1z"/>
</g>
<g id="XMLID_1_">
	<path id="XMLID_2_" class="st1" d="M65.1,35.7c1,0.9,3,1.8,4.6,1.8c1.5,0,2.2-0.4,2.2-1.2c0-1-1.2-1-2.8-1.3
		c-2.6-0.5-5.2-1.6-5.2-4.8c0-3.2,2.4-5.2,6.6-5.2c4.1,0,5.9,1.4,5.9,3c0,1.3-1.6,2.5-1.7,2.4c-1-1-2.6-1.7-4.1-1.7
		c-1.4,0-2.1,0.4-2.1,1.2c0,0.9,1.2,0.8,2.9,1.2c3,0.7,5.4,2,5.4,4.8c0,3.4-2.3,5.3-7,5.3c-4.6,0-6.2-1.6-6.2-3.2
		C63.6,36.9,65,35.6,65.1,35.7z"/>
	<path id="XMLID_4_" class="st1" d="M78.3,24.5c0-0.2,0.8-0.5,1.8-0.5c1.3,0,2.8,0.7,2.8,3.5v3.4c0.7-1.2,1.8-2.1,3.7-2.1
		c3.1,0,4.2,2.3,4.2,4.9v5.2c0,1.7-0.8,2.2-2,2.2h-0.5c-1.2,0-2.1-0.5-2.1-2.2v-4.4c0-1.2-0.6-1.8-1.5-1.8c-1.2,0-1.8,0.7-1.8,1.9
		v4.3c0,1.7-0.9,2.2-2,2.2h-0.5c-1.2,0-2.1-0.5-2.1-2.2V24.5z"/>
	<path id="XMLID_6_" class="st1" d="M99.6,33.6h0.5c-0.1-1-0.7-1.6-1.8-1.6c-1.5,0-2.1,0.9-2.4,1.6c0,0.1-3,0.2-3-1.8
		c0-1.9,1.8-3,5.7-3c4.3,0,6.1,1.7,6.1,5.1v6.8c0,0.2-0.9,0.5-1.8,0.5c-1.3,0-2.2-0.6-2.6-1.9c-0.8,1.2-2.3,1.9-4,1.9
		c-2.4,0-4-1.4-4-3.5C92.3,34.9,94.5,33.6,99.6,33.6z M98,38.3c1.2,0,2-0.8,2-2v-0.4h-0.6c-1.8,0-2.8,0.4-2.8,1.3
		C96.6,37.9,97.2,38.3,98,38.3z"/>
	<path id="XMLID_9_" class="st1" d="M106.6,29.4c0-0.2,0.8-0.5,1.8-0.5c1.1,0,2.2,0.5,2.6,2.1c0.5-1.3,1.4-2.2,2.9-2.2
		c1.5,0,2.5,1,2.5,2.5c0,1.8-1.5,2.5-1.5,2.4c-0.4-0.4-1-0.6-1.7-0.6c-1.4,0-2,1-2,2.9v2.8c0,1.7-0.9,2.2-2,2.2h-0.5
		c-1.2,0-2.1-0.5-2.1-2.2V29.4z"/>
	<path id="XMLID_11_" class="st1" d="M123.4,28.7c3.6,0,6.2,2.5,6.2,5.9V35c0,0.7-0.2,1.2-0.9,1.2h-7.5c0.3,1.2,1.3,1.9,2.8,1.9
		c1.4,0,2.4-0.7,2.9-1.5c0,0,2.1,0.2,2.1,1.9c0,1.6-1.8,2.8-5.2,2.8c-4.1,0-6.6-2.3-6.6-6.1C117,31.4,119.7,28.7,123.4,28.7z
		 M125.4,33.8c0-1.2-0.8-2-2.1-2c-1.2,0-2.1,0.9-2.3,2H125.4z"/>
	<path id="XMLID_14_" class="st1" d="M136.5,32.5h-0.3c-1.2,0-1.9-0.6-1.9-1.6v-0.3c0-1.1,0.6-1.7,1.9-1.7h0.3v-1.2
		c0-1.5,0.7-2.2,2.1-2.2h0.4c1.2,0,2.1,0.5,2.1,2.2V29h1.4c1.2,0,1.8,0.5,1.8,1.6v0.3c0,1.1-0.6,1.7-1.8,1.7h-1.4v4
		c0,0.8,0.3,1.2,1,1.2c0.6,0,1-0.3,1.3-0.7c0.1-0.1,1,0.5,1,1.7c0,1.5-1.4,2.6-3.6,2.6c-2.8,0-4.2-1.4-4.2-4.3V32.5z"/>
	<path id="XMLID_16_" class="st1" d="M145.7,24.5c0-0.2,0.8-0.5,1.8-0.5c1.3,0,2.8,0.7,2.8,3.5v3.4c0.7-1.2,1.8-2.1,3.7-2.1
		c3.1,0,4.2,2.3,4.2,4.9v5.2c0,1.7-0.8,2.2-2,2.2h-0.5c-1.2,0-2.1-0.5-2.1-2.2v-4.4c0-1.2-0.6-1.8-1.5-1.8c-1.2,0-1.8,0.7-1.8,1.9
		v4.3c0,1.7-0.9,2.2-2,2.2h-0.5c-1.2,0-2.1-0.5-2.1-2.2V24.5z"/>
	<path id="XMLID_18_" class="st1" d="M166.1,28.7c3.6,0,6.2,2.5,6.2,5.9V35c0,0.7-0.2,1.2-0.9,1.2h-7.5c0.3,1.2,1.3,1.9,2.8,1.9
		c1.4,0,2.4-0.7,2.9-1.5c0,0,2.1,0.2,2.1,1.9c0,1.6-1.8,2.8-5.2,2.8c-4.1,0-6.6-2.3-6.6-6.1C159.7,31.4,162.4,28.7,166.1,28.7z
		 M168.1,33.8c0-1.2-0.8-2-2.1-2c-1.2,0-2.1,0.9-2.3,2H168.1z"/>
	<path id="XMLID_21_" class="st1" d="M177,30.2c-0.1-0.3,1.5-1.3,2.8-1.3c0.9,0,1.8,0.4,2.1,1.8l1,5.7l1.5-5
		c0.3-0.9,1.2-1.4,2.3-1.4c1.1,0,1.9,0.5,2.2,1.4l1.3,4.8l1-5.4c0.2-1.3,1.2-1.8,2-1.8c1.3,0,2.9,1.1,2.8,1.3l-3.1,9.6
		c-0.3,1.1-1.5,1.2-2.3,1.2c-1.5,0-2.1-0.2-2.5-1.5l-1.5-4.6l-1.5,4.6c-0.4,1.3-1.1,1.5-2.5,1.5c-0.8,0-1.9-0.2-2.3-1.2L177,30.2z"
		/>
	<path id="XMLID_23_" class="st1" d="M202.8,28.7c3.6,0,6.2,2.5,6.2,5.9V35c0,0.7-0.2,1.2-0.9,1.2h-7.5c0.3,1.2,1.3,1.9,2.8,1.9
		c1.4,0,2.4-0.7,2.9-1.5c0,0,2.1,0.2,2.1,1.9c0,1.6-1.8,2.8-5.2,2.8c-4.1,0-6.6-2.3-6.6-6.1C196.5,31.4,199.1,28.7,202.8,28.7z
		 M204.8,33.8c0-1.2-0.8-2-2.1-2c-1.2,0-2.1,0.9-2.3,2H204.8z"/>
	<path id="XMLID_26_" class="st1" d="M210.5,24.5c0-0.2,0.8-0.5,1.8-0.5c1.3,0,2.8,0.7,2.8,3.5v3c0.7-1.1,2-1.7,3.5-1.7
		c3.3,0,5.4,2.4,5.4,6.2c0,3.7-2.2,6.3-5.4,6.3c-1.7,0-2.9-0.9-3.5-2.1c-0.1,1.4-0.9,1.9-2,1.9h-0.5c-1.2,0-2.1-0.5-2.1-2.2V24.5z
		 M217.3,37.6c1.4,0,2.4-1.1,2.4-2.7c0-1.6-0.9-2.7-2.3-2.7c-1.1,0-1.8,0.6-2.2,1.4v1.8C215.1,36.8,216,37.6,217.3,37.6z"/>
	<path id="XMLID_29_" class="st1" d="M236.4,33.6h0.5c-0.1-1-0.7-1.6-1.8-1.6c-1.5,0-2.1,0.9-2.4,1.6c0,0.1-3,0.2-3-1.8
		c0-1.9,1.8-3,5.7-3c4.3,0,6.1,1.7,6.1,5.1v6.8c0,0.2-0.9,0.5-1.8,0.5c-1.3,0-2.2-0.6-2.6-1.9c-0.8,1.2-2.3,1.9-4,1.9
		c-2.4,0-4-1.4-4-3.5C229.1,34.9,231.4,33.6,236.4,33.6z M234.9,38.3c1.2,0,2-0.8,2-2v-0.4h-0.6c-1.8,0-2.8,0.4-2.8,1.3
		C233.5,37.9,234,38.3,234.9,38.3z"/>
	<path id="XMLID_32_" class="st1" d="M248.4,28.7c1.5,0,2.8,0.7,3.5,1.6v-5.9c0-0.2,0.8-0.5,1.8-0.5c1.3,0,2.8,0.7,2.8,3.5v11.3
		c0,1.7-0.8,2.2-2,2.2h-0.5c-1.2,0-2-0.5-2.1-2c-0.6,1.3-1.9,2.2-3.5,2.2c-3.3,0-5.4-2.6-5.4-6.3C242.9,31.1,245.1,28.7,248.4,28.7z
		 M249.6,37.6c1.3,0,2.2-0.8,2.2-2.1v-1.9c-0.4-0.8-1.1-1.4-2.2-1.4c-1.4,0-2.4,1-2.4,2.7C247.3,36.6,248.3,37.6,249.6,37.6z"/>
	<path id="XMLID_35_" class="st1" d="M263.5,28.7c1.5,0,2.8,0.7,3.5,1.6v-5.9c0-0.2,0.8-0.5,1.8-0.5c1.3,0,2.8,0.7,2.8,3.5v11.3
		c0,1.7-0.8,2.2-2,2.2H269c-1.2,0-2-0.5-2.1-2c-0.6,1.3-1.9,2.2-3.5,2.2c-3.3,0-5.4-2.6-5.4-6.3C258,31.1,260.2,28.7,263.5,28.7z
		 M264.7,37.6c1.3,0,2.2-0.8,2.2-2.1v-1.9c-0.4-0.8-1.1-1.4-2.2-1.4c-1.4,0-2.4,1-2.4,2.7C262.4,36.6,263.4,37.6,264.7,37.6z"/>
	<path id="XMLID_38_" class="st1" d="M273.6,29.4c0-0.2,0.8-0.5,1.8-0.5c1.1,0,2.2,0.5,2.6,2.1c0.5-1.3,1.4-2.2,2.9-2.2
		c1.5,0,2.5,1,2.5,2.5c0,1.8-1.5,2.5-1.5,2.4c-0.4-0.4-1-0.6-1.7-0.6c-1.4,0-2,1-2,2.9v2.8c0,1.7-0.9,2.2-2,2.2h-0.5
		c-1.2,0-2.1-0.5-2.1-2.2V29.4z"/>
	<path id="XMLID_40_" class="st1" d="M290.4,28.7c3.6,0,6.2,2.5,6.2,5.9V35c0,0.7-0.2,1.2-0.9,1.2h-7.5c0.3,1.2,1.3,1.9,2.8,1.9
		c1.4,0,2.4-0.7,2.9-1.5c0,0,2.1,0.2,2.1,1.9c0,1.6-1.8,2.8-5.2,2.8c-4.1,0-6.6-2.3-6.6-6.1C284.1,31.4,286.8,28.7,290.4,28.7z
		 M292.5,33.8c0-1.2-0.8-2-2.1-2c-1.2,0-2.1,0.9-2.3,2H292.5z"/>
	<path id="XMLID_43_" class="st1" d="M298.6,36.7c0.8,0.8,2.2,1.4,3.8,1.4c1,0,1.5-0.1,1.5-0.6c0-0.6-0.8-0.6-1.9-0.9
		c-1.5-0.3-4.2-0.9-4.2-3.8c0-2.4,2-4,5.2-4c3.4,0,5.1,1,5.1,2.7c0,1.1-1.2,1.9-1.3,1.8c-0.9-0.9-2.2-1.5-3.5-1.5
		c-0.9,0-1.4,0.1-1.4,0.6c0,0.6,0.8,0.6,2.1,0.8c1.5,0.3,4.4,0.9,4.4,3.8c0,2.5-2.1,4-5.6,4c-3.7,0-5.3-1-5.3-2.7
		C297.4,37.4,298.5,36.6,298.6,36.7z"/>
	<path id="XMLID_45_" class="st1" d="M310.5,36.7c0.8,0.8,2.2,1.4,3.8,1.4c1,0,1.5-0.1,1.5-0.6c0-0.6-0.8-0.6-1.9-0.9
		c-1.5-0.3-4.2-0.9-4.2-3.8c0-2.4,2-4,5.2-4c3.4,0,5.1,1,5.1,2.7c0,1.1-1.2,1.9-1.3,1.8c-0.9-0.9-2.2-1.5-3.5-1.5
		c-0.9,0-1.4,0.1-1.4,0.6c0,0.6,0.8,0.6,2.1,0.8c1.5,0.3,4.4,0.9,4.4,3.8c0,2.5-2.1,4-5.6,4c-3.7,0-5.3-1-5.3-2.7
		C309.3,37.4,310.4,36.6,310.5,36.7z"/>
	<path id="XMLID_47_" class="st1" d="M71,61.7c3.9,0,6.5,2.5,6.5,6.2c0,3.8-2.6,6.2-6.5,6.2s-6.5-2.4-6.5-6.3
		C64.4,64.2,67,61.7,71,61.7z M70.9,70.7c1.5,0,2.6-1.2,2.6-2.7c0-1.6-1.1-2.8-2.6-2.8c-1.5,0-2.6,1.2-2.6,2.7
		C68.3,69.6,69.4,70.7,70.9,70.7z"/>
	<path id="XMLID_50_" class="st1" d="M80.2,65.5h-0.5c-1.2,0-1.9-0.6-1.9-1.7v-0.3c0-1,0.6-1.6,1.9-1.6h0.5v-0.3
		c0-3.7,1.9-4.8,4.5-4.8c2.4,0,3.4,1,3.4,2.2c0,1-0.8,1.8-0.9,1.8c-0.3-0.3-0.8-0.6-1.5-0.6c-0.8,0-1.2,0.3-1.2,1.3V62h1
		c1.2,0,1.9,0.6,1.9,1.7v0.3c0,1-0.6,1.6-1.9,1.6h-0.8v6.3c0,1.7-0.8,2.2-2.1,2.2h-0.5c-1.2,0-2.1-0.6-2.1-2.2V65.5z"/>
	<path id="XMLID_52_" class="st1" d="M92,63.2c-0.1-0.2,1.2-1.3,2.6-1.3c1,0,1.9,0.5,2.4,2.1l1.8,5.2l1.7-5.2
		c0.5-1.6,1.4-2.1,2.4-2.1c1.3,0,2.6,1.1,2.5,1.3l-5.2,13.2c-0.6,1.5-1.5,2-2.4,2c-1.3,0-2.6-1-2.5-1.3l2-4.1
		c-0.6-0.1-1-0.4-1.2-0.9L92,63.2z"/>
	<path id="XMLID_54_" class="st1" d="M112.1,61.7c3.9,0,6.5,2.5,6.5,6.2c0,3.8-2.6,6.2-6.5,6.2s-6.5-2.4-6.5-6.3
		C105.5,64.2,108.1,61.7,112.1,61.7z M112,70.7c1.5,0,2.6-1.2,2.6-2.7c0-1.6-1.1-2.8-2.6-2.8c-1.5,0-2.6,1.2-2.6,2.7
		C109.4,69.6,110.5,70.7,112,70.7z"/>
	<path id="XMLID_57_" class="st1" d="M120,64.1c0-1.7,0.8-2.2,2-2.2h0.5c1.2,0,2.1,0.5,2.1,2.2v4.6c0,1.1,0.6,1.8,1.6,1.8
		c0.8,0,1.4-0.4,1.8-0.9v-5.4c0-1.7,0.9-2.2,2-2.2h0.5c1.2,0,2.1,0.5,2.1,2.2v9.4c0,0.1-0.8,0.5-1.8,0.5c-1.1,0-2.2-0.4-2.6-2
		c-0.8,1.3-2,2.2-3.9,2.2c-3.1,0-4.2-2.3-4.2-4.7V64.1z"/>
	<path id="XMLID_59_" class="st1" d="M134.7,62.4c0-0.2,0.8-0.5,1.8-0.5c1.1,0,2.2,0.5,2.6,2.1c0.5-1.3,1.4-2.2,2.9-2.2
		c1.5,0,2.5,1,2.5,2.5c0,1.8-1.5,2.5-1.5,2.4c-0.4-0.4-1-0.6-1.7-0.6c-1.4,0-2,1-2,2.9v2.8c0,1.7-0.9,2.2-2,2.2h-0.5
		c-1.2,0-2.1-0.5-2.1-2.2V62.4z"/>
	<path id="XMLID_61_" class="st1" d="M150,62.4c0-0.2,0.8-0.5,1.8-0.5c1.1,0,2.3,0.5,2.7,2.2c0.6-1.4,1.9-2.3,3.6-2.3
		c3.3,0,5.4,2.4,5.4,6.2c0,3.7-2.2,6.3-5.4,6.3c-1.6,0-2.9-0.9-3.5-2.1v4.2c0,1.7-0.9,2.2-2,2.2H152c-1.2,0-2.1-0.5-2.1-2.2V62.4z
		 M156.7,70.6c1.4,0,2.4-1.1,2.4-2.7c0-1.6-0.9-2.7-2.3-2.7c-1.1,0-1.8,0.6-2.2,1.4v1.8C154.5,69.8,155.5,70.6,156.7,70.6z"/>
	<path id="XMLID_64_" class="st1" d="M165.1,57.5c0-0.2,0.8-0.5,1.8-0.5c1.3,0,2.8,0.7,2.8,3.5v11.3c0,1.7-0.8,2.2-2,2.2h-0.5
		c-1.2,0-2.1-0.5-2.1-2.2V57.5z"/>
	<path id="XMLID_66_" class="st1" d="M178.7,66.6h0.5c-0.1-1-0.7-1.6-1.8-1.6c-1.5,0-2.1,0.9-2.4,1.6c0,0.1-3,0.2-3-1.8
		c0-1.9,1.8-3,5.7-3c4.3,0,6.1,1.7,6.1,5.1v6.8c0,0.2-0.9,0.5-1.8,0.5c-1.3,0-2.2-0.6-2.6-1.9c-0.8,1.2-2.3,1.9-4,1.9
		c-2.4,0-4-1.4-4-3.5C171.4,67.9,173.6,66.6,178.7,66.6z M177.1,71.3c1.2,0,2-0.8,2-2v-0.4h-0.6c-1.8,0-2.8,0.4-2.8,1.3
		C175.7,70.9,176.3,71.3,177.1,71.3z"/>
	<path id="XMLID_69_" class="st1" d="M184.6,63.2c-0.1-0.2,1.2-1.3,2.6-1.3c1,0,1.9,0.5,2.4,2.1l1.8,5.2l1.7-5.2
		c0.5-1.6,1.4-2.1,2.4-2.1c1.3,0,2.6,1.1,2.5,1.3l-5.2,13.2c-0.6,1.5-1.5,2-2.4,2c-1.3,0-2.6-1-2.5-1.3l2-4.1
		c-0.6-0.1-1-0.4-1.2-0.9L184.6,63.2z"/>
	<path id="XMLID_71_" class="st1" d="M199.6,69.7c0.8,0.8,2.2,1.4,3.8,1.4c1,0,1.5-0.1,1.5-0.6c0-0.6-0.8-0.6-1.9-0.9
		c-1.5-0.3-4.2-0.9-4.2-3.8c0-2.4,2-4,5.2-4c3.4,0,5.1,1,5.1,2.7c0,1.1-1.2,1.9-1.3,1.8c-0.9-0.9-2.2-1.5-3.5-1.5
		c-0.9,0-1.4,0.1-1.4,0.6c0,0.6,0.8,0.6,2.1,0.8c1.5,0.3,4.4,0.9,4.4,3.8c0,2.5-2.1,4-5.6,4c-3.7,0-5.3-1-5.3-2.7
		C198.4,70.4,199.5,69.6,199.6,69.7z"/>
	<path id="XMLID_73_" class="st1" d="M211,62.4c0-0.2,0.8-0.5,1.8-0.5c1.1,0,2.3,0.5,2.7,2.2c0.6-1.4,1.9-2.3,3.6-2.3
		c3.3,0,5.4,2.4,5.4,6.2c0,3.7-2.2,6.3-5.4,6.3c-1.6,0-2.9-0.9-3.5-2.1v4.2c0,1.7-0.9,2.2-2,2.2H213c-1.2,0-2.1-0.5-2.1-2.2V62.4z
		 M217.8,70.6c1.4,0,2.4-1.1,2.4-2.7c0-1.6-0.9-2.7-2.3-2.7c-1.1,0-1.8,0.6-2.2,1.4v1.8C215.5,69.8,216.5,70.6,217.8,70.6z"/>
	<path id="XMLID_76_" class="st1" d="M232.8,66.6h0.5c-0.1-1-0.7-1.6-1.8-1.6c-1.5,0-2.1,0.9-2.4,1.6c0,0.1-3,0.2-3-1.8
		c0-1.9,1.8-3,5.7-3c4.3,0,6.1,1.7,6.1,5.1v6.8c0,0.2-0.9,0.5-1.8,0.5c-1.3,0-2.2-0.6-2.6-1.9c-0.8,1.2-2.3,1.9-4,1.9
		c-2.4,0-4-1.4-4-3.5C225.5,67.9,227.7,66.6,232.8,66.6z M231.3,71.3c1.2,0,2-0.8,2-2v-0.4h-0.6c-1.8,0-2.8,0.4-2.8,1.3
		C229.9,70.9,230.4,71.3,231.3,71.3z"/>
	<path id="XMLID_79_" class="st1" d="M245.6,61.8c3.8,0,5.1,2,5.1,3.2c0,1.8-2.4,2.1-2.4,2c-0.4-0.9-1.1-1.6-2.4-1.6
		c-1.4,0-2.5,1.1-2.5,2.6c0,1.6,1,2.7,2.5,2.7c1.2,0,2-0.6,2.4-1.6c0.1-0.2,2.4,0.1,2.4,2c0,1.2-1.4,3.1-5.1,3.1
		c-3.8,0-6.3-2.5-6.3-6.3C239.3,64.4,241.9,61.8,245.6,61.8z"/>
	<path id="XMLID_81_" class="st1" d="M257.9,61.7c3.6,0,6.2,2.5,6.2,5.9V68c0,0.7-0.2,1.2-0.9,1.2h-7.5c0.3,1.2,1.3,1.9,2.8,1.9
		c1.4,0,2.4-0.7,2.9-1.5c0,0,2.1,0.2,2.1,1.9c0,1.6-1.8,2.8-5.2,2.8c-4.1,0-6.6-2.3-6.6-6.1C251.6,64.4,254.3,61.7,257.9,61.7z
		 M260,66.8c0-1.2-0.8-2-2.1-2c-1.2,0-2.1,0.9-2.3,2H260z"/>
	<path id="XMLID_84_" class="st1" d="M268.9,63.2c-0.1-0.3,1.5-1.3,2.8-1.3c0.9,0,1.8,0.4,2.1,1.8l1,5.7l1.5-5
		c0.3-0.9,1.2-1.4,2.3-1.4c1.1,0,1.9,0.5,2.2,1.4l1.3,4.8l1-5.4c0.2-1.3,1.2-1.8,2-1.8c1.3,0,2.9,1.1,2.8,1.3l-3.1,9.6
		c-0.3,1.1-1.5,1.2-2.3,1.2c-1.5,0-2.1-0.2-2.5-1.5l-1.5-4.6l-1.5,4.6c-0.4,1.3-1.1,1.5-2.5,1.5c-0.8,0-1.9-0.2-2.3-1.2L268.9,63.2z
		"/>
	<path id="XMLID_86_" class="st1" d="M289.1,58.4c0-1.3,0.9-2.2,2.4-2.2c1.5,0,2.5,0.8,2.5,2.2c0,1.3-0.9,2.2-2.4,2.2
		C290,60.6,289.1,59.8,289.1,58.4z M289.2,64.1c0-1.7,0.9-2.2,2.1-2.2h0.5c1.2,0,2.1,0.5,2.1,2.2v7.7c0,1.7-0.8,2.2-2,2.2h-0.5
		c-1.2,0-2.1-0.5-2.1-2.2V64.1z"/>
	<path id="XMLID_89_" class="st1" d="M297.3,65.5H297c-1.2,0-1.9-0.6-1.9-1.6v-0.3c0-1.1,0.6-1.7,1.9-1.7h0.3v-1.2
		c0-1.5,0.7-2.2,2.1-2.2h0.4c1.2,0,2.1,0.5,2.1,2.2V62h1.4c1.2,0,1.8,0.5,1.8,1.6v0.3c0,1.1-0.6,1.7-1.8,1.7h-1.4v4
		c0,0.8,0.3,1.2,1,1.2c0.6,0,1-0.3,1.3-0.7c0.1-0.1,1,0.5,1,1.7c0,1.5-1.4,2.6-3.6,2.6c-2.8,0-4.2-1.4-4.2-4.3V65.5z"/>
	<path id="XMLID_91_" class="st1" d="M306.5,57.5c0-0.2,0.8-0.5,1.8-0.5c1.3,0,2.8,0.7,2.8,3.5v3.4c0.7-1.2,1.8-2.1,3.7-2.1
		c3.1,0,4.2,2.3,4.2,4.9v5.2c0,1.7-0.8,2.2-2,2.2h-0.5c-1.2,0-2.1-0.5-2.1-2.2v-4.4c0-1.2-0.6-1.8-1.5-1.8c-1.2,0-1.8,0.7-1.8,1.9
		v4.3c0,1.7-0.9,2.2-2,2.2h-0.5c-1.2,0-2.1-0.5-2.1-2.2V57.5z"/>
	<path id="XMLID_93_" class="st1" d="M87.2,98.5h-0.5c-1.2,0-1.9-0.6-1.9-1.7v-0.3c0-1,0.6-1.6,1.9-1.6h0.5v-0.3
		c0-3.7,1.9-4.8,4.5-4.8c2.4,0,3.4,1,3.4,2.2c0,1-0.8,1.8-0.9,1.8c-0.3-0.3-0.8-0.6-1.5-0.6c-0.8,0-1.2,0.3-1.2,1.3V95h1
		c1.2,0,1.9,0.6,1.9,1.7v0.3c0,1-0.6,1.6-1.9,1.6h-0.8v6.3c0,1.7-0.8,2.2-2.1,2.2h-0.5c-1.2,0-2.1-0.6-2.1-2.2V98.5z"/>
	<path id="XMLID_95_" class="st1" d="M95.8,95.4c0-0.2,0.8-0.5,1.8-0.5c1.1,0,2.2,0.5,2.6,2.1c0.5-1.3,1.4-2.2,2.9-2.2
		c1.5,0,2.5,1,2.5,2.5c0,1.8-1.5,2.5-1.5,2.4c-0.4-0.4-1-0.6-1.7-0.6c-1.4,0-2,1-2,2.9v2.8c0,1.7-0.9,2.2-2,2.2h-0.5
		c-1.2,0-2.1-0.5-2.1-2.2V95.4z"/>
	<path id="XMLID_97_" class="st1" d="M107,91.4c0-1.3,0.9-2.2,2.4-2.2c1.5,0,2.5,0.8,2.5,2.2c0,1.3-0.9,2.2-2.4,2.2
		C107.9,93.6,107,92.8,107,91.4z M107.1,97.1c0-1.7,0.9-2.2,2.1-2.2h0.5c1.2,0,2.1,0.5,2.1,2.2v7.7c0,1.7-0.8,2.2-2,2.2h-0.5
		c-1.2,0-2.1-0.5-2.1-2.2V97.1z"/>
	<path id="XMLID_100_" class="st1" d="M119.7,94.7c3.6,0,6.2,2.5,6.2,5.9v0.3c0,0.7-0.2,1.2-0.9,1.2h-7.5c0.3,1.2,1.3,1.9,2.8,1.9
		c1.4,0,2.4-0.7,2.9-1.5c0,0,2.1,0.2,2.1,1.9c0,1.6-1.8,2.8-5.2,2.8c-4.1,0-6.6-2.3-6.6-6.1C113.4,97.4,116,94.7,119.7,94.7z
		 M121.7,99.8c0-1.2-0.8-2-2.1-2c-1.2,0-2.1,0.9-2.3,2H121.7z"/>
	<path id="XMLID_103_" class="st1" d="M127.4,95.4c0-0.2,0.8-0.5,1.8-0.5c1.1,0,2.2,0.5,2.6,2.1c0.8-1.3,2-2.2,3.9-2.2
		c3.1,0,4.2,2.2,4.2,4.7v5.3c0,1.7-0.8,2.2-2,2.2h-0.5c-1.2,0-2.1-0.5-2.1-2.2v-4.5c0-1.1-0.6-1.8-1.5-1.8c-0.8,0-1.4,0.4-1.8,1v5.3
		c0,1.7-0.9,2.2-2,2.2h-0.5c-1.2,0-2.1-0.5-2.1-2.2V95.4z"/>
	<path id="XMLID_105_" class="st1" d="M146.9,94.7c1.5,0,2.8,0.7,3.5,1.6v-5.9c0-0.2,0.8-0.5,1.8-0.5c1.3,0,2.8,0.7,2.8,3.5v11.3
		c0,1.7-0.8,2.2-2,2.2h-0.5c-1.2,0-2-0.5-2.1-2c-0.6,1.3-1.9,2.2-3.5,2.2c-3.3,0-5.4-2.6-5.4-6.3C141.4,97.1,143.6,94.7,146.9,94.7z
		 M148.1,103.6c1.3,0,2.2-0.8,2.2-2.1v-1.9c-0.4-0.8-1.1-1.4-2.2-1.4c-1.4,0-2.4,1-2.4,2.7C145.8,102.6,146.7,103.6,148.1,103.6z"/>
	<path id="XMLID_108_" class="st1" d="M157.5,102.7c0.8,0.8,2.2,1.4,3.8,1.4c1,0,1.5-0.1,1.5-0.6c0-0.6-0.8-0.6-1.9-0.9
		c-1.5-0.3-4.2-0.9-4.2-3.8c0-2.4,2-4,5.2-4c3.4,0,5.1,1,5.1,2.7c0,1.1-1.2,1.9-1.3,1.8c-0.9-0.9-2.2-1.5-3.5-1.5
		c-0.9,0-1.4,0.1-1.4,0.6c0,0.6,0.8,0.6,2.1,0.8c1.5,0.3,4.4,0.9,4.4,3.8c0,2.5-2.1,4-5.6,4c-3.7,0-5.3-1-5.3-2.7
		C156.3,103.4,157.4,102.6,157.5,102.7z"/>
	<path id="XMLID_110_" class="st1" d="M179.7,99.6h0.5c-0.1-1-0.7-1.6-1.8-1.6c-1.5,0-2.1,0.9-2.4,1.6c0,0.1-3,0.2-3-1.8
		c0-1.9,1.8-3,5.7-3c4.3,0,6.1,1.7,6.1,5.1v6.8c0,0.2-0.9,0.5-1.8,0.5c-1.3,0-2.2-0.6-2.6-1.9c-0.8,1.2-2.3,1.9-4,1.9
		c-2.4,0-4-1.4-4-3.5C172.4,100.9,174.6,99.6,179.7,99.6z M178.1,104.3c1.2,0,2-0.8,2-2v-0.4h-0.6c-1.8,0-2.8,0.4-2.8,1.3
		C176.7,103.9,177.3,104.3,178.1,104.3z"/>
	<path id="XMLID_113_" class="st1" d="M186.7,95.4c0-0.2,0.8-0.5,1.8-0.5c1.1,0,2.2,0.5,2.6,2.1c0.8-1.3,2-2.2,3.9-2.2
		c3.1,0,4.2,2.2,4.2,4.7v5.3c0,1.7-0.8,2.2-2,2.2h-0.5c-1.2,0-2.1-0.5-2.1-2.2v-4.5c0-1.1-0.6-1.8-1.5-1.8c-0.8,0-1.4,0.4-1.8,1v5.3
		c0,1.7-0.9,2.2-2,2.2h-0.5c-1.2,0-2.1-0.5-2.1-2.2V95.4z"/>
	<path id="XMLID_115_" class="st1" d="M206.2,94.7c1.5,0,2.8,0.7,3.5,1.6v-5.9c0-0.2,0.8-0.5,1.8-0.5c1.3,0,2.8,0.7,2.8,3.5v11.3
		c0,1.7-0.8,2.2-2,2.2h-0.5c-1.2,0-2-0.5-2.1-2c-0.6,1.3-1.9,2.2-3.5,2.2c-3.3,0-5.4-2.6-5.4-6.3C200.7,97.1,202.9,94.7,206.2,94.7z
		 M207.4,103.6c1.3,0,2.2-0.8,2.2-2.1v-1.9c-0.4-0.8-1.1-1.4-2.2-1.4c-1.4,0-2.4,1-2.4,2.7C205.1,102.6,206.1,103.6,207.4,103.6z"/>
	<path id="XMLID_118_" class="st1" d="M221.8,98.5h-0.5c-1.2,0-1.9-0.6-1.9-1.7v-0.3c0-1,0.6-1.6,1.9-1.6h0.5v-0.3
		c0-3.7,1.9-4.8,4.5-4.8c2.4,0,3.4,1,3.4,2.2c0,1-0.8,1.8-0.9,1.8c-0.3-0.3-0.8-0.6-1.5-0.6c-0.8,0-1.2,0.3-1.2,1.3V95h1
		c1.2,0,1.9,0.6,1.9,1.7v0.3c0,1-0.6,1.6-1.9,1.6h-0.8v6.3c0,1.7-0.8,2.2-2.1,2.2h-0.5c-1.2,0-2.1-0.6-2.1-2.2V98.5z"/>
	<path id="XMLID_120_" class="st1" d="M236.8,99.6h0.5c-0.1-1-0.7-1.6-1.8-1.6c-1.5,0-2.1,0.9-2.4,1.6c0,0.1-3,0.2-3-1.8
		c0-1.9,1.8-3,5.7-3c4.3,0,6.1,1.7,6.1,5.1v6.8c0,0.2-0.9,0.5-1.8,0.5c-1.3,0-2.2-0.6-2.6-1.9c-0.8,1.2-2.3,1.9-4,1.9
		c-2.4,0-4-1.4-4-3.5C229.5,100.9,231.7,99.6,236.8,99.6z M235.2,104.3c1.2,0,2-0.8,2-2v-0.4h-0.6c-1.8,0-2.8,0.4-2.8,1.3
		C233.8,103.9,234.4,104.3,235.2,104.3z"/>
	<path id="XMLID_123_" class="st1" d="M243.8,95.4c0-0.2,0.8-0.5,1.8-0.5c1.1,0,2.2,0.5,2.6,2.1c0.8-1.2,1.9-2.2,3.7-2.2
		c2,0,3.2,1,3.7,2.4c0.8-1.3,1.9-2.4,3.9-2.4c3,0,4.1,2,4.1,4.6v5.5c0,1.7-0.8,2.2-2,2.2h-0.5c-1.2,0-2.1-0.5-2.1-2.2v-4.7
		c0-1.1-0.5-1.6-1.4-1.6c-0.7,0-1.2,0.4-1.6,0.9v5.4c0,1.7-0.8,2.2-2,2.2h-0.5c-1.2,0-2.1-0.5-2.1-2.2v-4.6c0-1.1-0.5-1.7-1.4-1.7
		c-0.7,0-1.2,0.4-1.6,0.9v5.4c0,1.7-0.9,2.2-2,2.2h-0.5c-1.2,0-2.1-0.5-2.1-2.2V95.4z"/>
	<path id="XMLID_125_" class="st1" d="M265.5,91.4c0-1.3,0.9-2.2,2.4-2.2c1.5,0,2.5,0.8,2.5,2.2c0,1.3-0.9,2.2-2.4,2.2
		C266.5,93.6,265.5,92.8,265.5,91.4z M265.7,97.1c0-1.7,0.9-2.2,2.1-2.2h0.5c1.2,0,2.1,0.5,2.1,2.2v7.7c0,1.7-0.8,2.2-2,2.2h-0.5
		c-1.2,0-2.1-0.5-2.1-2.2V97.1z"/>
	<path id="XMLID_128_" class="st1" d="M272.6,90.5c0-0.2,0.8-0.5,1.8-0.5c1.3,0,2.8,0.7,2.8,3.5v11.3c0,1.7-0.8,2.2-2,2.2h-0.5
		c-1.2,0-2.1-0.5-2.1-2.2V90.5z"/>
	<path id="XMLID_130_" class="st1" d="M278.5,96.2c-0.1-0.2,1.2-1.3,2.6-1.3c1,0,1.9,0.5,2.4,2.1l1.8,5.2l1.7-5.2
		c0.5-1.6,1.4-2.1,2.4-2.1c1.3,0,2.6,1.1,2.5,1.3l-5.2,13.2c-0.6,1.5-1.5,2-2.4,2c-1.3,0-2.6-1-2.5-1.3l2-4.1
		c-0.6-0.1-1-0.4-1.2-0.9L278.5,96.2z"/>
	<path id="XMLID_132_" class="st1" d="M294.1,100.3l-1.2-6.3c-0.5-1.8,0.6-2.9,2.3-2.9h0.6c1.8,0,2.9,1.2,2.4,2.9l-1.2,6.3
		c-0.3,1-0.6,1.4-1.2,1.4h-0.5C294.7,101.7,294.4,101.2,294.1,100.3z M293.3,104.7c0-1.3,0.6-1.9,1.9-1.9h0.6c1.4,0,2,0.6,2,1.9v0.4
		c0,1.3-0.6,1.9-2,1.9h-0.6c-1.3,0-1.9-0.6-1.9-1.9V104.7z"/>
</g>
</svg>
