<?xml version="1.0" encoding="utf-8"?>
<!-- Generator: Adobe Illustrator 19.1.0, SVG Export Plug-In . SVG Version: 6.00 Build 0)  -->
<!DOCTYPE svg PUBLIC "-//W3C//DTD SVG 1.1//EN" "http://www.w3.org/Graphics/SVG/1.1/DTD/svg11.dtd">
<svg version="1.1" id="Layer_1" xmlns="http://www.w3.org/2000/svg" xmlns:xlink="http://www.w3.org/1999/xlink" x="0px" y="0px"
	 viewBox="0 0 100 100" style="enable-background:new 0 0 100 100;" xml:space="preserve">
<style type="text/css">
	.st0{fill:#FFD953;}
	.st1{fill:#FFFFFF;}
	.st2{fill:#FFB50C;}
	.st3{fill:#E1DED8;}
	.st4{fill:#231F20;}
	.st5{fill:#FF55A6;}
	.st6{fill:#DF475A;}
</style>
<g>
	<circle class="st0" cx="73.8" cy="27.1" r="13.9"/>
	<path class="st1" d="M73.8,36.8c-2.6,0-5-1-6.9-2.8c-3.8-3.8-3.8-10,0-13.7c1.8-1.8,4.3-2.8,6.9-2.8s5,1,6.9,2.8
		c3.8,3.8,3.8,10,0,13.7C78.9,35.8,76.4,36.8,73.8,36.8z"/>
	<circle class="st0" cx="24.7" cy="27.1" r="13.9"/>
	<path class="st1" d="M24.7,36.8c-2.6,0-5-1-6.9-2.8c-3.8-3.8-3.8-10,0-13.7c1.8-1.8,4.3-2.8,6.9-2.8s5,1,6.9,2.8
		c3.8,3.8,3.8,10,0,13.7C29.8,35.8,27.3,36.8,24.7,36.8z"/>
</g>
<circle class="st0" cx="49.3" cy="51.5" r="34.7"/>
<path class="st2" d="M49.3,86.2c-19.2,0-34.7-15.5-34.7-34.7s15.5-34.7,34.7-34.7"/>
<circle class="st1" cx="49.3" cy="65.4" r="20"/>
<path class="st3" d="M49.3,85.4c-11,0-20-9-20-20s9-20,20-20"/>
<path class="st4" d="M23.4,48.4c0-1.3-3.6-2.5-8.3-2.7c-0.3,1.8-0.5,3.6-0.5,5.5C19.6,51,23.4,49.8,23.4,48.4z"/>
<path class="st4" d="M28.1,68.1c0-1.5-4.7-2.8-10.5-2.8v0.4c0.8,1.7,1.7,3.4,2.8,5C24.9,70.5,28.1,69.4,28.1,68.1z"/>
<path class="st4" d="M26.5,58.2c0-1.5-5.1-2.7-11.8-2.9c0.2,1.9,0.6,3.9,1.1,5.7C22,60.8,26.5,59.6,26.5,58.2z"/>
<path class="st4" d="M59.5,28.4c1.3,0,2.4-3.8,2.8-9.1c-1.8-0.7-3.7-1.3-5.6-1.7C56.9,23.7,58.1,28.4,59.5,28.4z"/>
<path class="st4" d="M49.3,28.4c1.5,0,2.7-5,2.9-11.5c-1.9-0.2-3.9-0.2-5.8,0C46.6,23.4,47.8,28.4,49.3,28.4z"/>
<path class="st4" d="M39,28.4c1.4,0,2.6-4.6,2.9-10.8c-1.9,0.4-3.8,1-5.6,1.7C36.6,24.6,37.7,28.4,39,28.4z"/>
<path class="st4" d="M75.7,48.4c0,1.3,3.6,2.5,8.3,2.7c0-1.8-0.2-3.6-0.5-5.4C79,46,75.7,47.1,75.7,48.4z"/>
<path class="st4" d="M71,68.1c0,1.2,3,2.3,7.2,2.6c1.2-1.7,2.1-3.5,3-5.4C75.5,65.4,71,66.6,71,68.1z"/>
<path class="st4" d="M72.6,58.2c0,1.4,4.3,2.5,10.1,2.8c0.5-1.9,0.9-3.8,1.1-5.7C77.4,55.5,72.6,56.7,72.6,58.2z"/>
<rect x="48.6" y="52.5" class="st5" width="1.4" height="15.4"/>
<path class="st5" d="M56.1,46.6c-2.1-0.8-4.4-1.2-6.8-1.2s-4.7,0.4-6.8,1.2l6.8,7.4L56.1,46.6z"/>
<path class="st6" d="M49.3,45.4c-2.4,0-4.7,0.4-6.8,1.2l6.8,7.4"/>
</svg>
