<?xml version="1.0" encoding="utf-8"?>
<!-- Generator: Adobe Illustrator 19.1.0, SVG Export Plug-In . SVG Version: 6.00 Build 0)  -->
<!DOCTYPE svg PUBLIC "-//W3C//DTD SVG 1.1//EN" "http://www.w3.org/Graphics/SVG/1.1/DTD/svg11.dtd">
<svg version="1.1" id="Layer_1" xmlns="http://www.w3.org/2000/svg" xmlns:xlink="http://www.w3.org/1999/xlink" x="0px" y="0px"
	 viewBox="-72 -51.3 100 152.3" style="enable-background:new -72 -51.3 100 152.3;" xml:space="preserve">
<style type="text/css">
	.st0{fill:#36AD86;}
	.st1{fill:#78C8AE;}
	.st2{fill:#B0DFCF;}
	.st3{fill:#8ACFB9;}
	.st4{fill:#009766;}
	.st5{fill:#3DB08B;}
	.st6{fill:#22AA76;}
	.st7{fill:#AF9BF9;}
</style>
<g>
	<path class="st0" d="M-18.2,1.7c0-0.1,0-0.6,0-0.6h-7.4c0,0,0,0.6,0,0.7c0,0.3,1.7,0.5,3.7,0.5C-19.8,2.2-18.2,2-18.2,1.7z"/>
	
		<rect x="-25.6" y="-4.5" transform="matrix(1 -9.289807e-03 9.289807e-03 1 1.329651e-02 -0.2038)" class="st0" width="7.4" height="5.9"/>
	<path class="st1" d="M-18.2,1.3c0-0.1,0-0.3,0-0.3l-7.4,0.1c0,0,0,0.2,0,0.3c0,0.3,1.7,0.5,3.7,0.5C-19.8,1.8-18.2,1.6-18.2,1.3z"
		/>
	<path class="st1" d="M-25.6,1.1C-25.6,1.2-25.6,1.2-25.6,1.1h7.4V1c0-0.3-1.7-0.5-3.7-0.5C-23.9,0.6-25.6,0.8-25.6,1.1z"/>
	
		<rect x="-24.3" y="-21.3" transform="matrix(1 -9.289807e-03 9.289807e-03 1 9.226830e-02 -0.2115)" class="st1" width="3.2" height="22.6"/>
	<path id="XMLID_2841_" class="st1" d="M-19.4-22.4c-0.6-2.8-1.2-5.6-1.8-8.4c-0.1-0.3-0.3-0.5-0.6-0.5c-0.2,0-0.4,0-0.6,0
		c-0.3,0-0.6,0.2-0.6,0.5c-0.6,2.8-1.2,5.6-1.8,8.5C-23-22.5-21.2-22.5-19.4-22.4z"/>
	<path id="XMLID_2836_" class="st1" d="M-18.5-21.6c0,0.6,0,1.3,0,1.9c0,0-1.7-0.5-4-0.5s-3.3,0.6-3.3,0.6c0-0.6,0-1.3,0-1.9
		c0-0.3,0.2-0.6,0.5-0.7c0.7-0.1,1.9-0.3,3.3-0.3c1.3,0,2.4,0.1,2.9,0.2C-18.7-22.3-18.5-21.9-18.5-21.6z"/>
	<g>
		<path class="st0" d="M-25.2-22.3c0.1,0,0.3-0.1,0.4-0.1c0.6-2.9,1.2-5.7,1.8-8.5c0.1-0.2,0.3-0.4,0.5-0.4l0,0
			c-0.2,3-0.5,5.9-0.7,8.9c-0.4,0-0.8,0-1.2,0.1v2.5c-0.4,0.1-0.9,0.3-1.3,0.5c0-0.7,0-1.5,0-2.2C-25.7-21.9-25.5-22.2-25.2-22.3z"
			/>
		<path class="st0" d="M-19.4-22.4c0.1,0,0.3,0,0.4,0.1c0.3,0.1,0.5,0.4,0.5,0.7c0,0.7,0,1.3,0,2c0,0-0.4-0.5-2.7-0.5v-2.2
			c-0.2,0-0.5,0-0.7,0l-0.1-9c0.1,0,0.2,0,0.3,0c0.3,0,0.5,0.2,0.5,0.4C-20.6-28.1-20-25.2-19.4-22.4z"/>
	</g>
	<path class="st2" d="M-25.7-1.2l-0.2-18.7c0,0,1.2-0.6,3.8-0.6s3.8,0.4,3.8,0.4l0.2,18.8c-1.3-0.3-2.5-0.4-3.9-0.4
		C-23.3-1.6-24.5-1.5-25.7-1.2z"/>
	<path class="st3" d="M-22.1-1.7v-18.9c2.6,0,3.8,0.4,3.8,0.4l0.2,18.9C-19.4-1.5-20.7-1.7-22.1-1.7C-22-1.7-22-1.7-22.1-1.7z"/>
	<g>
		<g id="XMLID_2602_">
			<path id="XMLID_2834_" class="st4" d="M-21-16.2c-0.8,0-1.4-0.3-2-0.6c-0.7-0.3-1.5-0.7-2.5-0.5c-0.1,0-0.3,0.1-0.4,0.1
				c0-0.4,0-0.8,0-1.1c0,0,1.2-0.5,3.8-0.5c2.7,0,3.8,0.4,3.8,0.4c0,0.4,0,0.8,0,1.2c-0.1,0.1-0.3,0.2-0.4,0.3
				C-18.7-16.9-19.5-16.2-21-16.2z"/>
			<path id="XMLID_2608_" class="st4" d="M-23.6-15.4c0.7,0.3,1.6,0.7,2.7,0.7c1.2,0,2.1-0.3,2.7-0.5c0,0.7,0,1.4,0,2.2
				c-1.2-0.5-2.5-0.3-3.8-0.3s-2.6-0.1-3.8,0.4c0-0.9,0-1.8,0-2.7c0.1-0.1,0.3-0.1,0.4-0.1C-24.8-15.9-24.3-15.7-23.6-15.4z"/>
		</g>
		<path class="st5" d="M-25.5-17.2c-0.1,0-0.3,0.1-0.4,0.1c0-0.4,0-0.8,0-1.1c0,0,1.1-0.5,3.8-0.5c0,0.8,0,1.6,0,2.4
			c-0.3-0.1-0.6-0.2-0.9-0.4C-23.7-17.1-24.5-17.5-25.5-17.2z"/>
		<path class="st5" d="M-25.9-15.6c0.1-0.1,0.3-0.1,0.4-0.1c0.6-0.1,1.2,0.1,1.8,0.3c0.5,0.2,1,0.4,1.6,0.6c0,0.5,0,1,0,1.5
			c-1.3,0-2.6-0.1-3.8,0.4C-25.8-13.9-25.8-14.7-25.9-15.6z"/>
	</g>
</g>
<g>
	<path class="st6" d="M-18.4,41.2l-3.6-8.1l-3.6,8.1C-40.4,43-52,55.6-52,71c0,16.6,13.4,30,30,30S8,87.6,8,71
		C8,55.7-3.5,43-18.4,41.2z M-22,95.3c-13.4,0-24.3-10.9-24.3-24.3S-35.4,46.7-22,46.7S2.3,57.6,2.3,71S-8.6,95.3-22,95.3z"/>
	<path class="st7" d="M-22,95.3c-13.4,0-24.3-10.9-24.3-24.3S-35.4,46.7-22,46.7S2.3,57.6,2.3,71S-8.6,95.3-22,95.3z"/>
</g>
</svg>
