<?xml version="1.0" encoding="utf-8"?>
<!-- Generator: Adobe Illustrator 19.1.0, SVG Export Plug-In . SVG Version: 6.00 Build 0)  -->
<!DOCTYPE svg PUBLIC "-//W3C//DTD SVG 1.1//EN" "http://www.w3.org/Graphics/SVG/1.1/DTD/svg11.dtd">
<svg version="1.1" id="Layer_1" xmlns="http://www.w3.org/2000/svg" xmlns:xlink="http://www.w3.org/1999/xlink" x="0px" y="0px"
	 viewBox="0 -26.3 100 152.3" style="enable-background:new 0 -26.3 100 152.3;" xml:space="preserve">
<style type="text/css">
	.st0{fill:#4580F4;}
	.st1{fill:#AF9BF9;}
	.st2{fill:#427CEE;}
	.st3{fill:#6B99F2;}
	.st4{fill:#A8C3F7;}
	.st5{fill:#7DA5F3;}
	.st6{fill:#004EE8;}
	.st7{fill:#2467EB;}
</style>
<g>
	<path class="st0" d="M53.5,66.2l-3.6-8.1l-3.5,8.1C31.5,68,20,80.7,20,96.1c0,16.6,13.5,30,30.1,30s30-13.5,30-30.1
		C80,80.6,68.4,67.9,53.5,66.2z M50.1,120.3c-13.4,0-24.3-10.9-24.4-24.3c0-13.3,10.8-24.3,24.2-24.3S74.2,82.6,74.3,96
		S63.5,120.3,50.1,120.3z"/>
	<path class="st1" d="M50.1,120.3c-13.4,0-24.3-10.9-24.4-24.3c0-13.3,10.8-24.3,24.2-24.3S74.2,82.6,74.3,96S63.5,120.3,50.1,120.3
		z"/>
</g>
<g>
	<path class="st2" d="M46.5,26.8c0-0.1,0-0.6,0-0.6l7.4-0.2c0,0,0,0.6,0,0.7c0,0.3-1.6,0.5-3.7,0.6S46.5,27.1,46.5,26.8z"/>
	
		<rect x="46.4" y="20.5" transform="matrix(-0.9999 1.410670e-02 -1.410670e-02 -0.9999 100.5256 46.1917)" class="st2" width="7.4" height="5.9"/>
	<path class="st3" d="M46.5,26.4c0-0.1,0-0.3,0-0.3l7.4-0.1c0,0,0,0.2,0,0.3c0,0.3-1.6,0.5-3.7,0.6S46.5,26.7,46.5,26.4z"/>
	<path class="st3" d="M53.8,26C53.8,26.1,53.8,26.1,53.8,26l-7.4,0.2v-0.1c0-0.3,1.6-0.5,3.7-0.6C52.2,25.5,53.8,25.7,53.8,26z"/>
	
		<rect x="49.2" y="3.7" transform="matrix(-0.9999 1.410670e-02 -1.410670e-02 -0.9999 101.8075 29.281)" class="st3" width="3.2" height="22.6"/>
	<path id="XMLID_2865_" class="st3" d="M47.1,2.7c0.5-2.9,1.1-5.7,1.6-8.5c0.1-0.3,0.3-0.5,0.5-0.5c0.3,0,0.5,0,0.8,0
		s0.5,0.2,0.5,0.4c0.7,2.8,1.3,5.7,2,8.5C50.7,2.5,48.9,2.5,47.1,2.7z"/>
	<path id="XMLID_2864_" class="st3" d="M46.2,3.4c0,0.6,0,1.3,0,1.9c0,0,1.6-0.6,4-0.6c2.3,0,3.3,0.5,3.3,0.5c0-0.6,0-1.3,0-1.9
		c0-0.3-0.2-0.6-0.6-0.7c-0.7-0.1-1.9-0.2-3.3-0.2c-1.3,0-2.4,0.2-2.9,0.3C46.4,2.8,46.2,3.1,46.2,3.4z"/>
	<g>
		<path class="st2" d="M53,2.7c-0.1,0-0.3-0.1-0.4-0.1c-0.7-2.8-1.3-5.7-2-8.5c-0.1-0.2-0.3-0.4-0.6-0.4l0,0c0.3,3,0.6,5.9,1,8.9
			c0.4,0,0.8,0,1.2,0v2.5c0.4,0.1,0.9,0.3,1.3,0.5c0-0.7,0-1.5,0-2.2C53.5,3,53.3,2.7,53,2.7z"/>
		<path class="st2" d="M47.1,2.7c-0.1,0-0.3,0-0.4,0c-0.3,0.1-0.5,0.4-0.5,0.7c0,0.7,0,1.3,0,2c0,0,0.4-0.5,2.7-0.6V2.6
			c0.2,0,0.5,0,0.7,0l-0.1-8.9c-0.1,0-0.2,0-0.3,0c-0.3,0-0.5,0.2-0.5,0.4C48.2-3,47.6-0.2,47.1,2.7z"/>
	</g>
	<path class="st4" d="M53.9,23.7L53.6,5c0,0-1.2-0.6-3.8-0.5C47.2,4.5,46,5,46,5l0.3,18.9c1.2-0.3,2.5-0.5,3.9-0.5
		C51.5,23.3,52.7,23.4,53.9,23.7z"/>
	<path class="st5" d="M50.3,23.3L49.9,4.4c-2.6,0-3.8,0.5-3.8,0.5l0.3,18.9C47.6,23.5,48.9,23.4,50.3,23.3
		C50.2,23.3,50.3,23.3,50.3,23.3z"/>
	<g>
		<g id="XMLID_2846_">
			<path id="XMLID_2851_" class="st6" d="M48.8,8.8c0.8,0,1.4-0.3,2-0.6c0.7-0.3,1.5-0.7,2.4-0.5c0.1,0,0.3,0.1,0.4,0.1
				c0-0.4,0-0.8,0-1.1c0,0-1.2-0.5-3.8-0.4c-2.7,0-3.8,0.5-3.8,0.5c0,0.4,0,0.8,0,1.2c0.1,0.1,0.3,0.2,0.4,0.3
				C46.5,8.2,47.4,8.9,48.8,8.8z"/>
			<path id="XMLID_2850_" class="st6" d="M51.5,9.5c-0.7,0.3-1.6,0.7-2.7,0.8c-1.2,0.1-2.1-0.3-2.7-0.4c0,0.7,0,1.4,0,2.2
				c1.2-0.5,2.5-0.4,3.8-0.4s2.6-0.1,3.8,0.3c0-0.9,0-1.8,0-2.7c-0.1-0.1-0.3-0.1-0.4-0.1C52.7,9,52.1,9.3,51.5,9.5z"/>
		</g>
		<path class="st7" d="M53.3,7.7c0.1,0,0.3,0.1,0.4,0.1c0-0.4,0-0.8,0-1.1c0,0-1.1-0.5-3.8-0.4c0,0.8,0,1.6,0,2.4
			c0.3-0.1,0.6-0.3,0.9-0.4C51.5,7.9,52.3,7.5,53.3,7.7z"/>
		<path class="st7" d="M53.7,9.3c-0.1-0.1-0.3-0.1-0.4-0.1c-0.6-0.1-1.2,0.1-1.8,0.4c-0.5,0.2-1,0.4-1.5,0.6c0,0.5,0,1,0,1.5
			c1.3,0,2.6-0.1,3.8,0.3C53.8,11.1,53.8,10.2,53.7,9.3z"/>
	</g>
</g>
</svg>
